<svg width="29" height="28" viewBox="0 0 29 28" fill="none" xmlns="http://www.w3.org/2000/svg">
<g filter="url(#filter0_d_1618_8205)">
<path d="M15.3302 13.6449C16.3031 10.6468 19.4833 8.90978 22.553 9.75741L22.9022 8.48894C20.0772 7.70996 17.1761 8.72324 15.4078 10.8364C15.9718 8.14571 18.361 6.11915 21.2173 6.11915V4.80442C18.2969 4.80442 15.7749 6.54147 14.6273 9.03662C13.4827 6.5355 10.9577 4.79248 8.03274 4.79248V6.10721C10.898 6.10721 13.2961 8.1487 13.8483 10.8543C12.0814 8.72921 9.17137 7.70846 6.33896 8.48894L6.68816 9.75741C9.75785 8.91127 12.9395 10.6483 13.911 13.6479C11.2248 11.7138 7.4582 11.8168 4.875 14.0986L5.74651 15.0835C8.14018 12.9689 11.7755 13.139 13.9647 15.4282V24.0001H15.2794V15.4207C16.3136 14.3418 17.694 13.6986 19.1952 13.6061C20.7771 13.5076 22.3037 14.0329 23.4916 15.082L24.3631 14.0971C21.7814 11.8153 18.0178 11.7123 15.3316 13.6434L15.3302 13.6449Z" fill="#5CB070"/>
<path d="M15.3302 13.6449C16.3031 10.6468 19.4833 8.90978 22.553 9.75741L22.9022 8.48894C20.0772 7.70996 17.1761 8.72324 15.4078 10.8364C15.9718 8.14571 18.361 6.11915 21.2173 6.11915V4.80442C18.2969 4.80442 15.7749 6.54147 14.6273 9.03662C13.4827 6.5355 10.9577 4.79248 8.03274 4.79248V6.10721C10.898 6.10721 13.2961 8.1487 13.8483 10.8543C12.0814 8.72921 9.17137 7.70846 6.33896 8.48894L6.68816 9.75741C9.75785 8.91127 12.9395 10.6483 13.911 13.6479C11.2248 11.7138 7.4582 11.8168 4.875 14.0986L5.74651 15.0835C8.14018 12.9689 11.7755 13.139 13.9647 15.4282V24.0001H15.2794V15.4207C16.3136 14.3418 17.694 13.6986 19.1952 13.6061C20.7771 13.5076 22.3037 14.0329 23.4916 15.082L24.3631 14.0971C21.7814 11.8153 18.0178 11.7123 15.3316 13.6434L15.3302 13.6449Z" stroke="#5CB070" stroke-width="0.298463" stroke-miterlimit="10"/>
</g>
<path d="M14.649 6.33696C15.2943 6.33696 15.8174 5.81382 15.8174 5.16848C15.8174 4.52315 15.2943 4 14.649 4C14.0036 4 13.4805 4.52315 13.4805 5.16848C13.4805 5.81382 14.0036 6.33696 14.649 6.33696Z" fill="#5CB070" stroke="#5CB070" stroke-width="0.298463" stroke-miterlimit="10"/>
<defs>
<filter id="filter0_d_1618_8205" x="0.664062" y="0.643066" width="27.9102" height="27.5063" filterUnits="userSpaceOnUse" color-interpolation-filters="sRGB">
<feFlood flood-opacity="0" result="BackgroundImageFix"/>
<feColorMatrix in="SourceAlpha" type="matrix" values="0 0 0 0 0 0 0 0 0 0 0 0 0 0 0 0 0 0 127 0" result="hardAlpha"/>
<feOffset/>
<feGaussianBlur stdDeviation="2"/>
<feComposite in2="hardAlpha" operator="out"/>
<feColorMatrix type="matrix" values="0 0 0 0 0.360784 0 0 0 0 0.690196 0 0 0 0 0.439216 0 0 0 1 0"/>
<feBlend mode="normal" in2="BackgroundImageFix" result="effect1_dropShadow_1618_8205"/>
<feBlend mode="normal" in="SourceGraphic" in2="effect1_dropShadow_1618_8205" result="shape"/>
</filter>
</defs>
</svg>
