<svg width="59" height="59" viewBox="0 0 59 59" fill="none" xmlns="http://www.w3.org/2000/svg">
<g clip-path="url(#clip0_1577_283418)">
<path d="M29.0004 56.075C41.4961 56.075 51.6258 45.9453 51.6258 33.4496C51.6258 20.954 41.4961 10.8242 29.0004 10.8242C16.5047 10.8242 6.375 20.954 6.375 33.4496C6.375 45.9453 16.5047 56.075 29.0004 56.075Z" fill="url(#paint0_linear_1577_283418)"/>
<path d="M44.9306 21.5483C44.1542 20.978 43.331 20.4549 42.4684 19.9799C41.9933 19.1171 41.4702 18.294 40.8999 17.5176C37.7329 13.2063 33.5065 10.832 28.9995 10.832C24.4924 10.832 20.266 13.2063 17.099 17.5176C16.5287 18.294 16.0057 19.1172 15.5307 19.9799C14.6679 20.4549 13.8447 20.9779 13.0684 21.5483C8.75712 24.7153 6.38281 28.9416 6.38281 33.4487C6.38281 37.9558 8.75712 42.1821 13.0684 45.3491C13.8447 45.9195 14.668 46.4425 15.5307 46.9175C16.0057 47.7802 16.5287 48.6034 17.099 49.3798C20.2661 53.691 24.4924 56.0653 28.9995 56.0653C33.5065 56.0653 37.7329 53.691 40.8999 49.3798C41.4702 48.6034 41.9933 47.7802 42.4684 46.9174C43.331 46.4424 44.1543 45.9194 44.9306 45.349C49.2418 42.1821 51.6161 37.9557 51.6161 33.4486C51.6161 28.9415 49.2418 24.7153 44.9306 21.5483ZM28.9995 55.0007C27.7574 55.0007 26.4409 53.1504 25.4 49.9933C26.5797 50.1321 27.7822 50.204 28.9995 50.204C30.2168 50.204 31.4192 50.1321 32.5989 49.9933C31.5581 53.1505 30.2415 55.0007 28.9995 55.0007ZM28.9995 49.1393C27.6538 49.1393 26.3369 49.0482 25.0588 48.8755C24.3495 46.3676 23.8345 43.3569 23.5398 40.07C25.3041 40.1961 27.1346 40.2611 28.9995 40.2611C30.8643 40.2611 32.6948 40.1961 34.4591 40.07C34.1646 43.3569 33.6495 46.3675 32.9403 48.8755C31.6622 49.0482 30.3453 49.1393 28.9995 49.1393ZM28.9995 11.8968C30.2415 11.8968 31.5581 13.747 32.5989 16.9041C31.4192 16.7653 30.2168 16.6934 28.9995 16.6934C27.7822 16.6934 26.5797 16.7653 25.4 16.9041C26.4409 13.7469 27.7574 11.8968 28.9995 11.8968ZM28.9995 17.7581C30.3453 17.7581 31.6622 17.8493 32.9403 18.022C33.6495 20.53 34.1646 23.5405 34.4591 26.8275C32.6948 26.7014 30.8643 26.6364 28.9995 26.6364C27.1346 26.6364 25.3042 26.7014 23.5398 26.8275C23.8344 23.5405 24.3494 20.53 25.0588 18.022C26.3369 17.8493 27.6538 17.7581 28.9995 17.7581ZM23.2517 33.4487C23.2517 31.5503 23.3201 29.69 23.4521 27.9013C25.2408 27.7693 27.101 27.7009 28.9995 27.7009C30.8978 27.7009 32.7582 27.7693 34.5469 27.9013C34.6788 29.69 34.7472 31.5502 34.7472 33.4487C34.7472 35.3471 34.6788 37.2074 34.5469 38.996C32.7582 39.1279 30.8978 39.1964 28.9995 39.1964C27.1011 39.1964 25.2408 39.1279 23.4521 38.996C23.3201 37.2075 23.2517 35.3471 23.2517 33.4487ZM22.3782 38.9084C19.0912 38.6138 16.0806 38.0988 13.5726 37.3894C13.4 36.1113 13.3088 34.7944 13.3088 33.4487C13.3088 32.103 13.3999 30.7861 13.5726 29.508C16.0806 28.7987 19.0912 28.2837 22.3782 27.989C22.2521 29.7533 22.187 31.5838 22.187 33.4487C22.187 35.3135 22.252 37.144 22.3782 38.9084ZM35.6208 27.9891C38.9078 28.2837 41.9183 28.7987 44.4264 29.5081C44.599 30.7862 44.6902 32.1031 44.6902 33.4488C44.6902 34.7945 44.5991 36.1114 44.4264 37.3895C41.9183 38.0989 38.9078 38.6138 35.6208 38.9085C35.747 37.1441 35.812 35.3136 35.812 33.4488C35.812 31.5838 35.747 29.7534 35.6208 27.9891ZM35.5355 26.9128C35.2551 23.6909 34.7663 20.72 34.0936 18.2021C36.8701 18.6939 39.4376 19.578 41.679 20.7693C42.8702 23.0107 43.7544 25.5781 44.2462 28.3546C41.7282 27.6819 38.7573 27.1932 35.5355 26.9128ZM22.4635 26.9128C19.2416 27.1932 16.2707 27.6819 13.7528 28.3546C14.2446 25.5781 15.1287 23.0107 16.3199 20.7693C18.5614 19.578 21.1288 18.6939 23.9053 18.2021C23.2326 20.72 22.7439 23.6909 22.4635 26.9128ZM12.4548 37.0481C9.29773 36.0073 7.44747 34.6908 7.44747 33.4487C7.44747 32.2066 9.29764 30.8901 12.4548 29.8493C12.3161 31.0289 12.2441 32.2314 12.2441 33.4487C12.2441 34.666 12.3161 35.8685 12.4548 37.0481ZM22.4635 39.9847C22.7438 43.2065 23.2326 46.1774 23.9053 48.6954C21.1288 48.2036 18.5614 47.3195 16.3199 46.1282C15.1287 43.8868 14.2446 41.3194 13.7528 38.5429C16.2708 39.2156 19.2417 39.7043 22.4635 39.9847ZM35.5355 39.9847C38.7573 39.7043 41.7282 39.2156 44.2462 38.5429C43.7544 41.3194 42.8702 43.8868 41.679 46.1282C39.4376 47.3196 36.8702 48.2036 34.0936 48.6954C34.7663 46.1774 35.2551 43.2064 35.5355 39.9847ZM45.5441 29.8493C48.7012 30.8902 50.5514 32.2066 50.5514 33.4488C50.5514 34.6909 48.7012 36.0074 45.5441 37.0482C45.6829 35.8685 45.7548 34.6661 45.7548 33.4488C45.7549 32.2314 45.683 31.029 45.5441 29.8493ZM50.3 31.0509C49.2582 30.1626 47.6068 29.364 45.3834 28.6807C44.9962 26.2291 44.3108 23.8935 43.3515 21.7542C46.9918 24.1245 49.5234 27.3796 50.3 31.0509ZM40.6942 19.0968C38.5549 18.1374 36.2191 17.4521 33.7676 17.0648C33.0843 14.8413 32.2857 13.1899 31.3973 12.1481C35.0686 12.9247 38.3237 15.4564 40.6942 19.0968ZM26.6017 12.1482C25.7134 13.19 24.9148 14.8413 24.2315 17.0649C21.7799 17.4521 19.4442 18.1374 17.3049 19.0968C19.6752 15.4564 22.9303 12.9247 26.6017 12.1482ZM14.6475 21.7541C13.6882 23.8934 13.0028 26.2291 12.6156 28.6807C10.392 29.364 8.74065 30.1626 7.69886 31.0509C8.47542 27.3796 11.0072 24.1245 14.6475 21.7541ZM7.69886 35.8465C8.74065 36.7349 10.392 37.5335 12.6156 38.2168C13.0028 40.6684 13.6882 43.0041 14.6475 45.1434C11.0072 42.7729 8.47542 39.5179 7.69886 35.8465ZM17.3048 47.8007C19.4441 48.76 21.7798 49.4454 24.2314 49.8326C24.9147 52.0561 25.7133 53.7075 26.6016 54.7493C22.9303 53.9727 19.6752 51.441 17.3048 47.8007ZM31.3972 54.7493C32.2856 53.7075 33.0842 52.0561 33.7675 49.8326C36.219 49.4454 38.5548 48.7599 40.6941 47.8007C38.3237 51.441 35.0686 53.9727 31.3972 54.7493ZM43.3515 45.1434C44.3108 43.0041 44.9962 40.6684 45.3834 38.2169C47.6069 37.5336 49.2583 36.735 50.3 35.8466C49.5234 39.5179 46.9918 42.7729 43.3515 45.1434Z" fill="url(#paint1_linear_1577_283418)"/>
<path d="M21.2201 12.1982C15.5554 14.2732 10.9521 18.5486 8.44433 23.9893C8.14711 24.6341 8 25.3379 8 26.0479C8 27.3704 8.52536 28.6386 9.46042 29.5738L9.92282 30.0362C11.9951 32.1085 14.8056 33.2726 17.7363 33.2726C18.1741 33.2726 18.529 32.9177 18.529 32.4799C18.529 32.0421 18.1741 31.6872 17.7363 31.6872H15.2995C14.1756 31.6872 13.2645 30.7761 13.2645 29.6522C13.2645 28.5283 14.1755 27.6172 15.2995 27.6172H17.2027C19.4849 27.6172 21.6736 26.7106 23.2872 25.0969L26.2259 22.1582C26.8658 21.5183 27.7337 21.1588 28.6387 21.1588C29.9479 21.1588 31.1416 20.4098 31.7111 19.231C32.409 17.7863 31.3565 16.1088 29.7521 16.1088H25.9606C24.8458 16.1088 23.9421 15.2052 23.9421 14.0904C23.942 12.6837 22.5412 11.7144 21.2201 12.1982Z" fill="url(#paint2_linear_1577_283418)"/>
<path d="M51.1005 28.5736C50.788 27.1508 49.5158 26.1445 48.0592 26.1445H44.8698H43.1648C40.2671 26.1445 37.918 28.4936 37.918 31.3914V32.0298C37.918 34.575 39.9813 36.6384 42.5265 36.6384C43.8207 36.6384 44.8698 37.6875 44.8698 38.9816V45.1006C44.8698 46.6951 46.9402 47.3303 47.8263 46.0047C49.6678 43.2499 50.9205 40.0675 51.4046 36.6384C51.5509 35.5967 51.6272 34.5311 51.6272 33.4486C51.6271 31.7747 51.4452 30.1437 51.1005 28.5736Z" fill="url(#paint3_linear_1577_283418)"/>
<path d="M39.122 13.2109C40.648 16.2565 41.5082 19.6936 41.5082 23.332C41.5082 35.8276 31.3785 45.9574 18.8828 45.9574C15.2444 45.9574 11.8073 45.0972 8.76172 43.5712C12.4765 50.9852 20.1437 56.0756 29.001 56.0756C41.4966 56.0756 51.6264 45.9459 51.6264 33.4502C51.6264 24.593 46.536 16.9258 39.122 13.2109Z" fill="url(#paint4_linear_1577_283418)"/>
<path d="M40.4208 24.0991C39.2864 22.9647 36.4664 23.9028 31.0979 28.917L27.9607 28.5304L26.9473 27.4849C26.4056 26.9432 25.5275 26.9432 24.9859 27.4849C24.8563 27.6144 24.7592 27.7635 24.692 27.9223L23.8851 27.1106C23.3435 26.5689 22.4654 26.5689 21.9237 27.1106C21.7426 27.2917 21.6235 27.5108 21.5635 27.7421L20.3501 27.5925C20.0608 27.5569 19.7287 27.6892 19.4778 27.9402L17.401 30.017C17.1818 30.2362 17.1828 30.552 17.4032 30.6468L23.6531 36.7544C21.831 38.8741 20.1662 40.9702 18.888 42.7766L15.7766 42.3543C15.6516 42.3374 15.5073 42.3941 15.3983 42.5031L14.4291 43.4723C14.2419 43.6595 14.2252 43.9279 14.3939 44.0363L16.7306 46.3037C16.3383 47.1618 16.2302 47.7697 16.4902 48.0297L23.9727 55.5122C25.59 55.8792 27.2728 56.0739 29.0013 56.0739C40.8956 56.0739 50.6457 46.8955 51.5567 35.2351L40.4208 24.0991Z" fill="url(#paint5_linear_1577_283418)"/>
<path d="M22.9025 29.4789C23.6685 29.4789 24.2895 28.858 24.2895 28.092C24.2895 27.326 23.6685 26.7051 22.9025 26.7051C22.1366 26.7051 21.5156 27.326 21.5156 28.092C21.5156 28.858 22.1366 29.4789 22.9025 29.4789Z" fill="url(#paint6_linear_1577_283418)"/>
<path d="M22.9036 29.2507C23.5429 29.2507 24.0612 28.7324 24.0612 28.0931C24.0612 27.4538 23.5429 26.9355 22.9036 26.9355C22.2643 26.9355 21.7461 27.4538 21.7461 28.0931C21.7461 28.7324 22.2643 29.2507 22.9036 29.2507Z" fill="url(#paint7_linear_1577_283418)"/>
<path d="M24.2184 27.6543C24.1525 27.8524 24.0408 28.0387 23.8832 28.1964C23.3415 28.7381 22.4634 28.7381 21.9218 28.1964C21.764 28.0387 21.6524 27.8524 21.5865 27.6543C21.4261 28.1366 21.5379 28.6897 21.9218 29.0736C22.4634 29.6152 23.3415 29.6152 23.8832 29.0736C24.2671 28.6897 24.3788 28.1367 24.2184 27.6543Z" fill="url(#paint8_linear_1577_283418)"/>
<path d="M22.9025 29.4789C23.6685 29.4789 24.2895 28.858 24.2895 28.092C24.2895 27.326 23.6685 26.7051 22.9025 26.7051C22.1366 26.7051 21.5156 27.326 21.5156 28.092C21.5156 28.858 22.1366 29.4789 22.9025 29.4789Z" fill="url(#paint9_linear_1577_283418)"/>
<path d="M26.9458 29.4477C26.4041 29.9894 25.526 29.9894 24.9844 29.4477C24.4427 28.9061 24.4427 28.028 24.9844 27.4863C25.526 26.9447 26.4041 26.9447 26.9458 27.4863C27.4873 28.028 27.4873 28.9062 26.9458 29.4477Z" fill="url(#paint10_linear_1577_283418)"/>
<path d="M25.9661 29.6237C26.6054 29.6237 27.1237 29.1054 27.1237 28.4661C27.1237 27.8268 26.6054 27.3086 25.9661 27.3086C25.3268 27.3086 24.8086 27.8268 24.8086 28.4661C24.8086 29.1054 25.3268 29.6237 25.9661 29.6237Z" fill="url(#paint11_linear_1577_283418)"/>
<path d="M27.2809 28.0273C27.215 28.2255 27.1033 28.4117 26.9457 28.5695C26.404 29.1111 25.5259 29.1111 24.9843 28.5695C24.8265 28.4117 24.7149 28.2255 24.649 28.0273C24.4886 28.5097 24.6004 29.0627 24.9843 29.4466C25.5259 29.9883 26.404 29.9883 26.9457 29.4466C27.3296 29.0626 27.4413 28.5097 27.2809 28.0273Z" fill="url(#paint12_linear_1577_283418)"/>
<path d="M26.9458 29.4477C26.4041 29.9894 25.526 29.9894 24.9844 29.4477C24.4427 28.9061 24.4427 28.028 24.9844 27.4863C25.526 26.9447 26.4041 26.9447 26.9458 27.4863C27.4873 28.028 27.4873 28.9062 26.9458 29.4477Z" fill="url(#paint13_linear_1577_283418)"/>
<path d="M36.426 43.0043C37.192 43.0043 37.8129 42.3834 37.8129 41.6174C37.8129 40.8514 37.192 40.2305 36.426 40.2305C35.66 40.2305 35.0391 40.8514 35.0391 41.6174C35.0391 42.3834 35.66 43.0043 36.426 43.0043Z" fill="url(#paint14_linear_1577_283418)"/>
<path d="M36.4271 42.7741C37.0664 42.7741 37.5846 42.2558 37.5846 41.6165C37.5846 40.9772 37.0664 40.459 36.4271 40.459C35.7878 40.459 35.2695 40.9772 35.2695 41.6165C35.2695 42.2558 35.7878 42.7741 36.4271 42.7741Z" fill="url(#paint15_linear_1577_283418)"/>
<path d="M36.8646 40.3013C36.6665 40.3672 36.4802 40.4789 36.3225 40.6366C35.7808 41.1782 35.7808 42.0563 36.3225 42.598C36.4802 42.7557 36.6665 42.8673 36.8646 42.9332C36.3822 43.0936 35.8292 42.9819 35.4453 42.598C34.9037 42.0563 34.9037 41.1782 35.4453 40.6366C35.8292 40.2527 36.3821 40.141 36.8646 40.3013Z" fill="url(#paint16_linear_1577_283418)"/>
<path d="M36.426 43.0043C37.192 43.0043 37.8129 42.3834 37.8129 41.6174C37.8129 40.8514 37.192 40.2305 36.426 40.2305C35.66 40.2305 35.0391 40.8514 35.0391 41.6174C35.0391 42.3834 35.66 43.0043 36.426 43.0043Z" fill="url(#paint17_linear_1577_283418)"/>
<path d="M35.0703 37.5723C34.5287 38.1139 34.5287 38.992 35.0703 39.5337C35.6119 40.0753 36.4901 40.0753 37.0317 39.5337C37.5734 38.992 37.5734 38.1139 37.0317 37.5723C36.4901 37.0306 35.6119 37.0306 35.0703 37.5723Z" fill="url(#paint18_linear_1577_283418)"/>
<path d="M36.0521 39.7116C36.6914 39.7116 37.2096 39.1933 37.2096 38.554C37.2096 37.9147 36.6914 37.3965 36.0521 37.3965C35.4128 37.3965 34.8945 37.9147 34.8945 38.554C34.8945 39.1933 35.4128 39.7116 36.0521 39.7116Z" fill="url(#paint19_linear_1577_283418)"/>
<path d="M36.4896 37.2388C36.2915 37.3047 36.1052 37.4164 35.9475 37.5741C35.4058 38.1157 35.4058 38.9938 35.9475 39.5355C36.1052 39.6932 36.2915 39.8048 36.4896 39.8707C36.0072 40.0311 35.4542 39.9194 35.0703 39.5355C34.5287 38.9938 34.5287 38.1157 35.0703 37.5741C35.4542 37.1902 36.0071 37.0785 36.4896 37.2388Z" fill="url(#paint20_linear_1577_283418)"/>
<path d="M35.0703 37.5723C34.5287 38.1139 34.5287 38.992 35.0703 39.5337C35.6119 40.0753 36.4901 40.0753 37.0317 39.5337C37.5734 38.992 37.5734 38.1139 37.0317 37.5723C36.4901 37.0306 35.6119 37.0306 35.0703 37.5723Z" fill="url(#paint21_linear_1577_283418)"/>
<path d="M14.3939 44.0364L17.3667 45.9464L20.3394 42.9737L15.7766 42.3545C15.6516 42.3376 15.5072 42.3943 15.3982 42.5033L14.429 43.4725C14.2419 43.6596 14.2252 43.928 14.3939 44.0364Z" fill="url(#paint22_linear_1577_283418)"/>
<path d="M14.7189 43.183L14.4291 43.4729C14.2419 43.66 14.2252 43.9284 14.3939 44.0368L17.3667 45.9469L19.6601 43.6535L15.0973 43.0342C14.9723 43.0173 14.8279 43.0741 14.7189 43.183Z" fill="url(#paint23_linear_1577_283418)"/>
<path d="M20.4803 50.1271L18.5703 47.1543L21.543 44.1816L22.1622 48.7445C22.1792 48.8695 22.1224 49.0139 22.0135 49.1228L21.0443 50.092C20.8571 50.2791 20.5888 50.2958 20.4803 50.1271Z" fill="url(#paint24_linear_1577_283418)"/>
<path d="M21.3342 49.8006L21.0443 50.0904C20.8572 50.2775 20.5888 50.2943 20.4803 50.1255L18.5703 47.1527L20.8637 44.8594L21.4829 49.4222C21.4999 49.5472 21.4431 49.6917 21.3342 49.8006Z" fill="url(#paint25_linear_1577_283418)"/>
<path d="M17.4002 30.6478L26.8602 34.7248L32.4944 29.0906L20.3471 27.5936C20.0578 27.558 19.7258 27.6903 19.4748 27.9413L17.398 30.0181C17.1789 30.2371 17.18 30.5529 17.4002 30.6478Z" fill="url(#paint26_linear_1577_283418)"/>
<path d="M18.1364 29.2791L17.3981 30.0174C17.1789 30.2366 17.18 30.5523 17.4003 30.6472L26.8602 34.7242L31.156 30.4285L19.0087 28.9315C18.7193 28.8958 18.3874 29.0281 18.1364 29.2791Z" fill="url(#paint27_linear_1577_283418)"/>
<path d="M23.5427 29.4903L19.0087 28.9315C18.7193 28.8959 18.3874 29.0282 18.1364 29.2792L17.3981 30.0175C17.1789 30.2367 17.18 30.5524 17.4003 30.6473L20.8842 32.1487L23.5427 29.4903Z" fill="url(#paint28_linear_1577_283418)"/>
<path d="M17.4002 30.6473L26.8602 34.7243L28.7977 32.7868L18.3101 29.1055L17.3981 30.0175C17.1789 30.2366 17.18 30.5523 17.4002 30.6473Z" fill="url(#paint29_linear_1577_283418)"/>
<path d="M33.8699 47.1177L29.793 37.6577L35.4272 32.0234L36.9242 44.1707C36.9598 44.46 36.8275 44.7921 36.5765 45.043L34.4998 47.1197C34.2806 47.3389 33.9648 47.3379 33.8699 47.1177Z" fill="url(#paint30_linear_1577_283418)"/>
<path d="M35.238 46.3809L34.4997 47.1192C34.2805 47.3384 33.9647 47.3373 33.8699 47.117L29.793 37.657L34.0887 33.3613L35.5856 45.5086C35.6213 45.7979 35.489 46.1299 35.238 46.3809Z" fill="url(#paint31_linear_1577_283418)"/>
<path d="M35.0295 40.9746L35.5883 45.5086C35.624 45.798 35.4917 46.1299 35.2406 46.3809L34.5024 47.1192C34.2832 47.3384 33.9674 47.3373 33.8726 47.117L32.3711 43.6331L35.0295 40.9746Z" fill="url(#paint32_linear_1577_283418)"/>
<path d="M33.8699 47.1182L29.793 37.6582L31.7305 35.7207L35.4117 46.2083L34.4997 47.1203C34.2806 47.3394 33.9648 47.3384 33.8699 47.1182Z" fill="url(#paint33_linear_1577_283418)"/>
<path d="M33.7748 35.3097C27.1666 41.9179 17.7502 49.2903 16.4896 48.0297C15.229 46.7691 22.6014 37.3528 29.2096 30.7446C35.8178 24.1364 39.1594 22.8386 40.4201 24.0992C41.6808 25.3599 40.3831 28.7015 33.7748 35.3097Z" fill="url(#paint34_linear_1577_283418)"/>
<path d="M33.2839 35.1165C26.9983 41.4021 18.1448 48.5175 17.0728 47.4454C16.0008 46.3733 23.1162 37.5198 29.4016 31.2343C35.6872 24.9487 38.7627 23.6114 39.8347 24.6834C40.9068 25.7555 39.5694 28.831 33.2839 35.1165Z" fill="url(#paint35_linear_1577_283418)"/>
<path d="M33.7735 35.3101C40.3816 28.7018 41.6794 25.3602 40.4188 24.0996L16.4883 48.0302C17.749 49.2908 27.1653 41.9183 33.7735 35.3101Z" fill="url(#paint36_linear_1577_283418)"/>
<path d="M34.7917 26.5508C34.387 26.9031 33.9623 27.2825 33.5169 27.6902C33.403 27.7944 33.4134 27.9562 33.5366 27.9784C34.2985 28.1157 34.9863 28.4494 35.5283 28.9914C36.0703 29.5334 36.4041 30.2214 36.5413 30.9831C36.5635 31.1063 36.7253 31.1167 36.8296 31.0028C37.2372 30.5574 37.6166 30.1328 37.969 29.7281C38.2088 29.4526 38.3121 29.1061 38.2345 28.8263C38.0647 28.2152 37.7574 27.6638 37.3067 27.2131C36.8558 26.7622 36.3044 26.455 35.6934 26.2853C35.4137 26.2075 35.0671 26.3109 34.7917 26.5508Z" fill="url(#paint37_linear_1577_283418)"/>
<path d="M37.9668 29.729C37.6572 30.0857 37.3259 30.4574 36.9729 30.8452C36.9249 30.8979 36.877 30.9506 36.828 31.0043C36.7235 31.1182 36.5617 31.1078 36.5391 30.9845C36.4026 30.2222 36.0685 29.5342 35.5264 28.992C35.4944 28.96 35.4624 28.929 35.4294 28.8998C35.0445 28.5431 34.5927 28.2852 34.0977 28.1214C34.5428 27.7158 34.9654 27.3374 35.3692 26.9864C35.645 26.7464 35.9913 26.6429 36.2708 26.721C36.6031 26.8132 36.9174 26.9459 37.2082 27.121C37.2412 27.1511 37.2732 27.1822 37.3052 27.2142C37.756 27.665 38.0628 28.2165 38.2322 28.8273C38.3104 29.1069 38.2068 29.4532 37.9668 29.729Z" fill="url(#paint38_linear_1577_283418)"/>
<path d="M36.5403 30.9849C36.5625 31.1081 36.7243 31.1185 36.8286 31.0046C37.2362 30.5592 37.6156 30.1346 37.968 29.7299C38.2078 29.4544 38.3112 29.1078 38.2335 28.8281C38.0637 28.217 37.7564 27.6656 37.3057 27.2148L35.5273 28.9932C36.0694 29.5352 36.4031 30.2231 36.5403 30.9849Z" fill="url(#paint39_linear_1577_283418)"/>
<path d="M18.7084 46.0097L18.5095 45.8108C18.3432 45.6445 18.4003 45.3248 18.6336 45.1159L22.0684 42.0411C22.2193 41.9061 22.4193 41.8847 22.5268 41.9924C22.6344 42.0999 22.6131 42.2999 22.478 42.4508L19.4032 45.8856C19.1944 46.1189 18.8747 46.176 18.7084 46.0097Z" fill="url(#paint40_linear_1577_283418)"/>
<path d="M6.63244 53.0363C6.43498 53.0363 6.24495 53.0243 6.06378 53.0004C5.809 52.9668 5.64204 52.7169 5.71074 52.4692L5.89916 51.7891C5.95356 51.5929 6.14011 51.4627 6.34274 51.4825C6.72335 51.5198 7.19545 51.4787 7.73785 51.3601C7.95714 51.3121 8.17587 51.4451 8.23422 51.6618L8.41578 52.3361C8.47855 52.5693 8.3322 52.8056 8.09634 52.858C7.56354 52.9764 7.07262 53.0363 6.63244 53.0363ZM10.0098 51.7962L9.74858 51.1496C9.66274 50.937 9.76222 50.6959 9.97277 50.6052C10.4462 50.4015 10.9474 50.1633 11.4701 49.8937C11.6747 49.7882 11.9266 49.8663 12.035 50.0695L12.3631 50.6848C12.4738 50.8923 12.3925 51.1506 12.1835 51.2584C11.6206 51.5489 11.079 51.806 10.5656 52.0265C10.3489 52.1197 10.0982 52.0152 10.0098 51.7962ZM4.30415 51.2569C4.06556 51.358 3.79121 51.2226 3.73013 50.9707C3.66029 50.6822 3.625 50.3672 3.625 50.0289C3.625 49.6729 3.66406 49.2834 3.74152 48.8666C3.78566 48.6289 4.01898 48.4753 4.25418 48.5312L4.93333 48.6927C5.15027 48.7443 5.29013 48.9568 5.25022 49.1762C5.19356 49.4883 5.16495 49.7738 5.16495 50.0287C5.16495 50.206 5.17879 50.3677 5.20599 50.5125C5.24279 50.7081 5.14048 50.9025 4.95724 50.9801L4.30415 51.2569ZM13.8083 49.8711L13.453 49.2712C13.3354 49.0727 13.3987 48.8166 13.596 48.6971C14.0613 48.4152 14.541 48.1127 15.029 47.7934C15.2223 47.6669 15.4817 47.7206 15.6097 47.9129L15.9959 48.4934C16.1258 48.6886 16.0709 48.9519 15.8748 49.0802C15.3696 49.4109 14.8724 49.7244 14.3897 50.0167C14.189 50.1383 13.928 50.0731 13.8083 49.8711ZM17.9495 47.6591C17.7589 47.7952 17.4941 47.751 17.3592 47.5596L17.9495 47.6591ZM5.40985 47.172L4.75902 46.9216C4.53841 46.8367 4.42971 46.5874 4.51978 46.3688C4.73248 45.8528 4.98359 45.3069 5.26989 44.7382C5.37568 44.5281 5.63338 44.4442 5.84204 44.5531L6.46029 44.8755C6.66434 44.982 6.74481 45.2329 6.64138 45.4385C6.377 45.9639 6.14566 46.4663 5.95008 46.9394C5.86265 47.1511 5.62349 47.2543 5.40985 47.172ZM7.24665 43.4524L6.64429 43.1012C6.44175 42.9832 6.37418 42.7229 6.49418 42.5216C6.49804 42.5152 6.50189 42.5087 6.50566 42.5023C6.62575 42.3011 6.8874 42.2361 7.0874 42.3582L7.6826 42.7214C7.87987 42.8418 7.94302 43.0988 7.82453 43.2973C7.82312 43.2997 7.82161 43.3021 7.8202 43.3045C7.70189 43.5029 7.44627 43.5687 7.24665 43.4524ZM41.1343 23.731L40.5631 23.3312C40.3736 23.1986 40.3262 22.9378 40.4575 22.7475C40.7875 22.2691 41.1036 21.7964 41.4017 21.3355C41.5271 21.1415 41.7855 21.0858 41.9805 21.2096L42.5691 21.5833C42.7669 21.709 42.8243 21.9715 42.6969 22.1683C42.3894 22.6438 42.0636 23.1311 41.7234 23.6241C41.5905 23.8169 41.3262 23.8653 41.1343 23.731ZM43.4316 20.17L42.8298 19.8179C42.6308 19.7014 42.5624 19.4461 42.6767 19.2459C42.9674 18.7363 43.2333 18.2422 43.4711 17.7697C43.5745 17.5643 43.8229 17.4805 44.03 17.5806L44.6579 17.884C44.8699 17.9865 44.9572 18.2421 44.8515 18.4526C44.5996 18.9535 44.3185 19.4762 44.0115 20.0141C43.8948 20.218 43.6343 20.2886 43.4316 20.17ZM45.3265 16.3541L44.6768 16.1011C44.4634 16.0179 44.357 15.7796 44.4341 15.5641C44.6317 15.0125 44.773 14.5083 44.8564 14.0576C44.8967 13.8402 45.0991 13.6925 45.3187 13.7181L46.0126 13.7992C46.2534 13.8274 46.4219 14.0522 46.3791 14.2908C46.2801 14.8421 46.1118 15.4492 45.8764 16.1043C45.7962 16.3272 45.547 16.4401 45.3265 16.3541ZM39.5885 12.3941L39.2999 11.7591C39.2025 11.5447 39.2998 11.2911 39.5161 11.1978C40.1236 10.936 40.6974 10.723 41.2299 10.5613C41.4594 10.4916 41.7008 10.6253 41.7617 10.8574L41.9386 11.5323C41.9957 11.7504 41.8718 11.9753 41.6562 12.0412C41.1887 12.184 40.681 12.3731 40.1393 12.6061C39.9285 12.6967 39.6834 12.603 39.5885 12.3941ZM45.1651 12.2863C44.9933 12.3523 44.7948 12.3022 44.6841 12.1552C44.6586 12.1212 44.631 12.0895 44.6014 12.0598C44.3736 11.8322 43.9973 11.7164 43.4828 11.7156H43.4683V10.1758V10.9458L43.4691 10.6175C43.4698 10.3696 43.6839 10.1732 43.9306 10.1984C44.6621 10.2729 45.2511 10.5319 45.6902 10.9709C45.8241 11.1046 45.9418 11.2539 46.0428 11.4172C46.1808 11.6404 46.078 11.9349 45.8331 12.0291L45.1651 12.2863Z" fill="url(#paint41_linear_1577_283418)"/>
<path d="M19.2058 17.8394C19.9322 17.8394 20.521 17.2506 20.521 16.5242C20.521 15.7978 19.9322 15.209 19.2058 15.209C18.4795 15.209 17.8906 15.7978 17.8906 16.5242C17.8906 17.2506 18.4795 17.8394 19.2058 17.8394Z" fill="url(#paint42_linear_1577_283418)"/>
<path d="M12.198 27.5757C12.9244 27.5757 13.5132 26.9869 13.5132 26.2605C13.5132 25.5341 12.9244 24.9453 12.198 24.9453C11.4716 24.9453 10.8828 25.5341 10.8828 26.2605C10.8828 26.9869 11.4716 27.5757 12.198 27.5757Z" fill="url(#paint43_linear_1577_283418)"/>
<path d="M48.0613 30.939C48.7877 30.939 49.3765 30.3502 49.3765 29.6238C49.3765 28.8974 48.7877 28.3086 48.0613 28.3086C47.3349 28.3086 46.7461 28.8974 46.7461 29.6238C46.7461 30.3502 47.3349 30.939 48.0613 30.939Z" fill="url(#paint44_linear_1577_283418)"/>
</g>
<defs>
<linearGradient id="paint0_linear_1577_283418" x1="18.0439" y1="22.4932" x2="45.4666" y2="49.9158" gradientUnits="userSpaceOnUse">
<stop stop-color="#00AEFC"/>
<stop offset="1" stop-color="#3F3CEE"/>
</linearGradient>
<linearGradient id="paint1_linear_1577_283418" x1="32.4575" y1="58.3584" x2="24.3164" y2="-0.285145" gradientUnits="userSpaceOnUse">
<stop stop-color="#00AEFC" stop-opacity="0"/>
<stop offset="1" stop-color="#18CFFC"/>
</linearGradient>
<linearGradient id="paint2_linear_1577_283418" x1="21.894" y1="24.3802" x2="57.5424" y2="49.6743" gradientUnits="userSpaceOnUse">
<stop stop-color="#E5F3FF"/>
<stop offset="1" stop-color="#B3CCFF"/>
</linearGradient>
<linearGradient id="paint3_linear_1577_283418" x1="41.3537" y1="35.3785" x2="57.3289" y2="38.189" gradientUnits="userSpaceOnUse">
<stop stop-color="#E5F3FF"/>
<stop offset="1" stop-color="#B3CCFF"/>
</linearGradient>
<linearGradient id="paint4_linear_1577_283418" x1="36.4717" y1="28.9784" x2="53.1022" y2="-3.51283" gradientUnits="userSpaceOnUse">
<stop stop-color="#3F3CEE" stop-opacity="0"/>
<stop offset="1" stop-color="#2F43BC"/>
</linearGradient>
<linearGradient id="paint5_linear_1577_283418" x1="38.8674" y1="46.4762" x2="27.3526" y2="34.9615" gradientUnits="userSpaceOnUse">
<stop stop-color="#3F3CEE" stop-opacity="0"/>
<stop offset="1" stop-color="#2F43BC"/>
</linearGradient>
<linearGradient id="paint6_linear_1577_283418" x1="22.9174" y1="27.3462" x2="22.9174" y2="29.8862" gradientUnits="userSpaceOnUse">
<stop stop-color="#F9F7FC"/>
<stop offset="1" stop-color="#F0DDFC"/>
</linearGradient>
<linearGradient id="paint7_linear_1577_283418" x1="22.9186" y1="28.7218" x2="22.9186" y2="26.947" gradientUnits="userSpaceOnUse">
<stop stop-color="#E9EDF5" stop-opacity="0"/>
<stop offset="1" stop-color="white"/>
</linearGradient>
<linearGradient id="paint8_linear_1577_283418" x1="22.5757" y1="28.4907" x2="26.4303" y2="27.3318" gradientUnits="userSpaceOnUse">
<stop stop-color="#F0DDFC" stop-opacity="0"/>
<stop offset="0.2889" stop-color="#C8B7E0" stop-opacity="0.289"/>
<stop offset="0.5915" stop-color="#A595C8" stop-opacity="0.592"/>
<stop offset="0.8395" stop-color="#8F81B8" stop-opacity="0.84"/>
<stop offset="1" stop-color="#8779B3"/>
</linearGradient>
<linearGradient id="paint9_linear_1577_283418" x1="23.0429" y1="27.3785" x2="22.8157" y2="28.6488" gradientUnits="userSpaceOnUse">
<stop stop-color="#F0DDFC" stop-opacity="0"/>
<stop offset="0.2889" stop-color="#C8B7E0" stop-opacity="0.289"/>
<stop offset="0.5915" stop-color="#A595C8" stop-opacity="0.592"/>
<stop offset="0.8395" stop-color="#8F81B8" stop-opacity="0.84"/>
<stop offset="1" stop-color="#8779B3"/>
</linearGradient>
<linearGradient id="paint10_linear_1577_283418" x1="25.9796" y1="27.7212" x2="25.9795" y2="30.2611" gradientUnits="userSpaceOnUse">
<stop stop-color="#F9F7FC"/>
<stop offset="1" stop-color="#F0DDFC"/>
</linearGradient>
<linearGradient id="paint11_linear_1577_283418" x1="25.9807" y1="29.0947" x2="25.9806" y2="27.32" gradientUnits="userSpaceOnUse">
<stop stop-color="#E9EDF5" stop-opacity="0"/>
<stop offset="1" stop-color="white"/>
</linearGradient>
<linearGradient id="paint12_linear_1577_283418" x1="25.6377" y1="28.8636" x2="29.4923" y2="27.7047" gradientUnits="userSpaceOnUse">
<stop stop-color="#F0DDFC" stop-opacity="0"/>
<stop offset="0.2889" stop-color="#C8B7E0" stop-opacity="0.289"/>
<stop offset="0.5915" stop-color="#A595C8" stop-opacity="0.592"/>
<stop offset="0.8395" stop-color="#8F81B8" stop-opacity="0.84"/>
<stop offset="1" stop-color="#8779B3"/>
</linearGradient>
<linearGradient id="paint13_linear_1577_283418" x1="26.105" y1="27.7535" x2="25.8778" y2="29.0238" gradientUnits="userSpaceOnUse">
<stop stop-color="#F0DDFC" stop-opacity="0"/>
<stop offset="0.2889" stop-color="#C8B7E0" stop-opacity="0.289"/>
<stop offset="0.5915" stop-color="#A595C8" stop-opacity="0.592"/>
<stop offset="0.8395" stop-color="#8F81B8" stop-opacity="0.84"/>
<stop offset="1" stop-color="#8779B3"/>
</linearGradient>
<linearGradient id="paint14_linear_1577_283418" x1="37.175" y1="41.6056" x2="34.635" y2="41.6057" gradientUnits="userSpaceOnUse">
<stop stop-color="#F9F7FC"/>
<stop offset="1" stop-color="#F0DDFC"/>
</linearGradient>
<linearGradient id="paint15_linear_1577_283418" x1="35.8016" y1="41.6047" x2="37.5764" y2="41.6047" gradientUnits="userSpaceOnUse">
<stop stop-color="#E9EDF5" stop-opacity="0"/>
<stop offset="1" stop-color="white"/>
</linearGradient>
<linearGradient id="paint16_linear_1577_283418" x1="36.0314" y1="41.9473" x2="37.1904" y2="38.0927" gradientUnits="userSpaceOnUse">
<stop stop-color="#F0DDFC" stop-opacity="0"/>
<stop offset="0.2889" stop-color="#C8B7E0" stop-opacity="0.289"/>
<stop offset="0.5915" stop-color="#A595C8" stop-opacity="0.592"/>
<stop offset="0.8395" stop-color="#8F81B8" stop-opacity="0.84"/>
<stop offset="1" stop-color="#8779B3"/>
</linearGradient>
<linearGradient id="paint17_linear_1577_283418" x1="37.1427" y1="41.4802" x2="35.8724" y2="41.7073" gradientUnits="userSpaceOnUse">
<stop stop-color="#F0DDFC" stop-opacity="0"/>
<stop offset="0.2889" stop-color="#C8B7E0" stop-opacity="0.289"/>
<stop offset="0.5915" stop-color="#A595C8" stop-opacity="0.592"/>
<stop offset="0.8395" stop-color="#8F81B8" stop-opacity="0.84"/>
<stop offset="1" stop-color="#8779B3"/>
</linearGradient>
<linearGradient id="paint18_linear_1577_283418" x1="36.8001" y1="38.5416" x2="34.2601" y2="38.5416" gradientUnits="userSpaceOnUse">
<stop stop-color="#F9F7FC"/>
<stop offset="1" stop-color="#F0DDFC"/>
</linearGradient>
<linearGradient id="paint19_linear_1577_283418" x1="35.4267" y1="38.5427" x2="37.2014" y2="38.5427" gradientUnits="userSpaceOnUse">
<stop stop-color="#E9EDF5" stop-opacity="0"/>
<stop offset="1" stop-color="white"/>
</linearGradient>
<linearGradient id="paint20_linear_1577_283418" x1="35.6565" y1="38.8853" x2="36.8154" y2="35.0307" gradientUnits="userSpaceOnUse">
<stop stop-color="#F0DDFC" stop-opacity="0"/>
<stop offset="0.2889" stop-color="#C8B7E0" stop-opacity="0.289"/>
<stop offset="0.5915" stop-color="#A595C8" stop-opacity="0.592"/>
<stop offset="0.8395" stop-color="#8F81B8" stop-opacity="0.84"/>
<stop offset="1" stop-color="#8779B3"/>
</linearGradient>
<linearGradient id="paint21_linear_1577_283418" x1="36.7678" y1="38.4162" x2="35.4974" y2="38.6433" gradientUnits="userSpaceOnUse">
<stop stop-color="#F0DDFC" stop-opacity="0"/>
<stop offset="0.2889" stop-color="#C8B7E0" stop-opacity="0.289"/>
<stop offset="0.5915" stop-color="#A595C8" stop-opacity="0.592"/>
<stop offset="0.8395" stop-color="#8F81B8" stop-opacity="0.84"/>
<stop offset="1" stop-color="#8779B3"/>
</linearGradient>
<linearGradient id="paint22_linear_1577_283418" x1="17.3586" y1="43.1316" x2="17.0329" y2="45.309" gradientUnits="userSpaceOnUse">
<stop stop-color="#FFDA45"/>
<stop offset="0.3043" stop-color="#FFCE3E"/>
<stop offset="0.8558" stop-color="#FFAE2B"/>
<stop offset="1" stop-color="#FFA425"/>
</linearGradient>
<linearGradient id="paint23_linear_1577_283418" x1="16.6087" y1="44.0103" x2="19.8406" y2="40.7086" gradientUnits="userSpaceOnUse">
<stop stop-color="#FFDA45" stop-opacity="0"/>
<stop offset="1" stop-color="#B53759"/>
</linearGradient>
<linearGradient id="paint24_linear_1577_283418" x1="21.3899" y1="47.1671" x2="19.2125" y2="47.4929" gradientUnits="userSpaceOnUse">
<stop stop-color="#FFDA45"/>
<stop offset="0.3043" stop-color="#FFCE3E"/>
<stop offset="0.8558" stop-color="#FFAE2B"/>
<stop offset="1" stop-color="#FFA425"/>
</linearGradient>
<linearGradient id="paint25_linear_1577_283418" x1="20.5115" y1="47.9155" x2="23.8133" y2="44.6836" gradientUnits="userSpaceOnUse">
<stop stop-color="#FFDA45" stop-opacity="0"/>
<stop offset="1" stop-color="#B53759"/>
</linearGradient>
<linearGradient id="paint26_linear_1577_283418" x1="25.367" y1="28.8449" x2="21.9882" y2="34.4928" gradientUnits="userSpaceOnUse">
<stop stop-color="#FFDA45"/>
<stop offset="0.3043" stop-color="#FFCE3E"/>
<stop offset="0.8558" stop-color="#FFAE2B"/>
<stop offset="1" stop-color="#FFA425"/>
</linearGradient>
<linearGradient id="paint27_linear_1577_283418" x1="22.7286" y1="32.5295" x2="29.6746" y2="22.1781" gradientUnits="userSpaceOnUse">
<stop stop-color="#FFDA45" stop-opacity="0"/>
<stop offset="1" stop-color="#B53759"/>
</linearGradient>
<linearGradient id="paint28_linear_1577_283418" x1="21.0072" y1="30.7349" x2="24.3636" y2="34.9443" gradientUnits="userSpaceOnUse">
<stop stop-color="#F0DDFC" stop-opacity="0"/>
<stop offset="0.2889" stop-color="#C8B7E0" stop-opacity="0.289"/>
<stop offset="0.5915" stop-color="#A595C8" stop-opacity="0.592"/>
<stop offset="0.8395" stop-color="#8F81B8" stop-opacity="0.84"/>
<stop offset="1" stop-color="#8779B3"/>
</linearGradient>
<linearGradient id="paint29_linear_1577_283418" x1="22.8812" y1="31.7922" x2="21.4781" y2="34.398" gradientUnits="userSpaceOnUse">
<stop stop-color="#FFDA45" stop-opacity="0"/>
<stop offset="1" stop-color="#B53759"/>
</linearGradient>
<linearGradient id="paint30_linear_1577_283418" x1="35.676" y1="39.154" x2="30.0281" y2="42.5329" gradientUnits="userSpaceOnUse">
<stop stop-color="#FFDA45"/>
<stop offset="0.3043" stop-color="#FFCE3E"/>
<stop offset="0.8558" stop-color="#FFAE2B"/>
<stop offset="1" stop-color="#FFA425"/>
</linearGradient>
<linearGradient id="paint31_linear_1577_283418" x1="32.67" y1="41.3361" x2="43.0214" y2="34.3902" gradientUnits="userSpaceOnUse">
<stop stop-color="#FFDA45" stop-opacity="0"/>
<stop offset="1" stop-color="#B53759"/>
</linearGradient>
<linearGradient id="paint32_linear_1577_283418" x1="34.1829" y1="43.8282" x2="29.9736" y2="40.4719" gradientUnits="userSpaceOnUse">
<stop stop-color="#FFDA45" stop-opacity="0"/>
<stop offset="1" stop-color="#B53759"/>
</linearGradient>
<linearGradient id="paint33_linear_1577_283418" x1="32.7281" y1="41.6403" x2="30.1224" y2="43.0435" gradientUnits="userSpaceOnUse">
<stop stop-color="#FFDA45" stop-opacity="0"/>
<stop offset="1" stop-color="#B53759"/>
</linearGradient>
<linearGradient id="paint34_linear_1577_283418" x1="27.531" y1="35.1432" x2="30.3875" y2="37.9998" gradientUnits="userSpaceOnUse">
<stop stop-color="#E5F3FF"/>
<stop offset="1" stop-color="#B3CCFF"/>
</linearGradient>
<linearGradient id="paint35_linear_1577_283418" x1="29.5092" y1="37.0081" x2="25.4445" y2="33.3789" gradientUnits="userSpaceOnUse">
<stop stop-color="#E5F3FF" stop-opacity="0"/>
<stop offset="1" stop-color="white"/>
</linearGradient>
<linearGradient id="paint36_linear_1577_283418" x1="28.2505" y1="39.7401" x2="34.5756" y2="-4.41243" gradientUnits="userSpaceOnUse">
<stop stop-color="#B3CCFF" stop-opacity="0"/>
<stop offset="1" stop-color="#9FB0CB"/>
</linearGradient>
<linearGradient id="paint37_linear_1577_283418" x1="35.0237" y1="26.8965" x2="37.5113" y2="30.8056" gradientUnits="userSpaceOnUse">
<stop stop-color="#8B788A"/>
<stop offset="1" stop-color="#6E566E"/>
</linearGradient>
<linearGradient id="paint38_linear_1577_283418" x1="36.2773" y1="28.8632" x2="35.6185" y2="26.5808" gradientUnits="userSpaceOnUse">
<stop stop-color="#8B788A" stop-opacity="0"/>
<stop offset="1" stop-color="#9E8C92"/>
</linearGradient>
<linearGradient id="paint39_linear_1577_283418" x1="36.789" y1="29.3809" x2="38.3525" y2="25.3577" gradientUnits="userSpaceOnUse">
<stop stop-color="#555A66" stop-opacity="0"/>
<stop offset="1" stop-color="#555A66"/>
</linearGradient>
<linearGradient id="paint40_linear_1577_283418" x1="20.492" y1="43.8756" x2="20.8307" y2="44.2143" gradientUnits="userSpaceOnUse">
<stop stop-color="#E5F3FF"/>
<stop offset="1" stop-color="#B3CCFF"/>
</linearGradient>
<linearGradient id="paint41_linear_1577_283418" x1="3.625" y1="31.606" x2="46.3857" y2="31.606" gradientUnits="userSpaceOnUse">
<stop stop-color="#FF7044"/>
<stop offset="1" stop-color="#F92814"/>
</linearGradient>
<linearGradient id="paint42_linear_1577_283418" x1="19.1039" y1="16.4223" x2="20.5526" y2="17.8709" gradientUnits="userSpaceOnUse">
<stop stop-color="#FF7044"/>
<stop offset="1" stop-color="#F92814"/>
</linearGradient>
<linearGradient id="paint43_linear_1577_283418" x1="11.6417" y1="25.7042" x2="13.2215" y2="27.2841" gradientUnits="userSpaceOnUse">
<stop stop-color="#92F37F"/>
<stop offset="1" stop-color="#4AB272"/>
</linearGradient>
<linearGradient id="paint44_linear_1577_283418" x1="47.2495" y1="28.812" x2="49.5162" y2="31.0787" gradientUnits="userSpaceOnUse">
<stop stop-color="#92F37F"/>
<stop offset="1" stop-color="#4AB272"/>
</linearGradient>
<clipPath id="clip0_1577_283418">
<rect width="48" height="48" fill="white" transform="translate(3.625 9.125)"/>
</clipPath>
</defs>
</svg>
