<svg width="59" height="59" viewBox="0 0 59 59" fill="none" xmlns="http://www.w3.org/2000/svg">
<g clip-path="url(#clip0_2738_8561)">
<path d="M49.7654 50.0151C61.0926 38.6879 61.0926 20.3229 49.7654 8.99568C38.4382 -2.3315 20.0732 -2.3315 8.74601 8.99568C-2.58117 20.3229 -2.58117 38.6879 8.74601 50.0151C20.0732 61.3422 38.4382 61.3422 49.7654 50.0151Z" fill="#B78A3B"/>
<path d="M29.2548 3.81104C15.0874 3.81104 3.56055 15.3379 3.56055 29.4951C3.56055 43.6524 15.0773 55.1793 29.2548 55.1793C43.4324 55.1793 54.9389 43.6524 54.9389 29.4951C54.9389 15.3379 43.4121 3.81104 29.2548 3.81104ZM29.2548 53.859C15.7983 53.859 4.89096 42.9516 4.89096 29.5053C4.89096 16.059 15.7983 5.14145 29.2548 5.14145C42.7113 5.14145 53.6085 16.0488 53.6085 29.4951C53.6085 42.9415 42.7011 53.8489 29.2548 53.8489V53.859Z" fill="white"/>
<path d="M53.6101 29.4948C53.6101 42.9513 42.7028 53.8485 29.2564 53.8485C15.8101 53.8485 4.89258 42.9513 4.89258 29.4948C4.89258 16.0383 15.7999 5.14111 29.2564 5.14111C42.7129 5.14111 53.6101 16.0485 53.6101 29.4948Z" fill="#3F9B52"/>
<path d="M29.2752 52.6605C29.0924 52.6605 28.9401 52.5082 28.9401 52.3254C28.9401 52.1426 29.0924 51.9902 29.2752 51.9902C30.3416 51.9902 31.408 51.909 32.454 51.7668C32.6267 51.7465 32.7993 51.8684 32.8298 52.0512C32.8603 52.234 32.7282 52.3965 32.5454 52.427C31.4689 52.5793 30.3619 52.6605 29.2651 52.6605H29.2752ZM26.0457 52.4371C26.0457 52.4371 26.0152 52.4371 25.9949 52.4371C24.9082 52.2848 23.8317 52.0512 22.7857 51.7465C22.613 51.6957 22.5114 51.5129 22.5622 51.3403C22.613 51.1676 22.7958 51.0661 22.9685 51.1168C23.984 51.4114 25.0403 51.6348 26.0863 51.7871C26.2691 51.8176 26.391 51.9801 26.3707 52.1629C26.3504 52.3254 26.2082 52.4473 26.0457 52.4473V52.4371ZM35.6633 51.7465C35.5211 51.7465 35.3891 51.6551 35.3484 51.5129C35.2977 51.3403 35.3992 51.1575 35.5719 51.1067C36.5874 50.8122 37.5929 50.4263 38.5577 49.9895C38.7202 49.9083 38.9233 49.9896 38.9944 50.152C39.0655 50.3145 38.9944 50.5177 38.8319 50.5887C37.8366 51.0458 36.8007 51.4317 35.7547 51.7364C35.7242 51.7364 35.6937 51.7465 35.6633 51.7465ZM19.8405 50.6294C19.8405 50.6294 19.7491 50.6294 19.7084 50.5989C18.7132 50.1419 17.7484 49.6138 16.8242 49.0247C16.6718 48.9232 16.6211 48.7201 16.7226 48.5677C16.8242 48.4154 17.0273 48.3646 17.1796 48.4662C18.0733 49.0451 19.0178 49.5528 19.9826 49.9895C20.1451 50.0708 20.2264 50.2638 20.1451 50.4263C20.0842 50.5481 19.9725 50.6192 19.8405 50.6192V50.6294ZM41.5333 49.0552C41.4216 49.0552 41.3201 49.0044 41.2591 48.9029C41.1576 48.7505 41.2084 48.5474 41.3607 48.4459C42.2442 47.8771 43.1075 47.2272 43.9098 46.5264C44.052 46.4045 44.2551 46.4249 44.377 46.5569C44.4988 46.6991 44.4785 46.9022 44.3465 47.024C43.5137 47.7451 42.6302 48.4052 41.7161 48.9943C41.6654 49.0349 41.5943 49.0451 41.5333 49.0451V49.0552ZM14.3969 47.1358C14.3157 47.1358 14.2446 47.1053 14.1837 47.0545C13.3509 46.3334 12.5689 45.5616 11.858 44.739C11.7361 44.5968 11.7564 44.3937 11.8884 44.2718C12.0306 44.1499 12.2337 44.1703 12.3556 44.3023C13.0564 45.1046 13.8079 45.8561 14.6204 46.5569C14.7625 46.6787 14.7727 46.8819 14.6508 47.024C14.5797 47.1053 14.4883 47.1358 14.3969 47.1358ZM46.4183 44.8202C46.3371 44.8202 46.266 44.7898 46.205 44.739C46.0628 44.6171 46.0527 44.414 46.1746 44.2718C46.8753 43.4695 47.5151 42.6164 48.0839 41.7227C48.1854 41.5704 48.3885 41.5196 48.5409 41.6211C48.6932 41.7227 48.744 41.9258 48.6424 42.0781C48.0534 43.0023 47.3933 43.8859 46.6722 44.7085C46.6113 44.7796 46.5097 44.8202 46.4183 44.8202ZM10.1619 42.261C10.0502 42.261 9.94868 42.2102 9.88774 42.1086C9.2987 41.1844 8.76044 40.2196 8.30343 39.2345C8.22218 39.072 8.30343 38.8689 8.46592 38.7978C8.62842 38.7166 8.83153 38.7978 8.90263 38.9603C9.34948 39.9251 9.85727 40.8594 10.4362 41.7532C10.5377 41.9055 10.4971 42.1086 10.3346 42.2102C10.2737 42.2508 10.2127 42.261 10.1518 42.261H10.1619ZM49.9119 39.3869C49.9119 39.3869 49.8205 39.3869 49.7697 39.3564C49.6072 39.2853 49.526 39.0822 49.6072 38.9197C50.0541 37.9549 50.4197 36.9495 50.7244 35.9237C50.7752 35.7511 50.958 35.6495 51.1306 35.7003C51.3033 35.7511 51.4048 35.9339 51.354 36.1167C51.0494 37.1627 50.6634 38.1986 50.2064 39.1939C50.1455 39.3158 50.0338 39.3869 49.9017 39.3869H49.9119ZM7.47065 36.3909C7.32847 36.3909 7.19644 36.2995 7.15582 36.1573C6.84099 35.1112 6.60741 34.0246 6.45507 32.9481C6.4246 32.7652 6.55663 32.6028 6.73943 32.5723C6.91208 32.552 7.08473 32.6738 7.1152 32.8567C7.26754 33.9027 7.49096 34.9589 7.79564 35.9745C7.84642 36.1471 7.74486 36.3401 7.57221 36.3909C7.54174 36.3909 7.51127 36.401 7.48081 36.401L7.47065 36.3909ZM51.7298 33.1816C51.7298 33.1816 51.6993 33.1816 51.679 33.1816C51.4962 33.1512 51.3743 32.9887 51.3947 32.8059C51.547 31.7598 51.6181 30.6833 51.6181 29.6271V29.5357C51.6181 29.3529 51.7704 29.2006 51.9532 29.2006C52.136 29.2006 52.2884 29.3529 52.2884 29.5357V29.6271C52.2884 30.7239 52.2071 31.8208 52.0548 32.9074C52.0345 33.0699 51.8923 33.1918 51.7298 33.1918V33.1816ZM6.53631 29.9825C6.35351 29.9825 6.20117 29.8607 6.20117 29.6779V29.6271C6.20117 28.5404 6.27226 27.4639 6.4246 26.3975C6.45507 26.2147 6.61756 26.0929 6.80037 26.1132C6.98317 26.1335 7.10504 26.3061 7.08473 26.4889C6.94255 27.5248 6.87146 28.5709 6.87146 29.6271C6.87146 29.8099 6.71912 29.9825 6.53631 29.9825ZM51.7196 26.6311C51.5572 26.6311 51.415 26.5093 51.3947 26.3468C51.2423 25.2906 51.0087 24.2445 50.7041 23.2289C50.6533 23.0563 50.7548 22.8633 50.9275 22.8125C51.1103 22.7617 51.2829 22.8633 51.3439 23.036C51.6587 24.082 51.8923 25.1585 52.0548 26.2452C52.0853 26.428 51.9532 26.5905 51.7704 26.621C51.7501 26.621 51.74 26.621 51.7196 26.621V26.6311ZM7.44018 23.6047C7.44018 23.6047 7.37925 23.6047 7.34878 23.5945C7.17613 23.5437 7.07457 23.3609 7.12535 23.1883C7.43003 22.1422 7.81595 21.1063 8.27296 20.1009C8.34405 19.9384 8.54717 19.8572 8.70966 19.9384C8.87216 20.0095 8.9534 20.2126 8.87216 20.3751C8.43546 21.3399 8.05969 22.3454 7.76517 23.3711C7.72455 23.5133 7.59252 23.6148 7.45034 23.6148L7.44018 23.6047ZM49.8713 20.4361C49.7494 20.4361 49.6275 20.365 49.5666 20.2431C49.1198 19.2783 48.6018 18.344 48.0229 17.4502C47.9214 17.2979 47.9721 17.0948 48.1245 16.9932C48.2768 16.8917 48.4799 16.9323 48.5815 17.0948C49.1705 18.0088 49.7088 18.9736 50.1658 19.9689C50.2471 20.1314 50.1658 20.3345 50.0033 20.4056C49.9525 20.4259 49.9119 20.4361 49.8611 20.4361H49.8713ZM10.1112 17.7245C10.0502 17.7245 9.9893 17.7041 9.92836 17.6737C9.77603 17.5721 9.7354 17.369 9.82681 17.2167C10.4158 16.2925 11.076 15.4089 11.797 14.5863C11.9189 14.4441 12.122 14.434 12.2642 14.5558C12.4064 14.6777 12.4165 14.8808 12.2947 15.023C11.6041 15.8253 10.9643 16.6886 10.3854 17.5823C10.3244 17.6838 10.2127 17.7346 10.101 17.7346L10.1112 17.7245ZM46.3574 15.023C46.266 15.023 46.1746 14.9824 46.1035 14.9113C45.4027 14.109 44.641 13.3574 43.8387 12.6668C43.6965 12.545 43.6864 12.3419 43.8082 12.1997C43.9301 12.0575 44.1332 12.0473 44.2754 12.1692C45.1082 12.8801 45.8902 13.6621 46.6113 14.4847C46.7331 14.6269 46.7128 14.83 46.5808 14.9519C46.5199 15.0027 46.4386 15.0332 46.3675 15.0332L46.3574 15.023ZM14.336 12.8293C14.2446 12.8293 14.1532 12.7887 14.0821 12.7176C13.9602 12.5754 13.9805 12.3723 14.1126 12.2505C14.9352 11.5294 15.8188 10.8693 16.7328 10.2701C16.8851 10.1685 17.0882 10.2091 17.1898 10.3716C17.2913 10.524 17.2507 10.7271 17.0984 10.8286C16.2047 11.4075 15.3516 12.0473 14.5493 12.7481C14.4883 12.7989 14.4071 12.8293 14.336 12.8293ZM41.4622 10.8083C41.4013 10.8083 41.3404 10.788 41.2794 10.7575C40.3857 10.1888 39.4412 9.67087 38.4764 9.23417C38.3139 9.16308 38.2327 8.95996 38.3139 8.79747C38.385 8.63498 38.5881 8.55373 38.7506 8.63498C39.7459 9.08183 40.7209 9.60994 41.6349 10.199C41.7872 10.3005 41.838 10.5036 41.7365 10.656C41.6755 10.7575 41.5638 10.8083 41.4521 10.8083H41.4622ZM19.7592 9.32557C19.6373 9.32557 19.5155 9.25448 19.4545 9.13261C19.3733 8.97012 19.4545 8.767 19.617 8.69591C20.6123 8.2389 21.6482 7.85298 22.6943 7.53815C22.8669 7.48737 23.0497 7.58892 23.1106 7.76157C23.1614 7.93422 23.0599 8.11703 22.8872 8.17796C21.8716 8.48264 20.8662 8.8584 19.9014 9.30526C19.8608 9.32557 19.81 9.33573 19.7592 9.33573V9.32557ZM35.5719 8.13734C35.5719 8.13734 35.5109 8.13734 35.4805 8.12718C34.4649 7.83266 33.4087 7.60924 32.3626 7.46705C32.1798 7.44674 32.0579 7.27409 32.0783 7.09129C32.0986 6.90848 32.2712 6.78661 32.454 6.80692C33.5407 6.95926 34.6172 7.19285 35.6633 7.48737C35.8359 7.53815 35.9375 7.72095 35.8867 7.8936C35.8461 8.03578 35.714 8.13734 35.5719 8.13734ZM25.9543 7.48737C25.7918 7.48737 25.6496 7.3655 25.6293 7.203C25.5988 7.0202 25.7309 6.8577 25.9137 6.82724C26.9902 6.6749 28.087 6.59365 29.1838 6.5835C29.3666 6.5835 29.519 6.73583 29.519 6.90848C29.519 7.09129 29.3768 7.24363 29.194 7.24363C28.1276 7.24363 27.0613 7.32487 26.0152 7.47721C25.9949 7.47721 25.9847 7.47721 25.9644 7.47721L25.9543 7.48737Z" fill="#9EC19F"/>
<g style="mix-blend-mode:multiply">
<path d="M47.4452 13.408C43.1594 9.62999 37.5229 7.33477 31.3583 7.33477C17.9018 7.33477 6.99445 18.2421 6.99445 31.6885C6.99445 37.8632 9.28967 43.4896 13.0676 47.7753C7.98972 43.3169 4.80079 36.7766 4.80079 29.4847C4.79063 16.0485 15.698 5.14111 29.1646 5.14111C36.4464 5.14111 42.9867 8.3402 47.4452 13.408Z" fill="#C3974D"/>
</g>
<path d="M42.0825 29.2614L32.1704 27.6771L34.486 24.478C34.5368 24.4069 34.5266 24.3155 34.4657 24.2444C34.4047 24.1835 34.3032 24.1733 34.2321 24.2241L31.033 26.5396L29.4487 16.658C29.4487 16.658 29.4487 16.6072 29.4385 16.5869C29.4385 16.5869 29.4385 16.5666 29.4385 16.5564C29.4385 16.5564 29.4385 16.5361 29.4182 16.526C29.4182 16.5158 29.4081 16.4955 29.3877 16.4853C29.3674 16.465 29.3471 16.4549 29.3268 16.4447C29.3167 16.4447 29.2963 16.4346 29.276 16.4346H29.2557C29.2557 16.4346 29.2456 16.4346 29.2354 16.4346C29.2253 16.4346 29.2151 16.4346 29.2151 16.4346C29.2049 16.4346 29.1948 16.4346 29.1948 16.4346C29.1745 16.4346 29.1542 16.4346 29.144 16.4447H29.1237C29.1034 16.4549 29.0932 16.465 29.0729 16.4853C29.0628 16.4853 29.0526 16.4853 29.0628 16.4955C29.0425 16.5158 29.0323 16.5361 29.0221 16.5666C29.0221 16.5768 29.0018 16.5869 29.0018 16.6072L27.4175 26.5396L24.2083 24.2241C24.1372 24.1733 24.0458 24.1835 23.9848 24.2444C23.9138 24.3053 23.9138 24.4069 23.9645 24.478L26.2801 27.6771L16.3984 29.2614C16.3984 29.2614 16.3477 29.2614 16.3273 29.2716C16.3273 29.2716 16.307 29.2716 16.2969 29.2716C16.2969 29.2716 16.2766 29.2716 16.2664 29.2919C16.2562 29.2919 16.2359 29.3122 16.2258 29.3223C16.2258 29.3223 16.2156 29.3223 16.2258 29.3426C16.2055 29.363 16.1953 29.3731 16.1953 29.3934C16.1953 29.3934 16.1953 29.4137 16.1953 29.434C16.1953 29.434 16.1953 29.4442 16.1953 29.4544C16.1953 29.4544 16.1953 29.4747 16.1953 29.4848C16.1953 29.4848 16.1953 29.5051 16.1953 29.5153V29.5356C16.1953 29.5458 16.1953 29.5661 16.1953 29.5762C16.1953 29.5965 16.2156 29.6168 16.2258 29.627V29.6473C16.2359 29.6575 16.2562 29.6778 16.2664 29.6778C16.2664 29.6879 16.2867 29.6981 16.2969 29.6981C16.2969 29.6981 16.3172 29.6981 16.3273 29.6981C16.3477 29.6981 16.368 29.7083 16.3984 29.7083L26.2801 31.2926L23.9645 34.4917C23.9138 34.5627 23.9239 34.6541 23.9848 34.7252C24.0458 34.7963 24.1473 34.7963 24.2083 34.7456L27.4074 32.43L28.9917 42.3523C28.9917 42.3523 28.9917 42.3827 29.012 42.403C29.012 42.4335 29.0323 42.4538 29.0526 42.4741C29.0526 42.4741 29.0526 42.4741 29.0628 42.4843C29.0729 42.5046 29.0932 42.5148 29.1135 42.5249C29.1135 42.5249 29.1237 42.5249 29.1339 42.5249C29.144 42.5249 29.1643 42.5351 29.1846 42.5351C29.1846 42.5351 29.1846 42.5351 29.1948 42.5351C29.2049 42.5351 29.2151 42.5351 29.2253 42.5351C29.2354 42.5351 29.2456 42.5351 29.2557 42.5351H29.276C29.2862 42.5351 29.3065 42.5351 29.3167 42.5351C29.337 42.5351 29.3573 42.5148 29.3674 42.5046C29.3674 42.5046 29.3776 42.5046 29.3776 42.4945C29.3877 42.4843 29.4081 42.464 29.4081 42.4538C29.4182 42.4538 29.4284 42.4335 29.4284 42.4234C29.4284 42.4234 29.4284 42.4031 29.4284 42.3929C29.4385 42.3726 29.4385 42.3523 29.4385 42.3218L31.0228 32.4402L34.2219 34.7557C34.2219 34.7557 34.293 34.7862 34.3235 34.7862C34.4149 34.7862 34.5063 34.7049 34.5063 34.6135C34.5063 34.5627 34.4758 34.512 34.4454 34.4713L32.1603 31.3129L42.0521 29.7286H42.0622C42.0622 29.7286 42.0825 29.7286 42.0927 29.7286C42.2044 29.7286 42.306 29.6168 42.306 29.495C42.306 29.3731 42.2044 29.2614 42.0724 29.2614H42.0825ZM27.8237 26.8646L28.9815 19.654V28.9263L27.7019 27.6466L27.8339 26.8545L27.8237 26.8646ZM27.3566 31.0184L26.5644 30.8863L19.3639 29.7387H28.6464L27.3667 31.0184H27.3566ZM30.6064 32.1457L29.4588 39.3563V30.0739L30.7385 31.3433L30.6064 32.1355V32.1457ZM29.7838 29.2614L31.0736 27.9818L31.8556 28.1036L39.0663 29.2614H29.7838Z" fill="#9EC19F"/>
<path d="M29.5809 11.6007C29.5809 11.6007 29.5809 11.5296 29.5605 11.5093C29.5605 11.5194 29.5707 11.5296 29.5707 11.5499V11.6007H29.5809Z" fill="#F7EDCB"/>
<path d="M29.5809 47.3999V47.4507C29.5809 47.4507 29.5707 47.4811 29.5605 47.4913C29.5707 47.4608 29.5809 47.4304 29.5809 47.3999Z" fill="#F7EDCB"/>
<path d="M11.3512 29.1699C11.3512 29.1699 11.2801 29.1699 11.2598 29.1902C11.2699 29.1902 11.2902 29.1801 11.3004 29.1801H11.3512V29.1699Z" fill="#F7EDCB"/>
<path d="M11.3512 29.8304H11.3004C11.3004 29.8304 11.2699 29.8202 11.2598 29.8101C11.2902 29.8202 11.3207 29.8304 11.3512 29.8304Z" fill="#F7EDCB"/>
<path d="M31.9576 9.48809L30.7592 15.1246H29.6725C29.3171 15.1246 29.2358 14.4644 29.2358 13.591C29.2358 12.8497 29.2866 11.9661 29.2866 11.1841C29.2866 10.9505 29.2866 10.7271 29.2765 10.5138L28.3015 15.1246H27.2148L28.3116 10.006C27.6515 10.2802 27.2554 10.8591 27.2554 11.6513C27.2554 12.0372 27.357 12.0981 27.357 12.1591C26.8391 12.1591 26.5547 11.9763 26.5547 11.4279C26.5547 10.4224 27.9359 9.46777 29.1952 9.46777C29.8249 9.46777 29.8756 9.79276 29.8756 10.8693C29.8756 11.6614 29.7944 12.6466 29.7944 13.3778C29.7944 13.7231 29.8147 14.0176 29.8756 14.2004L30.8811 9.48809H31.9678H31.9576Z" fill="#9EC19F"/>
<path d="M30.3229 45.521C30.201 45.521 30.0792 45.4702 29.9878 45.3585C30.1909 45.2367 30.3229 44.9625 30.3229 44.7086C30.3229 44.4445 30.1706 44.2008 29.7745 44.2008C29.3784 44.2008 29.0737 44.4445 29.0737 44.8609C29.0737 46.039 30.7698 46.1101 30.7698 47.7858C30.7698 48.8521 29.9878 49.5326 28.7691 49.5326C28.1699 49.5326 27.1035 49.4006 27.1035 48.324C27.1035 47.6131 27.6316 47.2374 28.2105 47.2374C28.5456 47.2374 28.7589 47.3491 28.8199 47.6233C28.2105 47.6741 27.9363 47.928 27.9363 48.4561C27.9363 48.9842 28.3324 49.1771 28.6777 49.1771C29.2769 49.1771 29.5003 48.6592 29.5003 48.1006C29.5003 46.6889 27.8754 46.3741 27.8754 45.257C27.8754 44.4648 28.7691 43.8555 29.6729 43.8555C30.069 43.8555 30.9424 43.9164 30.9424 44.7593C30.9424 45.1859 30.7088 45.521 30.3128 45.521H30.3229Z" fill="#9EC19F"/>
<path d="M11.4225 31.2827L13.0068 26.672H13.9615V31.2827L15.6067 26.672H16.1348L14.0427 32.2881H12.9561V28.4492L11.4327 32.2881H10.346V27.1391C9.52339 27.393 9.107 27.9821 9.107 28.8149C9.107 29.2008 9.20856 29.2617 9.20856 29.3226C8.69061 29.3226 8.40625 29.1297 8.40625 28.5914C8.40625 27.586 9.78744 26.6313 11.0468 26.6313C11.1483 26.6313 11.2499 26.6313 11.3514 26.6415L11.4225 31.2726V31.2827Z" fill="#9EC19F"/>
<path d="M48.0549 30.9779C47.6589 32.0747 46.755 32.3083 46.0542 32.3083C45.0183 32.3083 44.4902 31.5669 44.4902 30.7849C44.4902 30.0638 44.9472 29.3123 45.8511 29.1193C45.3433 28.8451 45.1097 28.3983 45.1097 27.9717C45.1097 27.2811 45.7089 26.6108 46.7855 26.6108C47.4862 26.6108 48.1666 26.885 48.1666 27.6163C48.1666 28.0123 48.0245 28.3069 47.6385 28.3069C47.5167 28.3069 47.3542 28.2764 47.212 28.1139C47.405 28.0631 47.5471 27.6874 47.5471 27.4944C47.5471 27.3725 47.5268 26.9358 47.0495 26.9358C46.5011 26.9358 46.1253 27.3624 46.1253 27.86C46.1253 28.2967 46.4097 28.7842 47.1206 29.099C46.1659 29.4951 45.8105 30.0943 45.8105 30.6122C45.8105 31.1607 46.2066 31.6177 46.694 31.6177C47.2729 31.6177 47.6081 31.3739 47.8823 30.8966L48.0549 30.9677V30.9779Z" fill="#9EC19F"/>
<g style="mix-blend-mode:multiply">
<path d="M37.3901 10.7881L34.1402 31.0185L24.7461 49.2279L27.9858 28.9873L37.3901 10.7881Z" fill="#AD873A"/>
</g>
<path d="M26.4219 28.5812L34.9731 12.0068L32.0279 30.4194L26.4219 28.5812Z" fill="#636234"/>
<path d="M26.4221 28.5811L23.4668 46.9936L32.0282 30.4193L26.4221 28.5811Z" fill="#B78A3B"/>
<path d="M31.3171 30.1857C30.9312 31.3435 29.682 31.9731 28.5242 31.5974C27.3665 31.2114 26.7368 29.9623 27.1126 28.8045C27.4985 27.6467 28.7477 27.0171 29.9054 27.3929C31.0632 27.7788 31.6929 29.0279 31.3171 30.1857Z" fill="#FCF8EB"/>
<path d="M30.1284 29.7998C29.9659 30.3076 29.4175 30.5716 28.9198 30.4091C28.4222 30.2466 28.1378 29.6982 28.3105 29.2006C28.473 28.6928 29.0214 28.4186 29.519 28.5912C30.0268 28.7537 30.301 29.3021 30.1284 29.7998Z" fill="#B78A3B"/>
<path opacity="0.51" d="M23.8027 18.5774C23.8027 21.5531 21.3856 23.96 18.4099 23.96C15.4343 23.96 13.0273 21.5429 13.0273 18.5774C13.0273 15.6119 15.4343 13.1948 18.4099 13.1948C21.3856 13.1948 23.8027 15.6119 23.8027 18.5774Z" fill="white"/>
<path opacity="0.36" d="M28.9915 25.859C28.9915 27.748 27.458 29.2816 25.569 29.2816C23.68 29.2816 22.1465 27.748 22.1465 25.859C22.1465 23.9701 23.68 22.4365 25.569 22.4365C27.458 22.4365 28.9915 23.9701 28.9915 25.859Z" fill="white"/>
</g>
<defs>
<clipPath id="clip0_2738_8561">
<rect width="58" height="58" fill="white" transform="translate(0.25 0.5)"/>
</clipPath>
</defs>
</svg>
