<svg width="204" height="144" viewBox="0 0 204 144" fill="none" xmlns="http://www.w3.org/2000/svg">
<g id="Group 5">
<ellipse id="Ellipse 59" cx="102.105" cy="124.089" rx="101.146" ry="19.626" transform="rotate(-0.158129 102.105 124.089)" fill="#F9F9F9"/>
<path id="Union" fill-rule="evenodd" clip-rule="evenodd" d="M166.979 59.9239L167.029 76.0638L177.419 96.4938L168.299 123.104H163.099L167.359 96.5938L155.009 76.8438H152.299L150.519 98.1738L144.099 122.784H138.879L140.899 98.0838L138.879 76.8238H78.369L78.349 122.784H73.139L64.939 76.8438H64.259L51.389 96.4138L56.059 122.784H50.709L41.489 96.4038L50.719 76.0238L56 52.4319L38.5 38.9319L19.499 56.9319L15 52.4319L14 15.4319L27.7774 3.50781L46 19.4319L64.939 34.4319L73.2088 41.4637L72.7388 10.904L83.5588 10.784L106.959 26.664L107.739 41.4639H128.799L106.959 26.6639L106.039 9.06387L118.709 8.94387L166.679 41.4639L166.979 59.9239Z" fill="#ECECEE"/>
<g id="Group 7">
<line id="Line 5" x1="30.5889" y1="2.87891" x2="30.5889" y2="19.3906" stroke="#B9B8C1" stroke-width="1.5"/>
<line id="Line 6" x1="33.7451" y1="0.00585934" x2="33.7451" y2="18.1562" stroke="#B9B8C1" stroke-width="1.5"/>
<line id="Line 7" x1="37.3135" y1="3.76367" x2="37.3135" y2="20.4902" stroke="#B9B8C1" stroke-width="1.5"/>
</g>
</g>
</svg>
