<svg width="64" height="51" viewBox="0 0 64 51" fill="none" xmlns="http://www.w3.org/2000/svg">
<g filter="url(#filter0_d_2738_8514)">
<path d="M58.7406 0.5V38.5292L40.4948 42.5L22.249 38.5292L3.99414 42.5V4.4798L22.249 0.5L40.4948 4.4798L58.7406 0.5Z" fill="white"/>
<path d="M22.2487 35.497L6.95508 38.827V6.86227L22.2487 3.53223L40.4945 7.503L55.7791 4.17297V36.1468L40.4945 39.4678L22.2487 35.497Z" fill="#C7AC7D"/>
<path d="M55.7788 4.16381V36.1376L49.432 37.5183C48.6556 37.2386 47.7257 37.2476 46.7507 37.1935C45.8208 37.1032 42.5887 36.9227 42.2185 35.5329C41.9477 34.2334 43.5998 33.8634 44.2499 33.3129C45.3603 32.2932 44.5297 31.5531 45.1707 30.4431C46.0916 28.9631 49.8834 29.7934 51.364 29.4234C54.1447 28.5931 54.1447 26.1926 52.9439 23.7921C52.0231 21.8518 48.2313 21.4818 49.432 24.4418C49.9827 25.9219 50.9126 26.5626 48.6917 26.6619C47.5812 26.7521 45.1798 26.5626 46.0104 25.0826C46.3805 24.6133 49.0619 23.7018 46.5611 22.9618C45.9201 22.7723 44.0693 23.4221 43.4193 23.7018C39.8983 25.5519 41.2886 27.4921 43.5998 29.4234C42.8595 30.6326 41.1081 29.4234 40.1782 30.1634C39.2573 30.8131 39.8983 33.3129 38.3274 33.2137C36.8468 33.1144 35.8266 28.1329 35.7364 26.9326C35.5468 25.5519 35.0863 24.5321 33.4252 24.6133C32.405 24.7126 30.6445 25.8226 30.3737 26.7431C30.1841 27.8531 31.3848 29.3331 31.8543 30.2536C32.7751 31.9141 32.0439 31.1741 31.0147 32.2841C30.5542 32.7444 29.8139 35.3344 28.7937 33.6739C28.7937 33.5746 29.0736 32.7444 29.0736 32.4646C28.8931 31.9141 28.7035 31.6253 28.4236 31.1741C27.4124 29.1436 27.4124 25.9128 24.2616 25.9941C22.5012 26.0843 22.781 27.0138 21.9504 28.0246C20.9303 29.1346 20.4698 28.9451 20.0997 30.6146C19.4497 32.9339 18.0593 33.0151 15.9377 32.9339C14.3578 32.8346 12.7959 32.8346 12.5161 31.2644C12.4258 30.6236 12.4258 29.0443 12.4258 28.2141C12.5161 26.6438 13.1661 26.5536 14.6467 26.3641C15.8474 26.2738 16.9579 26.4543 17.8878 25.6241C18.7184 24.7938 18.7184 23.5935 19.0885 22.5738C19.6392 21.3645 20.1087 21.0938 21.3997 21.0035C21.6796 21.0035 22.0497 21.2742 22.3296 21.2742C22.6998 21.2742 22.7901 20.9042 23.1602 20.814C23.5304 20.814 23.9005 20.7238 24.3609 20.6245C25.2006 20.5252 26.0311 20.7238 26.8617 20.6245C27.6923 20.5252 28.2521 20.444 28.9924 19.8845C29.6334 19.5145 29.6334 18.964 30.1028 18.594C31.4841 17.3035 33.8946 18.224 35.8266 17.9442C39.0677 17.484 37.867 13.6034 35.4565 12.5927C32.2244 11.2932 31.2945 15.1827 29.0826 16.753C28.6222 17.0327 28.0625 17.3035 27.602 17.5832C27.2319 17.9532 27.3222 18.603 26.4013 18.5128C25.8416 18.3232 25.8416 17.493 25.2908 17.2132C24.8214 17.0327 23.9908 17.4027 23.5304 17.2132C21.7699 16.383 23.9005 15.4625 23.3498 14.0727C22.9796 13.2334 21.8692 13.4229 22.3386 12.3129C22.5192 11.9429 23.6297 11.6632 23.9095 11.5729C25.1103 11.1127 26.6812 11.2029 27.7916 10.5532C28.3423 10.2824 28.7125 9.54241 29.3715 9.1724C30.8883 8.37825 33.4342 7.23214 35.2398 6.33871L40.5032 7.48482L43.0491 6.93433C43.3922 7.67434 42.9498 8.17068 42.1283 9.1724C41.5776 9.91241 40.8372 10.3817 41.7581 11.5729C42.0711 12.0061 42.4412 12.0993 42.8686 11.8527C42.9679 11.8527 43.4283 10.7427 43.7985 10.4629C44.6291 9.81314 45.6492 10.0929 46.1097 9.07313C46.2993 8.61288 46.0194 7.87288 46.1999 7.32238C46.3173 6.88921 46.543 6.4831 46.7958 6.1131L55.7878 4.15479L55.7788 4.16381Z" fill="#997D4E"/>
<path d="M16.9145 21.6988C16.4541 22.6193 15.3165 22.863 14.4227 22.4028C13.5019 21.9696 13.4296 21.1123 13.6824 20.2188C13.8991 19.3254 14.3595 18.5222 14.2693 17.5656C14.188 16.8888 13.7817 15.7337 14.3054 15.2102C15.1811 15.0568 16.4992 16.4105 16.7249 17.2678C16.9055 17.9717 16.5353 18.6215 16.6346 19.3615C16.7881 20.2279 17.3388 20.8054 16.9055 21.7079L16.9145 21.6988Z" fill="#6F4D12"/>
<path d="M12.1195 18.7207C12.0112 18.9824 11.8757 19.2261 11.7945 19.4156C11.5507 20.0925 11.5237 20.8686 10.5667 20.8054C9.79928 20.7061 8.80619 20.0654 9.32982 19.172C9.69997 18.4951 10.684 18.0349 11.4605 18.1883C11.7674 18.2424 12.0653 18.3958 12.1195 18.7207Z" fill="#6F4D12"/>
<path d="M59.5076 0.5H58.7402V38.5021H59.5076V0.5Z" fill="white"/>
<path d="M11.3518 37.8793L6.95508 38.8359V33.728C7.6683 34.7027 8.63431 35.5239 9.57323 36.3181C10.1059 36.7151 10.783 37.2656 11.3518 37.8883V37.8793Z" fill="#654D24"/>
<path d="M18.177 4.4165C17.1207 6.04091 16.2811 7.89996 14.3852 8.5768C13.1845 8.9468 11.9837 8.75729 10.783 8.85656C9.26627 9.00095 8.04748 9.37095 6.95508 9.47925V6.86214L18.177 4.4165Z" fill="#654D24"/>
<path d="M27.5675 4.68736C27.3779 5.65298 27.1793 6.58251 26.4119 7.28642C25.6716 7.92716 24.191 8.39643 23.2611 8.66716C22.0603 8.94692 20.4985 8.94692 19.5595 9.77718C18.4491 10.6165 18.2685 11.907 16.9685 12.5567C15.858 13.017 14.9462 12.647 13.917 12.9267C12.4364 13.2967 12.7162 14.3075 11.9759 15.4175C10.703 17.4119 8.84317 16.4553 6.94727 15.5077V9.47937C8.03064 9.3801 9.25846 9.0101 10.7752 8.85668C11.985 8.75741 13.1767 8.94692 14.3774 8.57692C16.2823 7.90008 17.1129 6.03201 18.1692 4.41663L22.2409 3.53223L27.5584 4.69639L27.5675 4.68736Z" fill="#B98A3A"/>
<path d="M18.8722 36.237L11.3518 37.8795C10.792 37.2568 10.1059 36.7153 9.57323 36.3092C8.63431 35.5151 7.6683 34.6938 6.95508 33.7192V22.5469C9.13085 22.6191 10.5212 23.0613 10.133 25.9581C9.94338 27.9886 8.83293 30.3079 9.39267 32.3294C10.5302 36.219 17.2832 33.8275 18.8722 36.237Z" fill="#B98A3A"/>
<path d="M43.1404 38.8992L40.4951 39.4767L31.0156 37.4101C31.7469 37.1484 32.3879 36.7333 32.7851 36.0294C33.1553 35.4789 33.1553 34.8742 33.8505 34.5042C35.1866 33.8635 36.6221 34.5042 37.5971 35.3886C38.9333 36.5979 40.3687 36.5438 41.8945 37.2387C42.5355 37.5455 42.8876 38.2043 43.1404 38.8992Z" fill="#B98A3A"/>
<path d="M27.0424 36.5531L22.2395 35.5062L21.752 35.6055C22.2936 33.8096 22.6367 31.3911 24.5597 31.5896C26.7264 31.8152 26.6542 34.7211 27.0424 36.5441V36.5531Z" fill="#B98A3A"/>
<g style="mix-blend-mode:multiply">
<path d="M58.7419 38.5202L40.4961 42.5V4.47078L58.7419 0.5V38.5202Z" fill="#BCC8C9"/>
</g>
<g style="mix-blend-mode:multiply">
<path d="M22.24 38.5202L3.99414 42.5V4.47078L22.24 0.5V38.5202Z" fill="#BCC8C9"/>
</g>
</g>
<defs>
<filter id="filter0_d_2738_8514" x="-0.00585938" y="0.5" width="63.5137" height="50" filterUnits="userSpaceOnUse" color-interpolation-filters="sRGB">
<feFlood flood-opacity="0" result="BackgroundImageFix"/>
<feColorMatrix in="SourceAlpha" type="matrix" values="0 0 0 0 0 0 0 0 0 0 0 0 0 0 0 0 0 0 127 0" result="hardAlpha"/>
<feOffset dy="4"/>
<feGaussianBlur stdDeviation="2"/>
<feComposite in2="hardAlpha" operator="out"/>
<feColorMatrix type="matrix" values="0 0 0 0 0 0 0 0 0 0 0 0 0 0 0 0 0 0 0.25 0"/>
<feBlend mode="normal" in2="BackgroundImageFix" result="effect1_dropShadow_2738_8514"/>
<feBlend mode="normal" in="SourceGraphic" in2="effect1_dropShadow_2738_8514" result="shape"/>
</filter>
</defs>
</svg>
