<svg width="28" height="29" viewBox="0 0 28 29" fill="none" xmlns="http://www.w3.org/2000/svg">
<rect x="8.25" y="10.5" width="12" height="8" fill="#D75051"/>
<path d="M8.06515 14.2324L11.0124 9.98837H5L8.06515 14.2324Z" fill="#5AC28F"/>
<path d="M14.0778 14.2324L17.0251 9.98837H11.0127L14.0778 14.2324Z" fill="#5AC28F"/>
<path d="M20.0896 14.2324L23.0368 9.98837H17.0244L20.0896 14.2324Z" fill="#5AC28F"/>
<path d="M17.0251 9.98828L19.9724 5.74423H13.96L17.0251 9.98828Z" fill="#8937E7"/>
<path d="M14.0778 5.74414L17.0251 1.50009H11.0127L14.0778 5.74414Z" fill="#F3AE3D"/>
<path d="M11.0124 9.98828L13.9597 5.74423H7.94727L11.0124 9.98828Z" fill="#8937E7"/>
<path d="M8.06515 14.2324L11.0124 18.4765H5L8.06515 14.2324Z" fill="#5AC28F"/>
<path d="M14.0778 14.2324L17.0251 18.4765H11.0127L14.0778 14.2324Z" fill="#5AC28F"/>
<path d="M20.0896 14.2324L23.0368 18.4765H17.0244L20.0896 14.2324Z" fill="#5AC28F"/>
<path d="M17.0251 18.4766L19.9724 22.7206H13.96L17.0251 18.4766Z" fill="#8937E7"/>
<path d="M14.0778 22.7207L17.0251 26.9648H11.0127L14.0778 22.7207Z" fill="#F3AE3D"/>
<path d="M11.0124 18.4766L13.9597 22.7206H7.94727L11.0124 18.4766Z" fill="#8937E7"/>
</svg>
