<svg width="25" height="24" viewBox="0 0 25 24" fill="none" xmlns="http://www.w3.org/2000/svg">
<g id="Alerts">
<path id="Icon" d="M12.2002 3C8.496 3 5.49316 6.29145 5.49316 10.3517L5.46875 12.537C5.46875 14.0451 4.89756 15.2975 4.30577 16.1514C4.05074 16.5194 4.28622 17.1818 4.70783 17.1818H19.6935C20.1099 17.1818 20.346 16.5379 20.1008 16.169C19.5331 15.3147 18.9816 14.0555 18.9816 12.537L19.006 10.4599C19.006 9.59801 18.8727 8.77021 18.6273 8M9.53353 20.0909C10.2412 20.6562 11.1757 21 12.2002 21C13.2247 21 14.1592 20.6562 14.8669 20.0909" stroke="#070708" stroke-width="1.5" stroke-linecap="round" stroke-linejoin="round"/>
<path id="Icon_2" d="M19.2002 3C19.2002 4.10457 18.3048 5 17.2002 5C16.0956 5 15.2002 4.10457 15.2002 3C15.2002 1.89543 16.0956 1 17.2002 1C18.3048 1 19.2002 1.89543 19.2002 3Z" fill="#DC362E" stroke="#DC362E" stroke-width="1.5"/>
</g>
</svg>
