<svg width="59" height="41" viewBox="0 0 59 41" fill="none" xmlns="http://www.w3.org/2000/svg">
<path d="M29.2686 27.7037C32.2607 18.781 42.0401 13.6112 51.4799 16.1339L52.5538 12.3587C43.8666 10.0403 34.9453 13.056 29.5072 19.345C31.2419 11.3372 38.5891 5.30581 47.3726 5.30581V1.39295C38.3917 1.39295 30.6361 6.56272 27.1071 13.9887C23.5872 6.54495 15.8224 1.35742 6.82777 1.35742V5.27028C15.6389 5.27028 23.0136 11.3461 24.7116 19.3983C19.278 13.0738 10.3293 10.0359 1.61911 12.3587L2.69297 16.1339C12.1328 13.6156 21.9168 18.7854 24.9043 27.7126C16.6439 21.9565 5.06095 22.263 -2.88281 29.0539L-0.202766 31.9852C7.15818 25.6917 18.3373 26.1981 25.0695 33.0111V58.5224H29.1125V32.9889C32.2928 29.7778 36.5377 27.8636 41.1544 27.5882C46.0188 27.2951 50.7135 28.8585 54.3665 31.9807L57.0465 29.0494C49.1073 22.2586 37.5336 21.9521 29.2732 27.6993L29.2686 27.7037Z" fill="#5CB070" stroke="#5CB070" stroke-width="2" stroke-miterlimit="10"/>
<path d="M27.1753 5.9552C29.1598 5.9552 30.7686 4.39823 30.7686 2.4776C30.7686 0.556976 29.1598 -1 27.1753 -1C25.1908 -1 23.582 0.556976 23.582 2.4776C23.582 4.39823 25.1908 5.9552 27.1753 5.9552Z" fill="#5CB070" stroke="#5CB070" stroke-width="2" stroke-miterlimit="10"/>
</svg>
