<svg width="40" height="18" viewBox="0 0 40 18" fill="none" xmlns="http://www.w3.org/2000/svg">
<path d="M7.26736 2.94394C6.80151 3.49519 6.05615 3.92999 5.31078 3.86787C5.21761 3.12251 5.58253 2.33057 6.00956 1.84142C6.47541 1.27464 7.29065 0.8709 7.95061 0.839844C8.02825 1.61626 7.72544 2.37715 7.26736 2.94394ZM7.94284 4.01539C6.86362 3.95328 5.93968 4.62876 5.42725 4.62876C4.90705 4.62876 4.12286 4.04645 3.2688 4.06198C2.15853 4.07751 1.12589 4.70641 0.559106 5.70798C-0.605521 7.71114 0.256303 10.6771 1.38211 12.3075C1.93337 13.115 2.59332 14.0001 3.46291 13.9691C4.28591 13.938 4.61201 13.4333 5.60582 13.4333C6.6074 13.4333 6.89468 13.9691 7.76427 13.9535C8.66491 13.938 9.2317 13.1461 9.78295 12.3386C10.4119 11.4224 10.6681 10.5295 10.6836 10.483C10.6681 10.4674 8.94442 9.80747 8.92889 7.81984C8.91336 6.15831 10.2876 5.36636 10.3497 5.31978C9.57332 4.17068 8.36211 4.04645 7.94284 4.01539ZM14.1775 1.76378V13.8681H16.0564V9.72983H18.6574C21.0333 9.72983 22.7025 8.09935 22.7025 5.73904C22.7025 3.37873 21.0643 1.76378 18.7195 1.76378H14.1775ZM16.0564 3.34767H18.2226C19.8531 3.34767 20.7848 4.21726 20.7848 5.74681C20.7848 7.27635 19.8531 8.1537 18.2149 8.1537H16.0564V3.34767ZM26.1343 13.9613C27.3145 13.9613 28.4092 13.3635 28.9061 12.4162H28.945V13.8681H30.6841V7.84313C30.6841 6.09619 29.2866 4.97039 27.1359 4.97039C25.1405 4.97039 23.6653 6.11172 23.611 7.68009H25.3035C25.4433 6.93472 26.1343 6.44558 27.0815 6.44558C28.2306 6.44558 28.8751 6.98131 28.8751 7.96736V8.63508L26.5303 8.77484C24.3486 8.90683 23.1684 9.79971 23.1684 11.3525C23.1684 12.9209 24.3874 13.9613 26.1343 13.9613ZM26.639 12.5249C25.6374 12.5249 25.0007 12.0436 25.0007 11.306C25.0007 10.5451 25.6141 10.1025 26.7865 10.0326L28.8751 9.90064V10.5839C28.8751 11.7175 27.9123 12.5249 26.639 12.5249ZM33.0056 17.1602C34.838 17.1602 35.6998 16.4614 36.4529 14.3418L39.7527 5.08685H37.8427L35.6299 12.2377H35.5911L33.3783 5.08685H31.414L34.5973 13.8992L34.4265 14.4349C34.1392 15.3433 33.6733 15.6927 32.8426 15.6927C32.695 15.6927 32.4078 15.6772 32.2913 15.6617V17.1136C32.4 17.1446 32.8659 17.1602 33.0056 17.1602Z" fill="black"/>
</svg>
