<svg width="43" height="42" viewBox="0 0 43 42" fill="none" xmlns="http://www.w3.org/2000/svg">
<g filter="url(#filter0_d_54_8836)">
<path d="M25.646 27.0151C26.0748 28.6155 25.1251 30.2606 23.5247 30.6894C21.9243 31.1182 20.2792 30.1685 19.8504 28.5681M12.0569 20.6137C11.6674 19.2155 12.0724 17.7039 13.1088 16.6877M22.1464 14.7412C22.4506 14.1939 22.5508 13.5324 22.3759 12.8798C22.0186 11.5462 20.6477 10.7547 19.3141 11.1121C17.9804 11.4694 17.1889 12.8402 17.5463 14.1739C17.7212 14.8265 18.1387 15.3493 18.6758 15.6712M30.3191 15.7204C29.9573 14.3148 28.8507 13.2082 27.4451 12.8464M27.4907 18.4456C27.1337 17.1135 26.1808 15.9996 24.8415 15.3488C23.5023 14.6981 21.8864 14.5639 20.3493 14.9757C18.8122 15.3876 17.4799 16.3118 16.6454 17.545C15.8109 18.7782 15.5426 20.2193 15.8996 21.5515C16.4902 23.7555 16.3755 25.5139 16.0025 26.8501C15.5775 28.3729 15.3649 29.1343 15.4223 29.2872C15.488 29.4622 15.5356 29.5102 15.7098 29.5777C15.8621 29.6367 16.5019 29.4653 17.7814 29.1224L29.6465 25.9432C30.926 25.6003 31.5658 25.4289 31.6682 25.3016C31.7853 25.1561 31.8024 25.0907 31.7719 24.9064C31.7451 24.7453 31.1804 24.1921 30.0508 23.0858C29.0598 22.1152 28.0813 20.6497 27.4907 18.4456Z" stroke="#5AC28F" stroke-width="2" stroke-linecap="round" stroke-linejoin="round"/>
</g>
<defs>
<filter id="filter0_d_54_8836" x="0" y="-0.999756" width="44" height="44" filterUnits="userSpaceOnUse" color-interpolation-filters="sRGB">
<feFlood flood-opacity="0" result="BackgroundImageFix"/>
<feColorMatrix in="SourceAlpha" type="matrix" values="0 0 0 0 0 0 0 0 0 0 0 0 0 0 0 0 0 0 127 0" result="hardAlpha"/>
<feOffset/>
<feGaussianBlur stdDeviation="5"/>
<feColorMatrix type="matrix" values="0 0 0 0 0.352941 0 0 0 0 0.760784 0 0 0 0 0.560784 0 0 0 1 0"/>
<feBlend mode="normal" in2="BackgroundImageFix" result="effect1_dropShadow_54_8836"/>
<feBlend mode="normal" in="SourceGraphic" in2="effect1_dropShadow_54_8836" result="shape"/>
</filter>
</defs>
</svg>
