<svg width="14" height="14" viewBox="0 0 14 14" fill="none" xmlns="http://www.w3.org/2000/svg">
<path d="M9.63889 2.22458V1.39759C9.63889 1.18024 9.45 1 9.22222 1C8.99444 1 8.80556 1.18024 8.80556 1.39759V2.19277H5.19444V1.39759C5.19444 1.18024 5.00556 1 4.77778 1C4.55 1 4.36111 1.18024 4.36111 1.39759V2.22458C2.86111 2.35711 2.13333 3.2106 2.02222 4.47759C2.01111 4.63133 2.14444 4.75855 2.3 4.75855H11.7C11.8611 4.75855 11.9944 4.62602 11.9778 4.47759C11.8667 3.2106 11.1389 2.35711 9.63889 2.22458ZM11.4444 5.55374H2.55556C2.25 5.55374 2 5.79229 2 6.08386V9.3494C2 10.9398 2.83333 12 4.77778 12H9.22222C11.1667 12 12 10.9398 12 9.3494V6.08386C12 5.79229 11.75 5.55374 11.4444 5.55374ZM5.45 9.99084C5.42222 10.012 5.39444 10.0386 5.36667 10.0545C5.33333 10.0757 5.3 10.0916 5.26667 10.1022C5.23333 10.1181 5.2 10.1287 5.16667 10.134C5.12778 10.1393 5.09444 10.1446 5.05556 10.1446C4.98333 10.1446 4.91111 10.1287 4.84444 10.1022C4.77222 10.0757 4.71667 10.0386 4.66111 9.99084C4.56111 9.89012 4.5 9.75229 4.5 9.61446C4.5 9.47663 4.56111 9.3388 4.66111 9.23807C4.71667 9.19036 4.77222 9.15325 4.84444 9.12675C4.94444 9.08434 5.05556 9.07374 5.16667 9.09494C5.2 9.10024 5.23333 9.11084 5.26667 9.12675C5.3 9.13735 5.33333 9.15325 5.36667 9.17446L5.45 9.23807C5.55 9.3388 5.61111 9.47663 5.61111 9.61446C5.61111 9.75229 5.55 9.89012 5.45 9.99084ZM5.45 8.13542C5.34444 8.23084 5.2 8.28916 5.05556 8.28916C4.91111 8.28916 4.76667 8.23084 4.66111 8.13542C4.56111 8.0347 4.5 7.89687 4.5 7.75904C4.5 7.6212 4.56111 7.48337 4.66111 7.38265C4.81667 7.23422 5.06111 7.18651 5.26667 7.27133C5.33889 7.29783 5.4 7.33494 5.45 7.38265C5.55 7.48337 5.61111 7.6212 5.61111 7.75904C5.61111 7.89687 5.55 8.0347 5.45 8.13542ZM7.39444 9.99084C7.28889 10.0863 7.14444 10.1446 7 10.1446C6.85556 10.1446 6.71111 10.0863 6.60556 9.99084C6.50556 9.89012 6.44444 9.75229 6.44444 9.61446C6.44444 9.47663 6.50556 9.3388 6.60556 9.23807C6.81111 9.04193 7.18889 9.04193 7.39444 9.23807C7.49444 9.3388 7.55556 9.47663 7.55556 9.61446C7.55556 9.75229 7.49444 9.89012 7.39444 9.99084ZM7.39444 8.13542L7.31111 8.19904C7.27778 8.22024 7.24444 8.23614 7.21111 8.24675C7.17778 8.26265 7.14444 8.27325 7.11111 8.27855C7.07222 8.28386 7.03889 8.28916 7 8.28916C6.85556 8.28916 6.71111 8.23084 6.60556 8.13542C6.50556 8.0347 6.44444 7.89687 6.44444 7.75904C6.44444 7.6212 6.50556 7.48337 6.60556 7.38265C6.65556 7.33494 6.71667 7.29783 6.78889 7.27133C6.99444 7.18651 7.23889 7.23422 7.39444 7.38265C7.49444 7.48337 7.55556 7.6212 7.55556 7.75904C7.55556 7.89687 7.49444 8.0347 7.39444 8.13542ZM9.33889 9.99084C9.23333 10.0863 9.08889 10.1446 8.94444 10.1446C8.8 10.1446 8.65556 10.0863 8.55 9.99084C8.45 9.89012 8.38889 9.75229 8.38889 9.61446C8.38889 9.47663 8.45 9.3388 8.55 9.23807C8.75556 9.04193 9.13333 9.04193 9.33889 9.23807C9.43889 9.3388 9.5 9.47663 9.5 9.61446C9.5 9.75229 9.43889 9.89012 9.33889 9.99084ZM9.33889 8.13542L9.25556 8.19904C9.22222 8.22024 9.18889 8.23614 9.15556 8.24675C9.12222 8.26265 9.08889 8.27325 9.05556 8.27855C9.01667 8.28386 8.97778 8.28916 8.94444 8.28916C8.8 8.28916 8.65556 8.23084 8.55 8.13542C8.45 8.0347 8.38889 7.89687 8.38889 7.75904C8.38889 7.6212 8.45 7.48337 8.55 7.38265C8.60556 7.33494 8.66111 7.29783 8.73333 7.27133C8.83333 7.22892 8.94444 7.21831 9.05556 7.23952C9.08889 7.24482 9.12222 7.25542 9.15556 7.27133C9.18889 7.28193 9.22222 7.29783 9.25556 7.31904L9.33889 7.38265C9.43889 7.48337 9.5 7.6212 9.5 7.75904C9.5 7.89687 9.43889 8.0347 9.33889 8.13542Z" fill="#5AC28F"/>
</svg>
