<svg width="16" height="16" viewBox="0 0 16 16" fill="none" xmlns="http://www.w3.org/2000/svg">
<path d="M7.36634 9.96634L6.13301 11.1997C5.87301 11.4597 5.45967 11.4597 5.19301 11.2063C5.11967 11.133 5.04634 11.0663 4.97301 10.993C4.29885 10.3143 3.67707 9.5856 3.11301 8.81301C2.56634 8.05301 2.12634 7.29301 1.80634 6.53967C1.49301 5.77967 1.33301 5.05301 1.33301 4.35967C1.33301 3.90634 1.41301 3.47301 1.57301 3.07301C1.73301 2.66634 1.98634 2.29301 2.33967 1.95967C2.76634 1.53967 3.23301 1.33301 3.72634 1.33301C3.91301 1.33301 4.09967 1.37301 4.26634 1.45301C4.43967 1.53301 4.59301 1.65301 4.71301 1.82634L6.25967 4.00634C6.37967 4.17301 6.46634 4.32634 6.52634 4.47301C6.58634 4.61301 6.61967 4.75301 6.61967 4.87967C6.61967 5.03967 6.57301 5.19967 6.47967 5.35301C6.39301 5.50634 6.26634 5.66634 6.10634 5.82634L5.59967 6.35301C5.52634 6.42634 5.49301 6.51301 5.49301 6.61967C5.49301 6.67301 5.49967 6.71967 5.51301 6.77301C5.53301 6.82634 5.55301 6.86634 5.56634 6.90634C5.68634 7.12634 5.89301 7.41301 6.18634 7.75967C6.48634 8.10634 6.80634 8.45967 7.15301 8.81301C7.21967 8.87967 7.29301 8.94634 7.35967 9.01301C7.62634 9.27301 7.63301 9.69967 7.36634 9.96634ZM14.6463 12.2197C14.6455 12.4713 14.5885 12.7195 14.4797 12.9463C14.3663 13.1863 14.2197 13.413 14.0263 13.6263C13.6997 13.9863 13.3397 14.2463 12.933 14.413C12.9263 14.413 12.9197 14.4197 12.913 14.4197C12.5197 14.5797 12.093 14.6663 11.633 14.6663C10.953 14.6663 10.2263 14.5063 9.45967 14.1797C8.69301 13.853 7.92634 13.413 7.16634 12.8597C6.90634 12.6663 6.64634 12.473 6.39967 12.2663L8.57967 10.0863C8.76634 10.2263 8.93301 10.333 9.07301 10.4063C9.10634 10.4197 9.14634 10.4397 9.19301 10.4597C9.24634 10.4797 9.29967 10.4863 9.35967 10.4863C9.47301 10.4863 9.55967 10.4463 9.63301 10.373L10.1397 9.87301C10.3063 9.70634 10.4663 9.57967 10.6197 9.49967C10.773 9.40634 10.9263 9.35967 11.093 9.35967C11.2197 9.35967 11.353 9.38634 11.4997 9.44634C11.6463 9.50634 11.7997 9.59301 11.9663 9.70634L14.173 11.273C14.3463 11.393 14.4663 11.533 14.5397 11.6997C14.6063 11.8663 14.6463 12.033 14.6463 12.2197Z" fill="#5AC28F"/>
</svg>
