<svg width="18" height="18" viewBox="0 0 18 18" fill="none" xmlns="http://www.w3.org/2000/svg">
<g id="Travel &#38; Location">
<path id="Icon" d="M3 10.875V9.12805C3 8.27942 3.67157 7.59146 4.5 7.59146M3 10.875C3 11.7236 3.67157 12.4116 4.5 12.4116H13.5C14.3284 12.4116 15 11.7236 15 10.875M3 10.875V13.2256C3 13.7914 3.44772 14.25 4 14.25H5C5.55228 14.25 6 13.7914 6 13.2256V12.4116M15 10.875V9.12805C15 8.27942 14.3284 7.59146 13.5 7.59146H4.5M15 10.875V13.2256C15 13.7914 14.5523 14.25 14 14.25H13C12.4477 14.25 12 13.7914 12 13.2256V12.4116M4.5 7.59146L5.30204 4.51044C5.41878 4.06201 5.81523 3.75 6.26828 3.75H11.7792C12.2097 3.75 12.5918 4.03215 12.7279 4.45045L13.75 7.59146M4.75 9.89634H6.5M11.5 9.89634H13.25" stroke="#9392A0" stroke-linecap="round" stroke-linejoin="round"/>
</g>
</svg>
