<svg width="26" height="28" viewBox="0 0 26 28" fill="none" xmlns="http://www.w3.org/2000/svg">
<mask id="mask0_1_2032" style="mask-type:luminance" maskUnits="userSpaceOnUse" x="0" y="2" width="26" height="26">
<path d="M25.9746 27.9746V2.02539H0.0253906V27.9746H25.9746Z" fill="white" stroke="white" stroke-width="0.0507812"/>
</mask>
<g mask="url(#mask0_1_2032)">
<path d="M7.30017 17.4432C7.30017 18.5672 6.38895 19.4785 5.2648 19.4785C4.14076 19.4785 3.22949 18.5672 3.22949 17.4432C3.22949 16.3191 4.14076 15.4078 5.2648 15.4078C6.38895 15.4078 7.30017 16.3191 7.30017 17.4432Z" stroke="#959595" stroke-width="0.761719" stroke-miterlimit="10" stroke-linecap="round" stroke-linejoin="round"/>
<path d="M7.29883 18.2578H19.1038" stroke="#959595" stroke-width="0.761719" stroke-miterlimit="10" stroke-linecap="round" stroke-linejoin="round"/>
<path d="M5.55417 17.1548L4.97852 17.7305" stroke="#959595" stroke-width="0.761719" stroke-miterlimit="10" stroke-linecap="round" stroke-linejoin="round"/>
<path d="M23.1742 17.4432C23.1742 18.5672 22.263 19.4785 21.1388 19.4785C20.0148 19.4785 19.1035 18.5672 19.1035 17.4432C19.1035 16.3191 20.0148 15.4078 21.1388 15.4078C22.263 15.4078 23.1742 16.3191 23.1742 17.4432Z" stroke="#959595" stroke-width="0.761719" stroke-miterlimit="10" stroke-linecap="round" stroke-linejoin="round"/>
<path d="M20.8525 17.1548L21.4282 17.7305" stroke="#959595" stroke-width="0.761719" stroke-miterlimit="10" stroke-linecap="round" stroke-linejoin="round"/>
<path d="M3.22839 17.8508L1.26463 17.2897C0.740367 17.1399 0.378906 16.6607 0.378906 16.1155V13.6846C0.378906 13.274 0.68466 12.9277 1.09208 12.8768L2.59764 12.6886C3.28451 12.6027 3.95182 12.4007 4.57095 12.0911L6.50282 11.1252C7.29414 10.7295 8.16677 10.5235 9.05148 10.5235H12.6782C13.6847 10.5235 14.6702 10.8105 15.5193 11.3509L18.697 13.373C18.697 13.373 22.387 13.373 24.6891 14.4421C25.2592 14.7068 25.6172 15.2853 25.6172 15.9139V17.2653C25.6172 17.8954 25.2527 18.2578 24.8031 18.2578" stroke="#959595" stroke-width="0.761719" stroke-miterlimit="10" stroke-linecap="round" stroke-linejoin="round"/>
<path d="M8.11414 13.373H7.32896C6.78915 13.373 6.27144 13.1586 5.88971 12.7769L5.26465 12.1519" stroke="#959595" stroke-width="0.761719" stroke-miterlimit="10" stroke-linecap="round" stroke-linejoin="round"/>
<path d="M18.6986 13.373H9.74316" stroke="#959595" stroke-width="0.761719" stroke-miterlimit="10" stroke-linecap="round" stroke-linejoin="round"/>
<path d="M8.92871 16.6289H17.4771" stroke="#959595" stroke-width="0.761719" stroke-miterlimit="10" stroke-linecap="round" stroke-linejoin="round"/>
<path d="M0.378906 14.5938H1.19303" stroke="#959595" stroke-width="0.761719" stroke-miterlimit="10" stroke-linecap="round" stroke-linejoin="round"/>
<path d="M24.3975 15.4082H25.3812" stroke="#959595" stroke-width="0.761719" stroke-miterlimit="10" stroke-linecap="round" stroke-linejoin="round"/>
<path d="M11.3721 13.373V10.5236" stroke="#959595" stroke-width="0.761719" stroke-miterlimit="10" stroke-linecap="round" stroke-linejoin="round"/>
<path d="M6.6875 13.207L7.21745 10.8661" stroke="#959595" stroke-width="0.761719" stroke-miterlimit="10" stroke-linecap="round" stroke-linejoin="round"/>
</g>
<path d="M21.5 5.55C22.0799 5.55 22.55 5.0799 22.55 4.5C22.55 3.9201 22.0799 3.45 21.5 3.45C20.9201 3.45 20.45 3.9201 20.45 4.5C20.45 5.0799 20.9201 5.55 21.5 5.55Z" stroke="#959595" stroke-width="0.7" stroke-linecap="round" stroke-linejoin="round"/>
<path d="M23.8545 5.45455C23.8122 5.55051 23.7996 5.65697 23.8183 5.76019C23.837 5.8634 23.8862 5.95865 23.9595 6.03364L23.9786 6.05273C24.0378 6.11183 24.0847 6.18201 24.1168 6.25927C24.1488 6.33652 24.1653 6.41933 24.1653 6.50295C24.1653 6.58658 24.1488 6.66939 24.1168 6.74664C24.0847 6.8239 24.0378 6.89408 23.9786 6.95318C23.9195 7.01235 23.8494 7.05929 23.7721 7.09131C23.6948 7.12334 23.612 7.13982 23.5284 7.13982C23.4448 7.13982 23.362 7.12334 23.2847 7.09131C23.2075 7.05929 23.1373 7.01235 23.0782 6.95318L23.0591 6.93409C22.9841 6.86074 22.8889 6.81153 22.7856 6.79282C22.6824 6.7741 22.576 6.78674 22.48 6.82909C22.3859 6.86942 22.3056 6.9364 22.2491 7.02176C22.1926 7.10713 22.1622 7.20716 22.1618 7.30955V7.36364C22.1618 7.53241 22.0948 7.69427 21.9754 7.81361C21.8561 7.93295 21.6942 8 21.5255 8C21.3567 8 21.1948 7.93295 21.0755 7.81361C20.9561 7.69427 20.8891 7.53241 20.8891 7.36364V7.335C20.8866 7.22968 20.8525 7.12754 20.7913 7.04186C20.73 6.95617 20.6443 6.89091 20.5455 6.85455C20.4495 6.81219 20.343 6.79956 20.2398 6.81827C20.1366 6.83699 20.0414 6.88619 19.9664 6.95955L19.9473 6.97864C19.8882 7.0378 19.818 7.08474 19.7407 7.11677C19.6635 7.14879 19.5807 7.16527 19.497 7.16527C19.4134 7.16527 19.3306 7.14879 19.2534 7.11677C19.1761 7.08474 19.1059 7.0378 19.0468 6.97864C18.9877 6.91954 18.9407 6.84935 18.9087 6.7721C18.8767 6.69485 18.8602 6.61204 18.8602 6.52841C18.8602 6.44478 18.8767 6.36197 18.9087 6.28472C18.9407 6.20747 18.9877 6.13728 19.0468 6.07818L19.0659 6.05909C19.1393 5.9841 19.1885 5.88886 19.2072 5.78564C19.2259 5.68243 19.2133 5.57597 19.1709 5.48C19.1306 5.38589 19.0636 5.30563 18.9782 5.2491C18.8929 5.19256 18.7928 5.16223 18.6905 5.16182H18.6364C18.4676 5.16182 18.3057 5.09477 18.1864 4.97543C18.067 4.85609 18 4.69423 18 4.52545C18 4.35668 18.067 4.19482 18.1864 4.07548C18.3057 3.95614 18.4676 3.88909 18.6364 3.88909H18.665C18.7703 3.88663 18.8725 3.85254 18.9581 3.79125C19.0438 3.72997 19.1091 3.64432 19.1455 3.54545C19.1878 3.44949 19.2004 3.34303 19.1817 3.23981C19.163 3.1366 19.1138 3.04135 19.0405 2.96636L19.0214 2.94727C18.9622 2.88817 18.9153 2.81799 18.8832 2.74073C18.8512 2.66348 18.8347 2.58067 18.8347 2.49705C18.8347 2.41342 18.8512 2.33061 18.8832 2.25336C18.9153 2.1761 18.9622 2.10592 19.0214 2.04682C19.0805 1.98765 19.1506 1.94071 19.2279 1.90869C19.3052 1.87666 19.388 1.86018 19.4716 1.86018C19.5552 1.86018 19.638 1.87666 19.7153 1.90869C19.7925 1.94071 19.8627 1.98765 19.9218 2.04682L19.9409 2.06591C20.0159 2.13926 20.1111 2.18847 20.2144 2.20718C20.3176 2.2259 20.424 2.21326 20.52 2.17091H20.5455C20.6396 2.13058 20.7198 2.0636 20.7764 1.97824C20.8329 1.89287 20.8632 1.79284 20.8636 1.69045V1.63636C20.8636 1.46759 20.9307 1.30573 21.05 1.18639C21.1694 1.06705 21.3312 1 21.5 1C21.6688 1 21.8306 1.06705 21.95 1.18639C22.0693 1.30573 22.1364 1.46759 22.1364 1.63636V1.665C22.1368 1.76739 22.1671 1.86742 22.2236 1.95278C22.2802 2.03815 22.3604 2.10512 22.4545 2.14545C22.5505 2.18781 22.657 2.20044 22.7602 2.18173C22.8634 2.16301 22.9586 2.11381 23.0336 2.04045L23.0527 2.02136C23.1118 1.9622 23.182 1.91526 23.2593 1.88323C23.3365 1.85121 23.4193 1.83473 23.503 1.83473C23.5866 1.83473 23.6694 1.85121 23.7466 1.88323C23.8239 1.91526 23.8941 1.9622 23.9532 2.02136C24.0123 2.08046 24.0593 2.15065 24.0913 2.2279C24.1233 2.30515 24.1398 2.38796 24.1398 2.47159C24.1398 2.55522 24.1233 2.63803 24.0913 2.71528C24.0593 2.79253 24.0123 2.86272 23.9532 2.92182L23.9341 2.94091C23.8607 3.0159 23.8115 3.11114 23.7928 3.21436C23.7741 3.31757 23.7867 3.42403 23.8291 3.52V3.54545C23.8694 3.63956 23.9364 3.71982 24.0218 3.77636C24.1071 3.83289 24.2072 3.86323 24.3095 3.86364H24.3636C24.5324 3.86364 24.6943 3.93068 24.8136 4.05002C24.933 4.16936 25 4.33123 25 4.5C25 4.66877 24.933 4.83064 24.8136 4.94998C24.6943 5.06932 24.5324 5.13636 24.3636 5.13636H24.335C24.2326 5.13677 24.1326 5.16711 24.0472 5.22364C23.9619 5.28018 23.8949 5.36044 23.8545 5.45455Z" stroke="#959595" stroke-width="0.7" stroke-linecap="round" stroke-linejoin="round"/>
</svg>
