<svg width="130" height="68" viewBox="0 0 130 68" fill="none" xmlns="http://www.w3.org/2000/svg">
<g opacity="0.1" filter="url(#filter0_bd_216_12513)">
<rect x="20" y="12" width="90" height="28" rx="14" fill="#5AC28F"/>
</g>
<path d="M53.9441 25.4C53.9441 24.6533 54.0874 24.0033 54.3741 23.45C54.6607 22.89 55.0807 22.4567 55.6341 22.15C56.1874 21.8367 56.8641 21.68 57.6641 21.68C58.0041 21.68 58.3074 21.71 58.5741 21.77C58.8407 21.8233 59.0674 21.8967 59.2541 21.99V23.05H59.1641C58.9774 22.9367 58.7574 22.8533 58.5041 22.8C58.2507 22.74 57.9774 22.71 57.6841 22.71C57.1574 22.71 56.7007 22.81 56.3141 23.01C55.9341 23.21 55.6407 23.51 55.4341 23.91C55.2341 24.31 55.1341 24.8067 55.1341 25.4C55.1341 25.9933 55.2341 26.49 55.4341 26.89C55.6407 27.29 55.9341 27.59 56.3141 27.79C56.7007 27.99 57.1574 28.09 57.6841 28.09C57.9774 28.09 58.2507 28.0633 58.5041 28.01C58.7574 27.95 58.9774 27.8633 59.1641 27.75H59.2541V28.81C59.0674 28.9033 58.8407 28.9767 58.5741 29.03C58.3074 29.09 58.0041 29.12 57.6641 29.12C56.8641 29.12 56.1874 28.9733 55.6341 28.68C55.0807 28.38 54.6607 27.9533 54.3741 27.4C54.0874 26.84 53.9441 26.1733 53.9441 25.4ZM65.2684 29V21.8H66.4284V29H65.2684ZM60.8084 29V21.8H61.9684V29H60.8084ZM61.4684 25.79V24.79H65.7684V25.79H61.4684ZM67.7898 29L68.5898 24.22C68.6565 23.7933 68.7632 23.4233 68.9098 23.11C69.0565 22.7967 69.2465 22.5367 69.4798 22.33C69.7198 22.1233 70.0165 21.97 70.3698 21.87C70.7298 21.77 71.1598 21.72 71.6598 21.72C71.9065 21.72 72.1598 21.7333 72.4198 21.76C72.6865 21.7867 72.9498 21.83 73.2098 21.89L73.2298 22.01C73.2098 22.1367 73.1932 22.3 73.1798 22.5C73.1732 22.7 73.1698 22.9033 73.1698 23.11C73.1698 23.31 73.1698 23.4767 73.1698 23.61V29H72.0198V23.25C72.0198 23.1033 72.0198 22.9667 72.0198 22.84C72.0265 22.7133 72.0432 22.5933 72.0698 22.48L72.2498 22.8C72.1632 22.7667 72.0565 22.7433 71.9298 22.73C71.8098 22.7167 71.6798 22.71 71.5398 22.71C71.1332 22.71 70.8098 22.7667 70.5698 22.88C70.3298 22.9933 70.1465 23.16 70.0198 23.38C69.8998 23.6 69.8098 23.8833 69.7498 24.23L68.9598 29H67.7898ZM68.8498 26.89V25.91H72.5198V26.89H68.8498ZM74.9881 29V21.8H75.9381L79.9381 25.99V27.57L75.8281 23.27L76.1481 23.14V29H74.9881ZM79.4481 29V21.8H80.6081V29H79.4481ZM82.0495 25.41C82.0495 24.6633 82.1962 24.0133 82.4895 23.46C82.7895 22.9 83.2229 22.4633 83.7895 22.15C84.3629 21.8367 85.0529 21.68 85.8595 21.68C86.2262 21.68 86.5495 21.71 86.8295 21.77C87.1162 21.8233 87.3529 21.8967 87.5395 21.99V23.05H87.4495C87.2762 22.9633 87.0529 22.8867 86.7795 22.82C86.5129 22.7467 86.2129 22.71 85.8795 22.71C85.0529 22.71 84.4062 22.93 83.9395 23.37C83.4729 23.81 83.2395 24.49 83.2395 25.41C83.2395 26.03 83.3395 26.54 83.5395 26.94C83.7462 27.34 84.0362 27.64 84.4095 27.84C84.7829 28.0333 85.2262 28.13 85.7395 28.13C85.9395 28.13 86.1262 28.1133 86.2995 28.08C86.4729 28.04 86.6362 27.99 86.7895 27.93L86.5395 28.49V25.35H87.6595V28.72C87.4329 28.84 87.1495 28.9367 86.8095 29.01C86.4762 29.0833 86.1162 29.12 85.7295 29.12C84.9095 29.12 84.2262 28.9667 83.6795 28.66C83.1329 28.3467 82.7229 27.9133 82.4495 27.36C82.1829 26.8 82.0495 26.15 82.0495 25.41ZM89.3436 29V21.8H90.5036V29H89.3436ZM90.0036 29V27.99H94.0736V29H90.0036ZM90.0036 25.75V24.77H93.4136V25.75H90.0036ZM90.0036 22.81V21.8H93.9636V22.81H90.0036Z" fill="#5AC28F"/>
<path d="M40.5 30.833H45.375" stroke="#5AC28F" stroke-width="1.5" stroke-linecap="round" stroke-linejoin="round"/>
<path d="M42.9375 21.8961C43.153 21.6806 43.4453 21.5596 43.75 21.5596C43.9009 21.5596 44.0503 21.5893 44.1897 21.647C44.3291 21.7048 44.4558 21.7894 44.5625 21.8961C44.6692 22.0028 44.7538 22.1295 44.8116 22.2689C44.8693 22.4083 44.899 22.5577 44.899 22.7086C44.899 22.8595 44.8693 23.0089 44.8116 23.1483C44.7538 23.2877 44.6692 23.4144 44.5625 23.5211L37.7917 30.292L35.625 30.8336L36.1667 28.667L42.9375 21.8961Z" stroke="#5AC28F" stroke-width="1.5" stroke-linecap="round" stroke-linejoin="round"/>
<defs>
<filter id="filter0_bd_216_12513" x="-7.18282" y="-15.1828" width="144.366" height="83.1828" filterUnits="userSpaceOnUse" color-interpolation-filters="sRGB">
<feFlood flood-opacity="0" result="BackgroundImageFix"/>
<feGaussianBlur in="BackgroundImageFix" stdDeviation="13.5914"/>
<feComposite in2="SourceAlpha" operator="in" result="effect1_backgroundBlur_216_12513"/>
<feColorMatrix in="SourceAlpha" type="matrix" values="0 0 0 0 0 0 0 0 0 0 0 0 0 0 0 0 0 0 127 0" result="hardAlpha"/>
<feOffset dy="8"/>
<feGaussianBlur stdDeviation="10"/>
<feColorMatrix type="matrix" values="0 0 0 0 0.290196 0 0 0 0 0.823529 0 0 0 0 0.894118 0 0 0 0.0818127 0"/>
<feBlend mode="normal" in2="effect1_backgroundBlur_216_12513" result="effect2_dropShadow_216_12513"/>
<feBlend mode="normal" in="SourceGraphic" in2="effect2_dropShadow_216_12513" result="shape"/>
</filter>
</defs>
</svg>
