<svg width="128" height="68" viewBox="0 0 128 68" fill="none" xmlns="http://www.w3.org/2000/svg">
<g opacity="0.1" filter="url(#filter0_bd_1618_9663)">
<rect x="18" y="12" width="90" height="28" rx="14" fill="#5AC28F"/>
</g>
<path d="M69.6921 29.01C68.8021 29.01 68.0921 28.74 67.8021 27.81C67.5321 28.17 67.0521 28.35 66.5321 28.35C66.2621 28.35 65.9721 28.28 65.7221 28.16C65.7321 28.27 65.7321 28.38 65.7321 28.49C65.7321 30.76 64.2321 31.99 62.3121 32.45L61.9321 31.17C62.8621 31 64.7021 30.1 64.7021 28.52C64.7021 27.81 64.5521 27.23 64.2221 26.19L65.2521 25.92C65.3121 26.08 65.3721 26.26 65.4221 26.44C65.6721 26.88 66.0721 27.04 66.5121 27.04C66.9821 27.04 67.5721 26.85 67.5821 26.38L67.6421 25.23L68.5021 25.13V26.64C68.5021 27.52 68.9121 27.73 69.6921 27.73V29.01ZM66.6621 32.08L65.8921 31.3L66.6621 30.51L67.3921 31.25L68.1121 30.51L68.9021 31.3L68.1121 32.08L67.3921 31.35L66.6621 32.08ZM73.0177 29C72.0877 29 71.4777 28.69 71.2377 28.03C71.0177 28.66 70.4877 28.99 69.6977 29H69.6777V28.99L69.3477 28.91V27.81L69.6777 27.73V27.72C70.4277 27.72 70.7577 27.51 70.8677 26.62L70.9677 25.8L71.8277 25.7V26.62C71.8277 27.51 72.2377 27.72 73.0177 27.72V29ZM70.3377 32.09L69.5677 31.31L70.3377 30.52L71.0677 31.26L71.7877 30.52L72.5777 31.31L71.7877 32.09L71.0677 31.36L70.3377 32.09ZM72.9478 29V27.72H73.1078C73.9778 27.72 74.7878 27.44 75.4978 27.08C74.7578 26.49 74.0778 25.97 73.3578 25.9L73.5078 24.88C75.2678 23.98 77.7278 24.08 79.3078 24.85L79.1378 25.98C78.6978 26.07 78.0678 26.54 77.2978 27.09C77.9378 27.45 78.6878 27.72 79.6978 27.72V29C78.3278 29 77.2678 28.41 76.3578 27.74C75.3278 28.4 74.1578 29 72.9478 29ZM72.5578 27.81L72.9378 27.72V29L72.5578 28.91V27.81ZM76.3478 22.94L75.5778 22.16L76.3478 21.38L77.1278 22.16L76.3478 22.94ZM74.7778 25.44C75.3678 25.68 75.8778 26.11 76.4478 26.53C77.0878 26.11 77.6278 25.69 78.0378 25.47C77.0778 25.19 75.7978 25.21 74.7778 25.44ZM79.6973 27.72C80.5773 27.72 80.9273 27.39 80.9273 26.79C80.9273 26.31 80.7473 25.7 80.5373 25.02L81.4773 24.79C81.7073 25.3 81.8873 26.22 81.8873 26.87C81.8873 28.15 81.2073 28.99 79.7173 29H79.6973V28.99L79.3673 28.91V27.81L79.6973 27.73V27.72ZM80.0073 23.32L79.2373 22.53L80.0073 21.75L80.7373 22.48L81.4673 21.75L82.2473 22.53L81.4673 23.32L80.7373 22.58L80.0073 23.32Z" fill="#5AC28F"/>
<path d="M38.5 30.8335H43.375" stroke="#5AC28F" stroke-width="1.5" stroke-linecap="round" stroke-linejoin="round"/>
<path d="M40.9375 21.8956C41.153 21.6801 41.4453 21.5591 41.75 21.5591C41.9009 21.5591 42.0503 21.5888 42.1897 21.6465C42.3291 21.7043 42.4558 21.7889 42.5625 21.8956C42.6692 22.0023 42.7538 22.129 42.8116 22.2684C42.8693 22.4078 42.899 22.5572 42.899 22.7081C42.899 22.859 42.8693 23.0084 42.8116 23.1479C42.7538 23.2873 42.6692 23.4139 42.5625 23.5206L35.7917 30.2915L33.625 30.8331L34.1667 28.6665L40.9375 21.8956Z" stroke="#5AC28F" stroke-width="1.5" stroke-linecap="round" stroke-linejoin="round"/>
<defs>
<filter id="filter0_bd_1618_9663" x="-9.18282" y="-15.1828" width="144.366" height="83.1828" filterUnits="userSpaceOnUse" color-interpolation-filters="sRGB">
<feFlood flood-opacity="0" result="BackgroundImageFix"/>
<feGaussianBlur in="BackgroundImageFix" stdDeviation="13.5914"/>
<feComposite in2="SourceAlpha" operator="in" result="effect1_backgroundBlur_1618_9663"/>
<feColorMatrix in="SourceAlpha" type="matrix" values="0 0 0 0 0 0 0 0 0 0 0 0 0 0 0 0 0 0 127 0" result="hardAlpha"/>
<feOffset dy="8"/>
<feGaussianBlur stdDeviation="10"/>
<feColorMatrix type="matrix" values="0 0 0 0 0.290196 0 0 0 0 0.823529 0 0 0 0 0.894118 0 0 0 0.0818127 0"/>
<feBlend mode="normal" in2="effect1_backgroundBlur_1618_9663" result="effect2_dropShadow_1618_9663"/>
<feBlend mode="normal" in="SourceGraphic" in2="effect2_dropShadow_1618_9663" result="shape"/>
</filter>
</defs>
</svg>
