<svg width="25" height="25" viewBox="0 0 25 25" fill="none" xmlns="http://www.w3.org/2000/svg">
<path d="M22.2852 0.390633C21.9798 0.389827 21.6774 0.449589 21.3953 0.566458C21.1132 0.683328 20.8571 0.854984 20.6418 1.07149L19.6695 2.04376C19.477 2.23515 19.2168 2.34294 18.9453 2.34376C18.4667 2.345 18.008 2.53507 17.6687 2.87266L16.9113 3.63009C16.8381 3.70334 16.797 3.80268 16.797 3.90626C16.797 4.00984 16.8381 4.10918 16.9113 4.18243L17.4164 4.68751L16.8004 5.30352C14.6207 3.84307 11.9755 3.24598 9.37977 3.62849C6.78405 4.011 4.42354 5.34574 2.75776 7.37287C1.09198 9.4 0.240131 11.9745 0.368039 14.5951C0.495948 17.2157 1.59446 19.695 3.44973 21.5503C5.30501 23.4055 7.78428 24.5041 10.4049 24.632C13.0255 24.7599 15.6 23.908 17.6271 22.2422C19.6543 20.5765 20.989 18.216 21.3715 15.6202C21.754 13.0245 21.1569 10.3793 19.6965 8.19962L20.3125 7.5836L20.8176 8.08868C20.8908 8.16191 20.9902 8.20305 21.0938 8.20305C21.1973 8.20305 21.2967 8.16191 21.3699 8.08868L22.1273 7.33126C22.2956 7.16404 22.4289 6.9651 22.5197 6.74597C22.6105 6.52685 22.6569 6.29188 22.6562 6.0547C22.6558 5.92013 22.6821 5.7868 22.7336 5.66248C22.7851 5.53815 22.8608 5.4253 22.9563 5.33048L23.9285 4.35821C24.2535 4.03316 24.4748 3.61905 24.5645 3.16822C24.6542 2.7174 24.6081 2.25011 24.4322 1.82544C24.2563 1.40077 23.9585 1.0378 23.5763 0.782406C23.1941 0.527014 22.7448 0.390677 22.2852 0.390633ZM10.9848 15.2344C11.3079 15.2335 11.6177 15.1052 11.8469 14.8774L12.7012 14.0234C13.7511 13.7412 14.7085 13.1879 15.4773 12.4191L16.266 11.6301C16.8379 12.8808 16.9521 14.2926 16.5887 15.619C16.2254 16.9453 15.4075 18.1018 14.2781 18.8864C13.1487 19.6711 11.7795 20.0339 10.4097 19.9115C9.03994 19.7892 7.75671 19.1894 6.78421 18.2171C5.81172 17.2447 5.2118 15.9616 5.08926 14.5918C4.96673 13.2221 5.32937 11.8528 6.11383 10.7233C6.89829 9.59373 8.05469 8.77574 9.38099 8.4122C10.7073 8.04866 12.1192 8.1627 13.3699 8.73438L12.5812 9.52267C11.8123 10.2915 11.2589 11.2488 10.9766 12.2988L10.1223 13.1531C9.95172 13.3237 9.83559 13.5409 9.78855 13.7775C9.74152 14.014 9.76569 14.2592 9.85802 14.482C9.95035 14.7048 10.1067 14.8952 10.3073 15.0291C10.5078 15.163 10.7436 15.2345 10.9848 15.2344ZM17.5582 14.4531H20.6934C20.6022 16.7711 19.6858 18.9802 18.1094 20.682L15.8941 18.4668C16.8858 17.355 17.4723 15.9405 17.5582 14.4531ZM10.5469 7.44181C9.05954 7.52771 7.645 8.11418 6.5332 9.10587L4.31797 6.89063C6.01981 5.31424 8.22891 4.39782 10.5469 4.30665V7.44181ZM5.98086 9.65821C4.98917 10.77 4.4027 12.1846 4.3168 13.6719H1.18164C1.27281 11.3539 2.18923 9.14482 3.76562 7.44298L5.98086 9.65821ZM4.3168 14.4531C4.4027 15.9405 4.98917 17.355 5.98086 18.4668L3.76562 20.682C2.18923 18.9802 1.27281 16.7711 1.18164 14.4531H4.3168ZM6.5332 19.0191C7.645 20.0108 9.05954 20.5973 10.5469 20.6832V23.8184C8.22891 23.7272 6.01981 22.8108 4.31797 21.2344L6.5332 19.0191ZM11.3281 20.6832C12.8155 20.5973 14.23 20.0108 15.3418 19.0191L17.557 21.2344C15.8552 22.8108 13.6461 23.7272 11.3281 23.8184V20.6832ZM13.9551 8.14884C13.138 7.73215 12.2437 7.48891 11.3281 7.43438V4.31173C13.0749 4.3771 14.7713 4.91449 16.2371 5.86681L13.9551 8.14884ZM20.6883 13.6719H17.5656C17.5112 12.7563 17.2679 11.862 16.8512 11.0449L19.1332 8.7629C20.0854 10.2287 20.6228 11.9251 20.6883 13.6719ZM14.925 11.866C14.2299 12.5611 13.3591 13.0543 12.4055 13.293C12.3367 13.3101 12.2739 13.3456 12.2238 13.3957L11.2945 14.325C11.2333 14.3863 11.1552 14.428 11.0703 14.445C10.9853 14.4619 10.8972 14.4532 10.8172 14.42C10.7371 14.3869 10.6687 14.3307 10.6206 14.2587C10.5725 14.1866 10.5468 14.1019 10.5469 14.0152C10.5466 13.9577 10.5579 13.9007 10.5799 13.8475C10.6018 13.7943 10.6342 13.746 10.675 13.7055L11.6043 12.7762C11.6543 12.7262 11.6898 12.6635 11.707 12.5949C11.9454 11.6412 12.4385 10.7702 13.1336 10.075L17.9688 5.23985L19.7602 7.03126L14.925 11.866ZM23.3762 3.80587L22.4039 4.77813C22.2357 4.94535 22.1023 5.14429 22.0115 5.36342C21.9207 5.58254 21.8743 5.81751 21.875 6.0547C21.8755 6.18927 21.8492 6.32259 21.7977 6.44692C21.7462 6.57124 21.6705 6.68409 21.575 6.77891L21.0938 7.26016L17.7398 3.90626L18.2211 3.42501C18.4136 3.23361 18.6738 3.12582 18.9453 3.12501C19.4239 3.12376 19.8826 2.93369 20.2219 2.5961L21.1941 1.62384C21.337 1.47887 21.5072 1.36362 21.6949 1.28471C21.8825 1.2058 22.0839 1.1648 22.2874 1.16407C22.491 1.16334 22.6927 1.2029 22.8809 1.28046C23.0691 1.35802 23.2401 1.47205 23.384 1.61599C23.528 1.75992 23.642 1.93092 23.7196 2.11912C23.7971 2.30732 23.8367 2.50901 23.8359 2.71256C23.8352 2.91612 23.7942 3.11751 23.7153 3.30515C23.6364 3.49279 23.5211 3.66297 23.3762 3.80587Z" fill="#959595"/>
</svg>
