<svg width="25" height="24" viewBox="0 0 25 24" fill="none" xmlns="http://www.w3.org/2000/svg">
<g id="Communication">
<path id="Icon" d="M12.1993 3C7.22925 3 3.2002 7.02944 3.2002 12C3.2002 16.9706 7.22925 21 12.1993 21C13.7995 21 15.3021 20.5823 16.6041 19.85L21.2002 20.9991L20.434 15.6356C20.9255 14.5238 21.1985 13.2938 21.1985 12C21.1985 10.3607 20.7603 8.82378 19.9946 7.5" stroke="#070708" stroke-width="1.5" stroke-linecap="round" stroke-linejoin="round"/>
<path id="Icon_2" d="M19.2002 3C19.2002 4.10457 18.3048 5 17.2002 5C16.0956 5 15.2002 4.10457 15.2002 3C15.2002 1.89543 16.0956 1 17.2002 1C18.3048 1 19.2002 1.89543 19.2002 3Z" fill="#DC362E" stroke="#DC362E" stroke-width="1.5"/>
</g>
</svg>
