<svg width="20" height="20" viewBox="0 0 20 20" fill="none" xmlns="http://www.w3.org/2000/svg">
<g id="General">
<path id="Icon" d="M3.33337 15.0003H2.58337C2.58337 15.4145 2.91916 15.7503 3.33337 15.7503V15.0003ZM14.7619 15.0003V15.7503V15.0003ZM13.8096 14.0479H14.5596H13.8096ZM13.8096 12.1432H13.0596H13.8096ZM14.7619 11.1908V11.9408V11.1908ZM11.25 17.5837C10.8358 17.5837 10.5 17.9194 10.5 18.3337C10.5 18.7479 10.8358 19.0837 11.25 19.0837V17.5837ZM15.9167 8.33366V15.0003H17.4167V8.33366H15.9167ZM4.08337 15.0003V8.33366H2.58337V15.0003H4.08337ZM10 2.41699C13.2677 2.41699 15.9167 5.06597 15.9167 8.33366H17.4167C17.4167 4.23755 14.0962 0.916992 10 0.916992V2.41699ZM10 0.916992C5.90393 0.916992 2.58337 4.23755 2.58337 8.33366H4.08337C4.08337 5.06597 6.73236 2.41699 10 2.41699V0.916992ZM3.33337 11.9408H5.23814V10.4408H3.33337V11.9408ZM5.44052 12.1432V14.0479H6.94052V12.1432H5.44052ZM5.23814 14.2503H3.33337V15.7503H5.23814V14.2503ZM5.44052 14.0479C5.44052 14.1597 5.34991 14.2503 5.23814 14.2503V15.7503C6.17833 15.7503 6.94052 14.9881 6.94052 14.0479H5.44052ZM5.23814 11.9408C5.34991 11.9408 5.44052 12.0314 5.44052 12.1432H6.94052C6.94052 11.203 6.17833 10.4408 5.23814 10.4408V11.9408ZM16.6667 14.2503H14.7619V15.7503H16.6667V14.2503ZM14.5596 14.0479V12.1432H13.0596V14.0479H14.5596ZM14.7619 11.9408H16.6667V10.4408H14.7619V11.9408ZM14.5596 12.1432C14.5596 12.0314 14.6502 11.9408 14.7619 11.9408V10.4408C13.8217 10.4408 13.0596 11.203 13.0596 12.1432H14.5596ZM14.7619 14.2503C14.6502 14.2503 14.5596 14.1597 14.5596 14.0479H13.0596C13.0596 14.9881 13.8217 15.7503 14.7619 15.7503V14.2503ZM13.3334 17.5837H11.25V19.0837H13.3334V17.5837ZM15.9167 15.0003C15.9167 16.4271 14.7601 17.5837 13.3334 17.5837V19.0837C15.5885 19.0837 17.4167 17.2555 17.4167 15.0003H15.9167Z" fill="black"/>
</g>
</svg>
