<svg width="14" height="14" viewBox="0 0 14 14" fill="none" xmlns="http://www.w3.org/2000/svg">
<path d="M12.625 5.75H1.375M9.5 0.75V3.25M4.5 0.75V3.25M5.125 9.5L6.375 10.75L9.1875 7.9375M4.375 13.25H9.625C10.6751 13.25 11.2001 13.25 11.6012 13.0456C11.954 12.8659 12.2409 12.579 12.4206 12.2262C12.625 11.8251 12.625 11.3001 12.625 10.25V5C12.625 3.9499 12.625 3.42485 12.4206 3.02377C12.2409 2.67096 11.954 2.38413 11.6012 2.20436C11.2001 2 10.6751 2 9.625 2H4.375C3.3249 2 2.79985 2 2.39877 2.20436C2.04596 2.38413 1.75913 2.67096 1.57936 3.02377C1.375 3.42485 1.375 3.9499 1.375 5V10.25C1.375 11.3001 1.375 11.8251 1.57936 12.2262C1.75913 12.579 2.04596 12.8659 2.39877 13.0456C2.79985 13.25 3.3249 13.25 4.375 13.25Z" stroke="#CACACA" stroke-linecap="round" stroke-linejoin="round"/>
</svg>
