<svg width="11" height="11" viewBox="0 0 11 11" fill="none" xmlns="http://www.w3.org/2000/svg">
<g clip-path="url(#clip0_1586_7887)">
<path d="M5.5 10.8764C8.53757 10.8764 11 8.44164 11 5.4382C11 2.43477 8.53757 0 5.5 0C2.46243 0 0 2.43477 0 5.4382C0 8.44164 2.46243 10.8764 5.5 10.8764Z" fill="#8B71AB"/>
<path d="M5.49993 9.00116C7.49006 9.00116 9.10338 7.40597 9.10338 5.4382C9.10338 3.47044 7.49006 1.87524 5.49993 1.87524C3.5098 1.87524 1.89648 3.47044 1.89648 5.4382C1.89648 7.40597 3.5098 9.00116 5.49993 9.00116Z" fill="#8B71AB"/>
<path d="M6.92249 9.00116C6.73629 9.00208 6.55851 8.92463 6.43356 8.78813C6.31877 8.66263 6.26358 8.49468 6.28183 8.32645L6.41819 5.312C6.15467 5.17426 5.96876 4.92551 5.91295 4.63597C5.85176 4.29208 5.87327 3.93876 5.97573 3.60459L6.09749 3.20835C6.25215 2.75824 6.74656 2.51735 7.20178 2.67027C7.45786 2.7563 7.65896 2.95515 7.74597 3.20835L7.86773 3.60459C7.97019 3.93876 7.99169 4.29208 7.9305 4.63597C7.87477 4.92549 7.68893 5.17424 7.42545 5.312L7.56257 8.33901C7.57817 8.50317 7.52308 8.6662 7.41085 8.78813C7.28603 8.92446 7.10847 9.00193 6.92249 9.00116ZM6.92249 3.00039C6.71517 2.99563 6.5286 3.12413 6.46125 3.31805L6.33949 3.71448C6.25447 3.9919 6.2366 4.28521 6.28733 4.57071C6.32839 4.77872 6.47831 4.9494 6.68087 5.01871C6.75775 5.04728 6.80727 5.12154 6.80357 5.20267L6.66057 8.35589C6.65097 8.4218 6.67138 8.48856 6.71633 8.53816C6.83053 8.64995 7.01445 8.64995 7.12864 8.53816C7.17146 8.49227 7.19218 8.43036 7.18554 8.36827L7.0414 5.20267C7.0377 5.12154 7.08723 5.04728 7.16411 5.01871C7.36666 4.9494 7.51658 4.77872 7.55764 4.57071C7.60835 4.28521 7.59055 3.99194 7.50568 3.71448L7.38392 3.31805C7.31654 3.12406 7.12987 2.99556 6.92249 3.00039Z" fill="#F2F2F2"/>
<path d="M4.07826 9.00098C3.72422 9.00079 3.43739 8.71685 3.43758 8.36679C3.43758 8.35645 3.43784 8.34614 3.43836 8.33583L3.60014 5.13685L3.09073 4.63297C3.05516 4.59781 3.03516 4.55014 3.03516 4.50039V2.81268C3.03516 2.70912 3.12007 2.62515 3.22481 2.62515C3.32955 2.62515 3.41447 2.70912 3.41447 2.81268V4.42276L3.92786 4.93039C3.96584 4.96782 3.98604 5.01939 3.98343 5.07234L3.81748 8.35402C3.81352 8.42478 3.83951 8.494 3.88917 8.5451C3.99299 8.64866 4.16206 8.64941 4.26682 8.54675C4.26739 8.54621 4.26794 8.54564 4.26848 8.5451C4.31815 8.494 4.34413 8.42478 4.34017 8.35402L4.17309 5.07234C4.17043 5.01941 4.19056 4.96785 4.22847 4.93039L4.74205 4.42276V2.81268C4.74205 2.70912 4.82697 2.62515 4.93171 2.62515C5.03644 2.62515 5.12136 2.70912 5.12136 2.81268V4.50039C5.12136 4.55014 5.10135 4.59781 5.06579 4.63297L4.55638 5.13685L4.71816 8.33583C4.73565 8.68547 4.46319 8.9829 4.10958 9.0002C4.09915 9.00072 4.08871 9.00098 4.07826 9.00098Z" fill="#F2F2F2"/>
<path d="M3.79317 4.50059C3.68843 4.50059 3.60352 4.41663 3.60352 4.31307V2.81288C3.60352 2.70931 3.68843 2.62535 3.79317 2.62535C3.89791 2.62535 3.98283 2.70931 3.98283 2.81288V4.31307C3.98283 4.41663 3.89791 4.50059 3.79317 4.50059Z" fill="#F2F2F2"/>
<path d="M4.36348 4.50059C4.25875 4.50059 4.17383 4.41663 4.17383 4.31307V2.81288C4.17383 2.70931 4.25875 2.62535 4.36348 2.62535C4.46822 2.62535 4.55314 2.70931 4.55314 2.81288V4.31307C4.55314 4.41663 4.46822 4.50059 4.36348 4.50059Z" fill="#F2F2F2"/>
</g>
<defs>
<clipPath id="clip0_1586_7887">
<rect width="11" height="10.8764" fill="white"/>
</clipPath>
</defs>
</svg>
