<svg width="18" height="16" viewBox="0 0 18 16" fill="none" xmlns="http://www.w3.org/2000/svg">
<path d="M17.7648 12.8324C17.7647 13.4903 17.5247 14.1255 17.0898 14.6191C16.6548 15.1127 16.0548 15.4308 15.4022 15.5137C14.7496 15.5966 14.0891 15.4386 13.5446 15.0694C13.0001 14.7002 12.6089 14.1451 12.4443 13.5081H4.2498C3.17448 13.5081 2.14321 13.081 1.38284 12.3206C0.622481 11.5602 0.195313 10.529 0.195312 9.45363C0.195312 8.37832 0.622481 7.34704 1.38284 6.58668C2.14321 5.82631 3.17448 5.39915 4.2498 5.39915H12.3588C12.8964 5.39915 13.4121 5.18556 13.7923 4.80538C14.1724 4.4252 14.386 3.90956 14.386 3.3719C14.386 2.83424 14.1724 2.31861 13.7923 1.93843C13.4121 1.55824 12.8964 1.34466 12.3588 1.34466H4.2498C4.07058 1.34466 3.8987 1.27347 3.77197 1.14674C3.64525 1.02001 3.57405 0.848131 3.57405 0.668912C3.57405 0.489692 3.64525 0.317813 3.77197 0.191086C3.8987 0.0643589 4.07058 -0.00683594 4.2498 -0.00683594H12.3588C13.2549 -0.00683594 14.1143 0.349137 14.7479 0.982774C15.3815 1.61641 15.7375 2.47581 15.7375 3.3719C15.7375 4.268 15.3815 5.1274 14.7479 5.76103C14.1143 6.39467 13.2549 6.75064 12.3588 6.75064H4.2498C3.53292 6.75064 2.84541 7.03542 2.3385 7.54233C1.83159 8.04924 1.54681 8.73676 1.54681 9.45363C1.54681 10.1705 1.83159 10.858 2.3385 11.3649C2.84541 11.8718 3.53292 12.1566 4.2498 12.1566H12.4443C12.6089 11.5197 13.0001 10.9645 13.5446 10.5953C14.0891 10.2261 14.7496 10.0682 15.4022 10.1511C16.0548 10.234 16.6548 10.552 17.0898 11.0456C17.5247 11.5392 17.7647 12.1745 17.7648 12.8324Z" fill="#41509C"/>
</svg>
