<svg width="15" height="15" viewBox="0 0 15 15" fill="none" xmlns="http://www.w3.org/2000/svg">
<path d="M4.78063 13.0688C4.76188 13.0688 4.73687 13.0813 4.71812 13.0813C3.50562 12.4812 2.51813 11.4875 1.91188 10.275C1.91188 10.2563 1.92437 10.2312 1.92437 10.2125C2.68687 10.4375 3.47438 10.6062 4.25563 10.7375C4.39313 11.525 4.55563 12.3062 4.78063 13.0688ZM13.0875 10.2812C12.4688 11.525 11.4375 12.5312 10.1813 13.1375C10.4188 12.3438 10.6188 11.5437 10.75 10.7375C11.5375 10.6062 12.3125 10.4375 13.075 10.2125C13.0688 10.2375 13.0875 10.2625 13.0875 10.2812ZM13.1375 4.81875C12.35 4.58125 11.5563 4.3875 10.75 4.25C10.6188 3.44375 10.425 2.64375 10.1813 1.8625C11.475 2.48125 12.5188 3.525 13.1375 4.81875ZM4.78125 1.93062C4.55625 2.69313 4.39375 3.46813 4.2625 4.25563C3.45625 4.38063 2.65625 4.58063 1.8625 4.81813C2.46875 3.56188 3.475 2.53062 4.71875 1.91188C4.7375 1.91188 4.7625 1.93062 4.78125 1.93062ZM9.6825 4.11875C8.2325 3.95625 6.77 3.95625 5.32 4.11875C5.47625 3.2625 5.67625 2.40625 5.9575 1.58125C5.97 1.53125 5.96375 1.49375 5.97 1.44375C6.46375 1.325 6.97 1.25 7.50125 1.25C8.02625 1.25 8.53875 1.325 9.02625 1.44375C9.0325 1.49375 9.0325 1.53125 9.045 1.58125C9.32625 2.4125 9.52625 3.2625 9.6825 4.11875ZM4.11875 9.6825C3.25625 9.52625 2.40625 9.32625 1.58125 9.045C1.53125 9.0325 1.49375 9.03875 1.44375 9.0325C1.325 8.53875 1.25 8.0325 1.25 7.50125C1.25 6.97625 1.325 6.46375 1.44375 5.97625C1.49375 5.97 1.53125 5.97 1.58125 5.9575C2.4125 5.6825 3.25625 5.47625 4.11875 5.32C3.9625 6.77 3.9625 8.2325 4.11875 9.6825ZM13.75 7.50125C13.75 8.0325 13.675 8.53875 13.5563 9.0325C13.5063 9.03875 13.4688 9.0325 13.4187 9.045C12.5875 9.32 11.7375 9.52625 10.8813 9.6825C11.0437 8.2325 11.0437 6.77 10.8813 5.32C11.7375 5.47625 12.5938 5.67625 13.4187 5.9575C13.4688 5.97 13.5063 5.97625 13.5563 5.97625C13.675 6.47 13.75 6.97625 13.75 7.50125ZM9.6825 10.8813C9.52625 11.7437 9.32625 12.5938 9.045 13.4187C9.0325 13.4688 9.0325 13.5063 9.02625 13.5563C8.53875 13.675 8.02625 13.75 7.50125 13.75C6.97 13.75 6.46375 13.675 5.97 13.5563C5.96375 13.5063 5.97 13.4688 5.9575 13.4187C5.68572 12.5889 5.47269 11.741 5.32 10.8813C6.045 10.9625 6.77 11.0187 7.50125 11.0187C8.2325 11.0187 8.96375 10.9625 9.6825 10.8813ZM9.85187 9.85187C8.29016 10.0491 6.70984 10.0491 5.14813 9.85187C4.95093 8.29016 4.95093 6.70984 5.14813 5.14813C6.70984 4.95093 8.29016 4.95093 9.85187 5.14813C10.0491 6.70984 10.0491 8.29016 9.85187 9.85187Z" fill="#F3AE3D"/>
</svg>
