<svg width="26" height="25" viewBox="0 0 26 25" fill="none" xmlns="http://www.w3.org/2000/svg">
<circle cx="12.7051" cy="12.5" r="11.5" stroke="#C5A1BE" stroke-width="2"/>
<path d="M12.6727 22.7009C18.2273 22.7009 22.7302 18.198 22.7302 12.6434C22.7302 7.08882 18.2273 2.58594 12.6727 2.58594C7.11812 2.58594 2.61523 7.08882 2.61523 12.6434C2.61523 18.198 7.11812 22.7009 12.6727 22.7009Z" fill="#C5A1BE"/>
<path d="M12.6727 7.61467V13.6492L16.6957 15.6607" fill="#C5A1BE"/>
<path d="M12.6727 7.61467V13.6492L16.6957 15.6607M22.7302 12.6434C22.7302 18.198 18.2273 22.7009 12.6727 22.7009C7.11812 22.7009 2.61523 18.198 2.61523 12.6434C2.61523 7.08882 7.11812 2.58594 12.6727 2.58594C18.2273 2.58594 22.7302 7.08882 22.7302 12.6434Z" stroke="white" stroke-width="2" stroke-linecap="round" stroke-linejoin="round"/>
</svg>
