<svg width="239" height="313" viewBox="0 0 239 313" fill="none" xmlns="http://www.w3.org/2000/svg">
<g filter="url(#filter0_dddddddd_2379_9242)">
<path d="M54 33.2934C54 29.2654 57.2654 26 61.2934 26H133.707C137.735 26 141 29.2654 141 33.2934V50.7521C141 54.7802 137.735 58.0456 133.707 58.0456H95.1992C93.1632 58.0456 91.22 58.8966 89.8392 60.3928L87.8505 62.5479C87.1285 63.3303 85.8925 63.3303 85.1705 62.5479L83.1818 60.3928C81.8011 58.8966 79.8578 58.0456 77.8218 58.0456H61.2934C57.2654 58.0456 54 54.7802 54 50.7521V33.2934Z" fill="white"/>
</g>
<mask id="mask0_2379_9242" style="mask-type:alpha" maskUnits="userSpaceOnUse" x="54" y="28" width="87" height="32">
<path d="M54 35.2934C54 31.2654 57.2654 28 61.2934 28H133.707C137.735 28 141 31.2654 141 35.2934V47.6923C141 51.7204 137.735 54.9858 133.707 54.9858H94.8329C93.0138 54.9858 91.2603 55.6656 89.9166 56.8918L87.7396 58.8784C87.0434 59.5137 85.9777 59.5137 85.2815 58.8784L83.1045 56.8918C81.7607 55.6656 80.0073 54.9858 78.1882 54.9858H61.2934C57.2654 54.9858 54 51.7204 54 47.6923V35.2934Z" fill="white"/>
</mask>
<g mask="url(#mask0_2379_9242)">
<path d="M69.1961 35.5781L79 48.8413L59 48.8413L69.1961 35.5781Z" fill="#5CB070"/>
<path d="M70.3542 57.6934L59.1562 72.2888H82L70.3542 57.6934Z" fill="#5CB070"/>
<path d="M47.7812 57.6934L36.8438 72.2888H59.1562L47.7812 57.6934Z" fill="#5CB070"/>
</g>
<path d="M86.832 46.06C86.4 46.06 86.016 46 85.68 45.88C85.352 45.752 85.088 45.54 84.888 45.244C84.696 44.94 84.588 44.52 84.564 43.984L84.372 39.808H85.344L85.536 43.768C85.56 44.144 85.628 44.428 85.74 44.62C85.852 44.804 86.008 44.928 86.208 44.992C86.416 45.048 86.664 45.076 86.952 45.076C87.12 45.076 87.24 45.124 87.312 45.22C87.392 45.308 87.432 45.416 87.432 45.544C87.432 45.672 87.376 45.792 87.264 45.904C87.152 46.008 87.008 46.06 86.832 46.06ZM85.02 44.74C84.564 44.884 84.12 44.956 83.688 44.956C83.256 44.956 82.864 44.892 82.512 44.764C82.16 44.636 81.88 44.452 81.672 44.212C81.464 43.964 81.36 43.668 81.36 43.324C81.36 42.988 81.444 42.672 81.612 42.376C81.788 42.08 82.024 41.816 82.32 41.584C82.624 41.352 82.972 41.16 83.364 41.008C83.764 40.848 84.188 40.74 84.636 40.684L84.804 41.692C84.404 41.708 84.048 41.764 83.736 41.86C83.432 41.948 83.172 42.064 82.956 42.208C82.748 42.352 82.588 42.508 82.476 42.676C82.364 42.844 82.308 43.008 82.308 43.168C82.308 43.344 82.372 43.488 82.5 43.6C82.628 43.712 82.792 43.8 82.992 43.864C83.192 43.92 83.412 43.956 83.652 43.972C83.892 43.98 84.124 43.972 84.348 43.948C84.572 43.916 84.764 43.872 84.924 43.816L85.02 44.74ZM84.768 38.428C84.6 38.428 84.456 38.372 84.336 38.26C84.224 38.14 84.168 38 84.168 37.84C84.168 37.68 84.224 37.54 84.336 37.42C84.456 37.3 84.6 37.24 84.768 37.24C84.928 37.24 85.064 37.3 85.176 37.42C85.296 37.54 85.356 37.68 85.356 37.84C85.356 38 85.296 38.14 85.176 38.26C85.064 38.372 84.928 38.428 84.768 38.428ZM83.124 38.428C82.956 38.428 82.812 38.372 82.692 38.26C82.58 38.14 82.524 38 82.524 37.84C82.524 37.68 82.58 37.54 82.692 37.42C82.812 37.3 82.956 37.24 83.124 37.24C83.284 37.24 83.42 37.3 83.532 37.42C83.652 37.54 83.712 37.68 83.712 37.84C83.712 38 83.652 38.14 83.532 38.26C83.42 38.372 83.284 38.428 83.124 38.428ZM86.8359 46.06L86.9559 45.076C87.3559 45.076 87.6679 45.048 87.8919 44.992C88.1159 44.928 88.2839 44.812 88.3959 44.644C88.5159 44.468 88.6119 44.216 88.6839 43.888C88.7559 43.56 88.8439 43.132 88.9479 42.604L89.8839 42.784C89.8519 42.928 89.8159 43.088 89.7759 43.264C89.7359 43.44 89.6999 43.616 89.6679 43.792C89.6439 43.96 89.6319 44.108 89.6319 44.236C89.6319 44.356 89.6399 44.468 89.6559 44.572C89.6719 44.676 89.7319 44.764 89.8359 44.836C89.9399 44.908 90.1159 44.968 90.3639 45.016C90.6119 45.056 90.9679 45.076 91.4319 45.076C91.5999 45.076 91.7199 45.124 91.7919 45.22C91.8719 45.308 91.9119 45.416 91.9119 45.544C91.9119 45.672 91.8559 45.792 91.7439 45.904C91.6319 46.008 91.4879 46.06 91.3119 46.06C90.8239 46.06 90.4359 46.036 90.1479 45.988C89.8599 45.932 89.6399 45.852 89.4879 45.748C89.3439 45.644 89.2399 45.516 89.1759 45.364C89.1199 45.204 89.0759 45.02 89.0439 44.812L89.4039 44.836C89.2759 45.092 89.1359 45.3 88.9839 45.46C88.8399 45.62 88.6719 45.744 88.4799 45.832C88.2879 45.92 88.0559 45.98 87.7839 46.012C87.5199 46.044 87.2039 46.06 86.8359 46.06ZM89.8599 48.328C89.6919 48.328 89.5479 48.268 89.4279 48.148C89.3159 48.036 89.2599 47.9 89.2599 47.74C89.2599 47.58 89.3159 47.44 89.4279 47.32C89.5479 47.2 89.6919 47.14 89.8599 47.14C90.0199 47.14 90.1559 47.2 90.2679 47.32C90.3879 47.44 90.4479 47.58 90.4479 47.74C90.4479 47.9 90.3879 48.036 90.2679 48.148C90.1559 48.268 90.0199 48.328 89.8599 48.328ZM88.2159 48.328C88.0479 48.328 87.9039 48.268 87.7839 48.148C87.6719 48.036 87.6159 47.9 87.6159 47.74C87.6159 47.58 87.6719 47.44 87.7839 47.32C87.9039 47.2 88.0479 47.14 88.2159 47.14C88.3759 47.14 88.5119 47.2 88.6239 47.32C88.7439 47.44 88.8039 47.58 88.8039 47.74C88.8039 47.9 88.7439 48.036 88.6239 48.148C88.5119 48.268 88.3759 48.328 88.2159 48.328ZM91.3125 46.06L91.4325 45.076C91.9045 45.076 92.2725 45.06 92.5365 45.028C92.8005 44.988 92.9885 44.896 93.1005 44.752C93.2125 44.6 93.2685 44.364 93.2685 44.044C93.2685 43.844 93.2365 43.608 93.1725 43.336C93.1085 43.056 93.0245 42.76 92.9205 42.448C92.8165 42.136 92.7045 41.828 92.5845 41.524L93.5565 41.164C93.6605 41.42 93.7565 41.712 93.8445 42.04C93.9405 42.368 94.0205 42.692 94.0845 43.012C94.1485 43.332 94.1805 43.612 94.1805 43.852C94.1805 44.252 94.1245 44.592 94.0125 44.872C93.9085 45.152 93.7405 45.38 93.5085 45.556C93.2765 45.732 92.9765 45.86 92.6085 45.94C92.2485 46.02 91.8165 46.06 91.3125 46.06ZM93.1125 38.596C92.9445 38.596 92.8005 38.54 92.6805 38.428C92.5685 38.308 92.5125 38.168 92.5125 38.008C92.5125 37.848 92.5685 37.708 92.6805 37.588C92.8005 37.468 92.9445 37.408 93.1125 37.408C93.2725 37.408 93.4085 37.468 93.5205 37.588C93.6405 37.708 93.7005 37.848 93.7005 38.008C93.7005 38.168 93.6405 38.308 93.5205 38.428C93.4085 38.54 93.2725 38.596 93.1125 38.596ZM92.2965 39.916C92.1285 39.916 91.9845 39.86 91.8645 39.748C91.7525 39.628 91.6965 39.488 91.6965 39.328C91.6965 39.168 91.7525 39.028 91.8645 38.908C91.9845 38.788 92.1285 38.728 92.2965 38.728C92.4565 38.728 92.5925 38.788 92.7045 38.908C92.8245 39.028 92.8845 39.168 92.8845 39.328C92.8845 39.488 92.8245 39.628 92.7045 39.748C92.5925 39.86 92.4565 39.916 92.2965 39.916ZM93.9285 39.916C93.7605 39.916 93.6165 39.86 93.4965 39.748C93.3845 39.628 93.3285 39.488 93.3285 39.328C93.3285 39.168 93.3845 39.028 93.4965 38.908C93.6165 38.788 93.7605 38.728 93.9285 38.728C94.0885 38.728 94.2245 38.788 94.3365 38.908C94.4565 39.028 94.5165 39.168 94.5165 39.328C94.5165 39.488 94.4565 39.628 94.3365 39.748C94.2245 39.86 94.0885 39.916 93.9285 39.916ZM96.0024 46L95.7624 37.432H96.7344L96.9744 46H96.0024ZM97.5011 48.784L97.1531 47.872C97.7371 47.68 98.2211 47.46 98.6051 47.212C98.9971 46.964 99.3051 46.7 99.5291 46.42C99.7611 46.14 99.9251 45.856 100.021 45.568C100.117 45.272 100.165 44.988 100.165 44.716C100.165 44.324 100.077 43.928 99.9011 43.528C99.7331 43.12 99.5451 42.736 99.3371 42.376L100.213 41.932C100.365 42.212 100.497 42.488 100.609 42.76C100.729 43.032 100.833 43.288 100.921 43.528C101.017 43.768 101.093 43.988 101.149 44.188C101.261 44.532 101.405 44.768 101.581 44.896C101.765 45.016 102.013 45.076 102.325 45.076C102.493 45.076 102.613 45.124 102.685 45.22C102.765 45.308 102.805 45.416 102.805 45.544C102.805 45.672 102.749 45.792 102.637 45.904C102.525 46.008 102.381 46.06 102.205 46.06C101.853 46.06 101.565 46 101.341 45.88C101.125 45.752 100.961 45.588 100.849 45.388C100.737 45.18 100.661 44.964 100.621 44.74L101.005 44.956C101.005 45.484 100.885 45.964 100.645 46.396C100.413 46.836 100.113 47.216 99.7451 47.536C99.3771 47.864 98.9931 48.132 98.5931 48.34C98.1931 48.548 97.8291 48.696 97.5011 48.784ZM102.211 46.06L102.331 45.076C102.803 45.076 103.171 45.06 103.435 45.028C103.699 44.988 103.887 44.896 103.999 44.752C104.111 44.6 104.167 44.364 104.167 44.044C104.167 43.844 104.135 43.608 104.071 43.336C104.007 43.056 103.923 42.76 103.819 42.448C103.715 42.136 103.603 41.828 103.483 41.524L104.455 41.164C104.559 41.42 104.655 41.712 104.743 42.04C104.839 42.368 104.919 42.692 104.983 43.012C105.047 43.332 105.079 43.612 105.079 43.852C105.079 44.252 105.023 44.592 104.911 44.872C104.807 45.152 104.639 45.38 104.407 45.556C104.175 45.732 103.875 45.86 103.507 45.94C103.147 46.02 102.715 46.06 102.211 46.06ZM104.827 39.916C104.659 39.916 104.515 39.86 104.395 39.748C104.283 39.628 104.227 39.488 104.227 39.328C104.227 39.168 104.283 39.028 104.395 38.908C104.515 38.788 104.659 38.728 104.827 38.728C104.987 38.728 105.123 38.788 105.235 38.908C105.355 39.028 105.415 39.168 105.415 39.328C105.415 39.488 105.355 39.628 105.235 39.748C105.123 39.86 104.987 39.916 104.827 39.916ZM103.183 39.916C103.015 39.916 102.871 39.86 102.751 39.748C102.639 39.628 102.583 39.488 102.583 39.328C102.583 39.168 102.639 39.028 102.751 38.908C102.871 38.788 103.015 38.728 103.183 38.728C103.343 38.728 103.479 38.788 103.591 38.908C103.711 39.028 103.771 39.168 103.771 39.328C103.771 39.488 103.711 39.628 103.591 39.748C103.479 39.86 103.343 39.916 103.183 39.916ZM114.805 46.06C114.373 46.06 113.989 46 113.653 45.88C113.325 45.752 113.061 45.54 112.861 45.244C112.669 44.94 112.561 44.52 112.537 43.984L112.345 39.808H113.317L113.509 43.768C113.533 44.144 113.601 44.428 113.713 44.62C113.825 44.804 113.981 44.928 114.181 44.992C114.389 45.048 114.637 45.076 114.925 45.076C115.093 45.076 115.213 45.124 115.285 45.22C115.365 45.308 115.405 45.416 115.405 45.544C115.405 45.672 115.349 45.792 115.237 45.904C115.125 46.008 114.981 46.06 114.805 46.06ZM112.993 44.74C112.537 44.884 112.093 44.956 111.661 44.956C111.229 44.956 110.837 44.892 110.485 44.764C110.133 44.636 109.853 44.452 109.645 44.212C109.437 43.964 109.333 43.668 109.333 43.324C109.333 42.988 109.417 42.672 109.585 42.376C109.761 42.08 109.997 41.816 110.293 41.584C110.597 41.352 110.945 41.16 111.337 41.008C111.737 40.848 112.161 40.74 112.609 40.684L112.777 41.692C112.377 41.708 112.021 41.764 111.709 41.86C111.405 41.948 111.145 42.064 110.929 42.208C110.721 42.352 110.561 42.508 110.449 42.676C110.337 42.844 110.281 43.008 110.281 43.168C110.281 43.344 110.345 43.488 110.473 43.6C110.601 43.712 110.765 43.8 110.965 43.864C111.165 43.92 111.385 43.956 111.625 43.972C111.865 43.98 112.097 43.972 112.321 43.948C112.545 43.916 112.737 43.872 112.897 43.816L112.993 44.74ZM112.741 38.428C112.573 38.428 112.429 38.372 112.309 38.26C112.197 38.14 112.141 38 112.141 37.84C112.141 37.68 112.197 37.54 112.309 37.42C112.429 37.3 112.573 37.24 112.741 37.24C112.901 37.24 113.037 37.3 113.149 37.42C113.269 37.54 113.329 37.68 113.329 37.84C113.329 38 113.269 38.14 113.149 38.26C113.037 38.372 112.901 38.428 112.741 38.428ZM111.097 38.428C110.929 38.428 110.785 38.372 110.665 38.26C110.553 38.14 110.497 38 110.497 37.84C110.497 37.68 110.553 37.54 110.665 37.42C110.785 37.3 110.929 37.24 111.097 37.24C111.257 37.24 111.393 37.3 111.505 37.42C111.625 37.54 111.685 37.68 111.685 37.84C111.685 38 111.625 38.14 111.505 38.26C111.393 38.372 111.257 38.428 111.097 38.428ZM114.809 46.06L114.929 45.076C115.129 45.076 115.333 45.076 115.541 45.076C115.757 45.068 115.969 45.056 116.177 45.04C116.385 45.024 116.585 45.004 116.777 44.98C116.969 44.956 117.141 44.92 117.293 44.872C117.573 44.784 117.829 44.668 118.061 44.524C118.301 44.38 118.493 44.204 118.637 43.996C118.789 43.788 118.865 43.548 118.865 43.276C118.865 43.092 118.821 42.904 118.733 42.712C118.645 42.512 118.525 42.344 118.373 42.208C118.221 42.072 118.045 42.004 117.845 42.004C117.653 42.004 117.473 42.068 117.305 42.196C117.145 42.324 117.013 42.492 116.909 42.7C116.813 42.9 116.765 43.108 116.765 43.324C116.765 43.58 116.829 43.812 116.957 44.02C117.093 44.22 117.257 44.392 117.449 44.536C117.641 44.68 117.833 44.796 118.025 44.884L116.885 45.22C116.757 45.124 116.605 44.992 116.429 44.824C116.261 44.648 116.109 44.432 115.973 44.176C115.845 43.92 115.781 43.628 115.781 43.3C115.781 42.98 115.837 42.684 115.949 42.412C116.069 42.132 116.225 41.888 116.417 41.68C116.617 41.472 116.841 41.312 117.089 41.2C117.345 41.08 117.609 41.02 117.881 41.02C118.273 41.02 118.617 41.128 118.913 41.344C119.209 41.56 119.437 41.836 119.597 42.172C119.765 42.5 119.849 42.844 119.849 43.204C119.849 43.548 119.785 43.86 119.657 44.14C119.529 44.412 119.353 44.656 119.129 44.872C118.913 45.088 118.657 45.272 118.361 45.424C118.073 45.576 117.765 45.7 117.437 45.796C117.253 45.852 117.053 45.896 116.837 45.928C116.629 45.96 116.409 45.984 116.177 46C115.945 46.024 115.713 46.04 115.481 46.048C115.249 46.056 115.025 46.06 114.809 46.06ZM120.749 46.06C120.349 46.06 119.933 46.036 119.501 45.988C119.077 45.932 118.673 45.864 118.289 45.784C117.913 45.696 117.601 45.6 117.353 45.496L118.181 44.896C118.421 44.928 118.705 44.96 119.033 44.992C119.361 45.016 119.689 45.036 120.017 45.052C120.345 45.068 120.629 45.076 120.869 45.076C121.037 45.076 121.157 45.124 121.229 45.22C121.309 45.308 121.349 45.416 121.349 45.544C121.349 45.672 121.293 45.792 121.181 45.904C121.069 46.008 120.925 46.06 120.749 46.06ZM118.613 39.784C118.445 39.784 118.301 39.728 118.181 39.616C118.069 39.496 118.013 39.356 118.013 39.196C118.013 39.036 118.069 38.896 118.181 38.776C118.301 38.656 118.445 38.596 118.613 38.596C118.773 38.596 118.909 38.656 119.021 38.776C119.141 38.896 119.201 39.036 119.201 39.196C119.201 39.356 119.141 39.496 119.021 39.616C118.909 39.728 118.773 39.784 118.613 39.784ZM116.969 39.784C116.801 39.784 116.657 39.728 116.537 39.616C116.425 39.496 116.369 39.356 116.369 39.196C116.369 39.036 116.425 38.896 116.537 38.776C116.657 38.656 116.801 38.596 116.969 38.596C117.129 38.596 117.265 38.656 117.377 38.776C117.497 38.896 117.557 39.036 117.557 39.196C117.557 39.356 117.497 39.496 117.377 39.616C117.265 39.728 117.129 39.784 116.969 39.784ZM129.27 46.06C129.062 46.06 128.798 46.04 128.478 46C128.166 45.952 127.846 45.872 127.518 45.76C127.198 45.648 126.926 45.492 126.702 45.292L127.686 44.8C127.966 44.912 128.254 44.988 128.55 45.028C128.854 45.06 129.134 45.076 129.39 45.076C129.558 45.076 129.678 45.124 129.75 45.22C129.83 45.308 129.87 45.416 129.87 45.544C129.87 45.672 129.814 45.792 129.702 45.904C129.59 46.008 129.446 46.06 129.27 46.06ZM120.75 46.06L120.87 45.076H123.378C124.074 45.076 124.674 45.048 125.178 44.992C125.69 44.928 126.11 44.836 126.438 44.716C126.766 44.596 127.01 44.444 127.17 44.26C127.33 44.068 127.41 43.844 127.41 43.588C127.41 43.452 127.366 43.304 127.278 43.144C127.19 42.984 127.054 42.848 126.87 42.736C126.686 42.616 126.442 42.556 126.138 42.556C125.754 42.556 125.37 42.656 124.986 42.856C124.61 43.056 124.25 43.308 123.906 43.612C123.57 43.908 123.27 44.212 123.006 44.524C122.742 44.836 122.53 45.108 122.37 45.34L121.326 45.304C121.582 44.888 121.886 44.464 122.238 44.032C122.598 43.592 122.99 43.188 123.414 42.82C123.846 42.444 124.298 42.144 124.77 41.92C125.242 41.688 125.722 41.572 126.21 41.572C126.65 41.572 127.026 41.664 127.338 41.848C127.658 42.024 127.902 42.264 128.07 42.568C128.246 42.872 128.334 43.216 128.334 43.6C128.334 43.976 128.198 44.356 127.926 44.74C127.654 45.116 127.186 45.412 126.522 45.628C126.186 45.74 125.802 45.828 125.37 45.892C124.938 45.956 124.446 46 123.894 46.024C123.342 46.048 122.714 46.06 122.01 46.06H120.75ZM121.89 44.872L121.65 37.432H122.622L122.862 44.032L121.89 44.872ZM129.27 46.06L129.39 45.076C129.726 45.076 129.99 45.048 130.182 44.992C130.374 44.928 130.518 44.812 130.614 44.644C130.718 44.468 130.806 44.216 130.878 43.888C130.95 43.56 131.038 43.132 131.142 42.604L132.078 42.784C132.046 42.928 132.01 43.088 131.97 43.264C131.93 43.44 131.894 43.616 131.862 43.792C131.838 43.96 131.826 44.108 131.826 44.236C131.826 44.396 131.862 44.54 131.934 44.668C132.006 44.796 132.162 44.896 132.402 44.968C132.642 45.04 133.01 45.076 133.506 45.076C133.674 45.076 133.794 45.124 133.866 45.22C133.946 45.308 133.986 45.416 133.986 45.544C133.986 45.672 133.93 45.792 133.818 45.904C133.706 46.008 133.562 46.06 133.386 46.06C132.866 46.06 132.458 46.016 132.162 45.928C131.866 45.832 131.65 45.692 131.514 45.508C131.378 45.316 131.286 45.084 131.238 44.812L131.598 44.836C131.47 45.092 131.33 45.3 131.178 45.46C131.034 45.62 130.874 45.744 130.698 45.832C130.522 45.92 130.318 45.98 130.086 46.012C129.854 46.044 129.582 46.06 129.27 46.06ZM131.142 41.368C130.974 41.368 130.83 41.312 130.71 41.2C130.598 41.08 130.542 40.94 130.542 40.78C130.542 40.62 130.598 40.48 130.71 40.36C130.83 40.24 130.974 40.18 131.142 40.18C131.302 40.18 131.438 40.24 131.55 40.36C131.67 40.48 131.73 40.62 131.73 40.78C131.73 40.94 131.67 41.08 131.55 41.2C131.438 41.312 131.302 41.368 131.142 41.368ZM133.383 46.06L133.503 45.076C133.727 45.076 133.915 45.028 134.067 44.932C134.219 44.836 134.367 44.676 134.511 44.452C134.655 44.228 134.811 43.928 134.979 43.552C135.211 43.04 135.439 42.652 135.663 42.388C135.895 42.124 136.123 41.944 136.347 41.848C136.579 41.752 136.807 41.704 137.031 41.704C137.303 41.704 137.555 41.776 137.787 41.92C138.019 42.056 138.223 42.24 138.399 42.472C138.575 42.704 138.711 42.96 138.807 43.24C138.911 43.512 138.963 43.784 138.963 44.056C138.963 44.536 138.879 44.92 138.711 45.208C138.543 45.488 138.327 45.692 138.063 45.82C137.807 45.94 137.539 46 137.259 46C137.011 46 136.691 45.952 136.299 45.856C135.915 45.76 135.427 45.516 134.835 45.124L135.303 44.368C135.695 44.616 136.047 44.788 136.359 44.884C136.679 44.972 136.943 45.016 137.151 45.016C137.383 45.016 137.567 44.984 137.703 44.92C137.839 44.848 137.939 44.748 138.003 44.62C138.067 44.492 138.099 44.348 138.099 44.188C138.099 43.956 138.043 43.724 137.931 43.492C137.819 43.26 137.675 43.068 137.499 42.916C137.331 42.764 137.151 42.688 136.959 42.688C136.815 42.688 136.675 42.728 136.539 42.808C136.403 42.888 136.263 43.036 136.119 43.252C135.975 43.468 135.811 43.78 135.627 44.188C135.435 44.62 135.251 44.964 135.075 45.22C134.907 45.468 134.735 45.652 134.559 45.772C134.383 45.892 134.199 45.968 134.007 46C133.823 46.04 133.615 46.06 133.383 46.06Z" fill="black"/>
<defs>
<filter id="filter0_dddddddd_2379_9242" x="-44" y="0.952812" width="283" height="311.182" filterUnits="userSpaceOnUse" color-interpolation-filters="sRGB">
<feFlood flood-opacity="0" result="BackgroundImageFix"/>
<feColorMatrix in="SourceAlpha" type="matrix" values="0 0 0 0 0 0 0 0 0 0 0 0 0 0 0 0 0 0 127 0" result="hardAlpha"/>
<feOffset dy="3.0098"/>
<feGaussianBlur stdDeviation="7.71357"/>
<feColorMatrix type="matrix" values="0 0 0 0 0.0784314 0 0 0 0 0 0 0 0 0 0.258824 0 0 0 0.0241386 0"/>
<feBlend mode="normal" in2="BackgroundImageFix" result="effect1_dropShadow_2379_9242"/>
<feColorMatrix in="SourceAlpha" type="matrix" values="0 0 0 0 0 0 0 0 0 0 0 0 0 0 0 0 0 0 127 0" result="hardAlpha"/>
<feOffset dy="6.83849"/>
<feGaussianBlur stdDeviation="13.9648"/>
<feColorMatrix type="matrix" values="0 0 0 0 0.0784314 0 0 0 0 0 0 0 0 0 0.258824 0 0 0 0.0310556 0"/>
<feBlend mode="normal" in2="effect1_dropShadow_2379_9242" result="effect2_dropShadow_2379_9242"/>
<feColorMatrix in="SourceAlpha" type="matrix" values="0 0 0 0 0 0 0 0 0 0 0 0 0 0 0 0 0 0 127 0" result="hardAlpha"/>
<feOffset dy="11.9021"/>
<feGaussianBlur stdDeviation="18.4746"/>
<feColorMatrix type="matrix" values="0 0 0 0 0.0784314 0 0 0 0 0 0 0 0 0 0.258824 0 0 0 0.0342799 0"/>
<feBlend mode="normal" in2="effect2_dropShadow_2379_9242" result="effect3_dropShadow_2379_9242"/>
<feColorMatrix in="SourceAlpha" type="matrix" values="0 0 0 0 0 0 0 0 0 0 0 0 0 0 0 0 0 0 127 0" result="hardAlpha"/>
<feOffset dy="18.9075"/>
<feGaussianBlur stdDeviation="20.9271"/>
<feColorMatrix type="matrix" values="0 0 0 0 0.0784314 0 0 0 0 0 0 0 0 0 0.258824 0 0 0 0.0361867 0"/>
<feBlend mode="normal" in2="effect3_dropShadow_2379_9242" result="effect4_dropShadow_2379_9242"/>
<feColorMatrix in="SourceAlpha" type="matrix" values="0 0 0 0 0 0 0 0 0 0 0 0 0 0 0 0 0 0 127 0" result="hardAlpha"/>
<feOffset dy="29.1729"/>
<feGaussianBlur stdDeviation="21.1428"/>
<feColorMatrix type="matrix" values="0 0 0 0 0.0784314 0 0 0 0 0 0 0 0 0 0.258824 0 0 0 0.0380395 0"/>
<feBlend mode="normal" in2="effect4_dropShadow_2379_9242" result="effect5_dropShadow_2379_9242"/>
<feColorMatrix in="SourceAlpha" type="matrix" values="0 0 0 0 0 0 0 0 0 0 0 0 0 0 0 0 0 0 127 0" result="hardAlpha"/>
<feOffset dy="45.5221"/>
<feGaussianBlur stdDeviation="20.0959"/>
<feColorMatrix type="matrix" values="0 0 0 0 0.0784314 0 0 0 0 0 0 0 0 0 0.258824 0 0 0 0.0410845 0"/>
<feBlend mode="normal" in2="effect5_dropShadow_2379_9242" result="effect6_dropShadow_2379_9242"/>
<feColorMatrix in="SourceAlpha" type="matrix" values="0 0 0 0 0 0 0 0 0 0 0 0 0 0 0 0 0 0 127 0" result="hardAlpha"/>
<feOffset dy="75.5737"/>
<feGaussianBlur stdDeviation="24.5489"/>
<feColorMatrix type="matrix" values="0 0 0 0 0.0784314 0 0 0 0 0 0 0 0 0 0.258824 0 0 0 0.0476106 0"/>
<feBlend mode="normal" in2="effect6_dropShadow_2379_9242" result="effect7_dropShadow_2379_9242"/>
<feColorMatrix in="SourceAlpha" type="matrix" values="0 0 0 0 0 0 0 0 0 0 0 0 0 0 0 0 0 0 127 0" result="hardAlpha"/>
<feOffset dy="151"/>
<feGaussianBlur stdDeviation="49"/>
<feColorMatrix type="matrix" values="0 0 0 0 0.0784314 0 0 0 0 0 0 0 0 0 0.258824 0 0 0 0.07 0"/>
<feBlend mode="normal" in2="effect7_dropShadow_2379_9242" result="effect8_dropShadow_2379_9242"/>
<feBlend mode="normal" in="SourceGraphic" in2="effect8_dropShadow_2379_9242" result="shape"/>
</filter>
</defs>
</svg>
