<svg width="15" height="14" viewBox="0 0 15 14" fill="none" xmlns="http://www.w3.org/2000/svg">
<path d="M11.5 9.55792C12.4706 10.0455 13.3028 10.828 13.9102 11.8064C14.0305 12.0002 14.0906 12.0971 14.1114 12.2312C14.1537 12.5038 13.9672 12.839 13.7133 12.9469C13.5884 13 13.4478 13 13.1667 13M10.1667 6.68816C11.1545 6.19726 11.8333 5.17791 11.8333 4C11.8333 2.82209 11.1545 1.80274 10.1667 1.31184M8.83335 4C8.83335 5.65685 7.4902 7 5.83335 7C4.17649 7 2.83335 5.65685 2.83335 4C2.83335 2.34315 4.17649 1 5.83335 1C7.4902 1 8.83335 2.34315 8.83335 4ZM1.20617 11.6256C2.26904 10.0297 3.94626 9 5.83335 9C7.72043 9 9.39766 10.0297 10.4605 11.6256C10.6934 11.9752 10.8098 12.15 10.7964 12.3733C10.786 12.5471 10.672 12.76 10.5331 12.8651C10.3546 13 10.1092 13 9.61844 13H2.04825C1.55746 13 1.31207 13 1.13364 12.8651C0.994712 12.76 0.880739 12.5471 0.870302 12.3733C0.856899 12.15 0.973322 11.9752 1.20617 11.6256Z" stroke="#CACACA" stroke-linecap="round" stroke-linejoin="round"/>
</svg>
