<svg width="16" height="16" viewBox="0 0 16 16" fill="none" xmlns="http://www.w3.org/2000/svg">
<g id="Users">
<path id="Icon" d="M10.6837 13.7139L10.6839 11.5714C10.684 10.3879 9.72465 9.42848 8.5412 9.42848H3.74304C2.55975 9.42848 1.60047 10.3877 1.60034 11.5709L1.6001 13.7139M14.3999 13.714L14.4001 11.5715C14.4002 10.388 13.4408 9.4286 12.2574 9.4286M10.271 2.70707C10.7972 3.0975 11.1382 3.7234 11.1382 4.42895C11.1382 5.13451 10.7972 5.76041 10.271 6.15084M8.3293 4.42884C8.3293 5.61222 7.36998 6.57154 6.18659 6.57154C5.00321 6.57154 4.04389 5.61222 4.04389 4.42884C4.04389 3.24545 5.00321 2.28613 6.18659 2.28613C7.36998 2.28613 8.3293 3.24545 8.3293 4.42884Z" stroke="#3C3C43" stroke-opacity="0.4" stroke-linecap="round" stroke-linejoin="round"/>
</g>
</svg>
