<svg width="17" height="15" viewBox="0 0 17 15" fill="none" xmlns="http://www.w3.org/2000/svg">
<path fill-rule="evenodd" clip-rule="evenodd" d="M1.74036 1.27205C3.66737 -0.404166 6.62846 -0.256326 8.36742 1.61113L8.37599 1.62034L8.38456 1.61113C10.1235 -0.256326 13.0846 -0.404166 15.0116 1.27205C16.9548 2.96233 17.1164 5.87097 15.3624 7.75452L8.9764 14.6125C8.8212 14.7791 8.60372 14.8738 8.37599 14.8738C8.14826 14.8738 7.93078 14.7791 7.77559 14.6125L1.38954 7.75452C-0.364409 5.87097 -0.202816 2.96233 1.74036 1.27205ZM7.16661 2.72932C6.03404 1.51306 4.08081 1.41092 2.81723 2.51004C1.56982 3.59511 1.47276 5.43618 2.59035 6.63634L8.37599 12.8495L14.1616 6.63634C15.2792 5.43618 15.1822 3.59511 13.9348 2.51004C12.6712 1.41092 10.7179 1.51306 9.58537 2.72932L8.9764 3.3833C8.8212 3.54996 8.60372 3.64461 8.37599 3.64461C8.14826 3.64461 7.93078 3.54996 7.77559 3.3833L7.16661 2.72932Z" fill="#212121"/>
</svg>
