<svg width="18" height="18" viewBox="0 0 18 18" fill="none" xmlns="http://www.w3.org/2000/svg">
<g id="General">
<path id="Icon" d="M2.25 7.06204C2.25 6.78499 2.39101 6.52508 2.62843 6.36452L8.47843 2.40838C8.79069 2.19721 9.20931 2.19721 9.52157 2.40838L15.3716 6.36452C15.609 6.52508 15.75 6.78499 15.75 7.06204V14.4662C15.75 15.1752 15.1456 15.75 14.4 15.75H3.6C2.85442 15.75 2.25 15.1752 2.25 14.4662V7.06204Z" fill="#E9E2EF" stroke="#926EAE" stroke-width="0.5"/>
<path id="Rectangle 4330" d="M6.75 10.5H11.25V15.75H6.75V10.5Z" fill="#F5F2F8"/>
<g id="Rectangle 4331">
<mask id="path-3-inside-1_5081_3607" fill="white">
<path d="M6 10.75C6 10.1977 6.44772 9.75 7 9.75H11C11.5523 9.75 12 10.1977 12 10.75V15.75H6V10.75Z"/>
</mask>
<path d="M5.2 10.75C5.2 9.75589 6.00589 8.95 7 8.95H11C11.9941 8.95 12.8 9.75589 12.8 10.75L11.2 10.75C11.2 10.6395 11.1105 10.55 11 10.55H7C6.88954 10.55 6.8 10.6395 6.8 10.75L5.2 10.75ZM12 15.75H6H12ZM5.2 15.75V10.75C5.2 9.75589 6.00589 8.95 7 8.95L7 10.55C6.88954 10.55 6.8 10.6395 6.8 10.75V15.75H5.2ZM11 8.95C11.9941 8.95 12.8 9.75589 12.8 10.75V15.75H11.2V10.75C11.2 10.6395 11.1105 10.55 11 10.55V8.95Z" fill="#926EAE" mask="url(#path-3-inside-1_5081_3607)"/>
</g>
<path id="Icon_2" d="M2.25 7.06204C2.25 6.78499 2.39101 6.52508 2.62843 6.36452L8.47843 2.40838C8.79069 2.19721 9.20931 2.19721 9.52157 2.40838L15.3716 6.36452C15.609 6.52508 15.75 6.78499 15.75 7.06204V14.4662C15.75 15.1752 15.1456 15.75 14.4 15.75H3.6C2.85442 15.75 2.25 15.1752 2.25 14.4662V7.06204Z" stroke="#926EAE" stroke-width="0.8"/>
</g>
</svg>
