<svg width="64" height="64" viewBox="0 0 64 64" fill="none" xmlns="http://www.w3.org/2000/svg">
    <defs>
        <filter id="filter0_d_252_9118" x="0" y="0" width="64" height="64" filterUnits="userSpaceOnUse" color-interpolation-filters="sRGB">
            <feFlood flood-opacity="0" result="BackgroundImageFix"/>
            <feColorMatrix in="SourceAlpha" type="matrix" values="0 0 0 0 0 0 0 0 0 0 0 0 0 0 0 0 0 0 127 0" result="hardAlpha"/>
            <feOffset dy="6"/>
            <feGaussianBlur stdDeviation="6"/>
            <feColorMatrix type="matrix" values="0 0 0 0 0.882353 0 0 0 0 0.258824 0 0 0 0 0.364706 0 0 0 0.2 0"/>
            <feBlend mode="normal" in2="BackgroundImageFix" result="effect1_dropShadow_252_9118"/>
            <feBlend mode="normal" in="SourceGraphic" in2="effect1_dropShadow_252_9118" result="shape"/>
        </filter>
        <radialGradient id="paint0_radial_252_9118" cx="0" cy="0" r="1" gradientUnits="userSpaceOnUse" gradientTransform="translate(26.2857 36) rotate(-55.3758) scale(36.4566)">
            <stop stop-color="#B13589"/>
            <stop offset="0.79309" stop-color="#C62F94"/>
            <stop offset="1" stop-color="#8A3AC8"/>
        </radialGradient>
        <radialGradient id="paint1_radial_252_9118" cx="0" cy="0" r="1" gradientUnits="userSpaceOnUse" gradientTransform="translate(24.8571 47.4286) rotate(-65.1363) scale(32.2775)">
            <stop stop-color="#E0E8B7"/>
            <stop offset="0.444662" stop-color="#FB8A2E"/>
            <stop offset="0.71474" stop-color="#E2425C"/>
            <stop offset="1" stop-color="#E2425C" stop-opacity="0"/>
        </radialGradient>
        <radialGradient id="paint2_radial_252_9118" cx="0" cy="0" r="1" gradientUnits="userSpaceOnUse" gradientTransform="translate(9.85715 7.42857) rotate(-8.1301) scale(55.5584 11.8834)">
            <stop offset="0.156701" stop-color="#406ADC"/>
            <stop offset="0.467799" stop-color="#6A45BE"/>
            <stop offset="1" stop-color="#6A45BE" stop-opacity="0"/>
        </radialGradient>
    </defs>
    <g filter="url(#filter0_d_252_9118)">
<rect x="12" y="6" width="40" height="40" rx="12" fill="url(#paint0_radial_252_9118)"/>
<rect x="12" y="6" width="40" height="40" rx="12" fill="url(#paint1_radial_252_9118)"/>
<rect x="12" y="6" width="40" height="40" rx="12" fill="url(#paint2_radial_252_9118)"/>
<path d="M32.0003 36.8337C29.0846 36.8337 28.6995 36.821 27.5333 36.7685C26.6347 36.7494 25.7457 36.5791 24.9036 36.2649C24.1806 35.9931 23.5257 35.5665 22.985 35.0148C22.4336 34.4737 22.0073 33.8186 21.7357 33.0953C21.4215 32.2532 21.2513 31.3643 21.2322 30.4657C21.1797 29.3011 21.167 28.9152 21.167 26.0003C21.167 23.1049 21.1797 22.7156 21.2322 21.5333C21.2503 20.6347 21.4203 19.7456 21.7349 18.9036C22.0076 18.1809 22.4345 17.5261 22.9858 16.985C23.5266 16.4336 24.1815 16.0072 24.9045 15.7357C25.7465 15.4213 26.6355 15.2511 27.5341 15.2322C28.6995 15.1797 29.0855 15.167 32.0003 15.167C34.9152 15.167 35.3011 15.1797 36.4648 15.2322C37.3643 15.2512 38.2541 15.4215 39.097 15.7357C39.8194 16.0075 40.4736 16.4339 41.014 16.985C41.5653 17.5261 41.9922 18.1809 42.2649 18.9036C42.5773 19.7462 42.7475 20.6349 42.7685 21.5333C42.821 22.6995 42.8337 23.0889 42.8337 26.0003C42.8337 28.9118 42.821 29.3011 42.7693 30.4674C42.7483 31.3655 42.5781 32.2538 42.2658 33.0962C41.987 33.8157 41.5614 34.4691 41.0159 35.0149C40.4704 35.5606 39.8172 35.9867 39.0979 36.2658C38.2552 36.5799 37.3657 36.7501 36.4665 36.7693C35.3011 36.8218 34.9152 36.8337 32.0003 36.8337ZM31.0296 17.1136C29.0161 17.1136 28.6344 17.1288 27.6238 17.1745C26.9367 17.1824 26.2561 17.309 25.612 17.5486C25.1414 17.7224 24.7157 17.9995 24.3662 18.3594C24.0063 18.7089 23.7292 19.1346 23.5554 19.6053C23.3164 20.2492 23.1902 20.9294 23.1822 21.6162C23.1305 22.7529 23.1195 23.0948 23.1195 25.9927C23.1195 28.8906 23.1305 29.2342 23.1822 30.3701C23.1902 31.0568 23.3164 31.7371 23.5554 32.381C23.7293 32.8514 24.0063 33.2768 24.3662 33.626C24.7157 33.9859 25.1414 34.263 25.612 34.4368C26.2565 34.675 26.9369 34.8012 27.6238 34.81C28.774 34.8625 29.1176 34.8735 32.0012 34.8735C34.8847 34.8735 35.2275 34.8625 36.3785 34.81C37.0653 34.802 37.7456 34.6758 38.3895 34.4368C38.8564 34.2565 39.2805 33.9805 39.6346 33.6266C39.9886 33.2727 40.2647 32.8487 40.4452 32.3818C40.6842 31.7379 40.8105 31.0577 40.8185 30.3709C40.871 29.2207 40.882 28.8771 40.882 25.9952C40.882 23.1134 40.871 22.7698 40.8185 21.6196C40.8105 20.9328 40.6842 20.2526 40.4452 19.6087C40.2712 19.1381 39.9942 18.7125 39.6344 18.3628C39.2852 18.0028 38.8594 17.726 38.3886 17.5529C37.7447 17.3139 37.0644 17.1876 36.3777 17.1796C35.241 17.128 34.8991 17.117 32.0003 17.117H31.0296V17.1136ZM32.0003 31.5626C30.9 31.5626 29.8244 31.2363 28.9096 30.625C27.9947 30.0136 27.2817 29.1448 26.8606 28.1282C26.4396 27.1116 26.3295 25.993 26.5442 24.9139C26.7589 23.8347 27.2888 22.8435 28.0669 22.0655C28.845 21.2875 29.8364 20.7577 30.9155 20.5432C31.9947 20.3286 33.1133 20.4389 34.1298 20.8601C35.1463 21.2813 36.0151 21.9945 36.6263 22.9094C37.2375 23.8244 37.5636 24.9 37.5634 26.0003C37.5614 27.4751 36.9746 28.8888 35.9317 29.9315C34.8889 30.9742 33.4751 31.5608 32.0003 31.5626ZM32.0003 22.3889C31.2863 22.3893 30.5885 22.6013 29.995 22.9982C29.4015 23.3951 28.9389 23.959 28.6659 24.6188C28.3929 25.2785 28.3216 26.0043 28.461 26.7046C28.6004 27.4048 28.9443 28.048 29.4493 28.5528C29.9542 29.0576 30.5975 29.4014 31.2977 29.5407C31.998 29.6799 32.7239 29.6085 33.3835 29.3353C34.0432 29.0621 34.607 28.5994 35.0038 28.0058C35.4005 27.4122 35.6124 26.7143 35.6126 26.0003C35.6114 25.0428 35.2305 24.1248 34.5532 23.4479C33.876 22.771 32.9579 22.3905 32.0003 22.3898V22.3889ZM37.7835 21.5146C37.5262 21.5145 37.2748 21.438 37.0611 21.2949C36.8474 21.1518 36.6809 20.9485 36.5827 20.7108C36.4845 20.473 36.4591 20.2115 36.5096 19.9593C36.5602 19.7071 36.6844 19.4755 36.8666 19.2939C37.0488 19.1123 37.2807 18.9889 37.5331 18.9392C37.7855 18.8894 38.0469 18.9157 38.2843 19.0147C38.5218 19.1136 38.7245 19.2808 38.8669 19.495C39.0093 19.7092 39.085 19.9608 39.0843 20.218C39.0832 20.5623 38.9456 20.8921 38.7018 21.1351C38.458 21.3782 38.1277 21.5146 37.7835 21.5146Z" fill="white"/>
</g>

</svg>
