<svg width="236" height="202" viewBox="0 0 236 202" fill="none" xmlns="http://www.w3.org/2000/svg">
<path d="M220.631 176.806C225.735 176.806 227.765 174.892 227.765 171.412C227.765 168.628 226.721 165.09 225.503 161.146L230.955 159.812C232.289 162.77 233.333 168.106 233.333 171.876C233.333 179.3 229.389 184.172 220.747 184.23H220.631V184.172L218.717 183.708V177.328L220.631 176.864V176.806ZM222.139 201.514L217.673 196.99L222.139 192.466L226.663 196.99L222.139 201.514Z" fill="white"/>
<path d="M220.564 184.23C213.43 184.23 208.732 181.098 208.384 173.21L207.34 147.11L213.256 146.53L214.3 171.238C214.532 175.936 216.794 176.806 220.564 176.806V184.23ZM204.092 139.976C204.788 139.86 205.542 139.686 206.702 139.57C206.064 138.7 205.716 137.598 205.716 136.38C205.716 133.016 208.732 130.812 211.98 130.812C213.198 130.812 214.474 131.16 215.46 131.798V135.046C214.474 134.466 213.314 134.176 212.212 134.176C210.356 134.176 208.79 134.988 208.79 136.322C208.79 137.714 209.718 138.642 211.69 139.048C213.488 139.048 215.17 138.99 217.316 138.816V142.064C214.938 142.586 207.108 142.528 204.092 143.224V139.976Z" fill="white"/>
<path d="M166.256 176.806C168.982 176.806 171.186 176.748 172.694 176.632C171.07 174.892 169.968 172.34 169.968 169.904C169.968 165.612 172.926 161.552 176.986 159.696L174.318 158.594L176.058 152.678C187.774 157.376 202.39 162.422 202.39 173.442C202.39 184.462 189.34 187.014 179.364 181.446C175.768 183.708 171.998 184.23 166.372 184.23H166.256V184.172L164.342 183.708V177.328L166.256 176.864V176.806ZM179.712 175.704C182.496 174.254 184.294 172.282 184.294 170.194C184.352 167.294 182.554 164.974 179.712 164.974C176.638 164.974 174.724 167.41 174.724 169.962C174.724 172.282 176.986 174.776 179.712 175.704ZM186.324 177.096C191.776 178.14 195.778 176.98 195.778 173.268C195.778 169.44 191.718 166.714 188.412 165.148C188.992 166.54 189.34 168.164 189.282 169.904C189.224 172.63 188.296 175.066 186.324 177.096Z" fill="white"/>
<path d="M166.249 184.23C161.783 184.23 158.419 182.954 156.621 180.112C154.649 183.128 151.691 184.23 147.399 184.23H147.283V184.172L145.369 183.708V177.328L147.283 176.864V176.806C151.169 176.806 153.895 175.646 153.779 171.47L152.619 140.73L158.593 140.15L159.289 171.47C159.405 175.762 162.247 176.806 166.249 176.806V184.23Z" fill="white"/>
<path d="M134.967 198.498C128.065 198.498 121.221 193.22 120.003 184.23H116.523V184.172L114.667 183.708V177.328L116.581 176.864V176.806H120.061C120.989 169.672 127.543 159.058 135.547 155.172C139.607 158.478 142.797 164.452 142.797 169.382C142.797 172.282 141.753 174.95 139.027 176.806H147.205V184.23H140.883C143.029 185.738 143.899 187.942 143.899 190.03C143.899 194.206 141.289 198.498 134.967 198.498ZM134.097 192.35C142.333 192.35 138.853 184.172 129.863 184.172H124.991C125.571 188.116 129.863 192.35 134.097 192.35ZM126.441 176.806C133.459 176.806 137.577 173.79 137.577 169.846C137.577 167.874 136.417 165.496 134.271 163.292C130.849 165.322 125.745 171.064 124.759 176.806H126.441Z" fill="white"/>
<path d="M116.629 184.23C109.495 184.23 104.739 181.098 104.449 173.21L103.173 140.73L109.205 140.15L109.901 171.238C110.017 175.936 112.859 176.806 116.629 176.806V184.23Z" fill="white"/>
<path d="M227.415 119.23L226.139 75.7299L232.229 75.1499L232.925 119.23H227.415Z" fill="white"/>
<path d="M206.638 111.806C210.64 111.806 213.25 110.646 213.134 106.644L211.858 75.7299L217.89 75.1499L218.644 106.296C218.818 114.822 214.526 119.114 206.87 119.23H206.638V119.172L204.84 118.708V112.328L206.638 111.864V111.806Z" fill="white"/>
<path d="M197.047 97.3062C198.323 99.6842 199.193 103.86 199.193 107.34V107.398C199.541 109.892 200.527 111.806 206.791 111.806V119.23C201.629 119.23 198.671 117.664 196.873 115.576C195.191 117.896 192.465 119.23 188.753 119.23C184.519 119.23 181.561 117.316 180.227 113.778C179.009 117.374 176.225 119.23 172.339 119.23C168.569 119.23 165.495 117.374 164.045 113.604C162.769 117.258 159.811 119.114 154.591 119.23H154.417V119.172L152.561 118.708V112.328L154.475 111.864V111.806C159.521 111.806 161.087 110.414 161.899 105.716L162.479 102.294L167.467 101.714V105.774C167.467 110.356 169.497 111.748 172.745 111.806C176.457 111.748 177.501 110.356 178.081 105.716L178.661 101.134L183.649 100.554V105.716C183.649 110.298 185.853 111.748 188.811 111.806C192.001 111.806 193.567 109.95 193.567 106.876C193.567 104.44 193.045 102.12 191.885 98.6402L197.047 97.3062Z" fill="white"/>
<path d="M115.328 119.23V111.806H116.256C121.302 111.806 126 110.182 130.118 108.094C125.826 104.672 121.882 101.656 117.706 101.25L118.576 95.3341C128.784 90.1141 143.052 90.6941 152.216 95.1601L151.23 101.714C148.678 102.236 145.024 104.962 140.558 108.152C144.27 110.24 148.62 111.806 154.478 111.806V119.23C146.532 119.23 140.384 115.808 135.106 111.922C129.132 115.75 122.346 119.23 115.328 119.23ZM113.066 112.328L115.27 111.806V119.23L113.066 118.708V112.328ZM125.942 98.5821C129.364 99.9741 132.322 102.468 135.628 104.904C139.34 102.468 142.472 100.032 144.85 98.7561C139.282 97.1321 131.858 97.2481 125.942 98.5821Z" fill="white"/>
<path d="M99.679 112.038H106.233C105.537 107.108 102.927 102.236 98.867 102.236C96.199 102.236 93.241 104.788 93.241 107.92C93.241 110.356 95.793 112.038 99.679 112.038ZM88.427 128.974C93.531 127.524 101.303 124.334 104.609 118.708H99.215C92.661 118.708 89.007 114.126 89.007 108.442C89.007 102.236 93.763 95.5078 99.853 95.5078C106.465 95.5078 110.815 102.816 111.627 111.806H115.687V119.23H110.235C107.451 127.582 99.505 133.034 90.283 135.296L88.427 128.974Z" fill="white"/>
<path d="M56.8662 107.34C60.2302 110.878 63.9422 111.864 68.1182 111.864C73.7442 111.864 76.5862 110.588 76.5862 107.63C76.5862 103.86 72.4102 98.6399 66.2622 91.9119L70.3802 86.4019C75.8322 92.1439 81.8062 99.6839 81.8062 107.34C81.8062 115.17 77.3982 119.404 67.6542 119.404C60.4042 119.404 56.1122 116.504 54.3142 112.27L56.8662 107.34Z" fill="white"/>
<path d="M35.9827 111.806C41.0867 111.806 43.1167 109.892 43.1167 106.412C43.1167 103.628 42.0727 100.09 40.8547 96.146L46.3067 94.812C47.6407 97.77 48.6847 103.106 48.6847 106.876C48.6847 114.3 44.7407 119.172 36.0987 119.23H35.9827V119.172L34.0687 118.708V112.328L35.9827 111.864V111.806ZM31.7487 137.268L27.2827 132.686L31.7487 128.162L35.9827 132.396L40.2167 128.162L44.7407 132.686L40.2167 137.268L35.9827 132.976L31.7487 137.268Z" fill="white"/>
<path d="M23.3447 86.982L29.2027 86.402L29.7827 106.238C29.9567 111.052 32.3347 111.806 36.0467 111.806V119.23C29.7827 119.23 25.5487 116.794 24.2727 111.4C21.6627 113.314 18.4727 114.3 15.6307 114.3C9.83065 114.3 6.11865 111.574 6.11865 106.238C6.11865 98.582 12.9047 93.42 23.4027 89.94L23.3447 86.982ZM15.7467 80.834L11.2807 76.252L15.7467 71.728L19.9807 75.962L24.2147 71.728L28.7387 76.252L24.2147 80.834L19.9807 76.542L15.7467 80.834ZM11.1647 105.136C11.1647 107.05 13.3107 107.92 16.4427 107.92C19.0527 107.92 21.9527 106.934 23.8667 105.774L23.5767 95.914C17.0807 98.35 11.1647 101.656 11.1647 105.136Z" fill="white"/>
<path d="M227.415 54.23L226.139 17.11L232.113 16.53L232.925 54.23H227.415ZM222.253 9.164C222.949 9.048 223.703 8.874 224.863 8.758C224.225 7.888 223.877 6.786 223.877 5.568C223.877 2.204 226.893 0 230.141 0C231.359 0 232.635 0.348001 233.621 0.986V4.234C232.635 3.654 231.475 3.364 230.373 3.364C228.517 3.364 226.951 4.176 226.951 5.51C226.951 6.902 227.879 7.83 229.851 8.236C231.649 8.236 233.331 8.178 235.477 8.004V11.252C233.099 11.774 225.269 11.716 222.253 12.412V9.164Z" fill="white"/>
<path d="M177.114 38.2799C177.23 36.0179 177.578 31.2039 177.868 29.0579C181.87 26.0419 191.556 20.1839 201.358 15.7759L200.314 22.6199C194.166 25.3459 185.872 30.1019 182.218 32.4219H207.158C215.104 32.4219 221.02 36.4819 221.02 43.6739C221.02 50.1699 216.96 54.2299 209.072 54.2299H175.432V54.1719L173.518 53.7079V47.3279L175.432 46.8639V46.8059H210.116C213.828 46.8059 215.336 45.2399 215.336 43.4999C215.336 40.5419 212.378 38.2799 207.448 38.2799H177.114Z" fill="white"/>
<path d="M175.489 54.2298C170.095 54.2298 166.557 52.4318 165.165 48.6038C163.889 52.2578 160.815 54.1718 156.233 54.2298H156.117V54.1718L154.203 53.7078V47.3278L156.117 46.8638V46.8058C160.467 46.8058 162.381 45.5878 163.019 40.4258L163.599 35.6698L168.587 35.0898V40.4258C168.587 45.5878 170.965 46.8058 175.489 46.8058V54.2298ZM161.279 26.9698L156.813 22.3878L161.279 17.8638L165.513 22.0978L169.747 17.8638L174.271 22.3878L169.747 26.9698L165.513 22.6778L161.279 26.9698Z" fill="white"/>
<path d="M146.41 32.3061C147.686 34.6841 148.556 38.8601 148.556 42.3401V42.3981C148.904 44.8921 149.89 46.8061 156.154 46.8061V54.2301C150.992 54.2301 148.034 52.6641 146.236 50.5761C144.554 52.8961 141.828 54.2301 138.116 54.2301C133.882 54.2301 130.924 52.3161 129.59 48.7781C128.372 52.3741 125.588 54.2301 121.702 54.2301C117.932 54.2301 114.858 52.3741 113.408 48.6041C112.132 52.2581 109.174 54.1141 103.954 54.2301H103.78V54.1721L101.924 53.7081V47.3281L103.838 46.8641V46.8061C108.884 46.8061 110.45 45.4141 111.262 40.7161L111.842 37.2941L116.83 36.7141V40.7741C116.83 45.3561 118.86 46.7481 122.108 46.8061C125.82 46.7481 126.864 45.3561 127.444 40.7161L128.024 36.1341L133.012 35.5541V40.7161C133.012 45.2981 135.216 46.7481 138.174 46.8061C141.364 46.8061 142.93 44.9501 142.93 41.8761C142.93 39.4401 142.408 37.1201 141.248 33.6401L146.41 32.3061ZM126.168 27.8981L121.702 23.3161L126.168 18.7921L130.402 23.0261L134.636 18.7921L139.16 23.3161L134.636 27.8981L130.402 23.6061L126.168 27.8981ZM130.344 19.3141L125.878 14.7901L130.344 10.2661L134.868 14.7901L130.344 19.3141Z" fill="white"/>
<path d="M82.65 38.3962C82.766 41.0062 85.26 43.6742 88.508 44.8922L88.914 44.7182C91.35 43.3842 93.09 41.8182 93.844 40.0202H93.902C94.076 39.4982 94.25 38.9182 94.25 38.3962C94.25 35.6702 92.104 32.1322 88.856 32.1322C85.666 32.1322 82.65 35.6122 82.65 38.3962ZM88.102 16.4142L83.636 11.8902L88.102 7.36621L92.626 11.8902L88.102 16.4142ZM0 43.5582C18.444 51.9102 61.596 53.6502 82.534 47.3282C79.46 45.0662 77.836 41.4122 77.836 38.2802C77.836 31.4362 83.868 25.8102 89.03 25.8102C94.598 25.8102 99.354 31.4942 99.354 38.1062C99.354 40.4842 98.31 43.0942 96.57 45.2982C96.28 45.7042 95.99 46.1102 95.642 46.5162C97.904 46.6902 100.456 46.8062 103.82 46.8062V54.2302C96.976 54.2302 92.51 53.1862 89.378 51.7362C69.89 63.0462 25.752 60.1462 3.538 52.3742L0 43.5582Z" fill="white"/>
</svg>
