<svg width="257" height="177" viewBox="0 0 257 177" fill="none" xmlns="http://www.w3.org/2000/svg">
<path d="M244.066 176.696C239.6 176.696 234.496 175.246 231.132 172.694L233.916 167.764C237.106 170.026 240.876 171.186 244.472 171.186C247.72 171.186 250.156 169.91 250.156 167.416C250.156 164.632 247.836 164.168 242.268 163.066C236.41 161.848 232.35 159.528 232.35 154.018C232.35 148.218 237.396 144.448 244.066 144.448C248.242 144.448 252.534 145.55 255.782 147.696L253.404 152.684C250.562 150.886 247.082 149.958 243.892 149.958C241.166 149.958 239.078 151.118 239.078 153.38C239.078 156.338 241.572 156.86 247.024 157.962C253.23 159.122 256.884 161.326 256.884 166.836C256.884 172.926 251.432 176.696 244.066 176.696Z" fill="white"/>
<path d="M218.557 176V133.892L225.517 133.312V176H218.557Z" fill="white"/>
<path d="M196.367 144.68C204.661 144.68 210.519 148.798 210.519 158.02V176.116H203.501V172.578C201.123 174.956 197.759 176.812 193.293 176.812C186.623 176.812 182.389 173.042 182.389 167.242C182.389 161.616 187.029 157.846 195.439 157.846H203.501C203.501 152.626 200.485 150.596 195.555 150.596C191.785 150.596 188.711 151.93 186.565 153.554L183.839 148.682C186.739 146.478 190.915 144.68 196.367 144.68ZM194.917 171.07C198.281 171.07 201.877 169.33 203.501 167.126V162.602H196.251C190.799 162.602 188.537 164.632 188.537 166.952C188.537 169.214 190.741 171.07 194.917 171.07Z" fill="white"/>
<path d="M164.796 176.58C155.748 176.58 148.904 169.62 148.904 160.63C148.904 151.64 155.748 144.738 164.796 144.738C171.176 144.738 176.628 148.276 178.89 153.612L173.612 156.222C171.93 152.916 168.798 150.77 164.97 150.77C159.576 150.77 155.806 155.004 155.806 160.63C155.806 166.314 159.576 170.49 164.97 170.49C168.856 170.49 171.988 168.344 173.612 164.922L178.948 167.532C176.686 172.868 171.234 176.58 164.796 176.58Z" fill="white"/>
<path d="M110.838 160.746C110.838 150.654 118.552 144.448 127.6 144.448C136.474 144.448 144.478 150.48 144.478 160.572C144.478 170.606 136.764 176.754 127.484 176.754C118.436 176.754 110.838 170.78 110.838 160.746ZM118.204 160.572C118.204 167.01 122.264 170.896 127.6 170.896C133.052 170.896 137.112 166.952 137.112 160.63C137.112 154.25 132.936 150.248 127.658 150.248C122.554 150.248 118.204 154.018 118.204 160.572Z" fill="white"/>
<path d="M91.1244 169.156H108.06V176H84.1064V135.226H91.1244V169.156Z" fill="white"/>
<path d="M54.433 176.696C49.967 176.696 44.863 175.246 41.499 172.694L44.283 167.764C47.473 170.026 51.243 171.186 54.839 171.186C58.087 171.186 60.523 169.91 60.523 167.416C60.523 164.632 58.203 164.168 52.635 163.066C46.777 161.848 42.717 159.528 42.717 154.018C42.717 148.218 47.763 144.448 54.433 144.448C58.609 144.448 62.901 145.55 66.149 147.696L63.771 152.684C60.929 150.886 57.449 149.958 54.259 149.958C51.533 149.958 49.445 151.118 49.445 153.38C49.445 156.338 51.939 156.86 57.391 157.962C63.597 159.122 67.251 161.326 67.251 166.836C67.251 172.926 61.799 176.696 54.433 176.696Z" fill="white"/>
<path d="M40.1474 174.144C38.2914 175.536 35.3914 176.406 32.1434 176.406C25.9954 176.406 22.5734 172.752 22.5734 165.792V151.06H17.8174L18.3974 145.666H22.4574V136.908L29.1854 136.328V145.666H39.1034L38.5234 151.06H29.1854V165.038C29.1854 168.808 31.3314 169.91 33.7674 169.91C35.0434 169.91 36.4354 169.446 37.4214 168.75L40.1474 174.144Z" fill="white"/>
<path d="M4.63965 176V135.226H11.8316V176H4.63965Z" fill="white"/>
<path d="M233.098 79.5639C239.536 79.5639 244.408 82.812 244.408 92.788V111H237.39V93.194C237.39 87.684 235.128 85.944 231.358 85.944C227.182 85.944 223.354 88.554 221.382 90.178V111H214.422V68.66L221.382 68.08V84.32C223.818 82.522 228.4 79.5639 233.098 79.5639Z" fill="white"/>
<path d="M200.287 80.318H206.493V110.942V111.116C206.377 118.714 199.417 123.934 189.847 123.934C184.221 123.934 178.711 122.368 175.231 120.164L176.217 114.016C179.987 116.336 185.497 117.67 189.731 117.67C195.067 117.67 199.475 115.234 199.475 109.724V106.186C196.691 109.318 192.805 110.942 188.223 110.942C180.393 110.942 173.259 106.128 173.259 95.688C173.259 85.248 181.031 79.506 189.151 79.506C193.733 79.506 197.039 81.014 199.823 83.45L200.287 80.318ZM180.625 95.572C180.625 102.184 184.859 105.026 190.021 105.026C193.849 105.026 197.097 103.344 199.475 101.024V89.134C196.575 86.814 193.559 85.886 190.311 85.886C185.149 85.886 180.625 89.018 180.625 95.572Z" fill="white"/>
<path d="M148.289 111.812C141.909 111.812 137.037 108.564 137.037 98.588V80.376L143.997 79.796V98.124C143.997 103.692 146.317 105.432 150.087 105.432C154.205 105.432 158.091 102.764 160.063 101.14V80.376L167.023 79.796V111H160.063V106.998C157.627 108.854 153.045 111.812 148.289 111.812Z" fill="white"/>
<path d="M97.8105 95.746C97.8105 85.654 105.525 79.448 114.573 79.448C123.447 79.448 131.451 85.48 131.451 95.572C131.451 105.606 123.737 111.754 114.457 111.754C105.409 111.754 97.8105 105.78 97.8105 95.746ZM105.177 95.572C105.177 102.01 109.237 105.896 114.573 105.896C120.025 105.896 124.085 101.952 124.085 95.63C124.085 89.25 119.909 85.248 114.631 85.248C109.527 85.248 105.177 89.018 105.177 95.572Z" fill="white"/>
<path d="M95.5772 79.564C96.0412 79.564 96.5052 79.622 96.9692 79.68L95.9832 85.944C95.4032 85.828 94.8232 85.77 94.2432 85.77C89.8352 85.77 85.7172 88.264 83.7452 90.294V111H76.7852V80.318L83.7452 79.738V84.262C87.1092 81.42 91.6912 79.564 95.5772 79.564Z" fill="white"/>
<path d="M58.0217 79.5639C64.4597 79.5639 69.3317 82.812 69.3317 92.788V111H62.3137V93.194C62.3137 87.684 60.0517 85.944 56.2817 85.944C52.1057 85.944 48.2777 88.554 46.3057 90.178V111H39.3457V68.66L46.3057 68.08V84.32C48.7417 82.522 53.3237 79.5639 58.0217 79.5639Z" fill="white"/>
<path d="M34.5095 70.226V76.374H21.2275V111H14.0355V76.374H0.811523V70.226H34.5095Z" fill="white"/>
<path d="M147.703 46C147.761 35.734 147.761 25.584 147.703 15.318L154.663 14.738C154.605 25.004 154.605 35.734 154.663 46H147.703ZM151.183 10.272L146.369 5.34197L151.183 0.469971L156.113 5.34197L151.183 10.272Z" fill="white"/>
<path d="M122.913 46.696C115.083 46.696 107.949 41.128 107.949 30.688C107.949 20.248 115.721 14.506 123.841 14.506C128.191 14.506 131.439 15.898 134.223 18.16L134.165 3.65996L141.183 3.07996V46H134.223V41.882C131.439 45.014 127.553 46.696 122.913 46.696ZM124.711 40.78C128.539 40.78 131.787 39.156 134.165 36.778V24.134C131.265 21.814 128.249 20.886 125.001 20.886C119.897 20.886 115.315 24.018 115.315 30.572C115.315 37.184 119.549 40.78 124.711 40.78Z" fill="white"/>
<path d="M82.9258 46.812C76.5458 46.812 71.6738 43.564 71.6738 33.588V15.376L78.6338 14.796V33.124C78.6338 38.692 80.9538 40.432 84.7238 40.432C88.8418 40.432 92.7278 37.764 94.6998 36.14V15.376L101.66 14.796V46H94.6998V41.998C92.2638 43.854 87.6818 46.812 82.9258 46.812Z" fill="white"/>
<path d="M50.0639 14.6801C58.3579 14.6801 64.2159 18.7981 64.2159 28.0201V46.1161H57.1979V42.5781C54.8199 44.9561 51.4559 46.812 46.9899 46.812C40.3199 46.812 36.0859 43.0421 36.0859 37.2421C36.0859 31.616 40.7259 27.8461 49.1359 27.8461H57.1979C57.1979 22.626 54.1819 20.5961 49.2519 20.5961C45.4819 20.5961 42.4079 21.9301 40.2619 23.5541L37.5359 18.6821C40.4359 16.4781 44.6119 14.6801 50.0639 14.6801ZM48.6139 41.0701C51.9779 41.0701 55.5739 39.3301 57.1979 37.1261V32.6021H49.9479C44.4959 32.6021 42.2339 34.6321 42.2339 36.9521C42.2339 39.2141 44.4379 41.0701 48.6139 41.0701Z" fill="white"/>
<path d="M16.8205 46.812C11.1945 46.928 5.51048 44.666 2.14648 41.07L6.09048 35.734C9.10648 38.634 13.4565 40.142 16.9945 40.142C20.8225 40.142 24.1285 38.344 24.1285 34.516C24.1285 31.616 22.2145 30.34 17.5745 28.948L13.2245 27.614C6.26448 25.584 2.84248 22.22 2.84248 16.652C2.84248 9.054 9.04848 4.646 16.8205 4.646C21.5185 4.646 26.5645 6.27 30.4505 9.112L26.9125 14.39C23.8965 12.07 20.3585 10.852 16.6465 10.852C12.8765 10.852 10.0345 12.65 10.0345 15.898C10.0345 19.03 12.5285 20.306 16.7045 21.524L20.9965 22.8C28.0725 24.83 31.6105 28.31 31.6105 33.936C31.6105 41.302 25.8105 46.812 16.8205 46.812Z" fill="white"/>
</svg>
