<svg width="20" height="20" viewBox="0 0 20 20" fill="none" xmlns="http://www.w3.org/2000/svg">
<g id="Travel &#38; Location">
<path id="Icon" d="M17.0313 10.625C17.3764 10.625 17.6563 10.3452 17.6563 10C17.6563 9.65482 17.3764 9.375 17.0313 9.375V10.625ZM16.875 10C16.875 13.797 13.797 16.875 10 16.875V18.125C14.4873 18.125 18.125 14.4873 18.125 10H16.875ZM10 16.875C6.20304 16.875 3.125 13.797 3.125 10H1.875C1.875 14.4873 5.51269 18.125 10 18.125V16.875ZM3.125 10C3.125 6.20304 6.20304 3.125 10 3.125V1.875C5.51269 1.875 1.875 5.51269 1.875 10H3.125ZM10 3.125C13.797 3.125 16.875 6.20304 16.875 10H18.125C18.125 5.51269 14.4873 1.875 10 1.875V3.125ZM10 16.875C9.75374 16.875 9.46988 16.7636 9.1572 16.4613C8.84152 16.1561 8.52868 15.6843 8.2524 15.0528C7.70066 13.7917 7.34375 12.0057 7.34375 10H6.09375C6.09375 12.1364 6.47137 14.1005 7.10721 15.5538C7.42472 16.2796 7.81893 16.9061 8.28838 17.36C8.76083 17.8167 9.34016 18.125 10 18.125V16.875ZM7.34375 10C7.34375 7.99428 7.70066 6.20834 8.2524 4.94721C8.52868 4.31572 8.84152 3.84392 9.1572 3.53873C9.46988 3.23644 9.75374 3.125 10 3.125V1.875C9.34016 1.875 8.76083 2.18329 8.28838 2.64004C7.81893 3.09389 7.42472 3.72045 7.10721 4.44619C6.47137 5.89953 6.09375 7.86358 6.09375 10H7.34375ZM10 18.125C10.6598 18.125 11.2392 17.8167 11.7116 17.36C12.1811 16.9061 12.5753 16.2796 12.8928 15.5538C13.5286 14.1005 13.9062 12.1364 13.9062 10H12.6562C12.6562 12.0057 12.2993 13.7917 11.7476 15.0528C11.4713 15.6843 11.1585 16.1561 10.8428 16.4613C10.5301 16.7636 10.2463 16.875 10 16.875V18.125ZM13.9062 10C13.9062 7.86358 13.5286 5.89953 12.8928 4.44619C12.5753 3.72045 12.1811 3.09389 11.7116 2.64004C11.2392 2.18329 10.6598 1.875 10 1.875V3.125C10.2463 3.125 10.5301 3.23644 10.8428 3.53873C11.1585 3.84392 11.4713 4.31572 11.7476 4.94721C12.2993 6.20834 12.6562 7.99428 12.6562 10H13.9062ZM2.5 10.625L17.0313 10.625V9.375L2.5 9.375L2.5 10.625Z" fill="#070708"/>
</g>
</svg>
