<svg width="26" height="26" viewBox="0 0 26 26" fill="none" xmlns="http://www.w3.org/2000/svg">
<g clip-path="url(#clip0_1_1955)">
<path d="M19.1273 19.9671H2.99802C1.7844 19.9671 0.797063 18.9798 0.797063 17.7662V8.2324C0.797063 7.01878 1.7844 6.03144 2.99802 6.03144H5.45711C5.67719 6.03144 5.85564 5.85304 5.85564 5.63291C5.85564 5.41277 5.67719 5.23438 5.45711 5.23438H2.99802C1.34489 5.23438 0 6.57927 0 8.2324V17.7662C0 19.4194 1.34489 20.7642 2.99802 20.7642H19.1273C19.3474 20.7642 19.5258 20.5858 19.5258 20.3657C19.5258 20.1455 19.3474 19.9671 19.1273 19.9671Z" fill="#959595"/>
<path d="M23.0036 5.23438H7.05283C6.83274 5.23438 6.6543 5.41277 6.6543 5.63291C6.6543 5.85304 6.83274 6.03144 7.05283 6.03144H23.0036C24.2172 6.03144 25.2045 7.01878 25.2045 8.2324V17.7662C25.2045 18.9798 24.2172 19.9671 23.0036 19.9671H20.723C20.503 19.9671 20.3245 20.1455 20.3245 20.3657C20.3245 20.5858 20.503 20.7642 20.723 20.7642H23.0036C24.6567 20.7642 26.0016 19.4193 26.0016 17.7662V8.2324C26.0016 6.57927 24.6567 5.23438 23.0036 5.23438Z" fill="#959595"/>
<path d="M23.0016 7.0957H2.99759C2.36998 7.0957 1.85938 7.60636 1.85938 8.23391V17.7677C1.85938 18.3953 2.36998 18.9059 2.99759 18.9059H23.0016C23.6292 18.9059 24.1397 18.3953 24.1397 17.7677V8.23391C24.1397 7.60631 23.6292 7.0957 23.0016 7.0957ZM23.3426 17.7677C23.3426 17.9558 23.1896 18.1088 23.0015 18.1088H2.99759C2.80949 18.1088 2.65644 17.9558 2.65644 17.7677V16.249H23.3426V17.7677ZM23.3426 15.452H2.65644V10.5496H23.3426V15.452ZM23.3426 9.75258H2.65644V8.23391C2.65644 8.04582 2.80949 7.89277 2.99759 7.89277H23.0016C23.1896 7.89277 23.3426 8.04582 23.3426 8.23391V9.75258Z" fill="#959595"/>
<path d="M5.09087 11.0352H4.14979L3.49512 15.1268H4.0855L4.19656 14.3844H4.98565L5.09671 15.1268H5.74554L5.09087 11.0352ZM4.27837 13.8291L4.58818 11.7599L4.898 13.8291H4.27837Z" fill="#959595"/>
<path d="M7.77563 12.9466C8.06204 12.8121 8.19061 12.5433 8.19061 12.1224V11.9762C8.19061 11.345 7.90421 11.0352 7.23786 11.0352H6.26758V15.1268H7.27878C7.92173 15.1268 8.2549 14.7878 8.2549 14.1565V13.8233C8.25495 13.3908 8.12054 13.081 7.77563 12.9466ZM6.91057 11.6197H7.22039C7.44834 11.6197 7.54772 11.7483 7.54772 12.0406V12.2685C7.54772 12.5959 7.40157 12.7011 7.16194 12.7011H6.91057V11.6197ZM7.61201 14.1391C7.61201 14.443 7.49511 14.5424 7.27884 14.5424H6.91057V13.2856H7.19698C7.48922 13.2856 7.61196 13.4025 7.61196 13.7825V14.1391H7.61201Z" fill="#959595"/>
<path d="M10.7316 12.4145V12.017C10.7316 11.3623 10.4043 10.9883 9.77305 10.9883C9.14179 10.9883 8.81445 11.3624 8.81445 12.017V14.1446C8.81445 14.7993 9.14174 15.1734 9.77305 15.1734C10.4043 15.1734 10.7316 14.7993 10.7316 14.1446V13.6011H10.1237V14.1856C10.1237 14.4778 9.99517 14.583 9.79057 14.583C9.58597 14.583 9.4574 14.4778 9.4574 14.1856V11.9761C9.4574 11.6838 9.58597 11.5728 9.79057 11.5728C9.99517 11.5728 10.1237 11.6838 10.1237 11.9761V12.4145H10.7316Z" fill="#959595"/>
<path d="M13.6104 12.7891H12.4414V13.3736H13.6104V12.7891Z" fill="#959595"/>
<path d="M16.5023 11.0352C16.4029 11.3099 16.2918 11.5495 15.7949 11.5495V12.0054H16.2918V15.1268H16.9348V11.0352H16.5023Z" fill="#959595"/>
<path d="M18.5794 14.5421C18.5736 14.5129 18.5736 14.4837 18.5736 14.4544C18.5736 13.7822 19.8537 13.3029 19.8537 12.017C19.8537 11.3623 19.5264 10.9883 18.8951 10.9883C18.2639 10.9883 17.9365 11.3624 17.9365 12.017V12.4145H18.5444V11.9761C18.5444 11.6838 18.673 11.5728 18.8776 11.5728C19.0822 11.5728 19.2108 11.6722 19.2108 12.0404C19.2108 13.2211 17.9366 13.4198 17.9366 14.6239V15.1266H19.7953V14.5421H19.7952H18.5794Z" fill="#959595"/>
<path d="M22.3527 12.1222V12.017C22.3527 11.3623 22.0254 10.9883 21.3941 10.9883C20.7629 10.9883 20.4355 11.3624 20.4355 12.017V12.2391H21.0434V11.9761C21.0434 11.6838 21.172 11.5728 21.3766 11.5728C21.5812 11.5728 21.7098 11.6722 21.7098 12.0404V12.2683C21.7098 12.5956 21.5637 12.7009 21.324 12.7009H21.0728V13.2854H21.289C21.5812 13.2854 21.7099 13.4257 21.7099 13.8056V14.1271C21.7099 14.4894 21.5813 14.5888 21.3767 14.5888C21.1721 14.5888 21.0434 14.4778 21.0434 14.1855V13.8056H20.4356V14.1446C20.4356 14.7993 20.7629 15.1733 21.3942 15.1733C22.0255 15.1733 22.3528 14.7992 22.3528 14.1446V13.8231C22.3528 13.4081 22.2242 13.1041 21.9027 12.9639C22.2124 12.8353 22.3527 12.5606 22.3527 12.1222Z" fill="#959595"/>
<path d="M6.5499 9.26581C6.79104 9.26581 6.98652 9.07033 6.98652 8.8292C6.98652 8.58806 6.79104 8.39258 6.5499 8.39258C6.30876 8.39258 6.11328 8.58806 6.11328 8.8292C6.11328 9.07033 6.30876 9.26581 6.5499 9.26581Z" fill="#959595"/>
<path d="M6.5499 17.6174C6.79104 17.6174 6.98652 17.4219 6.98652 17.1808C6.98652 16.9396 6.79104 16.7441 6.5499 16.7441C6.30876 16.7441 6.11328 16.9396 6.11328 17.1808C6.11328 17.4219 6.30876 17.6174 6.5499 17.6174Z" fill="#959595"/>
<path d="M19.4503 9.26581C19.6914 9.26581 19.8869 9.07033 19.8869 8.8292C19.8869 8.58806 19.6914 8.39258 19.4503 8.39258C19.2092 8.39258 19.0137 8.58806 19.0137 8.8292C19.0137 9.07033 19.2092 9.26581 19.4503 9.26581Z" fill="#959595"/>
<path d="M19.4503 17.6174C19.6914 17.6174 19.8869 17.4219 19.8869 17.1808C19.8869 16.9396 19.6914 16.7441 19.4503 16.7441C19.2092 16.7441 19.0137 16.9396 19.0137 17.1808C19.0137 17.4219 19.2092 17.6174 19.4503 17.6174Z" fill="#959595"/>
</g>
<defs>
<clipPath id="clip0_1_1955">
<rect width="26" height="26" fill="white"/>
</clipPath>
</defs>
</svg>
