<svg width="17" height="17" viewBox="0 0 17 17" fill="none" xmlns="http://www.w3.org/2000/svg">
<g clip-path="url(#clip0_5_4768)">
<path d="M14.118 7.08391C14.118 12.0423 8.06741 16.2923 8.06741 16.2923C8.06741 16.2923 2.01685 12.0423 2.01685 7.08391C2.01685 5.39314 2.65431 3.77162 3.78902 2.57607C4.92372 1.38052 6.4627 0.708862 8.06741 0.708862C9.67212 0.708862 11.2111 1.38052 12.3458 2.57607C13.4805 3.77162 14.118 5.39314 14.118 7.08391Z" stroke="#404040" stroke-width="1.69811" stroke-linecap="round" stroke-linejoin="round"/>
<path d="M8.06727 9.2083C9.18115 9.2083 10.0841 8.2569 10.0841 7.08328C10.0841 5.90967 9.18115 4.95827 8.06727 4.95827C6.95339 4.95827 6.05042 5.90967 6.05042 7.08328C6.05042 8.2569 6.95339 9.2083 8.06727 9.2083Z" stroke="#404040" stroke-width="1.69811" stroke-linecap="round" stroke-linejoin="round"/>
</g>
<defs>
<clipPath id="clip0_5_4768">
<rect width="16.1348" height="17.0001" fill="white"/>
</clipPath>
</defs>
</svg>
