<svg width="14" height="14" viewBox="0 0 14 14" fill="none" xmlns="http://www.w3.org/2000/svg">
<g clip-path="url(#clip0_54_3407)">
<path d="M1.75 5.83325C1.75 9.91658 7 13.4166 7 13.4166C7 13.4166 12.25 9.91658 12.25 5.83325C12.25 4.44087 11.6969 3.10551 10.7123 2.12094C9.72774 1.13638 8.39239 0.583252 7 0.583252C5.60761 0.583252 4.27226 1.13638 3.28769 2.12094C2.30312 3.10551 1.75 4.44087 1.75 5.83325Z" fill="#5AC28F" stroke="#5AC28F" stroke-width="1.5" stroke-linecap="round" stroke-linejoin="round"/>
<path d="M7 7.58325C6.0335 7.58325 5.25 6.79975 5.25 5.83325C5.25 4.86675 6.0335 4.08325 7 4.08325C7.9665 4.08325 8.75 4.86675 8.75 5.83325C8.75 6.79975 7.9665 7.58325 7 7.58325Z" fill="white" stroke="white" stroke-linecap="round" stroke-linejoin="round"/>
</g>
<defs>
<clipPath id="clip0_54_3407">
<rect width="14" height="14" fill="white" transform="matrix(-1 0 0 1 14 0)"/>
</clipPath>
</defs>
</svg>
