<svg width="25" height="25" viewBox="0 0 25 25" fill="none" xmlns="http://www.w3.org/2000/svg">
<g id="shape=Maker-02">
<path id="Vector" d="M12.5004 14.9004L12.0083 15.4663C12.2905 15.7117 12.7103 15.7117 12.9925 15.4663L12.5004 14.9004ZM7.30528 15.5142C7.70373 15.401 7.93502 14.9863 7.82186 14.5878C7.70871 14.1894 7.29396 13.9581 6.8955 14.0713L7.30528 15.5142ZM18.1053 14.0713C17.7068 13.9581 17.2921 14.1894 17.1789 14.5878C17.0658 14.9863 17.297 15.401 17.6955 15.5142L18.1053 14.0713ZM16.5504 7.59604C16.5504 8.20012 16.3139 8.91921 15.8908 9.70104C15.4731 10.4728 14.9068 11.2455 14.3251 11.941C13.7455 12.634 13.1637 13.2349 12.7259 13.6632C12.5075 13.8769 12.326 14.0465 12.2 14.1619C12.137 14.2196 12.088 14.2637 12.0553 14.2929C12.0389 14.3075 12.0266 14.3183 12.0187 14.3253C12.0147 14.3288 12.0118 14.3313 12.0101 14.3328C12.0092 14.3336 12.0086 14.3341 12.0083 14.3344C12.0082 14.3345 12.0081 14.3346 12.0081 14.3346C12.0081 14.3346 12.0081 14.3346 12.0081 14.3346C12.0082 14.3345 12.0083 14.3344 12.5004 14.9004C12.9925 15.4663 12.9926 15.4662 12.9928 15.4661C12.9929 15.4661 12.993 15.4659 12.9932 15.4658C12.9934 15.4655 12.9938 15.4652 12.9942 15.4649C12.9951 15.4641 12.9962 15.4631 12.9977 15.4619C13.0005 15.4593 13.0045 15.4558 13.0097 15.4513C13.0199 15.4423 13.0345 15.4294 13.0533 15.4126C13.0909 15.3792 13.145 15.3305 13.2133 15.2679C13.3498 15.1429 13.5433 14.9619 13.7749 14.7354C14.237 14.2833 14.8553 13.6451 15.4757 12.9033C16.094 12.164 16.7277 11.3062 17.21 10.415C17.6869 9.53374 18.0504 8.55718 18.0504 7.59604H16.5504ZM12.5004 14.9004C12.9925 14.3344 12.9926 14.3345 12.9927 14.3346C12.9927 14.3346 12.9927 14.3346 12.9927 14.3346C12.9927 14.3346 12.9926 14.3345 12.9925 14.3344C12.9922 14.3341 12.9916 14.3336 12.9907 14.3328C12.989 14.3313 12.9861 14.3288 12.9821 14.3253C12.9742 14.3183 12.9619 14.3075 12.9455 14.2929C12.9128 14.2637 12.8637 14.2196 12.8008 14.1619C12.6748 14.0465 12.4933 13.8769 12.2749 13.6632C11.837 13.2349 11.2553 12.634 10.6757 11.941C10.094 11.2455 9.52767 10.4728 9.11 9.70104C8.68689 8.91921 8.45039 8.20012 8.45039 7.59604H6.95039C6.95039 8.55718 7.31389 9.53374 7.79079 10.415C8.27312 11.3062 8.90676 12.164 9.52508 12.9033C10.1455 13.6451 10.7637 14.2833 11.2259 14.7354C11.4575 14.9619 11.651 15.1429 11.7875 15.2679C11.8558 15.3305 11.9099 15.3792 11.9475 15.4126C11.9662 15.4294 11.9809 15.4423 11.9911 15.4513C11.9962 15.4558 12.0002 15.4593 12.0031 15.4619C12.0045 15.4631 12.0057 15.4641 12.0066 15.4649C12.007 15.4652 12.0073 15.4655 12.0076 15.4658C12.0078 15.4659 12.0079 15.4661 12.008 15.4661C12.0081 15.4662 12.0083 15.4663 12.5004 14.9004ZM8.45039 7.59604C8.45039 5.43237 10.248 3.65039 12.5004 3.65039V2.15039C9.45084 2.15039 6.95039 4.57304 6.95039 7.59604H8.45039ZM12.5004 3.65039C14.7528 3.65039 16.5504 5.43237 16.5504 7.59604H18.0504C18.0504 4.57304 15.5499 2.15039 12.5004 2.15039V3.65039ZM21.3504 18.1004C21.3504 18.3914 21.212 18.7365 20.8196 19.1231C20.4246 19.5122 19.8145 19.8972 19.0002 20.2365C17.3747 20.9138 15.0771 21.3504 12.5004 21.3504V22.8504C15.2256 22.8504 17.7281 22.3916 19.5771 21.6211C20.4999 21.2366 21.2958 20.7596 21.8723 20.1917C22.4515 19.6211 22.8504 18.9139 22.8504 18.1004H21.3504ZM12.5004 21.3504C9.9237 21.3504 7.62612 20.9138 6.00063 20.2365C5.18624 19.8972 4.57616 19.5122 4.18114 19.1231C3.78877 18.7365 3.65039 18.3914 3.65039 18.1004H2.15039C2.15039 18.9139 2.54927 19.6211 3.12847 20.1917C3.70502 20.7596 4.50083 21.2366 5.4237 21.6211C7.27273 22.3916 9.77515 22.8504 12.5004 22.8504V21.3504ZM3.65039 18.1004C3.65039 17.7403 3.86771 17.2882 4.50751 16.795C5.13979 16.3076 6.09243 15.8586 7.30528 15.5142L6.8955 14.0713C5.57303 14.4468 4.42566 14.9642 3.59177 15.607C2.76541 16.2439 2.15039 17.0856 2.15039 18.1004H3.65039ZM17.6955 15.5142C18.9084 15.8586 19.861 16.3076 20.4933 16.795C21.1331 17.2882 21.3504 17.7403 21.3504 18.1004H22.8504C22.8504 17.0856 22.2354 16.2439 21.409 15.607C20.5751 14.9642 19.4278 14.4468 18.1053 14.0713L17.6955 15.5142Z" fill="#36B268"/>
</g>
</svg>
