<svg width="15" height="18" viewBox="0 0 15 18" fill="none" xmlns="http://www.w3.org/2000/svg">
<g id="Group">
<path id="Vector" d="M11.3892 17.9919C10.8639 17.9944 10.3623 17.7759 10.0097 17.3908C9.68586 17.0367 9.53014 16.5629 9.58165 16.0882L9.96638 7.58317C9.22286 7.19456 8.69833 6.49273 8.54088 5.67582C8.36825 4.70555 8.42891 3.70868 8.718 2.76586L9.06153 1.6479C9.4979 0.377963 10.8928 -0.301712 12.1772 0.129757C12.8997 0.372475 13.4671 0.933502 13.7126 1.6479L14.0561 2.76586C14.3452 3.70868 14.4059 4.70555 14.2332 5.67582C14.076 6.49266 13.5517 7.19449 12.8083 7.58317L13.1952 16.1237C13.2392 16.5868 13.0837 17.0468 12.7671 17.3908C12.4149 17.7755 11.9139 17.994 11.3892 17.9919ZM11.3892 1.06114C10.8043 1.04772 10.2779 1.41027 10.0878 1.95741L9.74431 3.0759C9.50446 3.85861 9.45403 4.68617 9.59716 5.4917C9.71301 6.07859 10.136 6.56012 10.7075 6.75568C10.9244 6.8363 11.0641 7.04582 11.0537 7.27472L10.6502 16.1713C10.6231 16.3572 10.6807 16.5456 10.8076 16.6855C11.1297 17.0009 11.6487 17.0009 11.9709 16.6855C12.0917 16.5561 12.1501 16.3814 12.1314 16.2062L11.7247 7.27472C11.7143 7.04582 11.854 6.8363 12.0709 6.75568C12.6424 6.56012 13.0654 6.07859 13.1812 5.4917C13.3243 4.68617 13.2741 3.85875 13.0346 3.0759L12.6911 1.95741C12.501 1.41008 11.9743 1.04752 11.3892 1.06114Z" fill="#9392A0"/>
<path id="Vector_2" d="M3.36296 17.9908C2.36406 17.9903 1.5548 17.1892 1.55533 16.2015C1.55533 16.1724 1.55607 16.1433 1.55754 16.1142L2.01398 7.08851L0.576705 5.66686C0.476374 5.56766 0.419922 5.43314 0.419922 5.2928V0.531038C0.419922 0.238851 0.659512 0.00195312 0.955019 0.00195312C1.25053 0.00195312 1.49012 0.238851 1.49012 0.531038V5.07376L2.93862 6.50599C3.04578 6.61161 3.10276 6.75711 3.09541 6.90651L2.6272 16.1655C2.61603 16.3652 2.68934 16.5605 2.82946 16.7046C3.12236 16.9968 3.5994 16.9989 3.89498 16.7093C3.89658 16.7077 3.89812 16.7061 3.89966 16.7046C4.03979 16.5605 4.1131 16.3652 4.10193 16.1655L3.6305 6.90651C3.62301 6.75717 3.6798 6.61168 3.78675 6.50599L5.2358 5.07376V0.531038C5.2358 0.238851 5.47539 0.00195312 5.77089 0.00195312C6.0664 0.00195312 6.30599 0.238851 6.30599 0.531038V5.2928C6.30599 5.43314 6.24954 5.56766 6.14921 5.66686L4.71194 7.08851L5.16837 16.1142C5.21774 17.1006 4.449 17.9398 3.45131 17.9887C3.42188 17.9901 3.39245 17.9908 3.36296 17.9908Z" fill="#9392A0"/>
<path id="Vector_3" d="M2.56 5.2928C2.26449 5.2928 2.0249 5.0559 2.0249 4.76372V0.531038C2.0249 0.238851 2.26449 0.00195312 2.56 0.00195312C2.85551 0.00195312 3.0951 0.238851 3.0951 0.531038V4.76372C3.0951 5.0559 2.85551 5.2928 2.56 5.2928Z" fill="#9392A0"/>
<path id="Vector_4" d="M4.16498 5.2928C3.86947 5.2928 3.62988 5.0559 3.62988 4.76372V0.531038C3.62988 0.238851 3.86947 0.00195312 4.16498 0.00195312C4.46049 0.00195312 4.70008 0.238851 4.70008 0.531038V4.76372C4.70008 5.0559 4.46049 5.2928 4.16498 5.2928Z" fill="#9392A0"/>
</g>
</svg>
