<svg width="13" height="17" viewBox="0 0 13 17" fill="none" xmlns="http://www.w3.org/2000/svg">
<path d="M9.90189 16.4928C9.43493 16.4951 8.98908 16.3008 8.67569 15.9585C8.38781 15.6438 8.2494 15.2225 8.29518 14.8006L8.63716 7.2406C7.97626 6.89516 7.51001 6.27131 7.37005 5.54518C7.2166 4.68271 7.27052 3.79661 7.52749 2.95854L7.83285 1.9648C8.22074 0.835967 9.46068 0.231812 10.6023 0.615339C11.2446 0.831088 11.7489 1.32978 11.9671 1.9648L12.2725 2.95854C12.5295 3.79661 12.5834 4.68271 12.4299 5.54518C12.2901 6.27126 11.8241 6.89511 11.1633 7.2406L11.5072 14.8321C11.5463 15.2438 11.4081 15.6527 11.1267 15.9585C10.8136 16.3004 10.3683 16.4947 9.90189 16.4928ZM9.90189 1.44324C9.38196 1.43131 8.91405 1.75358 8.74513 2.23992L8.43977 3.23413C8.22656 3.92988 8.18174 4.66548 8.30897 5.38151C8.41195 5.90319 8.78794 6.33122 9.29593 6.50505C9.48874 6.57671 9.61294 6.76295 9.60367 6.96641L9.24503 14.8745C9.22095 15.0398 9.27214 15.2072 9.38487 15.3316C9.67127 15.612 10.1325 15.612 10.4189 15.3316C10.5263 15.2165 10.5783 15.0612 10.5616 14.9055L10.2001 6.96641C10.1908 6.76295 10.315 6.57671 10.5079 6.50505C11.0158 6.33122 11.3918 5.90319 11.4948 5.38151C11.622 4.66548 11.5773 3.93 11.3645 3.23413L11.0591 2.23992C10.8902 1.7534 10.422 1.43113 9.90189 1.44324Z" fill="#3C3C43" fill-opacity="0.4"/>
<path d="M2.7674 16.4921C1.87949 16.4916 1.16014 15.7795 1.16062 14.9016C1.16062 14.8757 1.16127 14.8498 1.16258 14.8239L1.5683 6.80112L0.29073 5.53743C0.201547 5.44925 0.151367 5.32967 0.151367 5.20493V0.972251C0.151367 0.712529 0.364336 0.501953 0.627009 0.501953C0.889682 0.501953 1.10265 0.712529 1.10265 0.972251V5.01023L2.39021 6.28332C2.48546 6.3772 2.53612 6.50654 2.52958 6.63934L2.11339 14.8695C2.10346 15.047 2.16862 15.2206 2.29318 15.3488C2.55354 15.6085 2.97757 15.6104 3.2403 15.3529C3.24173 15.3515 3.2431 15.3501 3.24447 15.3488C3.36902 15.2206 3.43419 15.047 3.42426 14.8695L3.00522 6.63934C2.99856 6.50659 3.04904 6.37726 3.14411 6.28332L4.43214 5.01023V0.972251C4.43214 0.712529 4.64511 0.501953 4.90779 0.501953C5.17046 0.501953 5.38343 0.712529 5.38343 0.972251V5.20493C5.38343 5.32967 5.33325 5.44925 5.24406 5.53743L3.96649 6.80112L4.37221 14.8239C4.41609 15.7008 3.73277 16.4467 2.84594 16.4901C2.81978 16.4914 2.79362 16.4921 2.7674 16.4921Z" fill="#3C3C43" fill-opacity="0.4"/>
<path d="M2.05377 5.20493C1.79109 5.20493 1.57812 4.99435 1.57812 4.73463V0.972251C1.57812 0.712529 1.79109 0.501953 2.05377 0.501953C2.31644 0.501953 2.52941 0.712529 2.52941 0.972251V4.73463C2.52941 4.99435 2.31644 5.20493 2.05377 5.20493Z" fill="#3C3C43" fill-opacity="0.4"/>
<path d="M3.48052 5.20493C3.21785 5.20493 3.00488 4.99435 3.00488 4.73463V0.972251C3.00488 0.712529 3.21785 0.501953 3.48052 0.501953C3.7432 0.501953 3.95617 0.712529 3.95617 0.972251V4.73463C3.95617 4.99435 3.7432 5.20493 3.48052 5.20493Z" fill="#3C3C43" fill-opacity="0.4"/>
</svg>
