<svg width="12" height="14" viewBox="0 0 12 14" fill="none" xmlns="http://www.w3.org/2000/svg">
<g id="Group">
<path id="Vector" d="M8.95942 13.9345C8.56228 13.9365 8.18309 13.7713 7.91656 13.4801C7.67172 13.2125 7.554 12.8542 7.59294 12.4954L7.88379 6.06575C7.3217 5.77196 6.92517 5.24139 6.80614 4.62383C6.67563 3.89032 6.72149 3.13671 6.94004 2.42394L7.19974 1.57879C7.52963 0.618741 8.58417 0.104919 9.55513 0.431102C10.1013 0.614592 10.5303 1.03872 10.7159 1.57879L10.9756 2.42394C11.1941 3.13671 11.24 3.89032 11.1095 4.62383C10.9906 5.24134 10.5942 5.77191 10.0322 6.06575L10.3247 12.5222C10.358 12.8723 10.2404 13.2201 10.0011 13.4801C9.73484 13.7709 9.3561 13.9362 8.95942 13.9345ZM8.95942 1.13521C8.51722 1.12506 8.11927 1.39915 7.97562 1.81278L7.71591 2.65833C7.53458 3.25005 7.49646 3.87567 7.60467 4.48463C7.69225 4.92831 8.01202 5.29234 8.44405 5.44018C8.60804 5.50113 8.71367 5.65952 8.70578 5.83256L8.40077 12.5582C8.38029 12.6988 8.42383 12.8412 8.5197 12.947C8.76327 13.1854 9.15556 13.1854 9.39914 12.947C9.49046 12.8491 9.53465 12.717 9.52049 12.5846L9.21305 5.83256C9.20516 5.65952 9.3108 5.50113 9.47478 5.44018C9.90681 5.29234 10.2266 4.92831 10.3142 4.48463C10.4223 3.87567 10.3844 3.25015 10.2033 2.65833L9.94362 1.81278C9.79992 1.399 9.40176 1.12491 8.95942 1.13521Z" fill="#9392A0"/>
<path id="Vector_2" d="M2.89151 13.9342C2.13636 13.9338 1.52457 13.3282 1.52498 12.5815C1.52498 12.5595 1.52553 12.5375 1.52664 12.5155L1.8717 5.69227L0.785151 4.61753C0.709303 4.54253 0.666626 4.44084 0.666626 4.33474V0.734939C0.666626 0.514051 0.847751 0.334961 1.07115 0.334961C1.29455 0.334961 1.47567 0.514051 1.47567 0.734939V4.16915L2.57072 5.25189C2.65173 5.33174 2.69481 5.44173 2.68924 5.55468L2.33529 12.5543C2.32684 12.7052 2.38226 12.8529 2.4882 12.9619C2.70962 13.1828 3.07025 13.1844 3.2937 12.9654C3.29492 12.9642 3.29608 12.963 3.29724 12.9619C3.40318 12.8529 3.4586 12.7052 3.45015 12.5543L3.09377 5.55468C3.0881 5.44178 3.13103 5.33179 3.21189 5.25189L4.30734 4.16915V0.734939C4.30734 0.514051 4.48846 0.334961 4.71186 0.334961C4.93526 0.334961 5.11639 0.514051 5.11639 0.734939V4.33474C5.11639 4.44084 5.07371 4.54253 4.99786 4.61753L3.91131 5.69227L4.25637 12.5155C4.29369 13.2613 3.71254 13.8957 2.9583 13.9326C2.93605 13.9337 2.91381 13.9342 2.89151 13.9342Z" fill="#9392A0"/>
<path id="Vector_3" d="M2.28441 4.33474C2.06101 4.33474 1.87988 4.15565 1.87988 3.93477V0.734939C1.87988 0.514051 2.06101 0.334961 2.28441 0.334961C2.5078 0.334961 2.68893 0.514051 2.68893 0.734939V3.93477C2.68893 4.15565 2.5078 4.33474 2.28441 4.33474Z" fill="#9392A0"/>
<path id="Vector_4" d="M3.49803 4.33474C3.27463 4.33474 3.09351 4.15565 3.09351 3.93477V0.734939C3.09351 0.514051 3.27463 0.334961 3.49803 0.334961C3.72143 0.334961 3.90255 0.514051 3.90255 0.734939V3.93477C3.90255 4.15565 3.72143 4.33474 3.49803 4.33474Z" fill="#9392A0"/>
</g>
</svg>
