<svg width="16" height="16" viewBox="0 0 16 16" fill="none" xmlns="http://www.w3.org/2000/svg">
<path d="M10.9603 14.9375C10.5631 14.9394 10.1839 14.7742 9.91741 14.4831C9.67257 14.2154 9.55486 13.8572 9.59379 13.4983L9.88464 7.06868C9.32256 6.77489 8.92602 6.24432 8.80699 5.62676C8.67648 4.89325 8.72235 4.13964 8.94089 3.42687L9.20059 2.58172C9.53048 1.62167 10.585 1.10785 11.556 1.43403C12.1022 1.61752 12.5311 2.04165 12.7167 2.58172L12.9764 3.42687C13.195 4.13964 13.2408 4.89325 13.1103 5.62676C12.9914 6.24427 12.5951 6.77484 12.0331 7.06868L12.3255 13.5251C12.3588 13.8753 12.2413 14.223 12.0019 14.4831C11.7357 14.7739 11.357 14.9391 10.9603 14.9375ZM10.9603 2.13814C10.5181 2.12799 10.1201 2.40208 9.97647 2.81571L9.71677 3.66126C9.53544 4.25298 9.49731 4.8786 9.60552 5.48756C9.6931 5.93124 10.0129 6.29527 10.4449 6.44311C10.6089 6.50406 10.7145 6.66245 10.7066 6.83549L10.4016 13.5611C10.3811 13.7017 10.4247 13.8441 10.5206 13.9499C10.7641 14.1883 11.1564 14.1883 11.4 13.9499C11.4913 13.852 11.5355 13.72 11.5213 13.5875L11.2139 6.83549C11.206 6.66245 11.3117 6.50406 11.4756 6.44311C11.9077 6.29527 12.2274 5.93124 12.315 5.48756C12.4232 4.8786 12.3852 4.25308 12.2042 3.66126L11.9445 2.81571C11.8008 2.40193 11.4026 2.12784 10.9603 2.13814Z" fill="#9392A0"/>
<path d="M4.88894 14.9352C4.1338 14.9348 3.52201 14.3292 3.52241 13.5825C3.52241 13.5605 3.52297 13.5385 3.52408 13.5165L3.86914 6.69325L2.78259 5.61851C2.70674 5.54351 2.66406 5.44182 2.66406 5.33572V1.73592C2.66406 1.51503 2.84519 1.33594 3.06859 1.33594C3.29198 1.33594 3.47311 1.51503 3.47311 1.73592V5.17013L4.56816 6.25287C4.64916 6.33272 4.69224 6.44271 4.68668 6.55566L4.33272 13.5553C4.32428 13.7062 4.3797 13.8539 4.48563 13.9629C4.70706 14.1837 5.06769 14.1853 5.29114 13.9664C5.29235 13.9652 5.29352 13.964 5.29468 13.9629C5.40061 13.8539 5.45603 13.7062 5.44759 13.5553L5.0912 6.55566C5.08554 6.44276 5.12847 6.33277 5.20933 6.25287L6.30478 5.17013V1.73592C6.30478 1.51503 6.4859 1.33594 6.7093 1.33594C6.9327 1.33594 7.11382 1.51503 7.11382 1.73592V5.33572C7.11382 5.44182 7.07115 5.54351 6.9953 5.61851L5.90875 6.69325L6.25381 13.5165C6.29112 14.2622 5.70997 14.8967 4.95574 14.9336C4.93349 14.9347 4.91124 14.9352 4.88894 14.9352Z" fill="#9392A0"/>
<path d="M4.27952 5.33572C4.05613 5.33572 3.875 5.15663 3.875 4.93574V1.73592C3.875 1.51503 4.05613 1.33594 4.27952 1.33594C4.50292 1.33594 4.68405 1.51503 4.68405 1.73592V4.93574C4.68405 5.15663 4.50292 5.33572 4.27952 5.33572Z" fill="#9392A0"/>
<path d="M5.49827 5.33572C5.27488 5.33572 5.09375 5.15663 5.09375 4.93574V1.73592C5.09375 1.51503 5.27488 1.33594 5.49827 1.33594C5.72167 1.33594 5.9028 1.51503 5.9028 1.73592V4.93574C5.9028 5.15663 5.72167 5.33572 5.49827 5.33572Z" fill="#9392A0"/>
</svg>
