<svg width="22" height="22" viewBox="0 0 22 22" fill="none" xmlns="http://www.w3.org/2000/svg">
<path d="M11.0007 11.9163C11.5069 11.9163 11.9173 11.5059 11.9173 10.9997C11.9173 10.4934 11.5069 10.083 11.0007 10.083C10.4944 10.083 10.084 10.4934 10.084 10.9997C10.084 11.5059 10.4944 11.9163 11.0007 11.9163Z" fill="white" stroke="white" stroke-width="2" stroke-linecap="round" stroke-linejoin="round"/>
<path d="M11.0007 5.50033C11.5069 5.50033 11.9173 5.08992 11.9173 4.58366C11.9173 4.0774 11.5069 3.66699 11.0007 3.66699C10.4944 3.66699 10.084 4.0774 10.084 4.58366C10.084 5.08992 10.4944 5.50033 11.0007 5.50033Z" fill="white" stroke="white" stroke-width="2" stroke-linecap="round" stroke-linejoin="round"/>
<path d="M11.0007 18.3333C11.5069 18.3333 11.9173 17.9229 11.9173 17.4167C11.9173 16.9104 11.5069 16.5 11.0007 16.5C10.4944 16.5 10.084 16.9104 10.084 17.4167C10.084 17.9229 10.4944 18.3333 11.0007 18.3333Z" fill="white" stroke="white" stroke-width="2" stroke-linecap="round" stroke-linejoin="round"/>
</svg>
