<svg width="25" height="25" viewBox="0 0 25 25" fill="none" xmlns="http://www.w3.org/2000/svg">
<g id="Travel &#38; Location">
<path id="Icon" d="M12.5004 14.8999L12.0083 15.4659C12.2905 15.7113 12.7103 15.7113 12.9925 15.4659L12.5004 14.8999ZM7.30528 15.5137C7.70373 15.4006 7.93502 14.9858 7.82186 14.5874C7.70871 14.1889 7.29396 13.9576 6.8955 14.0708L7.30528 15.5137ZM18.1053 14.0708C17.7068 13.9576 17.2921 14.1889 17.1789 14.5874C17.0658 14.9858 17.297 15.4006 17.6955 15.5137L18.1053 14.0708ZM16.5504 7.59555C16.5504 8.19963 16.3139 8.91873 15.8908 9.70055C15.4731 10.4723 14.9068 11.245 14.3251 11.9405C13.7455 12.6335 13.1637 13.2344 12.7259 13.6627C12.5075 13.8764 12.326 14.046 12.2 14.1614C12.137 14.2191 12.088 14.2632 12.0553 14.2924C12.0389 14.307 12.0266 14.3178 12.0187 14.3248C12.0147 14.3283 12.0118 14.3308 12.0101 14.3324C12.0092 14.3331 12.0086 14.3336 12.0083 14.3339C12.0082 14.334 12.0081 14.3341 12.0081 14.3341C12.0081 14.3341 12.0081 14.3341 12.0081 14.3341C12.0082 14.334 12.0083 14.3339 12.5004 14.8999C12.9925 15.4659 12.9926 15.4658 12.9928 15.4656C12.9929 15.4656 12.993 15.4654 12.9932 15.4653C12.9934 15.4651 12.9938 15.4647 12.9942 15.4644C12.9951 15.4636 12.9962 15.4626 12.9977 15.4614C13.0005 15.4589 13.0045 15.4553 13.0097 15.4508C13.0199 15.4418 13.0345 15.4289 13.0533 15.4121C13.0909 15.3787 13.145 15.33 13.2133 15.2674C13.3498 15.1424 13.5433 14.9615 13.7749 14.7349C14.237 14.2828 14.8553 13.6446 15.4757 12.9028C16.094 12.1635 16.7277 11.3057 17.21 10.4145C17.6869 9.53325 18.0504 8.55669 18.0504 7.59555H16.5504ZM12.5004 14.8999C12.9925 14.3339 12.9926 14.334 12.9927 14.3341C12.9927 14.3341 12.9927 14.3341 12.9927 14.3341C12.9927 14.3341 12.9926 14.334 12.9925 14.3339C12.9922 14.3336 12.9916 14.3331 12.9907 14.3324C12.989 14.3308 12.9861 14.3283 12.9821 14.3248C12.9742 14.3178 12.9619 14.307 12.9455 14.2924C12.9128 14.2632 12.8637 14.2191 12.8008 14.1614C12.6748 14.046 12.4933 13.8764 12.2749 13.6627C11.837 13.2344 11.2553 12.6335 10.6757 11.9405C10.094 11.245 9.52767 10.4723 9.11 9.70055C8.68689 8.91873 8.45039 8.19963 8.45039 7.59555H6.95039C6.95039 8.55669 7.31389 9.53325 7.79079 10.4145C8.27312 11.3057 8.90676 12.1635 9.52508 12.9028C10.1455 13.6446 10.7637 14.2828 11.2259 14.7349C11.4575 14.9615 11.651 15.1424 11.7875 15.2674C11.8558 15.33 11.9099 15.3787 11.9475 15.4121C11.9662 15.4289 11.9809 15.4418 11.9911 15.4508C11.9962 15.4553 12.0002 15.4589 12.0031 15.4614C12.0045 15.4626 12.0057 15.4636 12.0066 15.4644C12.007 15.4647 12.0073 15.4651 12.0076 15.4653C12.0078 15.4654 12.0079 15.4656 12.008 15.4656C12.0081 15.4658 12.0083 15.4659 12.5004 14.8999ZM8.45039 7.59555C8.45039 5.43189 10.248 3.6499 12.5004 3.6499V2.1499C9.45084 2.1499 6.95039 4.57255 6.95039 7.59555H8.45039ZM12.5004 3.6499C14.7528 3.6499 16.5504 5.43189 16.5504 7.59555H18.0504C18.0504 4.57255 15.5499 2.1499 12.5004 2.1499V3.6499ZM21.3504 18.0999C21.3504 18.3909 21.212 18.7361 20.8196 19.1226C20.4246 19.5117 19.8145 19.8967 19.0002 20.236C17.3747 20.9133 15.0771 21.3499 12.5004 21.3499V22.8499C15.2256 22.8499 17.7281 22.3911 19.5771 21.6206C20.4999 21.2361 21.2958 20.7591 21.8723 20.1912C22.4515 19.6206 22.8504 18.9135 22.8504 18.0999H21.3504ZM12.5004 21.3499C9.9237 21.3499 7.62612 20.9133 6.00063 20.236C5.18624 19.8967 4.57616 19.5117 4.18114 19.1226C3.78877 18.7361 3.65039 18.3909 3.65039 18.0999H2.15039C2.15039 18.9135 2.54927 19.6206 3.12847 20.1912C3.70502 20.7591 4.50083 21.2361 5.4237 21.6206C7.27273 22.3911 9.77515 22.8499 12.5004 22.8499V21.3499ZM3.65039 18.0999C3.65039 17.7398 3.86771 17.2877 4.50751 16.7945C5.13979 16.3072 6.09243 15.8581 7.30528 15.5137L6.8955 14.0708C5.57303 14.4463 4.42566 14.9637 3.59177 15.6065C2.76541 16.2435 2.15039 17.0852 2.15039 18.0999H3.65039ZM17.6955 15.5137C18.9084 15.8581 19.861 16.3072 20.4933 16.7945C21.1331 17.2877 21.3504 17.7398 21.3504 18.0999H22.8504C22.8504 17.0852 22.2354 16.2435 21.409 15.6065C20.5751 14.9637 19.4278 14.4463 18.1053 14.0708L17.6955 15.5137Z" fill="#37B268"/>
</g>
</svg>
