<svg width="29" height="29" viewBox="0 0 29 29" fill="none" xmlns="http://www.w3.org/2000/svg">
<circle opacity="0.3" cx="14.5" cy="14.5" r="14.5" fill="#5AC28F"/>
<path opacity="0.01" fill-rule="evenodd" clip-rule="evenodd" d="M5 5.76953V23.7695H23V5.76953H5Z" fill="#1C8FF8" fill-opacity="0.338428"/>
<path fill-rule="evenodd" clip-rule="evenodd" d="M21.5 13.6654C21.5024 14.6003 21.284 15.5225 20.8625 16.357C19.8432 18.3966 17.7592 19.6853 15.4792 19.6862C14.5443 19.6886 13.622 19.4702 12.7875 19.0487L8.75 20.3945L10.0958 16.357C9.67432 15.5225 9.45589 14.6003 9.45833 13.6654C9.45921 11.3853 10.748 9.30137 12.7875 8.28205C13.622 7.86054 14.5443 7.64211 15.4792 7.64455H15.8333C18.8903 7.81321 21.3313 10.2542 21.5 13.3112V13.6654V13.6654Z" stroke="#5AC28F" stroke-linecap="round" stroke-linejoin="round"/>
</svg>
