<svg width="29" height="29" viewBox="0 0 29 29" fill="none" xmlns="http://www.w3.org/2000/svg">
<circle opacity="0.3" cx="14.5" cy="14.5" r="14.5" fill="#5AC28F"/>
<path d="M17.3268 11.6111C17.3268 12.3773 17.0289 13.1121 16.4988 13.6539C15.9687 14.1956 15.2497 14.5 14.5 14.5C13.7503 14.5 13.0313 14.1956 12.5012 13.6539C11.9711 13.1121 11.6732 12.3773 11.6732 11.6111M8.58729 11.1788L8.09261 17.2454C7.98634 18.5487 7.93321 19.2003 8.14877 19.703C8.33816 20.1447 8.66631 20.5091 9.08125 20.7387C9.55351 21 10.1933 21 11.473 21H17.527C18.8067 21 19.4465 21 19.9188 20.7387C20.3337 20.5091 20.6618 20.1447 20.8512 19.703C21.0668 19.2003 21.0137 18.5487 20.9074 17.2454L20.4127 11.1788C20.3213 10.0574 20.2756 9.49676 20.0326 9.0724C19.8186 8.69871 19.5 8.3991 19.1178 8.21222C18.6839 8 18.1334 8 17.0323 8L11.9677 8C10.8666 8 10.3161 8 9.88216 8.21222C9.5 8.3991 9.18139 8.69871 8.96743 9.0724C8.72445 9.49676 8.67873 10.0574 8.58729 11.1788Z" stroke="#5AC28F" stroke-linecap="round" stroke-linejoin="round"/>
</svg>
