<svg width="18" height="22" viewBox="0 0 18 22" fill="none" xmlns="http://www.w3.org/2000/svg">
<path d="M11.8454 18C11.8454 19.6569 10.6056 21 9.07621 21C7.54681 21 6.30698 19.6569 6.30698 18M10.7345 5.23856C11.1365 4.78864 11.3839 4.17562 11.3839 3.5C11.3839 2.11929 10.3507 1 9.07621 1C7.80171 1 6.76852 2.11929 6.76852 3.5C6.76852 4.17562 7.01591 4.78864 7.4179 5.23856M14.6147 10.2C14.6147 8.82087 14.0312 7.49823 12.9925 6.52304C11.9538 5.54786 10.5451 5 9.07621 5C7.60732 5 6.19859 5.54786 5.15993 6.52304C4.12127 7.49823 3.53775 8.82087 3.53775 10.2C3.53775 12.4818 3.01541 14.1506 2.36366 15.3447C1.62083 16.7056 1.24942 17.3861 1.26409 17.5486C1.28087 17.7346 1.31177 17.7933 1.45099 17.9036C1.57268 18 2.18407 18 3.40685 18H14.7456C15.9684 18 16.5798 18 16.7014 17.9036C16.8407 17.7933 16.8716 17.7346 16.8883 17.5486C16.903 17.3861 16.5316 16.7056 15.7888 15.3447C15.137 14.1506 14.6147 12.4818 14.6147 10.2Z" stroke="white" stroke-width="1.5" stroke-linecap="round" stroke-linejoin="round"/>
</svg>
