<svg width="29" height="29" viewBox="0 0 29 29" fill="none" xmlns="http://www.w3.org/2000/svg">
<circle opacity="0.3" cx="14.5" cy="14.5" r="14.5" fill="#5AC28F"/>
<path d="M22 12.5714H8M14.3 15.4286H10.8M8 11.2857L8 16.7143C8 17.5144 8 17.9144 8.15259 18.22C8.28681 18.4888 8.50099 18.7073 8.76441 18.8443C9.06389 19 9.45593 19 10.24 19L19.76 19C20.5441 19 20.9361 19 21.2356 18.8443C21.499 18.7073 21.7132 18.4888 21.8474 18.22C22 17.9144 22 17.5144 22 16.7143V11.2857C22 10.4856 22 10.0856 21.8474 9.78001C21.7132 9.51121 21.499 9.29267 21.2356 9.15571C20.9361 9 20.5441 9 19.76 9L10.24 9C9.45593 9 9.06389 9 8.76441 9.1557C8.50099 9.29267 8.28681 9.51121 8.15259 9.78001C8 10.0856 8 10.4856 8 11.2857Z" stroke="#5AC28F" stroke-linecap="round" stroke-linejoin="round"/>
</svg>
