<svg width="16" height="16" viewBox="0 0 16 16" fill="none" xmlns="http://www.w3.org/2000/svg">
<path d="M3.5 2H12.8333M3.5 14H12.8333M11.6667 2V3.40913C11.6667 4.09933 11.4287 4.76841 10.9928 5.30358L9.30072 7.38131C8.96145 7.79791 8.96951 8.3863 9.32008 8.79411L10.9416 10.6804C11.4094 11.2246 11.6667 11.9184 11.6667 12.636V14M4.66667 2V3.40913C4.66667 4.09933 4.90465 4.76841 5.34049 5.30358L7.03261 7.38131C7.37189 7.79791 7.36383 8.3863 7.01325 8.79411L5.39172 10.6804C4.92391 11.2246 4.66667 11.9184 4.66667 12.636V14" stroke="#9392A0" stroke-linecap="round" stroke-linejoin="round"/>
</svg>
