<svg width="20" height="20" viewBox="0 0 20 20" fill="none" xmlns="http://www.w3.org/2000/svg">
<g id="solar:phone-linear">
<path id="Vector" d="M13.0233 12.8257L13.4033 12.4482L12.5208 11.5616L12.1425 11.9391L13.0233 12.8257ZM14.6775 12.2899L16.27 13.1557L16.8658 12.0574L15.2742 11.1924L14.6775 12.2899ZM16.5758 14.8757L15.3925 16.0532L16.2733 16.9391L17.4567 15.7624L16.5758 14.8757ZM14.6708 16.4316C13.4625 16.5449 10.3375 16.4441 6.9525 13.0791L6.07083 13.9649C9.76417 17.6374 13.28 17.8174 14.7875 17.6766L14.6708 16.4316ZM6.9525 13.0791C3.72667 9.87072 3.19167 7.17322 3.125 6.00239L1.87667 6.07322C1.96 7.54655 2.6225 10.5366 6.07083 13.9649L6.9525 13.0791ZM8.09833 7.92905L8.3375 7.69072L7.4575 6.80488L7.21833 7.04239L8.09833 7.92905ZM8.5275 4.66155L7.4775 3.25822L6.47667 4.00822L7.52667 5.41072L8.5275 4.66155ZM3.94333 2.95239L2.635 4.25239L3.51667 5.13905L4.82417 3.83905L3.94333 2.95239ZM7.65833 7.48572C7.21667 7.04239 7.21667 7.04239 7.21667 7.04405H7.215L7.2125 7.04738C7.1729 7.08731 7.13744 7.13115 7.10667 7.17822C7.06167 7.24488 7.0125 7.33239 6.97083 7.44322C6.8694 7.72932 6.84413 8.03689 6.8975 8.33572C7.00917 9.05655 7.50584 10.0091 8.7775 11.2741L9.65917 10.3874C8.46833 9.20405 8.185 8.48405 8.1325 8.14405C8.1075 7.98238 8.13334 7.90239 8.14083 7.88405C8.14583 7.87294 8.14583 7.87127 8.14083 7.87905C8.13341 7.89055 8.12504 7.90142 8.11583 7.91155L8.1075 7.91988L8.09917 7.92738L7.65833 7.48572ZM8.7775 11.2741C10.05 12.5391 11.0075 13.0324 11.7292 13.1424C12.0983 13.1991 12.3958 13.1541 12.6217 13.0699C12.7482 13.0236 12.8664 12.9572 12.9717 12.8732L13.0133 12.8357L13.0192 12.8307L13.0217 12.8282L13.0225 12.8266C13.0225 12.8266 13.0233 12.8257 12.5825 12.3824C12.1408 11.9391 12.1433 11.9382 12.1433 11.9382L12.145 11.9366L12.1467 11.9349L12.1517 11.9307L12.16 11.9224L12.1917 11.8974C12.1994 11.8924 12.1975 11.8929 12.1858 11.8991C12.165 11.9066 12.0833 11.9324 11.9192 11.9074C11.5742 11.8541 10.8492 11.5707 9.65917 10.3874L8.7775 11.2741ZM7.4775 3.25739C6.6275 2.12405 4.9575 1.94405 3.94333 2.95239L4.82417 3.83905C5.2675 3.39822 6.05417 3.44405 6.47667 4.00822L7.4775 3.25739ZM3.12583 6.00322C3.10917 5.71489 3.24167 5.41322 3.51667 5.13989L2.63417 4.25322C2.18667 4.69822 1.83417 5.32822 1.87667 6.07322L3.12583 6.00322ZM15.3925 16.0532C15.1642 16.2816 14.9175 16.4099 14.6717 16.4324L14.7875 17.6766C15.4 17.6191 15.9008 17.3107 16.2742 16.9399L15.3925 16.0532ZM8.3375 7.69072C9.15833 6.87489 9.21917 5.58572 8.52833 4.66238L7.5275 5.41155C7.86334 5.86072 7.81333 6.44988 7.45667 6.80572L8.3375 7.69072ZM16.2708 13.1566C16.9517 13.5266 17.0575 14.3982 16.5767 14.8766L17.4583 15.7624C18.575 14.6516 18.2308 12.7991 16.8667 12.0582L16.2708 13.1566ZM13.4033 12.4491C13.7233 12.1307 14.2383 12.0524 14.6783 12.2907L15.275 11.1932C14.3717 10.7016 13.2517 10.8374 12.5217 11.5624L13.4033 12.4491Z" fill="#1EAB5B"/>
</g>
</svg>
