<svg width="12" height="13" viewBox="0 0 12 13" fill="none" xmlns="http://www.w3.org/2000/svg">
<path d="M6 1L6.84187 3.39079C7.04331 3.96284 7.14403 4.24887 7.30065 4.48946C7.43947 4.70269 7.61003 4.88899 7.80526 5.04061C8.02553 5.21169 8.28739 5.3217 8.81113 5.54171L11 6.46125L8.81113 7.38079C8.2874 7.60081 8.02553 7.71081 7.80526 7.88189C7.61003 8.03351 7.43947 8.21981 7.30065 8.43304C7.14403 8.67363 7.04331 8.95966 6.84187 9.53171L6 11.9225L5.15813 9.53171C4.95669 8.95966 4.85597 8.67363 4.69935 8.43304C4.56053 8.21981 4.38997 8.03351 4.19474 7.88189C3.97447 7.71082 3.71261 7.60081 3.18887 7.38079L1 6.46125L3.18887 5.54171C3.71261 5.32169 3.97447 5.21169 4.19474 5.04061C4.38997 4.88899 4.56053 4.70269 4.69935 4.48946C4.85597 4.24887 4.95669 3.96284 5.15813 3.39079L6 1Z" fill="#FBBE47" stroke="#FBBE47" stroke-width="1.5" stroke-linecap="round" stroke-linejoin="round"/>
</svg>
