<svg width="20" height="20" viewBox="0 0 20 20" fill="none" xmlns="http://www.w3.org/2000/svg">
<path d="M9.74985 13C6.57977 13 3.76065 14.5306 1.96585 16.906C1.57956 17.4172 1.38641 17.6728 1.39273 18.0183C1.39761 18.2852 1.56521 18.6219 1.77522 18.7867C2.04704 19 2.42372 19 3.17708 19H16.3226C17.076 19 17.4527 19 17.7245 18.7867C17.9345 18.6219 18.1021 18.2852 18.107 18.0183C18.1133 17.6728 17.9201 17.4172 17.5339 16.906C15.7391 14.5306 12.9199 13 9.74985 13Z" stroke="#3F3F3F" stroke-width="2" stroke-linecap="round" stroke-linejoin="round"/>
<path d="M9.74985 10C12.2351 10 14.2499 7.98528 14.2499 5.5C14.2499 3.01472 12.2351 1 9.74985 1C7.26457 1 5.24985 3.01472 5.24985 5.5C5.24985 7.98528 7.26457 10 9.74985 10Z" stroke="#3F3F3F" stroke-width="2" stroke-linecap="round" stroke-linejoin="round"/>
</svg>
