<svg width="18" height="16" viewBox="0 0 18 16" fill="none" xmlns="http://www.w3.org/2000/svg">
<path d="M16.4966 5.62843L11.4465 4.8983L9.18905 0.345375C9.12739 0.220719 9.02595 0.119806 8.90064 0.0584675C8.58639 -0.0958688 8.2045 0.0327448 8.04737 0.345375L5.78988 4.8983L0.739864 5.62843C0.600635 5.64821 0.473341 5.71351 0.375881 5.81244C0.258057 5.93292 0.193131 6.095 0.195368 6.26307C0.197606 6.43114 0.266825 6.59145 0.387815 6.70878L4.04157 10.2526L3.17835 15.2566C3.15811 15.373 3.17106 15.4928 3.21573 15.6022C3.2604 15.7117 3.33501 15.8065 3.43109 15.8759C3.52717 15.9453 3.64088 15.9866 3.75933 15.995C3.87778 16.0034 3.99623 15.9786 4.10124 15.9234L8.61821 13.5609L13.1352 15.9234C13.2585 15.9887 13.4017 16.0105 13.5389 15.9868C13.885 15.9274 14.1177 15.6009 14.0581 15.2566L13.1948 10.2526L16.8486 6.70878C16.9481 6.61182 17.0137 6.48519 17.0336 6.34668C17.0873 6.00042 16.8446 5.67987 16.4966 5.62843Z" fill="#EEEA7D"/>
</svg>
