<svg width="21" height="24" viewBox="0 0 21 24" fill="none" xmlns="http://www.w3.org/2000/svg">
<path opacity="0.4" fill-rule="evenodd" clip-rule="evenodd" d="M6.93791 3.59632H14.1044V1.92773H6.93791V3.59632ZM5.30793 1.99609V2.0044C4.7485 2.05528 4.19508 2.16638 3.65667 2.33355V2.32732C3.64067 2.33405 3.6256 2.33923 3.61114 2.3442C3.59214 2.35073 3.57421 2.35689 3.5566 2.36574C3.51356 2.37612 3.47153 2.3917 3.4315 2.41142C3.31341 2.44984 3.19532 2.49553 3.08424 2.54225C3.05472 2.55367 3.02519 2.56691 2.99567 2.58015L2.99567 2.58015C2.96615 2.59339 2.93662 2.60663 2.9071 2.61805C2.86657 2.63726 2.82429 2.65828 2.78201 2.67931L2.78199 2.67932C2.73971 2.70034 2.69744 2.72137 2.65691 2.74057L2.45676 2.85583C2.41975 2.8747 2.3855 2.89684 2.35054 2.91942C2.32973 2.93287 2.30867 2.94648 2.28663 2.95966C1.9854 3.15383 1.70619 3.38122 1.454 3.63976L1.43898 3.65534C1.40586 3.69395 1.37288 3.73141 1.34034 3.76837L1.34034 3.76837C1.28538 3.83079 1.2317 3.89176 1.18079 3.95437L1.16578 3.96891C0.347154 5.09861 -0.0631583 6.491 0.00789579 7.90208V8.3496H1.62413V7.89793C1.62413 5.93134 2.2506 4.70716 3.64466 4.08001C4.17707 3.85469 4.7395 3.71556 5.31193 3.66468H5.32694V2.00336L5.30793 1.99609ZM19.831 3.94855L19.838 3.96308C20.6556 5.09382 21.0639 6.48725 20.9919 7.89833V8.35001H19.3767V7.88691C19.4107 7.05418 19.2436 6.22559 18.8893 5.47696C18.549 4.83632 18.0046 4.33896 17.3471 4.06899C16.8237 3.84368 16.2693 3.7035 15.7039 3.65366V2.00065C16.2633 2.05257 16.8167 2.16263 17.3561 2.3298V2.32149C17.3864 2.33525 17.4095 2.34342 17.4493 2.35746L17.4562 2.35991C17.4746 2.36643 17.4918 2.37294 17.5088 2.37938C17.5324 2.38833 17.5557 2.39714 17.5813 2.4056C17.6919 2.4419 17.7954 2.48469 17.9019 2.52872L17.9205 2.53643C17.9697 2.55368 18.016 2.57508 18.0577 2.59437C18.0712 2.60061 18.0842 2.60664 18.0967 2.61222C18.1847 2.65064 18.2748 2.69633 18.3469 2.73475C18.3949 2.75968 18.4417 2.78637 18.4856 2.8114C18.5094 2.82493 18.5323 2.83798 18.554 2.85C18.5899 2.8698 18.6211 2.89099 18.651 2.91136C18.6729 2.92624 18.6942 2.94068 18.7162 2.95383C19.0184 3.14904 19.3006 3.37747 19.5558 3.63394L19.5648 3.64951C19.6589 3.744 19.7479 3.84368 19.831 3.94855Z" fill="#D75051"/>
<path d="M15.7503 0.836416V4.5132C15.7503 4.97647 15.3744 5.3517 14.9103 5.3517C14.4462 5.3517 14.0703 4.97647 14.0703 4.5132V0.844801C14.0661 0.381534 14.4399 0.00316413 14.904 1.97829e-05C15.3681 -0.00312456 15.7472 0.368956 15.7503 0.832223V0.836416Z" fill="#D75051"/>
<path d="M6.93 0.849288V4.51699C6.93 4.98226 6.55365 5.35951 6.08948 5.35951C5.62531 5.35951 5.25 4.98226 5.25 4.51699V0.849288C5.25 0.384014 5.62531 0.0078125 6.08948 0.0078125C6.55365 0.0078125 6.93 0.384014 6.93 0.849288Z" fill="#D75051"/>
<path fill-rule="evenodd" clip-rule="evenodd" d="M0 17.3953V8.34863H21V17.3953C21 21.3402 18.7969 23.3334 14.4306 23.3334H6.55937C2.20315 23.3334 0 21.3402 0 17.3953ZM4.73665 13.379C4.73665 13.9264 5.16727 14.3704 5.69803 14.3704C6.2388 14.3704 6.66941 13.916 6.6594 13.3687C6.6594 12.8213 6.22878 12.3773 5.70804 12.3773H5.69803C5.16727 12.3773 4.73665 12.8317 4.73665 13.379ZM9.53369 13.3792C9.53369 13.9265 9.97432 14.3706 10.5051 14.3706C11.0358 14.3706 11.4665 13.9265 11.4665 13.3689C11.4665 12.8318 11.0358 12.3878 10.5051 12.3774H10.4951C9.96431 12.3878 9.53369 12.8318 9.53369 13.3792ZM15.3019 14.3705C14.7711 14.3705 14.3405 13.9264 14.3405 13.3791C14.3405 12.8318 14.7611 12.3877 15.3019 12.3877C15.8326 12.3877 16.2632 12.8318 16.2632 13.3791C16.2632 13.9264 15.8326 14.3705 15.3019 14.3705ZM15.3016 18.6042C14.7709 18.6042 14.3403 18.1602 14.3302 17.6128C14.3302 17.0655 14.7609 16.6214 15.2916 16.6214H15.3016C15.8324 16.6214 16.263 17.0655 16.263 17.6128C16.263 18.1602 15.8324 18.6042 15.3016 18.6042ZM10.5051 18.6043C9.97432 18.6043 9.53369 18.1602 9.53369 17.6129C9.53369 17.0656 9.96431 16.6215 10.4951 16.6112H10.5051C11.0358 16.6215 11.4564 17.0656 11.4665 17.6026C11.4665 18.1602 11.0358 18.6043 10.5051 18.6043ZM5.69812 18.6043C5.16736 18.6043 4.73674 18.1602 4.73674 17.6129C4.72673 17.0656 5.15734 16.6112 5.69812 16.6112C6.22887 16.6112 6.65949 17.0552 6.65949 17.6026C6.65949 18.1499 6.22887 18.6043 5.69812 18.6043Z" fill="#D75051"/>
</svg>
