<svg width="25" height="25" viewBox="0 0 25 25" fill="none" xmlns="http://www.w3.org/2000/svg">
<g id="icon=Home, Fill=Default">
<path id="Union" fill-rule="evenodd" clip-rule="evenodd" d="M12.6077 2.35059C11.88 2.35059 11.29 2.94055 11.29 3.6683C11.29 4.39605 11.88 4.98601 12.6077 4.98601C13.3355 4.98601 13.9254 4.39605 13.9254 3.6683C13.9254 2.94055 13.3355 2.35059 12.6077 2.35059ZM5.99055 3.14307H5.84131V4.75626H5.99055C8.57458 4.75626 10.7695 6.45992 11.5095 8.80382C9.68655 6.94855 6.93811 6.10614 4.25713 6.84489L4.11329 6.88453L4.54171 8.44076L4.68563 8.40109C7.52913 7.6173 10.4715 9.10749 11.5698 11.7667C8.86256 10.0672 5.24906 10.265 2.73401 12.4865L2.62207 12.5854L3.69137 13.7939L3.80312 13.6951C6.12145 11.6471 9.63497 11.7976 11.7733 13.9883V22.6491H13.3865V13.981C14.39 12.9549 15.7186 12.3438 17.1623 12.2549C18.7046 12.1588 20.1924 12.6707 21.3506 13.6937L21.4624 13.7924L22.5317 12.5839L22.4198 12.4851C19.9058 10.2632 16.2945 10.0657 13.5874 11.7633C14.6871 9.1057 17.6279 7.61599 20.471 8.40108L20.615 8.44083L21.0434 6.88455L20.8996 6.8449C18.2273 6.108 15.4889 6.94253 13.6659 8.7848C14.4156 6.45689 16.6011 4.7682 19.1751 4.7682H19.3244V3.155H19.1751C16.3045 3.155 13.8117 4.79919 12.5854 7.19429C11.3617 4.7931 8.86577 3.14307 5.99055 3.14307Z" fill="#B9B8C1"/>
</g>
</svg>
