<svg width="25" height="24" viewBox="0 0 25 24" fill="none" xmlns="http://www.w3.org/2000/svg">
<g filter="url(#filter0_d_464_1046)">
<path d="M12.7499 15C9.57977 15 6.76065 16.5306 4.96585 18.906C4.57956 19.4172 4.38641 19.6728 4.39273 20.0183C4.39761 20.2852 4.56521 20.6219 4.77522 20.7867C5.04704 21 5.42372 21 6.17708 21H19.3226C20.076 21 20.4527 21 20.7245 20.7867C20.9345 20.6219 21.1021 20.2852 21.107 20.0183C21.1133 19.6728 20.9201 19.4172 20.5339 18.906C18.7391 16.5306 15.9199 15 12.7499 15Z" stroke="#5AC28F" stroke-width="2" stroke-linecap="round" stroke-linejoin="round"/>
<path d="M12.7499 12C15.2351 12 17.2499 9.98528 17.2499 7.5C17.2499 5.01472 15.2351 3 12.7499 3C10.2646 3 8.24985 5.01472 8.24985 7.5C8.24985 9.98528 10.2646 12 12.7499 12Z" stroke="#5AC28F" stroke-width="2" stroke-linecap="round" stroke-linejoin="round"/>
</g>
<defs>
<filter id="filter0_d_464_1046" x="-6.60742" y="-8" width="38.7148" height="40" filterUnits="userSpaceOnUse" color-interpolation-filters="sRGB">
<feFlood flood-opacity="0" result="BackgroundImageFix"/>
<feColorMatrix in="SourceAlpha" type="matrix" values="0 0 0 0 0 0 0 0 0 0 0 0 0 0 0 0 0 0 127 0" result="hardAlpha"/>
<feOffset/>
<feGaussianBlur stdDeviation="5"/>
<feColorMatrix type="matrix" values="0 0 0 0 0.352941 0 0 0 0 0.760784 0 0 0 0 0.560784 0 0 0 1 0"/>
<feBlend mode="normal" in2="BackgroundImageFix" result="effect1_dropShadow_464_1046"/>
<feBlend mode="normal" in="SourceGraphic" in2="effect1_dropShadow_464_1046" result="shape"/>
</filter>
</defs>
</svg>
