<svg width="35" height="34" viewBox="0 0 35 34" fill="none" xmlns="http://www.w3.org/2000/svg">
<mask id="mask0_254_9888" style="mask-type:luminance" maskUnits="userSpaceOnUse" x="0" y="0" width="35" height="34">
<path d="M0 3.8147e-06H35V34H0V3.8147e-06Z" fill="white"/>
</mask>
<g mask="url(#mask0_254_9888)">
<path d="M10.2048 21.6434C10.2048 23.0145 9.06071 24.126 7.6493 24.126C6.23795 24.126 5.09375 23.0145 5.09375 21.6434C5.09375 20.2724 6.23795 19.1609 7.6493 19.1609C9.06071 19.1609 10.2048 20.2724 10.2048 21.6434Z" stroke="#5CB070" stroke-width="1.5" stroke-miterlimit="10" stroke-linecap="round" stroke-linejoin="round"/>
<path d="M28.033 21.6434C28.033 23.0145 26.8888 24.126 25.4774 24.126C24.0661 24.126 22.9219 23.0145 22.9219 21.6434C22.9219 20.2724 24.0661 19.1609 25.4774 19.1609C26.8888 19.1609 28.033 20.2724 28.033 21.6434Z" stroke="#5CB070" stroke-width="1.5" stroke-miterlimit="10" stroke-linecap="round" stroke-linejoin="round"/>
<path d="M19.5762 21.6436H22.9234C22.9234 20.2723 24.0677 19.1613 25.4787 19.1613C26.8903 19.1613 28.0346 20.2723 28.0346 21.6436H34.3162V19.7828C34.3162 19.5172 34.2806 19.2529 34.2102 18.9966L33.6797 17.0589L33.5006 16.4047C33.2573 15.5142 32.4684 14.8648 31.5237 14.7777L25.6347 14.2347C25.3471 14.2081 25.0728 14.1047 24.8422 13.936L19.7789 10.231C19.463 9.99855 19.0768 9.87371 18.681 9.87371H10.5592C9.97545 9.87371 9.42652 10.1446 9.08336 10.6035L6.92922 13.3881C6.63404 13.7697 6.17132 13.9942 5.67995 13.9942H2.47984C1.82291 13.9942 1.27535 14.4803 1.21588 15.1158L0.688829 20.3021C0.621837 21.0226 1.20631 21.6436 1.95143 21.6436H5.09254C5.09254 20.2723 6.23688 19.1613 7.6485 19.1613C9.05943 19.1613 10.2038 20.2723 10.2038 21.6436H13.546" stroke="#5CB070" stroke-width="1.5" stroke-miterlimit="10" stroke-linecap="round" stroke-linejoin="round"/>
<path d="M21.0713 14.2533L18.6159 12.4566C18.5042 12.3749 18.3681 12.3307 18.2283 12.3307H11.4022C11.1997 12.3307 11.0089 12.4232 10.8872 12.5805L9.49753 14.3772C9.1785 14.7897 9.48147 15.3789 10.0125 15.3789H20.6837C21.302 15.3789 21.5652 14.6148 21.0713 14.2533Z" stroke="#5CB070" stroke-width="1.5" stroke-miterlimit="10" stroke-linecap="round" stroke-linejoin="round"/>
<path d="M1.06543 16.6105H3.13788C3.45397 16.6105 3.71025 16.8594 3.71025 17.1665V18.1866C3.71025 18.4244 3.55453 18.636 3.32279 18.7128L0.757812 19.5635L1.06543 16.6105Z" stroke="#5CB070" stroke-width="1.5" stroke-miterlimit="10" stroke-linecap="round" stroke-linejoin="round"/>
<path d="M34.3158 19.7832L31.6802 19.2314C31.3708 19.1739 31.115 19.0289 30.9126 18.7963C30.3658 18.0766 30.8954 17.059 31.816 17.059H33.6791L34.2099 18.997C34.2802 19.2534 34.3158 19.5178 34.3158 19.7832Z" stroke="#5CB070" stroke-width="1.5" stroke-miterlimit="10" stroke-linecap="round" stroke-linejoin="round"/>
<path d="M14.6094 12.3309V15.1904" stroke="#5CB070" stroke-width="1.5" stroke-miterlimit="10" stroke-linecap="round" stroke-linejoin="round"/>
<path d="M14.6094 18.0205H16.0948" stroke="#5CB070" stroke-width="1.5" stroke-miterlimit="10" stroke-linecap="round" stroke-linejoin="round"/>
</g>
</svg>
