<svg width="39" height="39" viewBox="0 0 39 39" fill="none" xmlns="http://www.w3.org/2000/svg">
<g clip-path="url(#clip0_254_9867)">
<path d="M32.9062 31.6875C33.6294 31.6875 34.3363 31.4731 34.9376 31.0713C35.5388 30.6696 36.0074 30.0985 36.2842 29.4304C36.5609 28.7623 36.6333 28.0272 36.4922 27.318C36.3512 26.6087 36.0029 25.9572 35.4916 25.4459C34.9803 24.9346 34.3288 24.5863 33.6195 24.4453C32.9103 24.3042 32.1752 24.3766 31.5071 24.6533C30.839 24.9301 30.2679 25.3987 29.8662 25.9999C29.4644 26.6012 29.25 27.3081 29.25 28.0313C29.251 29.0007 29.6365 29.9301 30.322 30.6155C31.0074 31.301 31.9368 31.6865 32.9062 31.6875ZM32.9062 25.5938C33.3883 25.5938 33.8596 25.7367 34.2605 26.0045C34.6613 26.2724 34.9737 26.6531 35.1582 27.0985C35.3427 27.5439 35.391 28.034 35.2969 28.5068C35.2029 28.9796 34.9707 29.4139 34.6298 29.7548C34.2889 30.0957 33.8546 30.3279 33.3818 30.4219C32.909 30.516 32.4189 30.4677 31.9735 30.2832C31.5281 30.0987 31.1474 29.7863 30.8795 29.3855C30.6117 28.9846 30.4687 28.5133 30.4687 28.0313C30.4687 27.3848 30.7256 26.7648 31.1827 26.3077C31.6398 25.8506 32.2598 25.5938 32.9062 25.5938Z" fill="#5CB070"/>
<path d="M32.9062 29.8594C33.2678 29.8594 33.6213 29.7522 33.9219 29.5513C34.2225 29.3504 34.4568 29.0649 34.5952 28.7308C34.7336 28.3968 34.7698 28.0292 34.6992 27.6746C34.6287 27.32 34.4546 26.9942 34.1989 26.7386C33.9433 26.4829 33.6175 26.3088 33.2629 26.2383C32.9083 26.1677 32.5407 26.2039 32.2067 26.3423C31.8726 26.4807 31.5871 26.715 31.3862 27.0156C31.1853 27.3162 31.0781 27.6697 31.0781 28.0313C31.0781 28.5161 31.2707 28.9811 31.6136 29.3239C31.9564 29.6668 32.4214 29.8594 32.9062 29.8594ZM32.9062 27.4219C33.0268 27.4219 33.1446 27.4576 33.2448 27.5246C33.345 27.5915 33.4231 27.6867 33.4692 27.7981C33.5154 27.9094 33.5274 28.0319 33.5039 28.1501C33.4804 28.2683 33.4224 28.3769 33.3371 28.4621C33.2519 28.5474 33.1433 28.6054 33.0251 28.6289C32.9069 28.6524 32.7844 28.6404 32.6731 28.5942C32.5617 28.5481 32.4665 28.47 32.3996 28.3698C32.3326 28.2696 32.2969 28.1518 32.2969 28.0313C32.2969 27.8696 32.3611 27.7146 32.4754 27.6004C32.5896 27.4861 32.7446 27.4219 32.9062 27.4219Z" fill="#5CB070"/>
<path d="M7.92187 31.6875C8.64501 31.6875 9.35191 31.4731 9.95318 31.0713C10.5544 30.6696 11.0231 30.0985 11.2998 29.4304C11.5765 28.7623 11.6489 28.0272 11.5079 27.318C11.3668 26.6087 11.0186 25.9572 10.5072 25.4459C9.9959 24.9346 9.34442 24.5863 8.63517 24.4453C7.92593 24.3042 7.19078 24.3766 6.52269 24.6533C5.85459 24.9301 5.28357 25.3987 4.88181 25.9999C4.48006 26.6012 4.26562 27.3081 4.26562 28.0313C4.26659 29.0007 4.65211 29.9301 5.33758 30.6155C6.02305 31.301 6.95247 31.6865 7.92187 31.6875ZM7.92187 25.5938C8.40396 25.5938 8.87523 25.7367 9.27608 26.0045C9.67692 26.2724 9.98934 26.6531 10.1738 27.0985C10.3583 27.5439 10.4066 28.034 10.3125 28.5068C10.2185 28.9796 9.98634 29.4139 9.64545 29.7548C9.30455 30.0957 8.87023 30.3279 8.39741 30.4219C7.92458 30.516 7.43448 30.4677 6.98908 30.2832C6.54369 30.0987 6.163 29.7863 5.89517 29.3855C5.62733 28.9846 5.48437 28.5133 5.48437 28.0313C5.48437 27.3848 5.74118 26.7648 6.1983 26.3077C6.65542 25.8506 7.27541 25.5938 7.92187 25.5938Z" fill="#5CB070"/>
<path d="M7.92187 29.8594C8.28344 29.8594 8.63689 29.7522 8.93753 29.5513C9.23816 29.3504 9.47247 29.0649 9.61084 28.7308C9.74921 28.3968 9.78541 28.0292 9.71487 27.6746C9.64433 27.32 9.47022 26.9942 9.21455 26.7386C8.95889 26.4829 8.63314 26.3088 8.27852 26.2383C7.9239 26.1677 7.55633 26.2039 7.22228 26.3423C6.88824 26.4807 6.60272 26.715 6.40184 27.0156C6.20097 27.3162 6.09375 27.6697 6.09375 28.0313C6.09375 28.5161 6.28636 28.9811 6.6292 29.3239C6.97204 29.6668 7.43703 29.8594 7.92187 29.8594ZM7.92187 27.4219C8.0424 27.4219 8.16021 27.4576 8.26042 27.5246C8.36064 27.5915 8.43874 27.6867 8.48486 27.7981C8.53098 27.9094 8.54305 28.0319 8.51954 28.1501C8.49603 28.2683 8.43799 28.3769 8.35277 28.4621C8.26755 28.5474 8.15897 28.6054 8.04076 28.6289C7.92255 28.6524 7.80003 28.6404 7.68868 28.5942C7.57733 28.5481 7.48216 28.47 7.4152 28.3698C7.34824 28.2696 7.3125 28.1518 7.3125 28.0313C7.3125 27.8696 7.3767 27.7146 7.49098 27.6004C7.60526 27.4861 7.76026 27.4219 7.92187 27.4219Z" fill="#5CB070"/>
<path d="M2.68978 28.6406H3.04688C3.20849 28.6406 3.36349 28.5764 3.47777 28.4621C3.59205 28.3479 3.65625 28.1929 3.65625 28.0312C3.65625 27.8588 3.72755 23.7656 7.92188 23.7656C12.1162 23.7656 12.1875 27.8588 12.1875 28.0312H13.4062C13.4062 26.1343 12.26 22.5469 7.92188 22.5469C4.02187 22.5469 2.7038 25.442 2.47528 27.406C2.12631 27.3541 1.80756 27.1787 1.57698 26.9116C1.34639 26.6446 1.21928 26.3037 1.21875 25.9508V24.6273C1.21815 24.4341 1.25593 24.2427 1.32989 24.0643C1.40385 23.8858 1.51251 23.7238 1.64958 23.5877C1.70624 23.531 1.75118 23.4638 1.78181 23.3897C1.81245 23.3157 1.82819 23.2364 1.82812 23.1562V18.9924C2.21081 17.9059 3.24919 15.8438 4.26562 15.8438H7.92188V14.625H4.26562C2.06213 14.625 0.779389 18.2812 0.641061 18.6981C0.620223 18.7601 0.609524 18.8252 0.609375 18.8906V22.9216C0.213746 23.4021 -0.00177503 24.0055 0 24.6279V25.9515C0.000967666 26.6645 0.284684 27.348 0.788923 27.8521C1.29316 28.3563 1.97676 28.6398 2.68978 28.6406Z" fill="#5CB070"/>
<path d="M35.9531 28.6406H37.1719C37.6567 28.6406 38.1217 28.448 38.4646 28.1052C38.8074 27.7623 39 27.2973 39 26.8125V22.5469C39 22.3853 38.9357 22.2303 38.8215 22.116C38.716 22.0106 36.2072 19.5719 30.1287 19.5C29.2147 18.5354 25.2105 14.625 20.1094 14.625H9.14062V15.8438H20.1094C25.2446 15.8438 29.3603 20.4646 29.4011 20.511C29.4583 20.5762 29.5288 20.6285 29.6078 20.6644C29.6868 20.7002 29.7726 20.7187 29.8594 20.7188C34.6978 20.7188 37.1323 22.3202 37.7812 22.8278V26.8125C37.7812 26.9741 37.717 27.1291 37.6028 27.2434C37.4885 27.3577 37.3335 27.4219 37.1719 27.4219H35.9531V28.6406Z" fill="#5CB070"/>
<path d="M22.5469 27.4219H10.9688V28.6406H22.5469V27.4219Z" fill="#5CB070"/>
<path d="M24.9844 27.4219H23.7656V28.6406H24.9844V27.4219Z" fill="#5CB070"/>
<path d="M29.8594 27.4219H26.2031V28.6406H29.8594V27.4219Z" fill="#5CB070"/>
<path d="M2.4375 24.3746H5.48438V23.1559H2.58131L1.49114 22.6074L0.94636 23.6982L2.16511 24.3076C2.24946 24.3508 2.34273 24.3738 2.4375 24.3746Z" fill="#5CB070"/>
<path d="M36.5625 23.7656H38.3906V22.5468H36.9391L35.8891 20.4463L34.7984 20.9911L36.0171 23.4286C36.0677 23.5299 36.1456 23.6151 36.2419 23.6746C36.3382 23.7341 36.4493 23.7656 36.5625 23.7656Z" fill="#5CB070"/>
<path d="M37.1719 28.0312H38.3906C38.3906 26.1343 37.2444 22.5469 32.9062 22.5469C28.5681 22.5469 27.4219 26.1343 27.4219 28.0312H28.6406C28.6406 27.8588 28.7119 23.7656 32.9062 23.7656C37.1006 23.7656 37.1719 27.8588 37.1719 28.0312Z" fill="#5CB070"/>
<path d="M4.875 27.4219H3.04688V28.6406H4.875V27.4219Z" fill="#5CB070"/>
<path d="M18.2807 20.7188H27.4214C27.5385 20.7189 27.6532 20.6852 27.7517 20.6218C27.8502 20.5584 27.9283 20.4679 27.9768 20.3612C28.0252 20.2546 28.0418 20.1362 28.0247 20.0203C28.0076 19.9044 27.9574 19.7959 27.8802 19.7078C27.698 19.5 23.3946 14.625 20.1089 14.625V15.8438C21.9163 15.8438 24.4653 17.9766 26.0052 19.5H18.8901V15.2344H17.6714V20.1094C17.6714 20.271 17.7356 20.426 17.8498 20.5403C17.9641 20.6545 18.1191 20.7188 18.2807 20.7188Z" fill="#5CB070"/>
<path d="M9.14062 20.719H18.2812V19.5003H9.95536C10.4849 17.7526 11.1254 15.9598 11.4008 15.6612L10.5379 14.8008C9.88711 15.4516 8.93405 18.6112 8.55441 19.939C8.52789 20.0299 8.52293 20.1258 8.53991 20.219C8.5569 20.3121 8.59537 20.4001 8.65227 20.4758C8.70917 20.5515 8.78293 20.6129 8.8677 20.6551C8.95247 20.6973 9.04592 20.7192 9.14062 20.719Z" fill="#5CB070"/>
<path d="M9.14062 20.7192V19.5004C7.12298 19.5004 4.875 18.9983 4.875 18.2817V17.6723C4.89343 17.2557 5.03837 16.8546 5.29051 16.5224C5.54265 16.1903 5.89001 15.9428 6.28631 15.8131L5.90119 14.6553C5.26175 14.8656 4.70291 15.2683 4.30107 15.8084C3.89923 16.3484 3.67403 16.9994 3.65625 17.6723V18.2817C3.65625 20.6016 8.22656 20.7192 9.14062 20.7192Z" fill="#5CB070"/>
<path d="M1.21877 22.5469H2.43752C2.57336 22.5469 2.70531 22.5015 2.81241 22.4179C2.9195 22.3343 2.9956 22.2174 3.02861 22.0856L3.63799 19.6481C3.66049 19.5582 3.66222 19.4644 3.64304 19.3738C3.62386 19.2832 3.58427 19.1981 3.52728 19.1251C3.4703 19.0521 3.39741 18.993 3.31417 18.9524C3.23093 18.9117 3.13952 18.8906 3.04689 18.8906H1.21877V20.1094H2.26628L1.9616 21.3281H1.21877V22.5469Z" fill="#5CB070"/>
<path d="M20.7188 21.3281H19.5V22.5469H20.7188V21.3281Z" fill="#5CB070"/>
<path d="M11.5781 21.3281H10.3594V22.5469H11.5781V21.3281Z" fill="#5CB070"/>
</g>
<defs>
<clipPath id="clip0_254_9867">
<rect width="39" height="39" fill="white" transform="matrix(-1 0 0 1 39 0)"/>
</clipPath>
</defs>
</svg>
