<svg width="37" height="25" viewBox="0 0 37 25" fill="none" xmlns="http://www.w3.org/2000/svg">
<path d="M32.4414 9.74199L35.0769 10.3064C35.882 10.4784 36.4579 11.1909 36.4579 12.014V17.5474C36.4579 18.7687 35.5654 19.8057 34.358 19.9885L33.6345 20.0977" fill="white"/>
<path d="M32.4414 9.74199L35.0769 10.3064C35.882 10.4784 36.4579 11.1909 36.4579 12.014V17.5474C36.4579 18.7687 35.5654 19.8057 34.358 19.9885L33.6345 20.0977" stroke="#5AC28F" stroke-width="1.08398" stroke-miterlimit="10" stroke-linecap="round" stroke-linejoin="round"/>
<path d="M5.90875 20.2197L4.94762 20.1106C4.07682 20.0116 3.41992 19.2752 3.41992 18.3986V11.0044L4.96424 4.51568C5.19332 3.55527 6.05111 2.87742 7.03826 2.87742H10.632H22.8305C23.3892 2.87742 23.9145 3.14553 24.2412 3.59936L27.9866 8.78803L30.3288 9.28955" fill="white"/>
<path d="M5.90875 20.2197L4.94762 20.1106C4.07682 20.0116 3.41992 19.2752 3.41992 18.3986V11.0044L4.96424 4.51568C5.19332 3.55527 6.05111 2.87742 7.03826 2.87742H10.632H22.8305C23.3892 2.87742 23.9145 3.14553 24.2412 3.59936L27.9866 8.78803L30.3288 9.28955" stroke="#5AC28F" stroke-width="1.08398" stroke-miterlimit="10" stroke-linecap="round" stroke-linejoin="round"/>
<path d="M24.5101 20.4678H15.1055Z" fill="white"/>
<path d="M24.5101 20.4678H15.1055" stroke="#5AC28F" stroke-width="1.08398" stroke-miterlimit="10" stroke-linecap="round" stroke-linejoin="round"/>
<path d="M24.7911 7.7677L22.8932 5.13853C22.7722 4.97037 22.5781 4.87122 22.3714 4.87122H19.6568C19.2656 4.87122 18.9484 5.18839 18.9484 5.57964V8.07974C18.9484 8.47091 19.2656 8.78809 19.6568 8.78809H24.2692C24.7942 8.78809 25.0984 8.19334 24.7911 7.7677ZM7.3517 5.6936L6.16314 7.83143C5.92445 8.26019 6.2349 8.78809 6.72551 8.78809H8.8025C9.19375 8.78809 9.51085 8.47091 9.51085 8.07974V5.57964C9.51085 5.18839 9.19375 4.87122 8.8025 4.87122H8.74967C8.16873 4.87122 7.6336 5.18572 7.3517 5.6936ZM11.0385 5.57964V8.07974C11.0385 8.47091 11.3556 8.78809 11.7468 8.78809H16.5158C16.9069 8.78809 17.2241 8.47091 17.2241 8.07974V5.57964C17.2241 5.18839 16.9069 4.87122 16.5158 4.87122H11.7468C11.3556 4.87122 11.0385 5.18839 11.0385 5.57964Z" fill="white" stroke="#5AC28F" stroke-width="1.08398" stroke-miterlimit="10" stroke-linecap="round" stroke-linejoin="round"/>
<path d="M34.1819 15.209H36.4579V12.365H34.1819C33.8247 12.365 33.5352 12.6545 33.5352 13.0117V14.5623C33.5352 14.9194 33.8247 15.209 34.1819 15.209Z" fill="white" stroke="#5AC28F" stroke-width="1.08398" stroke-miterlimit="10" stroke-linecap="round" stroke-linejoin="round"/>
<path d="M24.4288 18.3252H15.1875Z" fill="white"/>
<path d="M24.4288 18.3252H15.1875" stroke="#5AC28F" stroke-width="1.08398" stroke-miterlimit="10" stroke-linecap="round" stroke-linejoin="round"/>
<path d="M23.5092 15.9707H16.1064Z" fill="white"/>
<path d="M23.5092 15.9707H16.1064" stroke="#5AC28F" stroke-width="1.08398" stroke-miterlimit="10" stroke-linecap="round" stroke-linejoin="round"/>
<path d="M36.4582 16.6016H32.915Z" fill="white"/>
<path d="M36.4582 16.6016H32.915" stroke="#5AC28F" stroke-width="1.08398" stroke-miterlimit="10" stroke-linecap="round" stroke-linejoin="round"/>
<path d="M6.7015 16.6016H3.41992Z" fill="white"/>
<path d="M6.7015 16.6016H3.41992" stroke="#5AC28F" stroke-width="1.08398" stroke-miterlimit="10" stroke-linecap="round" stroke-linejoin="round"/>
<path d="M18.9482 10.4414H20.7357Z" fill="white"/>
<path d="M18.9482 10.4414H20.7357" stroke="#5AC28F" stroke-width="1.08398" stroke-miterlimit="10" stroke-linecap="round" stroke-linejoin="round"/>
<path d="M11.1865 10.4414H12.9741Z" fill="white"/>
<path d="M11.1865 10.4414H12.9741" stroke="#5AC28F" stroke-width="1.08398" stroke-miterlimit="10" stroke-linecap="round" stroke-linejoin="round"/>
<path d="M21.0846 1.09047H7.93129C7.438 1.09047 7.03809 1.49039 7.03809 1.98368C7.03809 2.47704 7.438 2.87695 7.93129 2.87695H21.0846C21.578 2.87695 21.9778 2.47704 21.9778 1.98368C21.9778 1.49039 21.578 1.09047 21.0846 1.09047Z" fill="white" stroke="#5AC28F" stroke-width="1.08398" stroke-miterlimit="10" stroke-linecap="round" stroke-linejoin="round"/>
<path d="M33.7164 19.2224C33.7164 16.6339 31.618 14.5356 29.0296 14.5356C26.4411 14.5356 24.3428 16.6339 24.3428 19.2224C24.3428 21.8108 26.4411 23.9092 29.0296 23.9092C31.618 23.9092 33.7164 21.8108 33.7164 19.2224Z" fill="white" stroke="#5AC28F" stroke-width="1.08398" stroke-miterlimit="10" stroke-linecap="round" stroke-linejoin="round"/>
<path d="M31.2407 19.2224C31.2407 18.0012 30.2508 17.0112 29.0295 17.0112C27.8083 17.0112 26.8184 18.0012 26.8184 19.2224C26.8184 20.4436 27.8083 21.4336 29.0295 21.4336C30.2508 21.4336 31.2407 20.4436 31.2407 19.2224Z" fill="white" stroke="#5AC28F" stroke-width="1.08398" stroke-miterlimit="10" stroke-linecap="round" stroke-linejoin="round"/>
<path d="M8.20107 23.2573C8.89988 23.6714 9.71504 23.9092 10.5866 23.9092C13.1751 23.9092 15.273 21.8106 15.273 19.2228C15.273 16.6342 13.1751 14.5356 10.5866 14.5356C7.99801 14.5356 5.89941 16.6342 5.89941 19.2228C5.89941 20.1571 6.1733 21.0279 6.64447 21.7586" fill="white"/>
<path d="M8.20107 23.2573C8.89988 23.6714 9.71504 23.9092 10.5866 23.9092C13.1751 23.9092 15.273 21.8106 15.273 19.2228C15.273 16.6342 13.1751 14.5356 10.5866 14.5356C7.99801 14.5356 5.89941 16.6342 5.89941 19.2228C5.89941 20.1571 6.1733 21.0279 6.64447 21.7586" stroke="#5AC28F" stroke-width="1.08398" stroke-miterlimit="10" stroke-linecap="round" stroke-linejoin="round"/>
<path d="M12.7983 19.2224C12.7983 18.0012 11.8084 17.0112 10.5872 17.0112C9.36594 17.0112 8.37598 18.0012 8.37598 19.2224C8.37598 20.4436 9.36594 21.4336 10.5872 21.4336C11.8084 21.4336 12.7983 20.4436 12.7983 19.2224Z" fill="white" stroke="#5AC28F" stroke-width="1.08398" stroke-miterlimit="10" stroke-linecap="round" stroke-linejoin="round"/>
<path d="M1.32492 7.15511H2.63639C3.06876 7.15511 3.41932 7.50567 3.41932 7.93803V15.3119C3.41932 15.7442 3.06876 16.0947 2.63639 16.0947H1.32492C0.892553 16.0947 0.541992 15.7442 0.541992 15.3119V7.93803C0.541992 7.50567 0.892553 7.15511 1.32492 7.15511Z" fill="white" stroke="#5AC28F" stroke-width="1.08398" stroke-miterlimit="10" stroke-linecap="round" stroke-linejoin="round"/>
</svg>
