<svg width="22" height="22" viewBox="0 0 22 22" fill="none" xmlns="http://www.w3.org/2000/svg">
<path d="M20.9308 12.1916C21.152 12.0807 21.338 11.9105 21.4679 11.7C21.5979 11.4895 21.6667 11.247 21.6667 10.9996C21.6667 10.7522 21.5979 10.5097 21.4679 10.2991C21.338 10.0886 21.152 9.91843 20.9308 9.80758L2.26417 0.474248C2.03272 0.35844 1.77257 0.312494 1.51545 0.342016C1.25833 0.371538 1.01537 0.475251 0.816185 0.640503C0.617006 0.805756 0.470226 1.0254 0.393751 1.27265C0.317276 1.5199 0.314409 1.78406 0.385504 2.03291L2.29084 8.69958C2.37053 8.97822 2.53884 9.2233 2.77028 9.39772C3.00173 9.57214 3.28369 9.66641 3.5735 9.66625L9.66817 9.66625C10.0218 9.66625 10.3609 9.80673 10.611 10.0568C10.861 10.3068 11.0015 10.646 11.0015 10.9996C11.0015 11.3532 10.861 11.6923 10.611 11.9424C10.3609 12.1924 10.0218 12.3329 9.66817 12.3329L3.5735 12.3329C3.28369 12.3328 3.00173 12.427 2.77028 12.6014C2.53884 12.7759 2.37053 13.0209 2.29084 13.2996L0.386836 19.9662C0.3156 20.215 0.318294 20.4791 0.394589 20.7264C0.470885 20.9737 0.617484 21.1934 0.816508 21.3588C1.01553 21.5242 1.25838 21.6281 1.51543 21.6578C1.77249 21.6875 2.03265 21.6418 2.26417 21.5262L20.9308 12.1929L20.9308 12.1916Z" fill="#5AC28F"/>
</svg>
