<svg width="21" height="22" viewBox="0 0 21 22" fill="none" xmlns="http://www.w3.org/2000/svg">
<path id="Union" fill-rule="evenodd" clip-rule="evenodd" d="M10.7747 0.850586C10.047 0.850586 9.45702 1.44055 9.45702 2.1683C9.45702 2.89605 10.047 3.48601 10.7747 3.48601C11.5025 3.48601 12.0924 2.89605 12.0924 2.1683C12.0924 1.44055 11.5025 0.850586 10.7747 0.850586ZM4.15754 1.64307H4.00831V3.25626H4.15754C6.74157 3.25626 8.93646 4.95992 9.67654 7.30382C7.85354 5.44855 5.1051 4.60614 2.42412 5.34489L2.28028 5.38453L2.70871 6.94076L2.85262 6.90109C5.69612 6.1173 8.63854 7.60749 9.7368 10.2667C7.02955 8.5672 3.41605 8.76497 0.901006 10.9865L0.789062 11.0854L1.85836 12.2939L1.97011 12.1951C4.28844 10.1471 7.80197 10.2976 9.94026 12.4883V21.1491H11.5534V12.481C12.557 11.4549 13.8856 10.8438 15.3293 10.7549C16.8716 10.6588 18.3594 11.1707 19.5176 12.1937L19.6294 12.2924L20.6986 11.0839L20.5868 10.9851C18.0728 8.76318 14.4615 8.56568 11.7544 10.2633C12.8541 7.6057 15.7949 6.11599 18.638 6.90108L18.782 6.94083L19.2104 5.38455L19.0666 5.3449C16.3943 4.608 13.6559 5.44253 11.8329 7.2848C12.5826 4.95689 14.7681 3.2682 17.3421 3.2682H17.4914V1.655H17.3421C14.4715 1.655 11.9787 3.29919 10.7524 5.69429C9.52864 3.2931 7.03276 1.64307 4.15754 1.64307Z" fill="black"/>
</svg>
