<svg width="29" height="29" viewBox="0 0 29 29" fill="none" xmlns="http://www.w3.org/2000/svg">
<circle opacity="0.3" cx="14.5" cy="14.5" r="14.5" fill="#F44336"/>
<path fill-rule="evenodd" clip-rule="evenodd" d="M19.5657 11.2343L22.7657 14.4343C23.0781 14.7467 23.0781 15.2533 22.7657 15.5657L19.5657 18.7657L18.4343 17.6343L20.2686 15.8H11V14.2H20.2686L18.4343 12.3657L19.5657 11.2343Z" fill="#F44336"/>
<path fill-rule="evenodd" clip-rule="evenodd" d="M15 8.6C11.4654 8.6 8.6 11.4654 8.6 15C8.6 18.5346 11.4654 21.4 15 21.4C16.0232 21.4 16.9882 21.1605 17.844 20.7352L18.556 22.168C17.4839 22.7008 16.2758 23 15 23C10.5817 23 7 19.4183 7 15C7 10.5817 10.5817 7 15 7C16.2757 7 17.4839 7.29921 18.556 7.832L17.844 9.26483C16.9882 8.83952 16.0232 8.6 15 8.6Z" fill="#F44336"/>
</svg>
