<svg width="64" height="64" viewBox="0 0 64 64" fill="none" xmlns="http://www.w3.org/2000/svg">
    <defs>
        <filter id="filter0_d_252_9130" x="0" y="0" width="64" height="64" filterUnits="userSpaceOnUse" color-interpolation-filters="sRGB">
            <feFlood flood-opacity="0" result="BackgroundImageFix"/>
            <feColorMatrix in="SourceAlpha" type="matrix" values="0 0 0 0 0 0 0 0 0 0 0 0 0 0 0 0 0 0 127 0" result="hardAlpha"/>
            <feOffset dy="6"/>
            <feGaussianBlur stdDeviation="6"/>
            <feColorMatrix type="matrix" values="0 0 0 0 0.113725 0 0 0 0 0.498039 0 0 0 0 0.847059 0 0 0 0.2 0"/>
            <feBlend mode="normal" in2="BackgroundImageFix" result="effect1_dropShadow_252_9130"/>
            <feBlend mode="normal" in="SourceGraphic" in2="effect1_dropShadow_252_9130" result="shape"/>
        </filter>
        <linearGradient id="paint0_linear_252_9130" x1="16.4444" y1="13.7778" x2="46.4444" y2="38.7778" gradientUnits="userSpaceOnUse">
            <stop stop-color="#58D3EE"/>
            <stop offset="1" stop-color="#0B66D1"/>
        </linearGradient>
    </defs><g filter="url(#filter0_d_252_9130)">
<rect x="12" y="6" width="40" height="40" rx="12" fill="url(#paint0_linear_252_9130)"/>
</g>
<path fill-rule="evenodd" clip-rule="evenodd" d="M27.854 14.1631C29.0672 14.1631 30.205 14.467 31.1861 14.9983C31.5143 14.9665 31.847 14.9503 32.1835 14.9503C37.8352 14.9503 42.4167 19.5318 42.4167 25.1835C42.4167 25.6883 42.3802 26.1846 42.3096 26.6698C42.8774 27.6157 43.2039 28.723 43.2039 29.9066C43.2039 33.3845 40.3845 36.2039 36.9066 36.2039C35.723 36.2039 34.6157 35.8774 33.6698 35.3096C33.1846 35.3802 32.6883 35.4167 32.1835 35.4167C26.5318 35.4167 21.9503 30.8352 21.9503 25.1835C21.9503 24.6537 21.9905 24.1333 22.0682 23.6253C21.4927 22.6954 21.1631 21.6141 21.1631 20.4605C21.1631 16.9825 24.1587 14.1631 27.854 14.1631ZM35.5649 21.5101C36.1194 20.4605 33.9013 19.6733 32.2377 19.6733C30.5741 19.6733 28.3559 20.7229 28.3559 22.5596C28.3559 24.3964 29.7423 25.0523 31.1286 25.7083C31.4059 25.8395 31.7178 25.9543 32.0297 26.0691C32.9655 26.4135 33.9013 26.7579 33.9013 27.5451C33.9013 28.5946 32.7922 28.857 31.6832 28.857C31.2863 28.857 30.829 28.6688 30.3761 28.4825C29.5636 28.1481 28.7655 27.8196 28.356 28.5946C27.8014 29.6442 29.4478 30.6938 31.6832 30.6938C34.1786 30.6938 36.1194 29.6442 36.1194 27.5451C36.1194 25.5776 33.9273 24.7627 32.5108 24.2361C32.416 24.2009 32.3247 24.1669 32.2377 24.134C30.8514 23.6092 30.5741 23.0844 30.5741 22.5596C30.5741 22.0349 31.1286 21.5101 32.2377 21.5101C32.6074 21.5101 33.0161 21.6695 33.4248 21.8289C34.2422 22.1477 35.0596 22.4664 35.5649 21.5101Z" fill="white"/>

</svg>
