<?xml version="1.0" encoding="UTF-8"?><svg id="Layer_1" xmlns="http://www.w3.org/2000/svg" viewBox="0 0 1027.96 657.35"><path d="M719.46,12.84h-10.97v28.61h-5.94V12.84h-10.93v-5.08h27.85v5.08Z" style="fill:#14143e; stroke-width:0px;"/><path d="M757.18,7.85v33.6h-5.99v-22.09l-8.87,14.19h-4.36l-9.11-14.23v22.14h-5.94V7.85h5.66l11.6,18.55,11.5-18.55h5.51Z" style="fill:#14143e; stroke-width:0px;"/><rect x="719.27" y="628.37" width="28.98" height="28.98" style="fill:#14143e; stroke-width:0px;"/><rect x="682.04" y="628.37" width="28.98" height="28.98" style="fill:#14143e; stroke-width:0px;"/><path d="M575.79,497.4h-110.66v28.58c0,39.57,32.19,56.59,71.76,56.59h1.86c-3.23,6.46-7.64,10.64-13.31,14.86-14.35,10.69-37.83,15.89-71.76,15.89h-15.17v30.33h15.17c52.44,0,122.15-10.08,122.15-97.28l-.05-48.97ZM545.43,551.17h-8.54c-21.02,0-38.44-2.13-41.08-22.44h49.67l.03,17.65c0,1.63-.03,3.23-.08,4.79Z" style="fill:#14143e; stroke-width:0px;"/><path d="M717.92,588.96c-17.87-.93-34.37-13.65-46.83-25.58-13.43-12.86-20.83-30.36-20.83-49.28v-16.69h-30.33v16.69c0,27.27,10.72,52.55,30.19,71.19,1.31,1.26,2.66,2.5,4.03,3.73h-84.3v30.33h92.43v-23.52c17.2,13.43,37.93,23.57,59.78,23.57h26.19v-122h-30.33v91.56Z" style="fill:#14143e; stroke-width:0px;"/><path d="M938.58,497.58l-33.31-.18h-85.32v31.3h26.8c-4.14,6.6-6.5,14.63-6.83,24.18-.4,11.57,1.64,26.97,5.83,36.16h-58.51v-91.64h-30.33v122h30.33v-.03h153.03c11.08-6.18,19.97-16.61,25.98-28.62l.35,28.62h61.36v-28.96c0-49.45-39.94-92.56-89.39-92.83ZM928.69,585.76l-42.67-.79c-13.49-7.32-16.15-20.56-15.79-31.05.71-20.74,20.53-25.17,37.04-25.23.1,0,.2,0,.3,0,13.71,0,24.65,3.37,30.81,9.51,4.19,4.17,6.22,9.75,6.22,17.04,0,12.21-6.01,23.59-15.91,30.51ZM997.63,588.65h-30.37c4.95-10.63,7.67-22.35,7.67-33.4,0-5.64-.71-11-2.1-16.03,14.99,11.3,24.8,29.79,24.8,49.43h0Z" style="fill:#14143e; stroke-width:0px;"/><polygon points="97.06 531.68 34.88 531.68 34.88 488.52 0 488.52 0 611.03 34.88 611.03 34.88 564.09 97.06 564.09 97.06 611.03 131.94 611.03 131.94 488.52 97.06 488.52 97.06 531.68" style="fill:#14143e; stroke-width:0px;"/><rect x="140.75" y="488.52" width="34.88" height="122.51" style="fill:#14143e; stroke-width:0px;"/><path d="M230.99,488.52h-46.31v122.51h46.5c45.08,0,73.19-17.16,73.19-60.42s-28.18-62.09-73.38-62.09ZM228.71,579.76h-9.15v-59.97h9.34c25.91,0,42.01,5.06,42.01,30.74s-15.78,29.23-42.2,29.23Z" style="fill:#14143e; stroke-width:0px;"/><path d="M443.46,550.61c0-.12,0-.23,0-.35,0-.11,0-.21,0-.32h-.01c-.27-42.07-25.29-61.66-66.85-61.66s-67.35,20.27-67.63,61.66h-.01c0,.12,0,.23,0,.35,0,.11,0,.21,0,.32h.01c.27,42.07,25.29,61.65,66.85,61.65s67.35-20.27,67.63-61.65h.01ZM408.74,550.61c-.3,23.15-15.7,28.68-33.2,28.68-18.57,0-31.42-5.15-31.68-28.68,0-.23,0-.67,0-.67.3-23.15,15.52-28.68,33.02-28.68,18.57,0,31.6,5.15,31.87,28.68v.67Z" style="fill:#14143e; stroke-width:0px;"/><path d="M766.62,445.96l30.66-89.44-34.93-68.68-.16-54.25-1.01-62.07-161.23-109.31-42.6.4,3.11,59.15,73.4,49.76h-70.79l-2.62-49.76-78.69-53.35-36.35.38,1.56,102.72h-32.15V0h-64.31l-84.05,92.5v18.65l104.96.05-.03,176.5-31,68.51,30.97,88.66h18l-15.71-88.64,43.27-65.77h2.29l27.56,154.42h17.51l.06-154.48h203.38l6.8,71.44-6.8,83.04h17.58l21.56-82.73,5.99-71.69h9.1l41.52,66.37-14.31,89.13h17.46ZM446.98,171.52h0s0,0,0,0h0Z" style="fill:#14143e; stroke-width:0px;"/></svg>