<svg width="52" height="16" viewBox="0 0 52 16" fill="none" xmlns="http://www.w3.org/2000/svg">
<g id="Frame" clip-path="url(#clip0_5872_13675)">
<path id="Vector" d="M5.0646 15.671C6.43839 15.7208 7.77836 15.2395 8.80509 14.3274C9.13808 14.0007 9.40125 13.61 9.5787 13.1789C9.75614 12.7478 9.84414 12.2854 9.83746 11.8194C9.84157 11.3849 9.75906 10.9539 9.59464 10.5515C9.43027 10.1491 9.18731 9.78337 8.87992 9.47558C8.15236 8.79195 7.23424 8.3443 6.24664 8.19167L4.39881 7.83342C3.65071 7.6841 3.20186 7.30341 3.20186 6.78093C3.20186 6.08671 3.87514 5.609 4.95238 5.609C5.55365 5.58573 6.13981 5.80031 6.58325 6.20616C6.83221 6.47691 6.9893 6.81907 7.03213 7.18401L9.69533 6.58685C9.61039 5.82973 9.26075 5.12672 8.70787 4.60132C7.69204 3.66486 6.34984 3.16131 4.96739 3.19801C3.679 3.15758 2.42209 3.59959 1.44383 4.4371C1.08711 4.7661 0.803078 5.1657 0.609861 5.61039C0.416645 6.05511 0.318497 6.5351 0.321682 7.01979C0.308372 7.4247 0.37778 7.82802 0.52568 8.20534C0.673583 8.58261 0.896886 8.92591 1.18199 9.21434C1.88324 9.8625 2.75066 10.3043 3.68812 10.4907L5.50601 10.9237C6.41868 11.1327 6.82265 11.4686 6.82265 12.0657C6.82265 12.8121 6.15685 13.2376 5.05712 13.2376C4.71794 13.2541 4.37895 13.201 4.06113 13.0816C3.74331 12.9622 3.45341 12.7791 3.20934 12.5434C2.91772 12.2504 2.74687 11.8588 2.73055 11.4462L0 12.0433C0.083565 12.8448 0.449387 13.5907 1.03237 14.1483C1.5693 14.6527 2.20208 15.0447 2.89334 15.3011C3.5846 15.5575 4.32035 15.6731 5.05712 15.6411L5.0646 15.671ZM25.2558 15.6411C26.0037 15.6619 26.7484 15.5347 27.4468 15.2669C28.1453 14.9992 28.7838 14.5962 29.3254 14.0811C30.0182 13.424 30.5175 12.5902 30.7692 11.6701L27.9639 10.737C27.8329 11.2128 27.5742 11.6438 27.2158 11.9836C26.6886 12.4789 25.9871 12.7471 25.2632 12.73C24.8687 12.7343 24.4772 12.6606 24.1113 12.5133C23.7454 12.366 23.4123 12.1479 23.1312 11.8716C22.5419 11.1979 22.234 10.3243 22.2709 9.43081C22.2302 8.52601 22.5472 7.64151 23.1536 6.96754C23.7195 6.42322 24.4773 6.12291 25.2632 6.13153C25.6131 6.12058 25.9614 6.18115 26.2869 6.30952C26.6124 6.43788 26.9081 6.63132 27.1559 6.87795C27.5058 7.23333 27.7627 7.66914 27.904 8.1469L30.7543 7.19149C30.5159 6.30229 30.0552 5.48812 29.4152 4.82525C28.8561 4.29555 28.1973 3.88166 27.477 3.60748C26.7566 3.33331 25.989 3.20428 25.2184 3.22787C24.4171 3.21838 23.6219 3.36716 22.8785 3.66565C22.1351 3.96414 21.4582 4.40644 20.8869 4.96707C19.7488 6.18457 19.1196 7.78973 19.128 9.45458C19.1363 11.1195 19.7815 12.7183 20.9317 13.9243C22.0909 15.0497 23.646 15.6768 25.2632 15.671L25.2558 15.6411ZM15.5903 15.671C16.488 15.7075 17.3724 15.4449 18.104 14.9246V12.3718C17.6332 12.6935 17.0735 12.8606 16.503 12.8495C16.288 12.889 16.0665 12.8754 15.858 12.8099C15.6494 12.7443 15.4601 12.6289 15.3066 12.4735C15.1531 12.3181 15.0401 12.1276 14.9774 11.9186C14.9147 11.7096 14.9043 11.4885 14.947 11.2745V0.324219H11.7975V3.5563H18.1189V6.60924H11.7975V12.0359C11.7544 12.993 12.0903 13.9287 12.7326 14.641C13.1186 14.9949 13.5715 15.2684 14.0648 15.4452C14.5581 15.6221 15.0818 15.6989 15.6053 15.671" fill="#4F008C"/>
<path id="Vector_2" d="M33.8462 11.6554V3.55838H35.2088V4.19877C35.4248 3.93533 35.6986 3.72578 36.0088 3.58657C36.3189 3.44736 36.657 3.38227 36.9964 3.39643C38.5641 3.39643 39.6923 4.65515 39.6923 6.45857C39.6923 8.26198 38.6008 9.55753 36.9964 9.55753C36.6558 9.56991 36.317 9.50255 36.0067 9.36077C35.6965 9.21893 35.4233 9.00657 35.2088 8.74043V11.6848L33.8462 11.6554ZM35.2088 5.76663V7.23882C35.3369 7.54706 35.5525 7.81057 35.8287 7.99649C36.1049 8.18235 36.4295 8.28239 36.762 8.28407C37.6704 8.28407 38.2711 7.5995 38.2711 6.49537C38.2711 5.39124 37.6704 4.7214 36.762 4.7214C36.429 4.71655 36.1024 4.81312 35.8252 4.99838C35.548 5.18365 35.3331 5.44893 35.2088 5.7593" fill="#03BB86"/>
<path id="Vector_3" d="M40.618 7.45484C40.5969 7.01343 40.7638 6.58208 41.0823 6.25453C41.4009 5.92698 41.8453 5.72968 42.3192 5.70546L44.7628 5.41748V5.12952C44.7738 5.06096 44.7679 4.99095 44.7453 4.92487C44.7228 4.85879 44.6843 4.7984 44.6327 4.74835C44.5812 4.69829 44.518 4.6599 44.4481 4.63612C44.3781 4.61234 44.3032 4.60381 44.2292 4.61119H41.1361V3.39453H44.2292C45.4665 3.39453 46.1547 3.95606 46.1547 4.96394V9.07466H44.7628V8.35474C44.5285 8.64197 44.2217 8.87107 43.8697 9.02177C43.5177 9.17242 43.1313 9.24002 42.7445 9.21863C42.476 9.24488 42.2044 9.21823 41.9476 9.14043C41.6909 9.06263 41.4545 8.93545 41.254 8.76707C41.0534 8.59869 40.8931 8.39292 40.7836 8.16313C40.674 7.93334 40.6176 7.68468 40.618 7.43325V7.45484ZM43.1002 8.15317C43.4461 8.16006 43.7868 8.07413 44.0816 7.90565C44.3764 7.73713 44.6129 7.49317 44.7628 7.20286V6.48298L42.8991 6.72773C42.3811 6.79251 42.1259 7.04449 42.1259 7.44766C42.1259 7.85078 42.4893 8.16754 43.1312 8.16754" fill="#03BB86"/>
<path id="Vector_4" d="M47.3119 10.4001H48.2241C48.3654 10.4159 48.5069 10.3709 48.62 10.2742C48.7332 10.1775 48.8098 10.0362 48.8345 9.87864L49.0021 9.3572L47.0771 3.39453H48.3783L49.5721 7.54344L50.719 3.39453H52.0002L49.8875 10.2414C49.5993 11.186 49.2167 11.6848 48.2912 11.6848H47.3119V10.4001Z" fill="#03BB86"/>
</g>
<defs>
<clipPath id="clip0_5872_13675">
<rect width="52" height="15.3524" fill="white" transform="translate(0 0.324219)"/>
</clipPath>
</defs>
</svg>
