<svg width="39" height="12" viewBox="0 0 39 12" fill="none" xmlns="http://www.w3.org/2000/svg">
<g clip-path="url(#clip0_54_5894)">
<path d="M3.78171 11.4777C4.80751 11.5149 5.80806 11.1555 6.57471 10.4744C6.82336 10.2304 7.01987 9.93871 7.15236 9.61681C7.28486 9.29494 7.35057 8.94963 7.34558 8.60169C7.34865 8.27724 7.28704 7.95544 7.16427 7.65499C7.04154 7.35453 6.86012 7.08141 6.63059 6.85158C6.08733 6.34112 5.40177 6.00686 4.66433 5.89289L3.28457 5.62539C2.72597 5.5139 2.39081 5.22964 2.39081 4.83951C2.39081 4.32113 2.89355 3.96443 3.69792 3.96443C4.14688 3.94705 4.58457 4.10728 4.91568 4.41033C5.10157 4.61249 5.21887 4.86798 5.25086 5.14048L7.23945 4.69458C7.17603 4.12925 6.91496 3.60431 6.50212 3.212C5.7436 2.51275 4.74139 2.13675 3.70912 2.16416C2.74709 2.13397 1.80856 2.46401 1.0781 3.08938C0.811741 3.33504 0.599654 3.63342 0.45538 3.96547C0.311107 4.29754 0.23782 4.65594 0.240198 5.01786C0.23026 5.3202 0.282086 5.62136 0.392523 5.9031C0.502961 6.18481 0.6697 6.44115 0.882589 6.65651C1.40621 7.1405 2.0539 7.47039 2.7539 7.60958L4.11131 7.93285C4.7928 8.08894 5.09443 8.33973 5.09443 8.78563C5.09443 9.34298 4.59729 9.66066 3.77613 9.66066C3.52286 9.67298 3.26974 9.63334 3.03242 9.54418C2.79511 9.45502 2.57864 9.31828 2.39639 9.14233C2.17864 8.92352 2.05107 8.63113 2.03889 8.32302L0 8.76891C0.0623975 9.36735 0.335555 9.92429 0.770868 10.3407C1.17179 10.7173 1.64428 11.01 2.16044 11.2015C2.6766 11.393 3.22598 11.4793 3.77613 11.4554L3.78171 11.4777ZM18.8583 11.4554C19.4168 11.4709 19.9729 11.3759 20.4944 11.176C21.016 10.9761 21.4927 10.6751 21.8971 10.2905C22.4144 9.79982 22.7873 9.17724 22.9752 8.49024L20.8805 7.79351C20.7827 8.14874 20.5895 8.47056 20.3219 8.72432C19.9283 9.09418 19.4044 9.29442 18.8639 9.28166C18.5693 9.28485 18.277 9.22986 18.0037 9.11984C17.7305 9.00983 17.4818 8.84701 17.2719 8.64071C16.8319 8.1376 16.602 7.48529 16.6295 6.81815C16.5992 6.14254 16.8359 5.48209 17.2887 4.97884C17.7112 4.57241 18.2771 4.34816 18.8639 4.3546C19.1251 4.34643 19.3853 4.39165 19.6283 4.4875C19.8713 4.58335 20.0921 4.72779 20.2772 4.91195C20.5384 5.17731 20.7303 5.50273 20.8358 5.85947L22.9641 5.14606C22.7861 4.4821 22.442 3.87417 21.9641 3.37921C21.5467 2.98368 21.0548 2.67463 20.5169 2.46991C19.979 2.26518 19.4058 2.16884 18.8304 2.18645C18.2321 2.17936 17.6383 2.29046 17.0832 2.51334C16.5281 2.73622 16.0227 3.06648 15.5961 3.4851C14.7463 4.3942 14.2765 5.59277 14.2828 6.8359C14.289 8.07907 14.7708 9.2729 15.6296 10.1735C16.4951 11.0138 17.6563 11.482 18.8639 11.4777L18.8583 11.4554ZM11.6412 11.4777C12.3115 11.5049 12.9718 11.3088 13.5181 10.9203V9.01416C13.1667 9.25441 12.7487 9.37914 12.3227 9.37086C12.1622 9.40037 11.9968 9.39024 11.8411 9.34131C11.6853 9.29235 11.544 9.20612 11.4294 9.09011C11.3148 8.97407 11.2304 8.83185 11.1835 8.67576C11.1368 8.51971 11.129 8.3546 11.1608 8.19481V0.0183105H8.80914V2.43169H13.5293V4.7113H8.80914V8.76333C8.77697 9.47803 9.02776 10.1767 9.50738 10.7085C9.79556 10.9728 10.1337 11.177 10.5021 11.3091C10.8704 11.4412 11.2615 11.4985 11.6524 11.4777" fill="#4F008C"/>
<path d="M25.2729 8.47935V2.43338H26.2904V2.91156C26.4517 2.71485 26.6562 2.55838 26.8878 2.45443C27.1193 2.35048 27.3717 2.30188 27.6252 2.31245C28.7958 2.31245 29.6382 3.25233 29.6382 4.59894C29.6382 5.94554 28.8232 6.91291 27.6252 6.91291C27.3709 6.92215 27.1179 6.87186 26.8862 6.76599C26.6546 6.66008 26.4506 6.50152 26.2904 6.30279V8.50135L25.2729 8.47935ZM26.2904 4.08227V5.18155C26.3861 5.4117 26.5471 5.60847 26.7533 5.74729C26.9595 5.88607 27.2019 5.96077 27.4501 5.96203C28.1284 5.96203 28.577 5.45087 28.577 4.62641C28.577 3.80196 28.1284 3.3018 27.4501 3.3018C27.2015 3.29818 26.9577 3.37029 26.7507 3.50862C26.5437 3.64696 26.3832 3.84504 26.2904 4.07679" fill="#03BB86"/>
<path d="M30.3287 5.34285C30.313 5.01325 30.4376 4.69116 30.6754 4.44658C30.9133 4.202 31.2452 4.05468 31.599 4.03659L33.4236 3.82156V3.60654C33.4319 3.55535 33.4274 3.50307 33.4106 3.45373C33.3937 3.40439 33.365 3.3593 33.3265 3.32192C33.288 3.28455 33.2409 3.25588 33.1886 3.23813C33.1364 3.22037 33.0805 3.214 33.0252 3.21951H30.7156V2.31104H33.0252C33.949 2.31104 34.4629 2.73033 34.4629 3.4829V6.55236H33.4236V6.01479C33.2487 6.22927 33.0196 6.40034 32.7568 6.51287C32.4939 6.62536 32.2054 6.67583 31.9166 6.65986C31.7161 6.67946 31.5133 6.65956 31.3216 6.60147C31.1298 6.54337 30.9533 6.44841 30.8036 6.32268C30.6538 6.19695 30.5342 6.04331 30.4524 5.87172C30.3706 5.70014 30.3284 5.51447 30.3287 5.32672V5.34285ZM32.1822 5.86429C32.4404 5.86943 32.6948 5.80527 32.915 5.67947C33.1351 5.55363 33.3117 5.37147 33.4236 5.1547V4.61717L32.032 4.79992C31.6452 4.84829 31.4547 5.03644 31.4547 5.33748C31.4547 5.63849 31.726 5.87501 32.2053 5.87501" fill="#03BB86"/>
<path d="M35.3275 7.54203H36.0086C36.1142 7.55383 36.2198 7.52025 36.3043 7.44803C36.3888 7.37585 36.446 7.27035 36.4644 7.15268L36.5896 6.76333L35.1522 2.31104H36.1238L37.0152 5.409L37.8716 2.31104H38.8282L37.2507 7.42355C37.0355 8.12889 36.7498 8.50135 36.0587 8.50135H35.3275V7.54203Z" fill="#03BB86"/>
</g>
<defs>
<clipPath id="clip0_54_5894">
<rect width="38.8281" height="11.4635" fill="white" transform="translate(0 0.0183105)"/>
</clipPath>
</defs>
</svg>
