<svg width="29" height="29" viewBox="0 0 29 29" fill="none" xmlns="http://www.w3.org/2000/svg">
<circle opacity="0.3" cx="14.5" cy="14.5" r="14.5" fill="#5AC28F"/>
<path d="M13.125 12.25C14.7819 12.25 16.125 10.9069 16.125 9.25C16.125 7.59315 14.7819 6.25 13.125 6.25C11.4681 6.25 10.125 7.59315 10.125 9.25C10.125 10.9069 11.4681 12.25 13.125 12.25Z" fill="#CEEDDD"/>
<path d="M20.25 19.75L18 17.5M18 17.5L20.25 15.25M18 17.5H22.5M17.625 6.46807C18.7244 6.91311 19.5 7.99098 19.5 9.25C19.5 10.509 18.7244 11.5869 17.625 12.0319M15 15.25H12C10.6022 15.25 9.90326 15.25 9.35195 15.4784C8.61687 15.7828 8.03284 16.3669 7.72836 17.1019C7.5 17.6533 7.5 18.3522 7.5 19.75M16.125 9.25C16.125 10.9069 14.7819 12.25 13.125 12.25C11.4681 12.25 10.125 10.9069 10.125 9.25C10.125 7.59315 11.4681 6.25 13.125 6.25C14.7819 6.25 16.125 7.59315 16.125 9.25Z" stroke="#5AC28F" stroke-linecap="round" stroke-linejoin="round"/>
</svg>
