<svg width="26" height="24" viewBox="0 0 26 24" fill="none" xmlns="http://www.w3.org/2000/svg">
<path d="M9.26805 9.53539L8.76805 8.66937M11.518 13.4325L11.018 12.5665M13.768 17.3296L13.268 16.4636M3.11113 8.47129L14.8891 1.67129C15.8591 1.11124 16.3441 0.83121 16.8236 0.80608C17.2454 0.783976 17.6634 0.895965 18.0176 1.126C18.4203 1.38751 18.7003 1.87253 19.2604 2.84257L19.9104 3.9684C18.2363 4.9349 17.6628 7.07547 18.6293 8.74949C19.5958 10.4235 21.7363 10.9971 23.4104 10.0306L24.0604 11.1564C24.6204 12.1265 24.9004 12.6115 24.9256 13.091C24.9477 13.5128 24.8357 13.9307 24.6056 14.2849C24.3441 14.6876 23.8591 14.9676 22.8891 15.5277L11.1111 22.3277C10.1411 22.8877 9.65607 23.1678 9.17657 23.1929C8.75479 23.215 8.33684 23.103 7.98262 22.873C7.57992 22.6115 7.2999 22.1265 6.73984 21.1564L6.08984 20.0306C7.76387 19.0641 8.33743 16.9235 7.37093 15.2495C6.40443 13.5755 4.26387 13.0019 2.58984 13.9684L1.93984 12.8426C1.37979 11.8725 1.09977 11.3875 1.07464 10.908C1.05253 10.4862 1.16452 10.0683 1.39455 9.71406C1.65607 9.31137 2.14109 9.03134 3.11113 8.47129Z" stroke="white" stroke-width="1.5" stroke-linecap="round" stroke-linejoin="round"/>
</svg>
