<svg width="19" height="20" viewBox="0 0 19 20" fill="none" xmlns="http://www.w3.org/2000/svg">
<path d="M9.4987 2.08301C5.13661 2.08301 1.58203 5.63759 1.58203 9.99967C1.58203 14.3618 5.13661 17.9163 9.4987 17.9163C13.8608 17.9163 17.4154 14.3618 17.4154 9.99967C17.4154 5.63759 13.8608 2.08301 9.4987 2.08301ZM13.2829 8.17884L8.79411 12.6676C8.68279 12.7788 8.53188 12.8412 8.37453 12.8412C8.21719 12.8412 8.06628 12.7788 7.95495 12.6676L5.71453 10.4272C5.60411 10.3154 5.54218 10.1647 5.54218 10.0076C5.54218 9.8505 5.60411 9.69974 5.71453 9.58801C5.94411 9.35842 6.32411 9.35842 6.5537 9.58801L8.37453 11.4088L12.4437 7.33967C12.6733 7.11009 13.0533 7.11009 13.2829 7.33967C13.5124 7.56926 13.5124 7.94134 13.2829 8.17884Z" fill="#5CB070"/>
</svg>
