<svg width="26" height="25" viewBox="0 0 26 25" fill="none" xmlns="http://www.w3.org/2000/svg">
<circle cx="12.7061" cy="12.5" r="11.5" stroke="#BDE7D2" stroke-width="2"/>
<path d="M12.6737 22.7009C18.2283 22.7009 22.7312 18.198 22.7312 12.6434C22.7312 7.08882 18.2283 2.58594 12.6737 2.58594C7.11909 2.58594 2.61621 7.08882 2.61621 12.6434C2.61621 18.198 7.11909 22.7009 12.6737 22.7009Z" fill="#5AC28F"/>
<path d="M12.6737 7.61467V13.6492L16.6967 15.6607" fill="#5AC28F"/>
<path d="M12.6737 7.61467V13.6492L16.6967 15.6607M22.7312 12.6434C22.7312 18.198 18.2283 22.7009 12.6737 22.7009C7.11909 22.7009 2.61621 18.198 2.61621 12.6434C2.61621 7.08882 7.11909 2.58594 12.6737 2.58594C18.2283 2.58594 22.7312 7.08882 22.7312 12.6434Z" stroke="white" stroke-width="2" stroke-linecap="round" stroke-linejoin="round"/>
</svg>
