<svg width="16" height="16" viewBox="0 0 16 16" fill="none" xmlns="http://www.w3.org/2000/svg">
<g id="Icon">
<path id="Icon_2" d="M10.4249 9.97434C10.6869 10.0617 10.97 9.92009 11.0573 9.65811C11.1447 9.39614 11.0031 9.11298 10.7411 9.02566L10.4249 9.97434ZM8.33301 8.75H7.83301C7.83301 8.96522 7.97072 9.15628 8.17489 9.22434L8.33301 8.75ZM8.83301 5.61391C8.83301 5.33777 8.60915 5.11391 8.33301 5.11391C8.05687 5.11391 7.83301 5.33777 7.83301 5.61391H8.83301ZM10.7411 9.02566L8.49112 8.27566L8.17489 9.22434L10.4249 9.97434L10.7411 9.02566ZM8.83301 8.75V5.61391H7.83301V8.75H8.83301ZM13.833 8C13.833 11.0376 11.3706 13.5 8.33301 13.5V14.5C11.9229 14.5 14.833 11.5899 14.833 8H13.833ZM8.33301 13.5C5.29544 13.5 2.83301 11.0376 2.83301 8H1.83301C1.83301 11.5899 4.74316 14.5 8.33301 14.5V13.5ZM2.83301 8C2.83301 4.96243 5.29544 2.5 8.33301 2.5V1.5C4.74316 1.5 1.83301 4.41015 1.83301 8H2.83301ZM8.33301 2.5C11.3706 2.5 13.833 4.96243 13.833 8H14.833C14.833 4.41015 11.9229 1.5 8.33301 1.5V2.5Z" fill="#9392A0"/>
</g>
</svg>
