<svg width="29" height="29" viewBox="0 0 29 29" fill="none" xmlns="http://www.w3.org/2000/svg">
<circle opacity="0.3" cx="14.5" cy="14.5" r="14.5" fill="#5AC28F"/>
<path d="M16.7481 16.6618C17.0101 16.7492 17.2933 16.6076 17.3806 16.3456C17.4679 16.0836 17.3263 15.8005 17.0644 15.7132L16.7481 16.6618ZM14.375 15.3438H13.875C13.875 15.559 14.0127 15.75 14.2169 15.8181L14.375 15.3438ZM14.875 11.8157C14.875 11.5395 14.6511 11.3157 14.375 11.3157C14.0989 11.3157 13.875 11.5395 13.875 11.8157H14.875ZM17.0644 15.7132L14.5331 14.8694L14.2169 15.8181L16.7481 16.6618L17.0644 15.7132ZM14.875 15.3438V11.8157H13.875V15.3438H14.875ZM20.625 14.5C20.625 17.9518 17.8268 20.75 14.375 20.75V21.75C18.3791 21.75 21.625 18.5041 21.625 14.5H20.625ZM14.375 20.75C10.9232 20.75 8.125 17.9518 8.125 14.5H7.125C7.125 18.5041 10.3709 21.75 14.375 21.75V20.75ZM8.125 14.5C8.125 11.0482 10.9232 8.25 14.375 8.25V7.25C10.3709 7.25 7.125 10.4959 7.125 14.5H8.125ZM14.375 8.25C17.8268 8.25 20.625 11.0482 20.625 14.5H21.625C21.625 10.4959 18.3791 7.25 14.375 7.25V8.25Z" fill="#37B268"/>
</svg>
