<svg width="18" height="18" viewBox="0 0 18 18" fill="none" xmlns="http://www.w3.org/2000/svg">
<g id="Time">
<path id="Icon" d="M11.7481 11.1618C12.0101 11.2492 12.2933 11.1076 12.3806 10.8456C12.4679 10.5836 12.3263 10.3005 12.0644 10.2132L11.7481 11.1618ZM9.375 9.84375H8.875C8.875 10.059 9.01271 10.25 9.21689 10.3181L9.375 9.84375ZM9.875 6.31565C9.875 6.03951 9.65114 5.81565 9.375 5.81565C9.09886 5.81565 8.875 6.03951 8.875 6.31565H9.875ZM12.0644 10.2132L9.53311 9.36941L9.21689 10.3181L11.7481 11.1618L12.0644 10.2132ZM9.875 9.84375V6.31565H8.875V9.84375H9.875ZM15.625 9C15.625 12.4518 12.8268 15.25 9.375 15.25V16.25C13.3791 16.25 16.625 13.0041 16.625 9H15.625ZM9.375 15.25C5.92322 15.25 3.125 12.4518 3.125 9H2.125C2.125 13.0041 5.37094 16.25 9.375 16.25V15.25ZM3.125 9C3.125 5.54822 5.92322 2.75 9.375 2.75V1.75C5.37094 1.75 2.125 4.99594 2.125 9H3.125ZM9.375 2.75C12.8268 2.75 15.625 5.54822 15.625 9H16.625C16.625 4.99594 13.3791 1.75 9.375 1.75V2.75Z" fill="#9392A0"/>
</g>
</svg>
