<svg width="29" height="29" viewBox="0 0 29 29" fill="none" xmlns="http://www.w3.org/2000/svg">
<circle opacity="0.3" cx="14.5" cy="14.5" r="14.5" fill="#5AC28F"/>
<path d="M13.8 11.5V10.875M13.8 14.3125V13.6875M13.8 17.125V16.5M10.92 9H19.08C19.7521 9 20.0881 9 20.3448 9.13624C20.5706 9.25608 20.7542 9.44731 20.8692 9.68251C21 9.9499 21 10.2999 21 11V11.8125C19.8402 11.8125 18.9 12.7919 18.9 14C18.9 15.2081 19.8402 16.1875 21 16.1875V17C21 17.7001 21 18.0501 20.8692 18.3175C20.7542 18.5527 20.5706 18.7439 20.3448 18.8638C20.0881 19 19.7521 19 19.08 19H10.92C10.2479 19 9.91191 19 9.65521 18.8638C9.42942 18.7439 9.24584 18.5527 9.13079 18.3175C9 18.0501 9 17.7001 9 17V16.1875C10.1598 16.1875 11.1 15.2081 11.1 14C11.1 12.7919 10.1598 11.8125 9 11.8125V11C9 10.2999 9 9.9499 9.13079 9.68251C9.24584 9.44731 9.42942 9.25608 9.65521 9.13624C9.91191 9 10.2479 9 10.92 9Z" stroke="#5AC28F" stroke-linecap="round" stroke-linejoin="round"/>
</svg>
