<svg width="18" height="18" viewBox="0 0 18 18" fill="none" xmlns="http://www.w3.org/2000/svg">
<g id="Travel &#38; Location">
<path id="Icon" d="M10.8 11.3551V11.2097M10.7997 9.10291V8.95753M10.7997 6.86032V6.71494M3.75885 2.59473H9.00081C9.03059 3.65602 9.90028 4.50723 10.9688 4.50723C12.0373 4.50723 12.907 3.65602 12.9367 2.59473H14.2412C15.8201 2.59473 17.1 3.87467 17.1 5.45355V12.5462C17.1 14.1251 15.8201 15.4051 14.2412 15.4051H12.9367C12.907 14.3438 12.0373 13.4926 10.9688 13.4926C9.90028 13.4926 9.03059 14.3438 9.00081 15.4051H3.75886C2.17997 15.4051 0.900034 14.1251 0.900034 12.5462L0.900024 5.45355C0.900024 3.87467 2.17996 2.59473 3.75885 2.59473Z" stroke="#070600" stroke-linecap="round" stroke-linejoin="round"/>
</g>
</svg>
