<svg width="37" height="37" viewBox="0 0 37 37" fill="none" xmlns="http://www.w3.org/2000/svg">
<mask id="mask0_254_9920" style="mask-type:luminance" maskUnits="userSpaceOnUse" x="0" y="0" width="37" height="37">
<path d="M0 3.8147e-06H37V37H0V3.8147e-06Z" fill="white"/>
</mask>
<g mask="url(#mask0_254_9920)">
<path d="M32.4414 15.742L35.0769 16.3064C35.882 16.4784 36.4579 17.1909 36.4579 18.014V23.5474C36.4579 24.7687 35.5654 25.8057 34.358 25.9885L33.6345 26.0977" fill="white"/>
<path d="M32.4414 15.742L35.0769 16.3064C35.882 16.4784 36.4579 17.1909 36.4579 18.014V23.5474C36.4579 24.7687 35.5654 25.8057 34.358 25.9885L33.6345 26.0977" stroke="#959595" stroke-width="1.08398" stroke-miterlimit="10" stroke-linecap="round" stroke-linejoin="round"/>
<path d="M5.9107 26.2197L4.94957 26.1106C4.07877 26.0116 3.42188 25.2752 3.42188 24.3986V17.0044L4.96619 10.5157C5.19527 9.55527 6.05307 8.87742 7.04021 8.87742H10.634H22.8324C23.3911 8.87742 23.9164 9.14553 24.2431 9.59936L27.9886 14.788L30.3307 15.2896" fill="white"/>
<path d="M5.9107 26.2197L4.94957 26.1106C4.07877 26.0116 3.42188 25.2752 3.42188 24.3986V17.0044L4.96619 10.5157C5.19527 9.55527 6.05307 8.87742 7.04021 8.87742H10.634H22.8324C23.3911 8.87742 23.9164 9.14553 24.2431 9.59936L27.9886 14.788L30.3307 15.2896" stroke="#959595" stroke-width="1.08398" stroke-miterlimit="10" stroke-linecap="round" stroke-linejoin="round"/>
<path d="M24.5101 26.4678H15.1055Z" fill="white"/>
<path d="M24.5101 26.4678H15.1055" stroke="#959595" stroke-width="1.08398" stroke-miterlimit="10" stroke-linecap="round" stroke-linejoin="round"/>
<path d="M24.7921 13.7677L22.8942 11.1385C22.7732 10.9704 22.5791 10.8712 22.3724 10.8712H19.6578C19.2666 10.8712 18.9494 11.1884 18.9494 11.5796V14.0797C18.9494 14.4709 19.2666 14.7881 19.6578 14.7881H24.2702C24.7952 14.7881 25.0994 14.1933 24.7921 13.7677ZM7.35267 11.6936L6.16412 13.8314C5.92543 14.2602 6.23588 14.7881 6.72649 14.7881H8.80348C9.19472 14.7881 9.51182 14.4709 9.51182 14.0797V11.5796C9.51182 11.1884 9.19472 10.8712 8.80348 10.8712H8.75065C8.16971 10.8712 7.63458 11.1857 7.35267 11.6936ZM11.0394 11.5796V14.0797C11.0394 14.4709 11.3566 14.7881 11.7478 14.7881H16.5167C16.9079 14.7881 17.2251 14.4709 17.2251 14.0797V11.5796C17.2251 11.1884 16.9079 10.8712 16.5167 10.8712H11.7478C11.3566 10.8712 11.0394 11.1884 11.0394 11.5796Z" fill="white" stroke="#959595" stroke-width="1.08398" stroke-miterlimit="10" stroke-linecap="round" stroke-linejoin="round"/>
<path d="M34.1819 21.209H36.4579V18.365H34.1819C33.8247 18.365 33.5352 18.6545 33.5352 19.0117V20.5623C33.5352 20.9194 33.8247 21.209 34.1819 21.209Z" fill="white" stroke="#959595" stroke-width="1.08398" stroke-miterlimit="10" stroke-linecap="round" stroke-linejoin="round"/>
<path d="M24.4288 24.3252H15.1875Z" fill="white"/>
<path d="M24.4288 24.3252H15.1875" stroke="#959595" stroke-width="1.08398" stroke-miterlimit="10" stroke-linecap="round" stroke-linejoin="round"/>
<path d="M23.5121 21.9707H16.1094Z" fill="white"/>
<path d="M23.5121 21.9707H16.1094" stroke="#959595" stroke-width="1.08398" stroke-miterlimit="10" stroke-linecap="round" stroke-linejoin="round"/>
<path d="M36.4572 22.6016H32.9141Z" fill="white"/>
<path d="M36.4572 22.6016H32.9141" stroke="#959595" stroke-width="1.08398" stroke-miterlimit="10" stroke-linecap="round" stroke-linejoin="round"/>
<path d="M6.70346 22.6016H3.42188Z" fill="white"/>
<path d="M6.70346 22.6016H3.42188" stroke="#959595" stroke-width="1.08398" stroke-miterlimit="10" stroke-linecap="round" stroke-linejoin="round"/>
<path d="M18.9492 16.4414H20.7367Z" fill="white"/>
<path d="M18.9492 16.4414H20.7367" stroke="#959595" stroke-width="1.08398" stroke-miterlimit="10" stroke-linecap="round" stroke-linejoin="round"/>
<path d="M11.1875 16.4414H12.9751Z" fill="white"/>
<path d="M11.1875 16.4414H12.9751" stroke="#959595" stroke-width="1.08398" stroke-miterlimit="10" stroke-linecap="round" stroke-linejoin="round"/>
<path d="M21.0856 7.09047H7.93226C7.43898 7.09047 7.03906 7.49039 7.03906 7.98368C7.03906 8.47704 7.43898 8.87695 7.93226 8.87695H21.0856C21.579 8.87695 21.9788 8.47704 21.9788 7.98368C21.9788 7.49039 21.579 7.09047 21.0856 7.09047Z" fill="white" stroke="#959595" stroke-width="1.08398" stroke-miterlimit="10" stroke-linecap="round" stroke-linejoin="round"/>
<path d="M33.7174 25.2224C33.7174 22.6339 31.619 20.5356 29.0306 20.5356C26.4421 20.5356 24.3438 22.6339 24.3438 25.2224C24.3438 27.8108 26.4421 29.9092 29.0306 29.9092C31.619 29.9092 33.7174 27.8108 33.7174 25.2224Z" fill="white" stroke="#959595" stroke-width="1.08398" stroke-miterlimit="10" stroke-linecap="round" stroke-linejoin="round"/>
<path d="M31.2427 25.2224C31.2427 24.0012 30.2527 23.0112 29.0315 23.0112C27.8103 23.0112 26.8203 24.0012 26.8203 25.2224C26.8203 26.4436 27.8103 27.4336 29.0315 27.4336C30.2527 27.4336 31.2427 26.4436 31.2427 25.2224Z" fill="white" stroke="#959595" stroke-width="1.08398" stroke-miterlimit="10" stroke-linecap="round" stroke-linejoin="round"/>
<path d="M8.204 29.2573C8.90281 29.6714 9.71797 29.9092 10.5895 29.9092C13.178 29.9092 15.2759 27.8106 15.2759 25.2228C15.2759 22.6342 13.178 20.5356 10.5895 20.5356C8.00094 20.5356 5.90234 22.6342 5.90234 25.2228C5.90234 26.1571 6.17623 27.0279 6.6474 27.7586" fill="white"/>
<path d="M8.204 29.2573C8.90281 29.6714 9.71797 29.9092 10.5895 29.9092C13.178 29.9092 15.2759 27.8106 15.2759 25.2228C15.2759 22.6342 13.178 20.5356 10.5895 20.5356C8.00094 20.5356 5.90234 22.6342 5.90234 25.2228C5.90234 26.1571 6.17623 27.0279 6.6474 27.7586" stroke="#959595" stroke-width="1.08398" stroke-miterlimit="10" stroke-linecap="round" stroke-linejoin="round"/>
<path d="M12.7974 25.2224C12.7974 24.0012 11.8074 23.0112 10.5862 23.0112C9.36497 23.0112 8.375 24.0012 8.375 25.2224C8.375 26.4436 9.36497 27.4336 10.5862 27.4336C11.8074 27.4336 12.7974 26.4436 12.7974 25.2224Z" fill="white" stroke="#959595" stroke-width="1.08398" stroke-miterlimit="10" stroke-linecap="round" stroke-linejoin="round"/>
<path d="M1.32589 13.1551H2.63737C3.06974 13.1551 3.4203 13.5057 3.4203 13.938V21.3119C3.4203 21.7442 3.06974 22.0947 2.63737 22.0947H1.32589C0.893529 22.0947 0.542969 21.7442 0.542969 21.3119V13.938C0.542969 13.5057 0.893529 13.1551 1.32589 13.1551Z" fill="white" stroke="#959595" stroke-width="1.08398" stroke-miterlimit="10" stroke-linecap="round" stroke-linejoin="round"/>
</g>
</svg>
