<svg width="39" height="18" viewBox="0 0 39 18" fill="none" xmlns="http://www.w3.org/2000/svg">
<path d="M32.9062 17.6875C33.6294 17.6875 34.3363 17.4731 34.9376 17.0713C35.5388 16.6696 36.0074 16.0985 36.2842 15.4304C36.5609 14.7623 36.6333 14.0272 36.4922 13.318C36.3512 12.6087 36.0029 11.9572 35.4916 11.4459C34.9803 10.9346 34.3288 10.5863 33.6195 10.4453C32.9103 10.3042 32.1752 10.3766 31.5071 10.6533C30.839 10.9301 30.2679 11.3987 29.8662 11.9999C29.4644 12.6012 29.25 13.3081 29.25 14.0313C29.251 15.0007 29.6365 15.9301 30.322 16.6155C31.0074 17.301 31.9368 17.6865 32.9062 17.6875ZM32.9062 11.5938C33.3883 11.5938 33.8596 11.7367 34.2605 12.0045C34.6613 12.2724 34.9737 12.6531 35.1582 13.0985C35.3427 13.5439 35.391 14.034 35.2969 14.5068C35.2029 14.9796 34.9707 15.4139 34.6298 15.7548C34.2889 16.0957 33.8546 16.3279 33.3818 16.4219C32.909 16.516 32.4189 16.4677 31.9735 16.2832C31.5281 16.0987 31.1474 15.7863 30.8795 15.3855C30.6117 14.9846 30.4687 14.5133 30.4687 14.0313C30.4687 13.3848 30.7256 12.7648 31.1827 12.3077C31.6398 11.8506 32.2598 11.5938 32.9062 11.5938Z" fill="#959595"/>
<path d="M32.9062 15.8594C33.2678 15.8594 33.6213 15.7522 33.9219 15.5513C34.2225 15.3504 34.4568 15.0649 34.5952 14.7308C34.7336 14.3968 34.7698 14.0292 34.6992 13.6746C34.6287 13.32 34.4546 12.9942 34.1989 12.7386C33.9433 12.4829 33.6175 12.3088 33.2629 12.2383C32.9083 12.1677 32.5407 12.2039 32.2067 12.3423C31.8726 12.4807 31.5871 12.715 31.3862 13.0156C31.1853 13.3162 31.0781 13.6697 31.0781 14.0313C31.0781 14.5161 31.2707 14.9811 31.6136 15.3239C31.9564 15.6668 32.4214 15.8594 32.9062 15.8594ZM32.9062 13.4219C33.0268 13.4219 33.1446 13.4576 33.2448 13.5246C33.345 13.5915 33.4231 13.6867 33.4692 13.7981C33.5154 13.9094 33.5274 14.0319 33.5039 14.1501C33.4804 14.2683 33.4224 14.3769 33.3371 14.4621C33.2519 14.5474 33.1433 14.6054 33.0251 14.6289C32.9069 14.6524 32.7844 14.6404 32.6731 14.5942C32.5617 14.5481 32.4665 14.47 32.3996 14.3698C32.3326 14.2696 32.2969 14.1518 32.2969 14.0313C32.2969 13.8696 32.3611 13.7146 32.4754 13.6004C32.5896 13.4861 32.7446 13.4219 32.9062 13.4219Z" fill="#959595"/>
<path d="M7.92187 17.6875C8.64501 17.6875 9.35191 17.4731 9.95318 17.0713C10.5544 16.6696 11.0231 16.0985 11.2998 15.4304C11.5765 14.7623 11.6489 14.0272 11.5079 13.318C11.3668 12.6087 11.0186 11.9572 10.5072 11.4459C9.9959 10.9346 9.34442 10.5863 8.63517 10.4453C7.92593 10.3042 7.19078 10.3766 6.52269 10.6533C5.85459 10.9301 5.28357 11.3987 4.88181 11.9999C4.48006 12.6012 4.26562 13.3081 4.26562 14.0313C4.26659 15.0007 4.65211 15.9301 5.33758 16.6155C6.02305 17.301 6.95247 17.6865 7.92187 17.6875ZM7.92187 11.5938C8.40396 11.5938 8.87523 11.7367 9.27608 12.0045C9.67692 12.2724 9.98934 12.6531 10.1738 13.0985C10.3583 13.5439 10.4066 14.034 10.3125 14.5068C10.2185 14.9796 9.98634 15.4139 9.64545 15.7548C9.30455 16.0957 8.87023 16.3279 8.39741 16.4219C7.92458 16.516 7.43448 16.4677 6.98908 16.2832C6.54369 16.0987 6.163 15.7863 5.89517 15.3855C5.62733 14.9846 5.48437 14.5133 5.48437 14.0313C5.48437 13.3848 5.74118 12.7648 6.1983 12.3077C6.65542 11.8506 7.27541 11.5938 7.92187 11.5938Z" fill="#959595"/>
<path d="M7.92187 15.8594C8.28344 15.8594 8.63689 15.7522 8.93753 15.5513C9.23816 15.3504 9.47247 15.0649 9.61084 14.7308C9.74921 14.3968 9.78541 14.0292 9.71487 13.6746C9.64433 13.32 9.47022 12.9942 9.21455 12.7386C8.95889 12.4829 8.63314 12.3088 8.27852 12.2383C7.9239 12.1677 7.55633 12.2039 7.22228 12.3423C6.88824 12.4807 6.60272 12.715 6.40184 13.0156C6.20097 13.3162 6.09375 13.6697 6.09375 14.0313C6.09375 14.5161 6.28636 14.9811 6.6292 15.3239C6.97204 15.6668 7.43703 15.8594 7.92187 15.8594ZM7.92187 13.4219C8.0424 13.4219 8.16021 13.4576 8.26042 13.5246C8.36064 13.5915 8.43874 13.6867 8.48486 13.7981C8.53098 13.9094 8.54305 14.0319 8.51954 14.1501C8.49603 14.2683 8.43799 14.3769 8.35277 14.4621C8.26755 14.5474 8.15897 14.6054 8.04076 14.6289C7.92255 14.6524 7.80003 14.6404 7.68868 14.5942C7.57733 14.5481 7.48216 14.47 7.4152 14.3698C7.34824 14.2696 7.3125 14.1518 7.3125 14.0313C7.3125 13.8696 7.3767 13.7146 7.49098 13.6004C7.60526 13.4861 7.76026 13.4219 7.92187 13.4219Z" fill="#959595"/>
<path d="M2.68978 14.6406H3.04688C3.20849 14.6406 3.36349 14.5764 3.47777 14.4621C3.59205 14.3479 3.65625 14.1929 3.65625 14.0312C3.65625 13.8588 3.72755 9.76562 7.92188 9.76562C12.1162 9.76562 12.1875 13.8588 12.1875 14.0312H13.4062C13.4062 12.1343 12.26 8.54688 7.92188 8.54688C4.02187 8.54688 2.7038 11.442 2.47528 13.406C2.12631 13.3541 1.80756 13.1787 1.57698 12.9116C1.34639 12.6446 1.21928 12.3037 1.21875 11.9508V10.6273C1.21815 10.4341 1.25593 10.2427 1.32989 10.0643C1.40385 9.88581 1.51251 9.72382 1.64958 9.58769C1.70624 9.53104 1.75118 9.46378 1.78181 9.38975C1.81245 9.31572 1.82819 9.23637 1.82812 9.15625V4.99239C2.21081 3.90587 3.24919 1.84375 4.26562 1.84375H7.92188V0.625H4.26562C2.06213 0.625 0.779389 4.28125 0.641061 4.69806C0.620223 4.76013 0.609524 4.82515 0.609375 4.89062V8.92164C0.213746 9.40207 -0.00177503 10.0055 0 10.6279V11.9515C0.000967666 12.6645 0.284684 13.348 0.788923 13.8521C1.29316 14.3563 1.97676 14.6398 2.68978 14.6406Z" fill="#959595"/>
<path d="M35.9531 14.6406H37.1719C37.6567 14.6406 38.1217 14.448 38.4646 14.1052C38.8074 13.7623 39 13.2973 39 12.8125V8.54688C39 8.38527 38.9357 8.2303 38.8215 8.11605C38.716 8.01062 36.2072 5.57191 30.1287 5.5C29.2147 4.53536 25.2105 0.625 20.1094 0.625H9.14062V1.84375H20.1094C25.2446 1.84375 29.3603 6.46464 29.4011 6.51095C29.4583 6.57622 29.5288 6.62852 29.6078 6.66436C29.6868 6.70019 29.7726 6.71874 29.8594 6.71875C34.6978 6.71875 37.1323 8.32019 37.7812 8.8278V12.8125C37.7812 12.9741 37.717 13.1291 37.6028 13.2434C37.4885 13.3577 37.3335 13.4219 37.1719 13.4219H35.9531V14.6406Z" fill="#959595"/>
<path d="M22.5469 13.4219H10.9688V14.6406H22.5469V13.4219Z" fill="#959595"/>
<path d="M24.9844 13.4219H23.7656V14.6406H24.9844V13.4219Z" fill="#959595"/>
<path d="M29.8594 13.4219H26.2031V14.6406H29.8594V13.4219Z" fill="#959595"/>
<path d="M2.4375 10.3746H5.48438V9.15586H2.58131L1.49114 8.60742L0.94636 9.6982L2.16511 10.3076C2.24946 10.3508 2.34273 10.3738 2.4375 10.3746Z" fill="#959595"/>
<path d="M36.5625 9.76555H38.3906V8.5468H36.9391L35.8891 6.44629L34.7984 6.99107L36.0171 9.42857C36.0677 9.52987 36.1456 9.61506 36.2419 9.67458C36.3382 9.7341 36.4493 9.76561 36.5625 9.76555Z" fill="#959595"/>
<path d="M37.1719 14.0312H38.3906C38.3906 12.1343 37.2444 8.54688 32.9062 8.54688C28.5681 8.54688 27.4219 12.1343 27.4219 14.0312H28.6406C28.6406 13.8588 28.7119 9.76562 32.9062 9.76562C37.1006 9.76562 37.1719 13.8588 37.1719 14.0312Z" fill="#959595"/>
<path d="M4.875 13.4219H3.04688V14.6406H4.875V13.4219Z" fill="#959595"/>
<path d="M18.2817 6.71875H27.4223C27.5395 6.71885 27.6542 6.68518 27.7527 6.62177C27.8512 6.55837 27.9293 6.46791 27.9777 6.36123C28.0262 6.25456 28.0428 6.13619 28.0257 6.0203C28.0086 5.90441 27.9584 5.79591 27.8812 5.7078C27.699 5.5 23.3956 0.625 20.1098 0.625V1.84375C21.9172 1.84375 24.4663 3.97656 26.0061 5.5H18.8911V1.23438H17.6723V6.10938C17.6723 6.27099 17.7365 6.42599 17.8508 6.54027C17.9651 6.65455 18.1201 6.71875 18.2817 6.71875Z" fill="#959595"/>
<path d="M9.14062 6.71903H18.2812V5.50028H9.95536C10.4849 3.75259 11.1254 1.95981 11.4008 1.66122L10.5379 0.800781C9.88711 1.45159 8.93405 4.6112 8.55441 5.93903C8.52789 6.02995 8.52293 6.1258 8.53991 6.21897C8.5569 6.31213 8.59537 6.40006 8.65227 6.47577C8.70917 6.55148 8.78293 6.61288 8.8677 6.65511C8.95247 6.69733 9.04592 6.71922 9.14062 6.71903Z" fill="#959595"/>
<path d="M9.14062 6.71916V5.50041C7.12298 5.50041 4.875 4.99829 4.875 4.28166V3.67229C4.89343 3.25569 5.03837 2.85459 5.29051 2.52244C5.54265 2.19029 5.89001 1.94285 6.28631 1.81309L5.90119 0.655273C5.26175 0.865606 4.70291 1.26833 4.30107 1.80837C3.89923 2.3484 3.67403 2.99939 3.65625 3.67229V4.28166C3.65625 6.60155 8.22656 6.71916 9.14062 6.71916Z" fill="#959595"/>
<path d="M1.21877 8.54688H2.43752C2.57336 8.54687 2.70531 8.50148 2.81241 8.4179C2.9195 8.33432 2.9956 8.21735 3.02861 8.08558L3.63799 5.64808C3.66049 5.55823 3.66222 5.46442 3.64304 5.3738C3.62386 5.28318 3.58427 5.19813 3.52728 5.1251C3.4703 5.05208 3.39741 4.99301 3.31417 4.95238C3.23093 4.91175 3.13952 4.89063 3.04689 4.89062H1.21877V6.10938H2.26628L1.9616 7.32812H1.21877V8.54688Z" fill="#959595"/>
<path d="M20.7188 7.32812H19.5V8.54688H20.7188V7.32812Z" fill="#959595"/>
<path d="M11.5781 7.32812H10.3594V8.54688H11.5781V7.32812Z" fill="#959595"/>
</svg>
