<svg width="35" height="34" viewBox="0 0 35 34" fill="none" xmlns="http://www.w3.org/2000/svg">
<mask id="mask0_252_9486" style="mask-type:luminance" maskUnits="userSpaceOnUse" x="0" y="0" width="35" height="34">
<path d="M0 3.8147e-06H35V34H0V3.8147e-06Z" fill="white"/>
</mask>
<g mask="url(#mask0_252_9486)">
<path d="M10.2039 21.6434C10.2039 23.0145 9.05974 24.126 7.64832 24.126C6.23697 24.126 5.09277 23.0145 5.09277 21.6434C5.09277 20.2724 6.23697 19.1609 7.64832 19.1609C9.05974 19.1609 10.2039 20.2724 10.2039 21.6434Z" stroke="#959595" stroke-width="1.5" stroke-miterlimit="10" stroke-linecap="round" stroke-linejoin="round"/>
<path d="M28.0349 21.6434C28.0349 23.0145 26.8908 24.126 25.4794 24.126C24.068 24.126 22.9238 23.0145 22.9238 21.6434C22.9238 20.2724 24.068 19.1609 25.4794 19.1609C26.8908 19.1609 28.0349 20.2724 28.0349 21.6434Z" stroke="#959595" stroke-width="1.5" stroke-miterlimit="10" stroke-linecap="round" stroke-linejoin="round"/>
<path d="M19.5762 21.6436H22.9234C22.9234 20.2723 24.0677 19.1613 25.4787 19.1613C26.8903 19.1613 28.0346 20.2723 28.0346 21.6436H34.3162V19.7828C34.3162 19.5172 34.2806 19.2529 34.2102 18.9966L33.6797 17.0589L33.5006 16.4047C33.2573 15.5142 32.4684 14.8648 31.5237 14.7777L25.6347 14.2347C25.3471 14.2081 25.0728 14.1047 24.8422 13.936L19.7789 10.231C19.463 9.99855 19.0768 9.87371 18.681 9.87371H10.5592C9.97545 9.87371 9.42652 10.1446 9.08336 10.6035L6.92922 13.3881C6.63404 13.7697 6.17132 13.9942 5.67995 13.9942H2.47984C1.82291 13.9942 1.27535 14.4803 1.21588 15.1158L0.688829 20.3021C0.621837 21.0226 1.20631 21.6436 1.95143 21.6436H5.09254C5.09254 20.2723 6.23688 19.1613 7.6485 19.1613C9.05943 19.1613 10.2038 20.2723 10.2038 21.6436H13.546" stroke="#959595" stroke-width="1.5" stroke-miterlimit="10" stroke-linecap="round" stroke-linejoin="round"/>
<path d="M21.0722 14.2533L18.6168 12.4566C18.5051 12.3749 18.3691 12.3307 18.2292 12.3307H11.4032C11.2007 12.3307 11.0099 12.4232 10.8882 12.5805L9.49851 14.3772C9.17948 14.7897 9.48244 15.3789 10.0135 15.3789H20.6847C21.303 15.3789 21.5662 14.6148 21.0722 14.2533Z" stroke="#959595" stroke-width="1.5" stroke-miterlimit="10" stroke-linecap="round" stroke-linejoin="round"/>
<path d="M1.06445 16.6105H3.1369C3.453 16.6105 3.70928 16.8594 3.70928 17.1665V18.1866C3.70928 18.4244 3.55355 18.636 3.32182 18.7128L0.756836 19.5635L1.06445 16.6105Z" stroke="#959595" stroke-width="1.5" stroke-miterlimit="10" stroke-linecap="round" stroke-linejoin="round"/>
<path d="M34.3167 19.7832L31.6811 19.2314C31.3718 19.1739 31.116 19.0289 30.9135 18.7963C30.3668 18.0766 30.8964 17.059 31.817 17.059H33.6801L34.2109 18.997C34.2812 19.2534 34.3167 19.5178 34.3167 19.7832Z" stroke="#959595" stroke-width="1.5" stroke-miterlimit="10" stroke-linecap="round" stroke-linejoin="round"/>
<path d="M14.6094 12.3309V15.1904" stroke="#959595" stroke-width="1.5" stroke-miterlimit="10" stroke-linecap="round" stroke-linejoin="round"/>
<path d="M14.6094 18.0205H16.0948" stroke="#959595" stroke-width="1.5" stroke-miterlimit="10" stroke-linecap="round" stroke-linejoin="round"/>
</g>
</svg>
