<svg width="34" height="34" viewBox="0 0 34 34" fill="none" xmlns="http://www.w3.org/2000/svg">
<g clip-path="url(#clip0_254_9911)">
<path d="M31.7188 16.2132L31.5679 16.192C31.0841 16.1241 30.6185 15.961 30.1982 15.7121C29.7778 15.4631 29.411 15.1333 29.1189 14.7417L24.4375 8.5C24.1894 8.17086 23.8684 7.90366 23.4997 7.71932C23.131 7.53498 22.7247 7.43852 22.3125 7.4375H2.65625C1.95203 7.43834 1.27689 7.71847 0.778929 8.21643C0.280969 8.71439 0.000843549 9.38953 0 10.0938L0 21.7812C0.000843549 22.4855 0.280969 23.1606 0.778929 23.6586C1.27689 24.1565 1.95203 24.4367 2.65625 24.4375H3.55141C3.85187 25.0731 4.32672 25.6103 4.92066 25.9865C5.5146 26.3627 6.20319 26.5624 6.90625 26.5624C7.60931 26.5624 8.2979 26.3627 8.89184 25.9865C9.48578 25.6103 9.96063 25.0731 10.2611 24.4375H23.7389C24.0394 25.0731 24.5142 25.6103 25.1082 25.9865C25.7021 26.3627 26.3907 26.5624 27.0938 26.5624C27.7968 26.5624 28.4854 26.3627 29.0793 25.9865C29.6733 25.6103 30.1481 25.0731 30.4486 24.4375H31.3438C32.048 24.4367 32.7231 24.1565 33.2211 23.6586C33.719 23.1606 33.9992 22.4855 34 21.7812V18.8429C33.9972 18.2042 33.7654 17.5877 33.3469 17.1052C32.9284 16.6227 32.3507 16.3062 31.7188 16.2132ZM32.9375 20.1875H32.4062C32.0767 20.1871 31.7554 20.0848 31.4863 19.8945C31.2173 19.7043 31.0136 19.4355 30.9033 19.125H32.9375V20.1875ZM1.0625 19.125C1.2034 19.125 1.33852 19.181 1.43815 19.2806C1.53778 19.3802 1.59375 19.5154 1.59375 19.6562V20.7188C1.59375 20.8596 1.53778 20.9948 1.43815 21.0944C1.33852 21.194 1.2034 21.25 1.0625 21.25V19.125ZM6.90625 25.5C6.38089 25.5 5.86733 25.3442 5.43052 25.0523C4.9937 24.7605 4.65324 24.3456 4.45219 23.8603C4.25115 23.3749 4.19855 22.8408 4.30104 22.3255C4.40353 21.8103 4.65651 21.337 5.028 20.9655C5.39948 20.594 5.87278 20.341 6.38804 20.2385C6.9033 20.136 7.43739 20.1887 7.92275 20.3897C8.40812 20.5907 8.82297 20.9312 9.11484 21.368C9.40671 21.8048 9.5625 22.3184 9.5625 22.8438C9.56166 23.548 9.28153 24.2231 8.78357 24.7211C8.28561 25.219 7.61047 25.4992 6.90625 25.5ZM27.0938 25.5C26.5684 25.5 26.0548 25.3442 25.618 25.0523C25.1812 24.7605 24.8407 24.3456 24.6397 23.8603C24.4387 23.3749 24.386 22.8408 24.4885 22.3255C24.591 21.8103 24.844 21.337 25.2155 20.9655C25.587 20.594 26.0603 20.341 26.5755 20.2385C27.0908 20.136 27.6249 20.1887 28.1103 20.3897C28.5956 20.5907 29.0105 20.9312 29.3023 21.368C29.5942 21.8048 29.75 22.3184 29.75 22.8438C29.7492 23.548 29.469 24.2231 28.9711 24.7211C28.4731 25.219 27.798 25.4992 27.0938 25.5ZM31.3438 23.375H30.77C30.8508 22.8454 30.8161 22.3045 30.6685 21.7895C30.5208 21.2745 30.2637 20.7975 29.9146 20.3911C29.5654 19.9847 29.1326 19.6586 28.6458 19.435C28.1589 19.2114 27.6295 19.0956 27.0938 19.0956C26.558 19.0956 26.0286 19.2114 25.5417 19.435C25.0549 19.6586 24.6221 19.9847 24.2729 20.3911C23.9238 20.7975 23.6667 21.2745 23.519 21.7895C23.3714 22.3045 23.3367 22.8454 23.4175 23.375H10.5825C10.6633 22.8454 10.6286 22.3045 10.481 21.7895C10.3333 21.2745 10.0762 20.7975 9.72706 20.3911C9.37794 19.9847 8.94514 19.6586 8.45828 19.435C7.97142 19.2114 7.442 19.0956 6.90625 19.0956C6.3705 19.0956 5.84108 19.2114 5.35422 19.435C4.86736 19.6586 4.43456 19.9847 4.08544 20.3911C3.73633 20.7975 3.47915 21.2745 3.33151 21.7895C3.18386 22.3045 3.14923 22.8454 3.23 23.375H2.65625C2.32606 23.374 2.00435 23.2703 1.7358 23.0782C1.46724 22.8861 1.26516 22.6151 1.15759 22.3029C1.56194 22.2788 1.94191 22.1015 2.22029 21.8073C2.49866 21.513 2.65454 21.1238 2.65625 20.7188V19.6562C2.65625 19.2336 2.48834 18.8282 2.18945 18.5293C1.89057 18.2304 1.48519 18.0625 1.0625 18.0625V10.0938C1.0625 9.67106 1.23041 9.26568 1.5293 8.9668C1.82818 8.66791 2.23356 8.5 2.65625 8.5H22.3125C22.5598 8.5007 22.8036 8.55861 23.0248 8.6692C23.246 8.7798 23.4386 8.94008 23.5875 9.1375L28.2689 15.3792C28.6445 15.8827 29.1162 16.3068 29.6567 16.6269C30.1973 16.947 30.796 17.1567 31.4181 17.2438L31.569 17.2651C31.8102 17.3007 32.04 17.3911 32.2408 17.5294C32.4417 17.6676 32.6082 17.85 32.7277 18.0625H30.2812C30.1404 18.0625 30.0052 18.1185 29.9056 18.2181C29.806 18.3177 29.75 18.4529 29.75 18.5938C29.7508 19.298 30.031 19.9731 30.5289 20.4711C31.0269 20.969 31.702 21.2492 32.4062 21.25H32.9375V21.7812C32.9375 22.2039 32.7696 22.6093 32.4707 22.9082C32.1718 23.2071 31.7664 23.375 31.3438 23.375Z" fill="#959595"/>
<path d="M24.7297 11.9C24.6878 11.8442 24.6354 11.7972 24.5754 11.7616C24.5153 11.7261 24.4489 11.7027 24.3798 11.6928C24.3108 11.683 24.2404 11.6868 24.1728 11.7041C24.1053 11.7214 24.0418 11.7519 23.9859 11.7938C23.9301 11.8356 23.8831 11.8881 23.8476 11.9481C23.812 12.0081 23.7886 12.0746 23.7788 12.1436C23.7689 12.2127 23.7727 12.283 23.7901 12.3506C23.8074 12.4182 23.8378 12.4817 23.8797 12.5375L25.3937 14.5562C25.4529 14.6352 25.489 14.729 25.4979 14.8273C25.5067 14.9256 25.488 15.0243 25.4439 15.1126C25.3998 15.2008 25.332 15.275 25.248 15.3269C25.1641 15.3788 25.0674 15.4062 24.9688 15.4062H19.6562C19.5154 15.4062 19.3802 15.3503 19.2806 15.2507C19.181 15.151 19.125 15.0159 19.125 14.875V10.625C19.125 10.4841 19.181 10.349 19.2806 10.2493C19.3802 10.1497 19.5154 10.0938 19.6562 10.0938H21.7812C21.8637 10.0938 21.9451 10.113 22.0188 10.1498C22.0926 10.1867 22.1568 10.2403 22.2062 10.3062L22.6844 10.9438C22.7689 11.0565 22.8948 11.131 23.0342 11.1509C23.1737 11.1708 23.3154 11.1345 23.4281 11.05C23.5408 10.9655 23.6154 10.8396 23.6353 10.7001C23.6552 10.5607 23.6189 10.419 23.5344 10.3062L23.0563 9.66875C22.9074 9.47124 22.7148 9.31089 22.4936 9.20029C22.2724 9.08968 22.0286 9.03182 21.7812 9.03125H19.6562C19.2336 9.03125 18.8282 9.19916 18.5293 9.49805C18.2304 9.79693 18.0625 10.2023 18.0625 10.625V14.875C18.0625 15.2977 18.2304 15.7031 18.5293 16.002C18.8282 16.3008 19.2336 16.4688 19.6562 16.4688H24.9688C25.2647 16.4688 25.5549 16.3863 25.8066 16.2307C26.0584 16.0751 26.2619 15.8525 26.3942 15.5877C26.5266 15.323 26.5826 15.0267 26.5561 14.7319C26.5295 14.4371 26.4213 14.1555 26.2438 13.9188L24.7297 11.9Z" fill="#959595"/>
<path d="M15.4062 9.03125H3.1875C2.76481 9.03125 2.35943 9.19916 2.06055 9.49805C1.76166 9.79693 1.59375 10.2023 1.59375 10.625V14.875C1.59375 15.2977 1.76166 15.7031 2.06055 16.002C2.35943 16.3008 2.76481 16.4688 3.1875 16.4688H15.4062C15.8289 16.4687 16.2343 16.3008 16.5332 16.002C16.8321 15.7031 17 15.2977 17 14.875V10.625C17 10.2023 16.8321 9.79693 16.5332 9.49805C16.2343 9.19916 15.8289 9.03125 15.4062 9.03125ZM2.65625 14.875V10.625C2.65625 10.4841 2.71222 10.349 2.81185 10.2493C2.91148 10.1497 3.0466 10.0938 3.1875 10.0938H6.375V15.4062H3.1875C3.0466 15.4062 2.91148 15.3503 2.81185 15.2507C2.71222 15.151 2.65625 15.0159 2.65625 14.875ZM7.4375 10.0938H11.1562V15.4062H7.4375V10.0938ZM15.9375 14.875C15.9375 15.0159 15.8815 15.151 15.7819 15.2507C15.6823 15.3503 15.5471 15.4062 15.4062 15.4062H12.2188V10.0938H15.4062C15.5471 10.0938 15.6823 10.1497 15.7819 10.2493C15.8815 10.349 15.9375 10.4841 15.9375 10.625V14.875Z" fill="#959595"/>
<path d="M27.0938 21.25C26.7785 21.25 26.4704 21.3435 26.2083 21.5186C25.9462 21.6937 25.7419 21.9426 25.6213 22.2338C25.5007 22.5251 25.4691 22.8455 25.5306 23.1547C25.5921 23.4638 25.7439 23.7478 25.9668 23.9707C26.1897 24.1936 26.4737 24.3454 26.7828 24.4069C27.092 24.4684 27.4124 24.4368 27.7037 24.3162C27.9949 24.1956 28.2438 23.9913 28.4189 23.7292C28.594 23.4671 28.6875 23.159 28.6875 22.8438C28.6875 22.4211 28.5196 22.0157 28.2207 21.7168C27.9218 21.4179 27.5164 21.25 27.0938 21.25ZM27.0938 23.375C26.9887 23.375 26.886 23.3438 26.7986 23.2855C26.7112 23.2271 26.6431 23.1441 26.6029 23.0471C26.5627 22.95 26.5522 22.8432 26.5727 22.7401C26.5932 22.6371 26.6438 22.5424 26.7181 22.4681C26.7924 22.3938 26.8871 22.3432 26.9901 22.3227C27.0932 22.3022 27.2 22.3127 27.2971 22.3529C27.3941 22.3931 27.4771 22.4612 27.5355 22.5486C27.5938 22.636 27.625 22.7387 27.625 22.8438C27.625 22.9846 27.569 23.1198 27.4694 23.2194C27.3698 23.319 27.2346 23.375 27.0938 23.375Z" fill="#959595"/>
<path d="M6.90625 21.25C6.59104 21.25 6.2829 21.3435 6.02081 21.5186C5.75872 21.6937 5.55444 21.9426 5.43382 22.2338C5.31319 22.5251 5.28163 22.8455 5.34312 23.1547C5.40462 23.4638 5.55641 23.7478 5.7793 23.9707C6.00219 24.1936 6.28617 24.3454 6.59533 24.4069C6.90448 24.4684 7.22493 24.4368 7.51615 24.3162C7.80737 24.1956 8.05628 23.9913 8.23141 23.7292C8.40653 23.4671 8.5 23.159 8.5 22.8438C8.5 22.4211 8.33209 22.0157 8.0332 21.7168C7.73432 21.4179 7.32894 21.25 6.90625 21.25ZM6.90625 23.375C6.80118 23.375 6.69847 23.3438 6.6111 23.2855C6.52374 23.2271 6.45565 23.1441 6.41544 23.0471C6.37523 22.95 6.36471 22.8432 6.38521 22.7401C6.40571 22.6371 6.4563 22.5424 6.5306 22.4681C6.6049 22.3938 6.69956 22.3432 6.80261 22.3227C6.90566 22.3022 7.01248 22.3127 7.10955 22.3529C7.20662 22.3931 7.28959 22.4612 7.34797 22.5486C7.40634 22.636 7.4375 22.7387 7.4375 22.8438C7.4375 22.9846 7.38153 23.1198 7.2819 23.2194C7.18227 23.319 7.04715 23.375 6.90625 23.375Z" fill="#959595"/>
<path d="M20.7188 17H19.6562C19.5154 17 19.3802 17.056 19.2806 17.1556C19.181 17.2552 19.125 17.3904 19.125 17.5312C19.125 17.6721 19.181 17.8073 19.2806 17.9069C19.3802 18.0065 19.5154 18.0625 19.6562 18.0625H20.7188C20.8596 18.0625 20.9948 18.0065 21.0944 17.9069C21.194 17.8073 21.25 17.6721 21.25 17.5312C21.25 17.3904 21.194 17.2552 21.0944 17.1556C20.9948 17.056 20.8596 17 20.7188 17Z" fill="#959595"/>
<path d="M15.4062 17C15.2654 17 15.1302 17.056 15.0306 17.1556C14.931 17.2552 14.875 17.3904 14.875 17.5312V18.0625C14.875 18.2034 14.931 18.3385 15.0306 18.4382C15.1302 18.5378 15.2654 18.5938 15.4062 18.5938C15.5471 18.5938 15.6823 18.5378 15.7819 18.4382C15.8815 18.3385 15.9375 18.2034 15.9375 18.0625V17.5312C15.9375 17.3904 15.8815 17.2552 15.7819 17.1556C15.6823 17.056 15.5471 17 15.4062 17Z" fill="#959595"/>
</g>
<defs>
<clipPath id="clip0_254_9911">
<rect width="34" height="34" fill="white"/>
</clipPath>
</defs>
</svg>
