<svg width="34" height="20" viewBox="0 0 34 20" fill="none" xmlns="http://www.w3.org/2000/svg">
<path d="M31.7188 9.21322L31.5679 9.19197C31.0841 9.12412 30.6185 8.96101 30.1982 8.71206C29.7778 8.46312 29.411 8.13329 29.1189 7.74166L24.4375 1.5C24.1894 1.17086 23.8684 0.903659 23.4997 0.719322C23.131 0.534985 22.7247 0.438525 22.3125 0.4375H2.65625C1.95203 0.438344 1.27689 0.718469 0.778929 1.21643C0.280969 1.71439 0.000843549 2.38953 0 3.09375L0 14.7812C0.000843549 15.4855 0.280969 16.1606 0.778929 16.6586C1.27689 17.1565 1.95203 17.4367 2.65625 17.4375H3.55141C3.85187 18.0731 4.32672 18.6103 4.92066 18.9865C5.5146 19.3627 6.20319 19.5624 6.90625 19.5624C7.60931 19.5624 8.2979 19.3627 8.89184 18.9865C9.48578 18.6103 9.96063 18.0731 10.2611 17.4375H23.7389C24.0394 18.0731 24.5142 18.6103 25.1082 18.9865C25.7021 19.3627 26.3907 19.5624 27.0938 19.5624C27.7968 19.5624 28.4854 19.3627 29.0793 18.9865C29.6733 18.6103 30.1481 18.0731 30.4486 17.4375H31.3438C32.048 17.4367 32.7231 17.1565 33.2211 16.6586C33.719 16.1606 33.9992 15.4855 34 14.7812V11.8429C33.9972 11.2042 33.7654 10.5877 33.3469 10.1052C32.9284 9.6227 32.3507 9.30624 31.7188 9.21322ZM32.9375 13.1875H32.4062C32.0767 13.1871 31.7554 13.0848 31.4863 12.8945C31.2173 12.7043 31.0136 12.4355 30.9033 12.125H32.9375V13.1875ZM1.0625 12.125C1.2034 12.125 1.33852 12.181 1.43815 12.2806C1.53778 12.3802 1.59375 12.5154 1.59375 12.6562V13.7188C1.59375 13.8596 1.53778 13.9948 1.43815 14.0944C1.33852 14.194 1.2034 14.25 1.0625 14.25V12.125ZM6.90625 18.5C6.38089 18.5 5.86733 18.3442 5.43052 18.0523C4.9937 17.7605 4.65324 17.3456 4.45219 16.8603C4.25115 16.3749 4.19855 15.8408 4.30104 15.3255C4.40353 14.8103 4.65651 14.337 5.028 13.9655C5.39948 13.594 5.87278 13.341 6.38804 13.2385C6.9033 13.136 7.43739 13.1887 7.92275 13.3897C8.40812 13.5907 8.82297 13.9312 9.11484 14.368C9.40671 14.8048 9.5625 15.3184 9.5625 15.8438C9.56166 16.548 9.28153 17.2231 8.78357 17.7211C8.28561 18.219 7.61047 18.4992 6.90625 18.5ZM27.0938 18.5C26.5684 18.5 26.0548 18.3442 25.618 18.0523C25.1812 17.7605 24.8407 17.3456 24.6397 16.8603C24.4387 16.3749 24.386 15.8408 24.4885 15.3255C24.591 14.8103 24.844 14.337 25.2155 13.9655C25.587 13.594 26.0603 13.341 26.5755 13.2385C27.0908 13.136 27.6249 13.1887 28.1103 13.3897C28.5956 13.5907 29.0105 13.9312 29.3023 14.368C29.5942 14.8048 29.75 15.3184 29.75 15.8438C29.7492 16.548 29.469 17.2231 28.9711 17.7211C28.4731 18.219 27.798 18.4992 27.0938 18.5ZM31.3438 16.375H30.77C30.8508 15.8454 30.8161 15.3045 30.6685 14.7895C30.5208 14.2745 30.2637 13.7975 29.9146 13.3911C29.5654 12.9847 29.1326 12.6586 28.6458 12.435C28.1589 12.2114 27.6295 12.0956 27.0938 12.0956C26.558 12.0956 26.0286 12.2114 25.5417 12.435C25.0549 12.6586 24.6221 12.9847 24.2729 13.3911C23.9238 13.7975 23.6667 14.2745 23.519 14.7895C23.3714 15.3045 23.3367 15.8454 23.4175 16.375H10.5825C10.6633 15.8454 10.6286 15.3045 10.481 14.7895C10.3333 14.2745 10.0762 13.7975 9.72706 13.3911C9.37794 12.9847 8.94514 12.6586 8.45828 12.435C7.97142 12.2114 7.442 12.0956 6.90625 12.0956C6.3705 12.0956 5.84108 12.2114 5.35422 12.435C4.86736 12.6586 4.43456 12.9847 4.08544 13.3911C3.73633 13.7975 3.47915 14.2745 3.33151 14.7895C3.18386 15.3045 3.14923 15.8454 3.23 16.375H2.65625C2.32606 16.374 2.00435 16.2703 1.7358 16.0782C1.46724 15.8861 1.26516 15.6151 1.15759 15.3029C1.56194 15.2788 1.94191 15.1015 2.22029 14.8073C2.49866 14.513 2.65454 14.1238 2.65625 13.7188V12.6562C2.65625 12.2336 2.48834 11.8282 2.18945 11.5293C1.89057 11.2304 1.48519 11.0625 1.0625 11.0625V3.09375C1.0625 2.67106 1.23041 2.26568 1.5293 1.9668C1.82818 1.66791 2.23356 1.5 2.65625 1.5H22.3125C22.5598 1.5007 22.8036 1.55861 23.0248 1.6692C23.246 1.7798 23.4386 1.94008 23.5875 2.1375L28.2689 8.37916C28.6445 8.88274 29.1162 9.30685 29.6567 9.62692C30.1973 9.94699 30.796 10.1567 31.4181 10.2438L31.569 10.2651C31.8102 10.3007 32.04 10.3911 32.2408 10.5294C32.4417 10.6676 32.6082 10.85 32.7277 11.0625H30.2812C30.1404 11.0625 30.0052 11.1185 29.9056 11.2181C29.806 11.3177 29.75 11.4529 29.75 11.5938C29.7508 12.298 30.031 12.9731 30.5289 13.4711C31.0269 13.969 31.702 14.2492 32.4062 14.25H32.9375V14.7812C32.9375 15.2039 32.7696 15.6093 32.4707 15.9082C32.1718 16.2071 31.7664 16.375 31.3438 16.375Z" fill="#CECECE"/>
<path d="M24.7297 4.9C24.6878 4.84419 24.6354 4.79717 24.5754 4.76162C24.5153 4.72608 24.4489 4.70271 24.3798 4.69284C24.3108 4.68297 24.2404 4.68681 24.1728 4.70412C24.1053 4.72144 24.0418 4.75189 23.9859 4.79375C23.9301 4.83561 23.8831 4.88805 23.8476 4.94808C23.812 5.00811 23.7886 5.07456 23.7788 5.14362C23.7689 5.21268 23.7727 5.28301 23.7901 5.3506C23.8074 5.41818 23.8378 5.48169 23.8797 5.5375L25.3937 7.55625C25.4529 7.63518 25.489 7.72903 25.4979 7.82729C25.5067 7.92555 25.488 8.02434 25.4439 8.11258C25.3998 8.20083 25.332 8.27504 25.248 8.32691C25.1641 8.37878 25.0674 8.40625 24.9688 8.40625H19.6562C19.5154 8.40625 19.3802 8.35028 19.2806 8.25065C19.181 8.15102 19.125 8.0159 19.125 7.875V3.625C19.125 3.4841 19.181 3.34898 19.2806 3.24935C19.3802 3.14972 19.5154 3.09375 19.6562 3.09375H21.7812C21.8637 3.09375 21.9451 3.11295 22.0188 3.14984C22.0926 3.18672 22.1568 3.24027 22.2062 3.30625L22.6844 3.94375C22.7689 4.05647 22.8948 4.13099 23.0342 4.15091C23.1737 4.17084 23.3154 4.13454 23.4281 4.05C23.5408 3.96546 23.6154 3.83961 23.6353 3.70013C23.6552 3.56065 23.6189 3.41897 23.5344 3.30625L23.0563 2.66875C22.9074 2.47124 22.7148 2.31089 22.4936 2.20029C22.2724 2.08968 22.0286 2.03182 21.7812 2.03125H19.6562C19.2336 2.03125 18.8282 2.19916 18.5293 2.49805C18.2304 2.79693 18.0625 3.20231 18.0625 3.625V7.875C18.0625 8.29769 18.2304 8.70307 18.5293 9.00195C18.8282 9.30084 19.2336 9.46875 19.6562 9.46875H24.9688C25.2647 9.46875 25.5549 9.38633 25.8066 9.23072C26.0584 9.07512 26.2619 8.85248 26.3942 8.58775C26.5266 8.32302 26.5826 8.02665 26.5561 7.73187C26.5295 7.43709 26.4213 7.15553 26.2438 6.91875L24.7297 4.9Z" fill="#CECECE"/>
<path d="M15.4062 2.03125H3.1875C2.76481 2.03125 2.35943 2.19916 2.06055 2.49805C1.76166 2.79693 1.59375 3.20231 1.59375 3.625V7.875C1.59375 8.29769 1.76166 8.70307 2.06055 9.00195C2.35943 9.30084 2.76481 9.46875 3.1875 9.46875H15.4062C15.8289 9.46875 16.2343 9.30084 16.5332 9.00195C16.8321 8.70307 17 8.29769 17 7.875V3.625C17 3.20231 16.8321 2.79693 16.5332 2.49805C16.2343 2.19916 15.8289 2.03125 15.4062 2.03125ZM2.65625 7.875V3.625C2.65625 3.4841 2.71222 3.34898 2.81185 3.24935C2.91148 3.14972 3.0466 3.09375 3.1875 3.09375H6.375V8.40625H3.1875C3.0466 8.40625 2.91148 8.35028 2.81185 8.25065C2.71222 8.15102 2.65625 8.0159 2.65625 7.875ZM7.4375 3.09375H11.1562V8.40625H7.4375V3.09375ZM15.9375 7.875C15.9375 8.0159 15.8815 8.15102 15.7819 8.25065C15.6823 8.35028 15.5471 8.40625 15.4062 8.40625H12.2188V3.09375H15.4062C15.5471 3.09375 15.6823 3.14972 15.7819 3.24935C15.8815 3.34898 15.9375 3.4841 15.9375 3.625V7.875Z" fill="#CECECE"/>
<path d="M27.0938 14.25C26.7785 14.25 26.4704 14.3435 26.2083 14.5186C25.9462 14.6937 25.7419 14.9426 25.6213 15.2338C25.5007 15.5251 25.4691 15.8455 25.5306 16.1547C25.5921 16.4638 25.7439 16.7478 25.9668 16.9707C26.1897 17.1936 26.4737 17.3454 26.7828 17.4069C27.092 17.4684 27.4124 17.4368 27.7037 17.3162C27.9949 17.1956 28.2438 16.9913 28.4189 16.7292C28.594 16.4671 28.6875 16.159 28.6875 15.8438C28.6875 15.4211 28.5196 15.0157 28.2207 14.7168C27.9218 14.4179 27.5164 14.25 27.0938 14.25ZM27.0938 16.375C26.9887 16.375 26.886 16.3438 26.7986 16.2855C26.7112 16.2271 26.6431 16.1441 26.6029 16.0471C26.5627 15.95 26.5522 15.8432 26.5727 15.7401C26.5932 15.6371 26.6438 15.5424 26.7181 15.4681C26.7924 15.3938 26.8871 15.3432 26.9901 15.3227C27.0932 15.3022 27.2 15.3127 27.2971 15.3529C27.3941 15.3931 27.4771 15.4612 27.5355 15.5486C27.5938 15.636 27.625 15.7387 27.625 15.8438C27.625 15.9846 27.569 16.1198 27.4694 16.2194C27.3698 16.319 27.2346 16.375 27.0938 16.375Z" fill="#CECECE"/>
<path d="M6.90625 14.25C6.59104 14.25 6.2829 14.3435 6.02081 14.5186C5.75872 14.6937 5.55444 14.9426 5.43382 15.2338C5.31319 15.5251 5.28163 15.8455 5.34312 16.1547C5.40462 16.4638 5.55641 16.7478 5.7793 16.9707C6.00219 17.1936 6.28617 17.3454 6.59533 17.4069C6.90448 17.4684 7.22493 17.4368 7.51615 17.3162C7.80737 17.1956 8.05628 16.9913 8.23141 16.7292C8.40653 16.4671 8.5 16.159 8.5 15.8438C8.5 15.4211 8.33209 15.0157 8.0332 14.7168C7.73432 14.4179 7.32894 14.25 6.90625 14.25ZM6.90625 16.375C6.80118 16.375 6.69847 16.3438 6.6111 16.2855C6.52374 16.2271 6.45565 16.1441 6.41544 16.0471C6.37523 15.95 6.36471 15.8432 6.38521 15.7401C6.40571 15.6371 6.4563 15.5424 6.5306 15.4681C6.6049 15.3938 6.69956 15.3432 6.80261 15.3227C6.90566 15.3022 7.01248 15.3127 7.10955 15.3529C7.20662 15.3931 7.28959 15.4612 7.34797 15.5486C7.40634 15.636 7.4375 15.7387 7.4375 15.8438C7.4375 15.9846 7.38153 16.1198 7.2819 16.2194C7.18227 16.319 7.04715 16.375 6.90625 16.375Z" fill="#CECECE"/>
<path d="M20.7188 10H19.6562C19.5154 10 19.3802 10.056 19.2806 10.1556C19.181 10.2552 19.125 10.3904 19.125 10.5312C19.125 10.6721 19.181 10.8073 19.2806 10.9069C19.3802 11.0065 19.5154 11.0625 19.6562 11.0625H20.7188C20.8596 11.0625 20.9948 11.0065 21.0944 10.9069C21.194 10.8073 21.25 10.6721 21.25 10.5312C21.25 10.3904 21.194 10.2552 21.0944 10.1556C20.9948 10.056 20.8596 10 20.7188 10Z" fill="#CECECE"/>
<path d="M15.4062 10C15.2654 10 15.1302 10.056 15.0306 10.1556C14.931 10.2552 14.875 10.3904 14.875 10.5312V11.0625C14.875 11.2034 14.931 11.3385 15.0306 11.4382C15.1302 11.5378 15.2654 11.5938 15.4062 11.5938C15.5471 11.5938 15.6823 11.5378 15.7819 11.4382C15.8815 11.3385 15.9375 11.2034 15.9375 11.0625V10.5312C15.9375 10.3904 15.8815 10.2552 15.7819 10.1556C15.6823 10.056 15.5471 10 15.4062 10Z" fill="#CECECE"/>
</svg>
