<svg width="16" height="16" viewBox="0 0 16 16" fill="none" xmlns="http://www.w3.org/2000/svg">
<path d="M11.9714 13.5695H13.5686V7.18064H8.77691V13.5695H10.3741V8.77786H11.9714V13.5695ZM0.790799 13.5695V1.59036C0.790799 1.37855 0.874938 1.17542 1.02471 1.02566C1.17447 0.875887 1.3776 0.791748 1.58941 0.791748H12.77C12.9818 0.791748 13.1849 0.875887 13.3347 1.02566C13.4844 1.17542 13.5686 1.37855 13.5686 1.59036V5.58341H15.1658V13.5695H15.9644V15.1667H-0.0078125V13.5695H0.790799ZM3.98524 7.18064V8.77786H5.58247V7.18064H3.98524ZM3.98524 10.3751V11.9723H5.58247V10.3751H3.98524ZM3.98524 3.98619V5.58341H5.58247V3.98619H3.98524Z" fill="#8B71AB"/>
</svg>
