<svg width="12" height="16" viewBox="0 0 12 16" fill="none" xmlns="http://www.w3.org/2000/svg">
<path d="M3.99998 12.3334H7.99998M2.39998 1.33337H9.59998C9.97335 1.33337 10.16 1.33337 10.3026 1.40604C10.4281 1.46995 10.5301 1.57194 10.594 1.69738C10.6666 1.83999 10.6666 2.02667 10.6666 2.40004V3.78305C10.6666 4.10917 10.6666 4.27223 10.6298 4.42568C10.5971 4.56173 10.5433 4.69179 10.4702 4.81109C10.3877 4.94564 10.2724 5.06094 10.0418 5.29155L8.08756 7.24579C7.82355 7.50981 7.69154 7.64181 7.64208 7.79403C7.59858 7.92793 7.59858 8.07216 7.64208 8.20605C7.69154 8.35827 7.82355 8.49028 8.08756 8.75429L10.0418 10.7085C10.2724 10.9391 10.3877 11.0544 10.4702 11.189C10.5433 11.3083 10.5971 11.4384 10.6298 11.5744C10.6666 11.7278 10.6666 11.8909 10.6666 12.217V13.6C10.6666 13.9734 10.6666 14.1601 10.594 14.3027C10.5301 14.4281 10.4281 14.5301 10.3026 14.594C10.16 14.6667 9.97335 14.6667 9.59998 14.6667H2.39998C2.02661 14.6667 1.83993 14.6667 1.69732 14.594C1.57188 14.5301 1.46989 14.4281 1.40598 14.3027C1.33331 14.1601 1.33331 13.9734 1.33331 13.6V12.217C1.33331 11.8909 1.33331 11.7278 1.37015 11.5744C1.40282 11.4384 1.45669 11.3083 1.52979 11.189C1.61225 11.0544 1.72755 10.9391 1.95815 10.7085L3.9124 8.75429C4.17641 8.49028 4.30842 8.35827 4.35787 8.20605C4.40138 8.07216 4.40138 7.92793 4.35787 7.79403C4.30842 7.64181 4.17641 7.5098 3.9124 7.24579L1.95815 5.29155C1.72755 5.06094 1.61225 4.94564 1.52979 4.81109C1.45669 4.69179 1.40282 4.56173 1.37015 4.42568C1.33331 4.27223 1.33331 4.10917 1.33331 3.78305V2.40004C1.33331 2.02667 1.33331 1.83999 1.40598 1.69738C1.46989 1.57194 1.57188 1.46995 1.69732 1.40604C1.83993 1.33337 2.02661 1.33337 2.39998 1.33337Z" stroke="#F3AE3D" stroke-linecap="round" stroke-linejoin="round"/>
</svg>
