<svg width="64" height="64" viewBox="0 0 64 64" fill="none" xmlns="http://www.w3.org/2000/svg">

<path d="M20.333 37.6667L22.0404 31.4559C20.7186 29.1716 20.1907 26.517 20.5387 23.9037C20.8867 21.2904 22.0911 18.8643 23.9652 17.0017C25.8392 15.1391 28.2782 13.9439 30.9041 13.6015C33.5299 13.2591 36.1959 13.7885 38.4887 15.1078C40.7815 16.427 42.573 18.4624 43.5855 20.8983C44.598 23.3342 44.7749 26.0345 44.0888 28.5807C43.4027 31.1269 41.8919 33.3766 39.7907 34.9811C37.6894 36.5856 35.1151 37.4552 32.4668 37.4552H32.4626C30.4538 37.4536 28.4771 36.9525 26.7123 35.9973L20.333 37.6667ZM27.0074 33.8328L27.3725 34.0485C29.4785 35.2894 31.9685 35.7187 34.3711 35.2552C36.7737 34.7917 38.9222 33.4676 40.4101 31.5334C41.898 29.5992 42.6219 27.1891 42.4449 24.7594C42.2678 22.3297 41.2021 20.0488 39.4494 18.3486C37.6968 16.6484 35.3787 15.6467 32.9341 15.5331C30.4894 15.4196 28.0878 16.2021 26.1837 17.7325C24.2796 19.263 23.0052 21.4351 22.6017 23.8379C22.1981 26.2407 22.6935 28.7073 23.994 30.771L24.2326 31.147L23.2208 34.8215L27.0057 33.8328H27.0074ZM35.5941 31.231C35.1994 31.2331 34.8067 31.1736 34.4305 31.0547C33.8484 30.8749 33.2762 30.6645 32.7164 30.4244C30.6582 29.4154 28.9047 27.8825 27.6339 25.9812L27.5841 25.9081C26.8732 25.0208 26.4445 23.9425 26.3531 22.8112C26.3423 22.3594 26.4248 21.9103 26.5955 21.4916C26.7662 21.0729 27.0215 20.6936 27.3455 20.3772L27.4045 20.3134C27.5047 20.1989 27.6277 20.1065 27.7658 20.042C27.9038 19.9776 28.0539 19.9425 28.2064 19.9391C28.3995 19.9391 28.6035 19.9391 28.7822 19.95H28.8775C29.063 19.95 29.2603 19.9894 29.4593 20.4628C29.5436 20.655 29.6557 20.937 29.7797 21.2366V21.245C30.0385 21.8728 30.332 22.5837 30.3825 22.6853C30.4306 22.7636 30.4581 22.8527 30.4625 22.9443C30.467 23.036 30.4481 23.1273 30.4078 23.2098L30.3665 23.2937C30.3012 23.4454 30.214 23.5868 30.1077 23.7134C30.0571 23.7721 30.0048 23.8351 29.9525 23.8989C29.8514 24.0223 29.7468 24.1507 29.6566 24.2346C29.5116 24.379 29.3472 24.5426 29.5242 24.8456C29.9753 25.6155 30.5391 26.3142 31.197 26.9187C31.8528 27.5057 32.6037 27.9779 33.4179 28.3152C33.5022 28.3513 33.5663 28.379 33.6152 28.4034C33.7153 28.4603 33.8272 28.4934 33.9423 28.4999C34.0055 28.4979 34.0674 28.4817 34.1234 28.4527C34.1795 28.4236 34.2282 28.3824 34.2661 28.332C34.4044 28.1742 35.0089 27.4709 35.218 27.157C35.2515 27.0913 35.302 27.0357 35.3642 26.9959C35.4264 26.9561 35.4982 26.9335 35.5722 26.9304C35.6834 26.938 35.7925 26.9641 35.8951 27.0076C36.1657 27.1067 37.6058 27.81 37.949 27.9812L38.1176 28.0651C38.2754 28.118 38.4169 28.2105 38.5282 28.3337C38.6114 28.8161 38.5504 29.3123 38.3529 29.7605C38.1323 30.1254 37.8379 30.4407 37.4884 30.6864C37.1389 30.932 36.7419 31.1026 36.3226 31.1873C36.0812 31.2207 35.8377 31.2361 35.5941 31.2335V31.231Z" fill="#FDFDFD"/>

<g filter="url(#filter0_d_252_9127)">
<rect x="12" y="6" width="40" height="40" rx="12" fill="url(#paint0_linear_252_9127)"/>
</g>


    <defs>
    <filter id="filter0_d_252_9127" x="0" y="0" width="64" height="64" filterUnits="userSpaceOnUse" color-interpolation-filters="sRGB">
        <feFlood flood-opacity="0" result="BackgroundImageFix"/>
        <feColorMatrix in="SourceAlpha" type="matrix" values="0 0 0 0 0 0 0 0 0 0 0 0 0 0 0 0 0 0 127 0" result="hardAlpha"/>
        <feOffset dy="6"/>
        <feGaussianBlur stdDeviation="6"/>
        <feColorMatrix type="matrix" values="0 0 0 0 0.239216 0 0 0 0 0.752941 0 0 0 0 0.309804 0 0 0 0.2 0"/>
        <feBlend mode="normal" in2="BackgroundImageFix" result="effect1_dropShadow_252_9127"/>
        <feBlend mode="normal" in="SourceGraphic" in2="effect1_dropShadow_252_9127" result="shape"/>
    </filter>
    <linearGradient id="paint0_linear_252_9127" x1="49.5" y1="11" x2="12" y2="46" gradientUnits="userSpaceOnUse">
        <stop stop-color="#5BD066"/>
        <stop offset="1" stop-color="#27B43E"/>
    </linearGradient>
</defs>

</svg>
