<svg width="64" height="64" viewBox="0 0 64 64" fill="none" xmlns="http://www.w3.org/2000/svg">

    <defs>
        <filter id="filter0_d_254_9580" x="0" y="0" width="64" height="64" filterUnits="userSpaceOnUse" color-interpolation-filters="sRGB">
            <feFlood flood-opacity="0" result="BackgroundImageFix"/>
            <feColorMatrix in="SourceAlpha" type="matrix" values="0 0 0 0 0 0 0 0 0 0 0 0 0 0 0 0 0 0 127 0" result="hardAlpha"/>
            <feOffset dy="6"/>
            <feGaussianBlur stdDeviation="6"/>
            <feColorMatrix type="matrix" values="0 0 0 0 0.239216 0 0 0 0 0.752941 0 0 0 0 0.309804 0 0 0 0.2 0"/>
            <feBlend mode="normal" in2="BackgroundImageFix" result="effect1_dropShadow_254_9580"/>
            <feBlend mode="normal" in="SourceGraphic" in2="effect1_dropShadow_254_9580" result="shape"/>
        </filter>
        <linearGradient id="paint0_linear_254_9580" x1="49.5" y1="11" x2="12" y2="46" gradientUnits="userSpaceOnUse">
            <stop stop-color="#5BD066"/>
            <stop offset="1" stop-color="#27B43E"/>
        </linearGradient>
    </defs>
    <g filter="url(#filter0_d_254_9580)">
<rect x="12" y="6" width="40" height="40" rx="12" fill="url(#paint0_linear_254_9580)"/>
</g>


    <path d="M20.332 37.6667L22.0394 31.4559C20.7176 29.1716 20.1898 26.517 20.5378 23.9037C20.8858 21.2904 22.0901 18.8643 23.9642 17.0017C25.8382 15.1391 28.2773 13.9439 30.9031 13.6015C33.529 13.2591 36.1949 13.7885 38.4877 15.1078C40.7805 16.427 42.5721 18.4624 43.5846 20.8983C44.5971 23.3342 44.774 26.0345 44.0879 28.5807C43.4018 31.1269 41.891 33.3766 39.7897 34.9811C37.6885 36.5856 35.1141 37.4552 32.4658 37.4552H32.4616C30.4528 37.4536 28.4762 36.9525 26.7113 35.9973L20.332 37.6667ZM27.0064 33.8328L27.3715 34.0485C29.4775 35.2894 31.9675 35.7187 34.3701 35.2552C36.7727 34.7917 38.9213 33.4676 40.4091 31.5334C41.897 29.5992 42.6209 27.1891 42.4439 24.7594C42.2668 22.3297 41.2011 20.0488 39.4485 18.3486C37.6958 16.6484 35.3778 15.6467 32.9331 15.5331C30.4884 15.4196 28.0868 16.2021 26.1827 17.7325C24.2786 19.263 23.0042 21.4351 22.6007 23.8379C22.1971 26.2407 22.6925 28.7073 23.993 30.771L24.2316 31.147L23.2198 34.8215L27.0047 33.8328H27.0064ZM35.5931 31.231C35.1984 31.2331 34.8058 31.1736 34.4295 31.0547C33.8474 30.8749 33.2752 30.6645 32.7154 30.4244C30.6572 29.4154 28.9038 27.8825 27.6329 25.9812L27.5831 25.9081C26.8722 25.0208 26.4436 23.9425 26.3521 22.8112C26.3413 22.3594 26.4238 21.9103 26.5945 21.4916C26.7652 21.0729 27.0205 20.6936 27.3445 20.3772L27.4036 20.3134C27.5037 20.1989 27.6267 20.1065 27.7648 20.042C27.9029 19.9776 28.0529 19.9425 28.2054 19.9391C28.3985 19.9391 28.6025 19.9391 28.7813 19.95H28.8765C29.062 19.95 29.2593 19.9894 29.4583 20.4628C29.5426 20.655 29.6548 20.937 29.7787 21.2366V21.245C30.0376 21.8728 30.331 22.5837 30.3816 22.6853C30.4296 22.7636 30.4571 22.8527 30.4616 22.9443C30.466 23.036 30.4472 23.1273 30.4069 23.2098L30.3655 23.2937C30.3003 23.4454 30.2131 23.5868 30.1067 23.7134C30.0561 23.7721 30.0038 23.8351 29.9516 23.8989C29.8504 24.0223 29.7458 24.1507 29.6556 24.2346C29.5106 24.379 29.3462 24.5426 29.5232 24.8456C29.9743 25.6155 30.5381 26.3142 31.1961 26.9187C31.8518 27.5057 32.6027 27.9779 33.4169 28.3152C33.5012 28.3513 33.5653 28.379 33.6142 28.4034C33.7143 28.4603 33.8263 28.4934 33.9414 28.4999C34.0045 28.4979 34.0664 28.4817 34.1224 28.4527C34.1785 28.4236 34.2273 28.3824 34.2651 28.332C34.4034 28.1742 35.0079 27.4709 35.217 27.157C35.2505 27.0913 35.301 27.0357 35.3632 26.9959C35.4255 26.9561 35.4972 26.9335 35.5712 26.9304C35.6824 26.938 35.7916 26.9641 35.8941 27.0076C36.1648 27.1067 37.6049 27.81 37.948 27.9812L38.1167 28.0651C38.2745 28.118 38.4159 28.2105 38.5273 28.3337C38.6104 28.8161 38.5494 29.3123 38.3519 29.7605C38.1313 30.1254 37.8369 30.4407 37.4874 30.6864C37.1379 30.932 36.7409 31.1026 36.3216 31.1873C36.0802 31.2207 35.8367 31.2361 35.5931 31.2335V31.231Z" fill="#FDFDFD"/>

</svg>
