<svg width="20" height="20" viewBox="0 0 20 20" fill="none" xmlns="http://www.w3.org/2000/svg">
<g id="ic:baseline-whatsapp">
<path id="Vector" d="M15.8747 4.09204C15.1106 3.32046 14.2005 2.70868 13.1976 2.29234C12.1947 1.876 11.1189 1.66344 10.033 1.66704C5.48301 1.66704 1.77467 5.37537 1.77467 9.92537C1.77467 11.3837 2.15801 12.8004 2.87467 14.0504L1.70801 18.3337L6.08301 17.1837C7.29134 17.842 8.64967 18.192 10.033 18.192C14.583 18.192 18.2913 14.4837 18.2913 9.9337C18.2913 7.72537 17.433 5.65037 15.8747 4.09204ZM10.033 16.792C8.79967 16.792 7.59134 16.4587 6.53301 15.8337L6.28301 15.6837L3.68301 16.367L4.37467 13.8337L4.20801 13.5754C3.52263 12.4813 3.15878 11.2164 3.15801 9.92537C3.15801 6.14204 6.24134 3.0587 10.0247 3.0587C11.858 3.0587 13.583 3.77537 14.8747 5.07537C15.5144 5.71192 16.0213 6.46916 16.366 7.30314C16.7108 8.13713 16.8865 9.03128 16.883 9.9337C16.8997 13.717 13.8163 16.792 10.033 16.792ZM13.7997 11.6587C13.5913 11.5587 12.5747 11.0587 12.3913 10.9837C12.1997 10.917 12.0663 10.8837 11.9247 11.0837C11.783 11.292 11.3913 11.7587 11.2747 11.892C11.158 12.0337 11.033 12.0504 10.8247 11.942C10.6163 11.842 9.94967 11.617 9.16634 10.917C8.54967 10.367 8.14134 9.69204 8.01634 9.4837C7.89967 9.27537 7.99967 9.16704 8.10801 9.0587C8.19967 8.96704 8.31634 8.81704 8.41634 8.70037C8.51634 8.5837 8.55801 8.49204 8.62467 8.3587C8.69134 8.21704 8.65801 8.10037 8.60801 8.00037C8.55801 7.90037 8.14134 6.8837 7.97467 6.46704C7.80801 6.06704 7.63301 6.11704 7.50801 6.1087H7.10801C6.96634 6.1087 6.74967 6.1587 6.55801 6.36704C6.37467 6.57537 5.84134 7.07537 5.84134 8.09204C5.84134 9.1087 6.58301 10.092 6.68301 10.2254C6.78301 10.367 8.14134 12.4504 10.208 13.342C10.6997 13.5587 11.083 13.6837 11.383 13.7754C11.8747 13.9337 12.3247 13.9087 12.683 13.8587C13.083 13.8004 13.908 13.3587 14.0747 12.8754C14.2497 12.392 14.2497 11.9837 14.1913 11.892C14.133 11.8004 14.008 11.7587 13.7997 11.6587Z" fill="#1EAB5B"/>
</g>
</svg>
