<svg width="21" height="20" viewBox="0 0 21 20" fill="none" xmlns="http://www.w3.org/2000/svg">
<g id="General">
<path id="Icon" d="M10.1997 17.5C14.3418 17.5 17.6997 14.1421 17.6997 10C17.6997 5.85786 14.3418 2.5 10.1997 2.5M10.1997 17.5C6.05757 17.5 2.69971 14.1421 2.69971 10C2.69971 5.85786 6.05757 2.5 10.1997 2.5M10.1997 17.5C8.38752 17.5 6.91846 14.1421 6.91846 10C6.91846 5.85786 8.38752 2.5 10.1997 2.5M10.1997 17.5C12.0119 17.5 13.481 14.1421 13.481 10C13.481 5.85786 12.0119 2.5 10.1997 2.5M4.10596 13.6453C5.47998 12.8585 7.76282 12.3437 10.3467 12.3437C13.0434 12.3437 15.4122 12.9045 16.7622 13.75M4.10596 6.35465C5.47998 7.14146 7.76282 7.65625 10.3467 7.65625C13.0434 7.65625 15.4122 7.0955 16.7622 6.25" stroke="white" stroke-width="1.25"/>
</g>
</svg>
